<svg width="72" height="89" viewBox="0 0 72 89" fill="none" xmlns="http://www.w3.org/2000/svg">
<g clip-path="url(#clip0_353_37852)">
<path d="M35.9994 71.9987C55.8812 71.9987 71.9987 55.8812 71.9987 35.9994C71.9987 16.1175 55.8812 0 35.9994 0C16.1175 0 0 16.1175 0 35.9994C0 55.8812 16.1175 71.9987 35.9994 71.9987Z" fill="#9AC331"/>
<path d="M59.999 48H35.999V72H59.999V48Z" fill="#14133B"/>
<path d="M39.4837 55.6636C39.623 55.6675 39.7961 55.674 39.9601 55.674C40.1241 55.674 40.279 55.6675 40.4365 55.6636V55.7651H40.3714C40.2829 55.7651 40.1983 55.7911 40.1983 55.8926C40.1983 55.9304 40.2204 55.9877 40.2465 56.0644L40.7918 57.5795H40.8009L41.4205 55.6206H41.5441L42.2119 57.5626H42.2197L42.6856 56.1985C42.7117 56.1282 42.7585 55.9838 42.7585 55.9031C42.7585 55.7963 42.6999 55.7651 42.5893 55.7651H42.5047V55.6636C42.6153 55.6675 42.7689 55.674 42.9043 55.674C43.0397 55.674 43.1711 55.6675 43.3 55.6636V55.7651H43.2349C43.0917 55.7651 43.0032 55.808 42.9407 55.9929L42.2079 58.1001H42.083L41.4153 56.1517H41.4075L40.7801 58.1001H40.6552L39.8703 56.0033C39.7961 55.808 39.6881 55.7651 39.5553 55.7651H39.4824V55.6636H39.4837Z" fill="white"/>
<path d="M44.4751 55.6206C45.2053 55.6206 45.843 56.1621 45.843 56.8597C45.843 57.4519 45.3445 58.1001 44.4646 58.1001C43.672 58.1001 43.1006 57.5522 43.1006 56.8871C43.1006 56.1373 43.7527 55.6206 44.4751 55.6206ZM44.4646 55.7612C43.9505 55.7612 43.4676 56.0501 43.4676 56.8298C43.4676 57.3738 43.8568 57.9726 44.4868 57.9726C45.1649 57.9726 45.4773 57.5144 45.4773 56.8975C45.4773 56.356 45.1063 55.7625 44.466 55.7625" fill="white"/>
<path d="M45.9131 57.9557H45.9782C46.1474 57.9557 46.2203 57.8984 46.2203 57.681V56.041C46.2203 55.8224 46.1474 55.7651 45.9782 55.7651H45.9131V55.6636C46.0406 55.6675 46.2177 55.674 46.383 55.674C46.6277 55.674 46.8047 55.6636 46.9661 55.6636C47.6143 55.6636 47.7327 56.1308 47.7327 56.2857C47.7327 56.7257 47.3956 56.861 47.2121 56.9144L47.7028 57.6602C47.9045 57.9622 47.9631 57.983 48.2612 57.9999V58.0702C48.1909 58.0702 48.1258 58.0741 48.0568 58.0741C47.7327 58.0741 47.583 58.0364 47.3891 57.7448L46.9596 57.1031C46.875 56.9782 46.8281 56.973 46.5444 56.9652V57.6003C46.5444 57.9192 46.6068 57.9557 46.7539 57.9557H46.8593V58.0572C46.6979 58.0546 46.5444 58.0468 46.383 58.0468C46.2216 58.0468 46.0419 58.0533 45.9131 58.0572V57.9557ZM46.5431 56.8142C46.6055 56.835 46.6979 56.8376 46.7917 56.8376C47.1223 56.8376 47.3943 56.6996 47.3943 56.3508C47.3943 56.2024 47.285 55.7924 46.7747 55.7924C46.6875 55.7924 46.6172 55.8002 46.5431 55.8067V56.8155V56.8142Z" fill="white"/>
<path d="M48.3812 57.9558H48.4463C48.6155 57.9558 48.6884 57.8986 48.6884 57.6812V56.0412C48.6884 55.8225 48.6142 55.7653 48.4463 55.7653H48.3812V55.665C48.5087 55.6676 48.6858 55.6755 48.8511 55.6755C49.0164 55.6755 49.166 55.6676 49.3379 55.665V55.7653H49.2532C49.0853 55.7653 49.0112 55.8225 49.0112 56.0412V57.6031C49.0112 57.8543 49.0697 57.9415 49.5214 57.9415C50.1227 57.9415 50.193 57.8439 50.2581 57.4612H50.3713L50.3492 58.0561C50.0264 58.0522 49.6112 58.0456 49.2884 58.0456C48.8602 58.0456 48.5074 58.0522 48.3799 58.0561V57.9545L48.3812 57.9558Z" fill="white"/>
<path d="M50.5156 57.9557H50.582C50.7499 57.9557 50.8241 57.8984 50.8241 57.681V56.041C50.8241 55.8224 50.7499 55.7651 50.582 55.7651H50.5156V55.6636C50.6445 55.6675 50.8202 55.674 50.9855 55.674C51.2797 55.674 51.5764 55.6636 51.8693 55.6636C52.8598 55.6636 53.2086 56.4029 53.2086 56.8363C53.2086 57.327 52.8559 58.0559 51.7339 58.0559C51.51 58.0559 51.2458 58.0455 50.9855 58.0455C50.8215 58.0455 50.6445 58.052 50.5156 58.0559V57.9544V57.9557ZM51.1469 57.6238C51.1469 57.8854 51.264 57.9296 51.6819 57.9296C52.3248 57.9296 52.8559 57.6745 52.8559 56.9248C52.8559 56.4341 52.5214 55.7781 51.6129 55.7781C51.4593 55.7781 51.3044 55.7911 51.1469 55.8054V57.6238Z" fill="white"/>
<path d="M40.2357 61.0213H40.3203C40.5182 61.0213 40.5546 60.9783 40.5546 60.7024V58.871H40.1355C39.7437 58.871 39.6956 59.0793 39.6735 59.3422H39.5498V58.7305C39.6591 58.7331 40.2396 58.7409 40.716 58.7409C41.156 58.7409 41.7573 58.7344 41.8823 58.7305V59.3422H41.7573C41.7352 59.0806 41.687 58.871 41.2952 58.871H40.8774V60.7024C40.8774 60.9783 40.9139 61.0213 41.1117 61.0213H41.1963V61.1228C41.057 61.1189 40.8996 61.1124 40.716 61.1124C40.5325 61.1124 40.375 61.1189 40.2357 61.1228V61.0213Z" fill="white"/>
<path d="M42.0801 61.0211H42.1465C42.3157 61.0211 42.3886 60.9638 42.3886 60.7452V59.1052C42.3886 58.8865 42.3157 58.8292 42.1465 58.8292H42.0801V58.729C42.2089 58.7316 42.3847 58.7381 42.5487 58.7381C42.7947 58.7381 42.9717 58.729 43.1331 58.729C43.7813 58.729 43.8984 59.195 43.8984 59.3499C43.8984 59.7898 43.5613 59.9252 43.3778 59.9785L43.8685 60.7243C44.0715 61.0276 44.1288 61.0094 44.4268 61.0263V61.0966C44.3761 61.1109 44.2511 61.1226 44.1808 61.1278C43.9114 61.1487 43.7474 61.1005 43.5535 60.8089L43.1253 60.1673C43.0407 60.0423 42.9925 60.0358 42.7101 60.0293V60.6645C42.7101 60.9834 42.7725 61.0198 42.9196 61.0198H43.0263V61.12C42.8649 61.1174 42.71 61.1096 42.5487 61.1096C42.3873 61.1096 42.2076 61.1161 42.0801 61.12V61.0198V61.0211ZM42.7113 59.8783C42.7738 59.8978 42.8662 59.9017 42.9613 59.9017C43.2906 59.9017 43.5626 59.7638 43.5626 59.4149C43.5626 59.2666 43.452 58.8566 42.943 58.8566C42.8558 58.8566 42.7855 58.8631 42.7113 58.8696V59.8783Z" fill="white"/>
<path d="M44.1826 61.0211H44.2269C44.4286 61.0211 44.5093 60.9378 44.6226 60.6579L45.4621 58.6353H45.5324L46.4747 60.6944C46.5632 60.8896 46.6765 61.0211 46.8457 61.0211H46.9225V61.1213C46.7832 61.1148 46.6153 61.1109 46.424 61.1109C46.2326 61.1109 46.0543 61.1148 45.9176 61.1213V61.0211H46.0087C46.1259 61.0211 46.1962 60.9846 46.1962 60.913C46.1962 60.8662 46.1597 60.7751 46.1454 60.7451L45.8773 60.1399H45.0221L44.8282 60.6709C44.8022 60.7373 44.7657 60.8388 44.7657 60.913C44.7657 60.9729 44.8022 61.0211 44.9167 61.0211H44.9974V61.1213C44.8699 61.1148 44.7189 61.1109 44.5458 61.1109C44.4065 61.1109 44.2711 61.1148 44.1826 61.1213V61.0211ZM45.4113 59.0921L45.0703 60.0123H45.8213L45.4113 59.0921Z" fill="white"/>
<path d="M46.1595 58.7288C46.3066 58.7314 46.4901 58.7393 46.6619 58.7393C46.8337 58.7393 47.0094 58.7327 47.1604 58.7288V58.8291H47.1084C46.9405 58.8291 46.8884 58.8967 46.8884 58.967C46.8884 59.0269 46.9105 59.092 46.9652 59.2156L47.6446 60.7476L48.367 59.1844C48.4113 59.0881 48.4438 58.9931 48.4438 58.9254C48.4438 58.8577 48.3813 58.8278 48.2967 58.8278H48.2277V58.7275C48.341 58.7301 48.4841 58.738 48.6156 58.738C48.7471 58.738 48.8759 58.7314 49.0035 58.7275V58.8278H48.9345C48.7991 58.8278 48.708 58.8707 48.5792 59.144L47.6303 61.1641H47.491L46.5552 59.1011C46.4602 58.8928 46.3938 58.8291 46.2285 58.8291H46.1582V58.7288H46.1595Z" fill="white"/>
<path d="M49.1113 61.0209H49.1777C49.3469 61.0209 49.4198 60.9637 49.4198 60.745V59.105C49.4198 58.8863 49.3469 58.8291 49.1777 58.8291H49.1113V58.7275C49.2285 58.7301 49.6463 58.738 50.0133 58.738C50.4468 58.738 50.6186 58.7314 50.875 58.7275C50.8828 58.9358 50.8893 59.118 50.9088 59.2989H50.806C50.7696 59.0633 50.7435 58.8551 50.094 58.8551H49.7426V59.8066H50.0615C50.5092 59.8066 50.5222 59.7363 50.5301 59.5371H50.6329C50.629 59.6139 50.6251 59.7193 50.6251 59.8664C50.6251 59.9979 50.629 60.1046 50.6329 60.1723H50.5301C50.5118 60.0044 50.5079 59.9341 50.094 59.9341H49.7426V60.7398C49.7426 60.9415 49.8233 60.9923 50.0589 60.9923H50.1578C50.7748 60.9923 50.9349 60.8843 50.9934 60.512H51.0963C51.0702 60.7203 51.0494 60.9155 51.0221 61.1199C50.8021 61.116 50.4103 61.1094 50.0133 61.1094C49.5591 61.1094 49.2285 61.116 49.1113 61.1199V61.0183V61.0209Z" fill="white"/>
<path d="M51.2607 61.0209H51.3271C51.495 61.0209 51.5692 60.9637 51.5692 60.745V59.105C51.5692 58.8863 51.495 58.8291 51.3271 58.8291H51.2607V58.7275C51.3896 58.7301 51.5653 58.738 51.7306 58.738C51.8959 58.738 52.0456 58.7314 52.2187 58.7275V58.8291H52.1341C51.9649 58.8291 51.892 58.8863 51.892 59.105V60.6669C51.892 60.9181 51.9506 61.0053 52.4022 61.0053C53.0036 61.0053 53.0739 60.9077 53.1389 60.525H53.2522L53.23 61.1199C52.9073 61.116 52.492 61.1094 52.1706 61.1094C51.741 61.1094 51.3896 61.116 51.2607 61.1199V61.0183V61.0209Z" fill="white"/>
<path d="M55.3575 59.8448C55.4565 59.8474 55.5411 59.8539 55.6842 59.8539C55.912 59.8539 56.037 59.8474 56.132 59.8448V59.945C55.8756 59.945 55.8456 59.9749 55.8118 60.217C55.8014 60.2977 55.7506 60.5229 55.6764 60.6648C55.9628 60.9902 56.0578 61.0201 56.378 61.0201V61.1216C56.2999 61.1177 56.2023 61.1112 56.1099 61.1112C55.9446 61.1112 55.8391 61.1177 55.7324 61.1216L55.5085 60.9004C55.3979 61.0136 55.1493 61.1659 54.7458 61.1659C54.2759 61.1659 53.9688 60.8769 53.9688 60.5411C53.9688 60.2782 54.1588 60.0778 54.5076 59.8786C54.3319 59.7107 54.164 59.5519 54.164 59.3033C54.164 58.9311 54.492 58.6851 54.82 58.6851C55.1024 58.6851 55.4109 58.8569 55.4109 59.1653C55.4109 59.4244 55.2092 59.5714 54.8174 59.7966L55.5944 60.5737C55.6426 60.476 55.6712 60.3081 55.6712 60.1728C55.6712 59.9645 55.5567 59.945 55.3601 59.945V59.8448H55.3575ZM54.5727 59.9489C54.328 60.0973 54.2603 60.2652 54.2603 60.4461C54.2603 60.7012 54.5102 61.024 54.9345 61.024C55.1441 61.024 55.3562 60.9134 55.433 60.8119L54.5714 59.9476L54.5727 59.9489ZM54.7237 58.8139C54.5467 58.8139 54.3462 58.9714 54.3683 59.2031C54.3853 59.3775 54.7159 59.6938 54.7562 59.7315C54.9762 59.5845 55.1454 59.4725 55.1454 59.2513C55.1454 59.0729 55.0217 58.8152 54.725 58.8152" fill="white"/>
<path d="M40.2357 64.0852H40.3203C40.5182 64.0852 40.5546 64.0423 40.5546 63.7663V61.935H40.1355C39.7437 61.935 39.6956 62.1446 39.6735 62.4062H39.5498V61.7944C39.6591 61.7983 40.2396 61.8048 40.716 61.8048C41.156 61.8048 41.7573 61.7983 41.8823 61.7944V62.4062H41.7573C41.7352 62.1446 41.687 61.935 41.2952 61.935H40.8774V63.7663C40.8774 64.0423 40.9139 64.0852 41.1117 64.0852H41.1963V64.1868C41.057 64.1842 40.8996 64.1763 40.716 64.1763C40.5325 64.1763 40.375 64.1842 40.2357 64.1868V64.0852Z" fill="white"/>
<path d="M43.2937 61.75C44.0239 61.75 44.6617 62.2915 44.6617 62.9904C44.6617 63.5813 44.1632 64.2308 43.282 64.2308C42.4907 64.2308 41.918 63.6829 41.918 63.0177C41.918 62.268 42.5714 61.75 43.2937 61.75ZM43.2833 61.8919C42.7705 61.8919 42.2863 62.1808 42.2863 62.9592C42.2863 63.5045 42.6755 64.102 43.3055 64.102C43.9836 64.102 44.296 63.6451 44.296 63.0269C44.296 62.4854 43.925 61.8919 43.2833 61.8919Z" fill="white"/>
<path d="M45.6054 61.8947H45.5352C45.3959 61.9012 45.3113 61.9454 45.3074 62.2266C45.3035 62.5793 45.2931 62.9359 45.2931 63.2887C45.2931 63.5737 45.3438 63.7052 45.444 63.8327C45.5573 63.9837 45.7512 64.1008 46.0532 64.1008C46.3786 64.1008 46.6545 63.9225 46.7391 63.8119C46.8563 63.6609 46.9148 63.4527 46.9148 63.2145V62.8578C46.9148 62.4075 46.8719 62.0482 46.8419 61.9845C46.8016 61.9077 46.7612 61.8934 46.6688 61.8934H46.592V61.7918C46.6949 61.7957 46.8419 61.8022 46.9773 61.8022C47.1127 61.8022 47.2376 61.7944 47.3704 61.7918V61.8934H47.3144C47.183 61.8934 47.0906 61.9402 47.0906 62.2591V63.1194C47.0906 63.4787 46.9994 63.7546 46.8042 63.9525C46.6506 64.1074 46.3343 64.2284 46.0298 64.2284C45.7629 64.2284 45.5495 64.1646 45.3191 64.0058C45.0692 63.8379 44.9716 63.5594 44.9716 63.2093V62.1511C44.9716 61.9363 44.8713 61.8921 44.7373 61.8921H44.6709V61.7905C44.8219 61.7944 44.9794 61.8009 45.1408 61.8009C45.3022 61.8009 45.4519 61.7931 45.6067 61.7905V61.8921L45.6054 61.8947Z" fill="white"/>
<path d="M47.5859 64.0851H47.651C47.8202 64.0851 47.8931 64.0278 47.8931 63.8104V62.1704C47.8931 61.9518 47.8202 61.8945 47.651 61.8945H47.5859V61.793C47.7135 61.7969 47.8905 61.8034 48.0558 61.8034C48.3018 61.8034 48.4775 61.793 48.6389 61.793C49.2884 61.793 49.4056 62.2602 49.4056 62.4138C49.4056 62.8538 49.0684 62.9891 48.8836 63.0425L49.3756 63.7883C49.5774 64.0916 49.6359 64.1111 49.9327 64.128V64.1983C49.8637 64.1983 49.7973 64.2022 49.727 64.2022C49.4056 64.2022 49.2533 64.1645 49.0593 63.8729L48.6311 63.2312C48.5465 63.1076 48.4984 63.1011 48.2172 63.0933V63.7284C48.2172 64.0473 48.2797 64.0838 48.4268 64.0838H48.5322V64.1853C48.3721 64.1814 48.2172 64.1749 48.0558 64.1749C47.8944 64.1749 47.7148 64.1814 47.5859 64.1853V64.0838V64.0851ZM48.2172 62.9436C48.2797 62.9644 48.3721 62.967 48.4671 62.967C48.7964 62.967 49.0684 62.829 49.0684 62.4802C49.0684 62.3318 48.9578 61.9218 48.4476 61.9218C48.3604 61.9218 48.2901 61.9283 48.2172 61.9348V62.9436Z" fill="white"/>
<path d="M50.0244 64.0851H50.0908C50.26 64.0851 50.3329 64.0278 50.3329 63.8104V62.1704C50.3329 61.9518 50.2587 61.8945 50.0908 61.8945H50.0244V61.793C50.1533 61.7969 50.329 61.8034 50.4943 61.8034C50.6596 61.8034 50.8093 61.7969 50.9642 61.793V61.8945H50.8978C50.7299 61.8945 50.6557 61.9518 50.6557 62.1704V63.8104C50.6557 64.0291 50.7299 64.0851 50.8978 64.0851H50.9642V64.1866C50.8093 64.184 50.6557 64.1762 50.4943 64.1762C50.3329 64.1762 50.1533 64.184 50.0244 64.1866V64.0851Z" fill="white"/>
<path d="M52.7576 62.4062H52.6326C52.6287 62.2981 52.6001 61.879 52.0456 61.879C51.7423 61.879 51.5471 62.0573 51.5471 62.276C51.5471 62.4712 51.6564 62.6079 51.961 62.7355L52.2994 62.8773C52.5623 62.988 52.8448 63.1689 52.8448 63.506C52.8448 63.9251 52.5441 64.2323 51.9311 64.2323C51.8725 64.2323 51.5536 64.2284 51.2751 64.1477L51.2594 63.5958H51.3701C51.3987 63.9056 51.6812 64.1165 51.9935 64.1165C52.3059 64.1165 52.5806 63.942 52.5806 63.6596C52.5806 63.3641 52.3267 63.2496 52.1224 63.1598L51.7254 62.988C51.4469 62.8669 51.2529 62.686 51.2529 62.4101C51.2529 62.0638 51.5757 61.7515 52.0716 61.7515C52.302 61.7515 52.5298 61.8022 52.7576 61.8426V62.4075V62.4062Z" fill="white"/>
<path d="M53.1133 64.0851H53.1797C53.3593 64.0851 53.4218 64.0018 53.4322 63.5918C53.4426 63.1245 53.4686 62.6533 53.4686 62.1704C53.4686 61.9453 53.3944 61.8945 53.2005 61.8945H53.1341V61.793C53.2473 61.7969 53.3359 61.8034 53.4491 61.8034C53.5623 61.8034 53.699 61.7969 53.7419 61.793L54.7507 63.7649L55.6423 61.793C55.7594 61.7969 55.8739 61.8034 55.9794 61.8034C56.0848 61.8034 56.2033 61.7969 56.3165 61.793V61.8945H56.2683C56.0991 61.8945 55.9859 61.9309 55.9859 62.1704C55.9859 62.3422 56.0002 63.1844 56.008 63.692C56.0106 64.0278 56.051 64.0851 56.2644 64.0851H56.3373V64.1866C56.2163 64.184 56.0627 64.1762 55.8674 64.1762C55.6722 64.1762 55.516 64.184 55.3911 64.1866V64.0851H55.4457C55.6514 64.0851 55.6917 64.0252 55.6917 63.7297V62.0364H55.6852L54.7025 64.2178H54.6218L53.6131 62.2316H53.6053V63.61C53.6053 63.9757 53.6378 64.0864 53.8396 64.0864H53.8903V64.1879C53.7992 64.1853 53.6665 64.1775 53.5025 64.1775C53.3385 64.1775 53.22 64.1853 53.1094 64.1879V64.0864L53.1133 64.0851Z" fill="white"/>
<path d="M42.0876 65.4607H42.0291C41.9341 65.285 41.757 64.957 41.0646 64.957C40.3201 64.957 40.0819 65.5856 40.0819 66.0789C40.0819 66.8794 40.7014 67.1554 41.0828 67.1554C41.6594 67.1554 41.9223 66.856 42.0955 66.6582H42.1215V66.9133C41.9926 67.0252 41.6815 67.2959 41.1127 67.2959C40.2797 67.2959 39.7148 66.8156 39.7148 66.1401C39.7148 65.4646 40.2094 64.8164 41.0789 64.8164C41.4421 64.8164 41.7909 64.9205 41.9184 64.9583C41.9874 64.9791 42.0577 65.0012 42.102 65.0051L42.0876 65.4633V65.4607Z" fill="white"/>
<path d="M43.6541 64.8149C44.3843 64.8149 45.0221 65.3551 45.0221 66.0541C45.0221 66.6463 44.5223 67.2945 43.6424 67.2945C42.8497 67.2945 42.2783 66.7465 42.2783 66.0827C42.2783 65.333 42.9317 64.8149 43.6541 64.8149ZM43.6424 64.9568C43.1296 64.9568 42.6441 65.2445 42.6441 66.0241C42.6441 66.5695 43.0332 67.1669 43.6632 67.1669C44.3413 67.1669 44.6537 66.7101 44.6537 66.0918C44.6537 65.5503 44.2828 64.9568 43.6424 64.9568Z" fill="white"/>
<path d="M45.9648 64.9594H45.8945C45.7553 64.9659 45.6707 65.0102 45.6681 65.2913C45.6641 65.6441 45.6524 66.0007 45.6524 66.3534C45.6524 66.6385 45.7045 66.7699 45.8034 66.8975C45.9167 67.0485 46.1119 67.1669 46.4126 67.1669C46.7393 67.1669 47.0139 66.9886 47.0985 66.878C47.2156 66.727 47.2742 66.5187 47.2742 66.2806V65.9239C47.2742 65.4736 47.23 65.1143 47.2013 65.0505C47.161 64.9738 47.1206 64.9594 47.0282 64.9594H46.9514V64.8579C47.0542 64.8605 47.2013 64.8683 47.3367 64.8683C47.4721 64.8683 47.597 64.8605 47.7285 64.8579V64.9594H47.6738C47.5423 64.9594 47.4499 65.0063 47.4499 65.3252V66.1855C47.4499 66.5448 47.3588 66.8207 47.1649 67.0198C47.0113 67.1747 46.6963 67.2945 46.3917 67.2945C46.1236 67.2945 45.9115 67.2307 45.6798 67.0732C45.4299 66.9053 45.3309 66.6268 45.3309 66.2766V65.2185C45.3309 65.0037 45.232 64.9607 45.0967 64.9607H45.0303V64.8592C45.1813 64.8618 45.3388 64.8696 45.5001 64.8696C45.6615 64.8696 45.8125 64.8618 45.9661 64.8592V64.9607L45.9648 64.9594Z" fill="white"/>
<path d="M47.8685 67.15H47.927C48.121 67.15 48.1548 67.0771 48.1665 66.7244C48.1809 66.2806 48.1874 65.6415 48.1874 65.2523C48.1874 65.0102 48.1067 64.9594 47.9231 64.9594H47.8203V64.8579C47.9192 64.8605 48.0299 64.8683 48.1431 64.8683C48.2459 64.8683 48.3409 64.8605 48.4334 64.8579L50.1606 66.8038H50.1671L50.145 65.4267C50.1371 65.0401 50.0825 64.9594 49.8846 64.9594H49.8404V64.8579C49.9536 64.8605 50.1007 64.8683 50.2374 64.8683C50.374 64.8683 50.5016 64.8605 50.633 64.8579V64.9594H50.5745C50.4612 64.9594 50.3545 64.9959 50.3441 65.3226L50.2777 67.2815H50.1684L48.3501 65.238H48.3423C48.3423 65.7586 48.3501 66.2753 48.3644 66.7973C48.3722 67.0732 48.4308 67.15 48.6026 67.15H48.6755V67.2515C48.5544 67.2489 48.4073 67.2411 48.272 67.2411C48.1366 67.2411 47.9817 67.2489 47.8685 67.2515V67.15Z" fill="white"/>
<path d="M53.0242 65.4607H52.9656C52.8706 65.285 52.6949 64.957 52.0011 64.957C51.2566 64.957 51.0184 65.5856 51.0184 66.0789C51.0184 66.8794 51.638 67.1554 52.0193 67.1554C52.5959 67.1554 52.8589 66.856 53.032 66.6582H53.058V66.9133C52.9305 67.0252 52.6181 67.2959 52.0493 67.2959C51.2176 67.2959 50.6514 66.8156 50.6514 66.1401C50.6514 65.4646 51.1473 64.8164 52.0154 64.8164C52.3786 64.8164 52.7274 64.9205 52.855 64.9583C52.9252 64.9791 52.9942 65.0012 53.0385 65.0051L53.0229 65.4633L53.0242 65.4607Z" fill="white"/>
<path d="M53.2783 67.1502H53.3447C53.5126 67.1502 53.5868 67.0929 53.5868 66.8755V65.2368C53.5868 65.0182 53.5126 64.9609 53.3447 64.9609H53.2783V64.8594C53.4072 64.862 53.5829 64.8698 53.7482 64.8698C53.9135 64.8698 54.0632 64.862 54.2168 64.8594V64.9609H54.1517C53.9825 64.9609 53.9096 65.0182 53.9096 65.2368V66.8755C53.9096 67.0942 53.9825 67.1502 54.1517 67.1502H54.2168V67.2517C54.0632 67.2491 53.9096 67.2413 53.7482 67.2413C53.5868 67.2413 53.4072 67.2491 53.2783 67.2517V67.1502Z" fill="white"/>
<path d="M54.5244 67.1502H54.5908C54.76 67.1502 54.8329 67.0929 54.8329 66.8755V65.2368C54.8329 65.0182 54.7587 64.9609 54.5908 64.9609H54.5244V64.8594C54.6533 64.862 54.829 64.8698 54.9943 64.8698C55.1596 64.8698 55.3106 64.862 55.4824 64.8594V64.9609H55.3978C55.2286 64.9609 55.1557 65.0182 55.1557 65.2368V66.7987C55.1557 67.0513 55.2143 67.1385 55.6659 67.1385C56.2672 67.1385 56.3375 67.0408 56.4039 66.6582H56.5171L56.495 67.253C56.1722 67.2504 55.7583 67.2426 55.4342 67.2426C55.0047 67.2426 54.6533 67.2504 54.5244 67.253V67.1515V67.1502Z" fill="white"/>
<path d="M56.3347 54.3012C56.405 54.1046 56.4466 53.8938 56.4466 53.6816C56.4466 53.4343 56.3959 53.1974 56.3047 52.9814C56.1681 52.6586 55.9403 52.3839 55.6526 52.19C55.365 51.9961 55.0175 51.8828 54.6465 51.8828C54.4135 51.8828 54.1897 51.9271 53.9853 52.0078C53.9528 52.0208 53.9202 52.0351 53.8877 52.0494V52.6117C53.9736 52.5518 54.066 52.4998 54.1649 52.462C54.3133 52.4034 54.476 52.3709 54.6465 52.3709C54.8287 52.3709 55.0006 52.4074 55.1567 52.4737C55.391 52.5727 55.5928 52.7393 55.7347 52.9488C55.8752 53.1584 55.9585 53.4096 55.9585 53.6816C55.9585 53.8274 55.9286 53.9875 55.8739 54.1372C55.8206 54.2868 55.7516 54.4079 55.6657 54.5302L55.6566 54.542L53.889 57.1725V58.0484L56.0561 54.8244C56.1681 54.6656 56.267 54.4925 56.3347 54.3012Z" fill="white"/>
<path d="M55.687 53.6829C55.687 54.2582 55.2211 54.7241 54.6458 54.7241C54.0705 54.7241 53.6045 54.2569 53.6045 53.6829C53.6045 53.1089 54.0705 52.6416 54.6458 52.6416C55.2211 52.6416 55.687 53.1076 55.687 53.6829Z" fill="#9AC331"/>
<path d="M15.4282 36.5332H13.1569V39.7663C13.1569 40.5173 13.5617 40.8245 14.3114 40.8245C14.6381 40.8245 14.8307 40.805 15.0429 40.7087L14.793 42.8446C14.5236 42.98 14.042 43.0763 13.4836 43.0763C11.5208 43.0763 10.3468 42.0363 10.3468 40.3052V36.5332H8.88379V34.2229H10.3468V32.3564L13.1569 31.3359V34.2229H15.967L15.4282 36.5332Z" fill="#14133B"/>
<path d="M23.634 37.2255C23.4609 37.1292 23.0756 37.0134 22.7867 37.0134C21.8821 37.0134 21.0543 37.495 21.0543 38.8798V42.9408H18.2246V34.2215H21.0152V36.166H21.0347C21.3237 34.7994 22.3441 34.0679 23.5182 34.0679C23.7876 34.0679 24.1143 34.1069 24.3265 34.1837L23.634 37.2242V37.2255Z" fill="#14133B"/>
<path d="M31.6811 43.3275C31.1618 43.2116 30.5644 42.8082 30.334 42.173C29.9487 42.8849 29.1209 43.2312 28.0627 43.2312C26.5229 43.2312 25.1562 42.1535 25.1562 40.3442C25.1562 38.7472 26.4071 37.6695 28.1395 37.4951L29.8719 37.322V37.033C29.8719 36.5137 29.4489 36.1674 28.5052 36.1674C27.6579 36.1674 26.7156 36.4369 26.0804 36.8417L25.5806 34.7058C26.2925 34.2437 27.4861 33.9365 28.6406 33.9365C30.9509 33.9365 32.5857 34.9947 32.5857 37.0929V39.9421C32.5857 40.9625 32.971 41.5014 33.6439 41.7513L31.6811 43.3301V43.3275ZM29.8719 39.1312L28.8137 39.2275C28.0822 39.2848 27.7555 39.8054 27.7555 40.3247C27.7555 40.7868 28.1017 41.1721 28.6406 41.1721C29.3148 41.1721 29.8719 40.6527 29.8719 39.9017V39.1325V39.1312Z" fill="#14133B"/>
<path d="M38.7811 43.0193H36.6634L33.3145 34.2231H36.0478L37.2791 37.5526C37.4522 38.0147 37.6253 38.6694 37.7607 39.246H37.7997C37.9351 38.6876 38.1264 38.0147 38.2995 37.5526L39.5308 34.2231H42.1483L38.7798 43.0193H38.7811Z" fill="#14133B"/>
<path d="M50.9451 38.0923L49.6942 39.3627H45.4211C45.5565 40.0747 46.5184 40.8829 48.0009 40.8829C48.9055 40.8829 49.8296 40.6135 50.4062 40.2282L50.1368 42.6531C49.4821 42.9993 48.4812 43.231 47.3657 43.231C44.7092 43.231 42.5732 41.3828 42.5732 38.5349C42.5732 35.687 44.6128 33.9351 47.1158 33.9351C49.6187 33.9351 51.0232 35.6102 51.0232 37.4194C51.0232 37.6316 50.9841 37.9192 50.9464 38.0936L50.9451 38.0923ZM47.1145 36.0527C46.2867 36.0527 45.5942 36.6879 45.4211 37.4767H48.3666C48.3666 37.4194 48.3861 37.3608 48.3861 37.284C48.3861 36.6879 47.8668 36.0527 47.1158 36.0527H47.1145Z" fill="#14133B"/>
<path d="M55.5252 43.2884C53.7355 43.2116 52.542 42.2875 52.542 40.1894V29.2378H55.3326V39.8431C55.3326 40.5551 55.7374 40.9404 56.5066 40.9977L55.5252 43.2884Z" fill="#14133B"/>
<path d="M60.605 43.1351C59.4114 43.1351 58.5459 42.8852 57.8339 42.5194L57.584 40.0177C58.3545 40.5566 59.3541 40.9614 60.3173 40.9614C60.8367 40.9614 61.1647 40.692 61.1647 40.3653C61.1647 39.9995 60.8757 39.8459 60.3759 39.691C58.7007 39.2095 57.6998 38.3634 57.6998 36.8419C57.6998 35.129 59.086 34.0317 60.972 34.0317C62.0497 34.0317 63.1079 34.3207 63.5518 34.5511L63.0702 36.6297C62.6472 36.3993 61.9534 36.1481 61.261 36.1481C60.7989 36.1481 60.4917 36.3603 60.4917 36.7065C60.4917 37.0332 60.7221 37.2063 61.261 37.3417C63.2238 37.861 64.0321 38.8424 64.0321 40.3054C64.0321 41.7684 62.9543 43.1351 60.6063 43.1351H60.605Z" fill="#14133B"/>
<path d="M29.8715 49.7311C29.6425 49.7311 29.4238 49.6452 29.3184 49.5697V47.603H29.5357V48.4595C29.5943 48.397 29.7596 48.3332 29.921 48.3332C30.3089 48.3332 30.5952 48.6248 30.5952 49.0244C30.5952 49.4239 30.3102 49.7311 29.8715 49.7311ZM29.9015 48.5298C29.7166 48.5298 29.5891 48.6144 29.537 48.6703V49.4591C29.5956 49.4942 29.731 49.5411 29.852 49.5411C30.1735 49.5411 30.3726 49.3315 30.3752 49.0296C30.3752 48.738 30.1722 48.5298 29.9015 48.5298Z" fill="#14133B"/>
<path d="M31.4636 49.5752C31.2657 50.0555 31.0549 50.2729 30.7867 50.39L30.6396 50.2429C30.8896 50.1375 31.0692 49.9696 31.2254 49.6013L30.7164 48.3647H30.952L31.2163 49.0129C31.254 49.1067 31.3022 49.2303 31.3373 49.3422H31.3425C31.3842 49.2368 31.4401 49.104 31.4753 49.0155L31.7408 48.3647H31.9582L31.4636 49.5752Z" fill="#14133B"/>
<path d="M21.579 28.6049C20.1928 28.6049 18.8652 28.2014 18.1337 27.7576L17.8447 24.967C18.8456 25.6594 20.155 26.141 21.3863 26.141C22.4445 26.141 23.1188 25.6594 23.1188 24.9097C23.1188 24.1977 22.6762 23.7929 21.5399 23.4857C19.1346 22.831 18.0178 21.5034 18.0178 19.6356C18.0178 17.5961 19.5381 15.96 22.1946 15.96C23.6004 15.96 24.7744 16.3648 25.2742 16.6524L24.7353 19.0577C24.2355 18.7688 23.2528 18.4226 22.4068 18.4226C21.3668 18.4226 20.8865 18.8846 20.8865 19.4808C20.8865 20.0769 21.4059 20.4244 22.3495 20.6938C24.6976 21.3485 26.1033 22.5603 26.1033 24.7353C26.1033 27.1029 24.5635 28.6036 21.5803 28.6036L21.579 28.6049Z" fill="#14133B"/>
<path d="M34.1059 28.8171C33.5866 28.7012 32.9892 28.2977 32.7588 27.6626C32.3735 28.3745 31.5457 28.7208 30.4875 28.7208C28.9477 28.7208 27.5811 27.643 27.5811 25.8338C27.5811 24.2368 28.8319 23.1591 30.5643 22.9846L32.2967 22.8115V22.5226C32.2967 22.0033 31.8737 21.6557 30.93 21.6557C30.0827 21.6557 29.1404 21.9252 28.5052 22.33L28.0054 20.194C28.7173 19.732 29.9109 19.4248 31.0654 19.4248C33.3757 19.4248 35.0105 20.483 35.0105 22.5812V25.4303C35.0105 26.4508 35.3958 26.9896 36.0687 27.2395L34.1059 28.8184V28.8171ZM32.2967 24.6207L31.2385 24.7171C30.507 24.7743 30.1803 25.295 30.1803 25.8143C30.1803 26.2764 30.5266 26.6616 31.0654 26.6616C31.7396 26.6616 32.2967 26.1423 32.2967 25.3913V24.622V24.6207Z" fill="#14133B"/>
<path d="M43.4366 17.2487C43.1099 17.1147 42.6478 17.0183 42.3003 17.0183C41.2603 17.0183 40.7214 17.634 40.7214 18.8848V19.7126H43.2231L42.6647 22.0229H40.7201V28.432H37.9868V22.0229H36.6592V19.7126H37.9868V18.6922C37.9868 16.0356 39.6997 14.7275 41.8942 14.7275C42.7025 14.7275 43.5107 14.8239 43.9533 15.0165L43.434 17.2487H43.4366Z" fill="#14133B"/>
<path d="M52.0193 23.5821L50.7685 24.8524H46.4953C46.6307 25.5644 47.5926 26.3727 49.0751 26.3727C49.9797 26.3727 50.9038 26.1033 51.4804 25.718L51.211 28.1428C50.5563 28.4891 49.5554 28.7208 48.4399 28.7208C45.7834 28.7208 43.6475 26.8725 43.6475 24.0246C43.6475 21.1767 45.6871 19.4248 48.19 19.4248C50.693 19.4248 52.0974 21.0999 52.0974 22.9092C52.0974 23.1213 52.0583 23.409 52.0206 23.5834L52.0193 23.5821ZM48.1887 21.5425C47.3609 21.5425 46.6684 22.1777 46.4953 22.9664H49.4408C49.4408 22.9092 49.4604 22.8506 49.4604 22.7738C49.4604 22.1777 48.941 21.5425 48.19 21.5425H48.1887Z" fill="#14133B"/>
</g>
<path d="M6.972 86.12C6.172 86.12 5.508 86.008 4.98 85.784C4.452 85.552 4.052 85.252 3.78 84.884C3.508 84.516 3.364 84.124 3.348 83.708C3.348 83.644 3.372 83.588 3.42 83.54C3.476 83.484 3.54 83.456 3.612 83.456H5.124C5.236 83.456 5.32 83.476 5.376 83.516C5.44 83.556 5.496 83.608 5.544 83.672C5.608 83.792 5.696 83.908 5.808 84.02C5.928 84.132 6.08 84.224 6.264 84.296C6.456 84.36 6.692 84.392 6.972 84.392C7.436 84.392 7.784 84.32 8.016 84.176C8.256 84.032 8.376 83.836 8.376 83.588C8.376 83.412 8.312 83.268 8.184 83.156C8.056 83.036 7.848 82.932 7.56 82.844C7.28 82.748 6.904 82.652 6.432 82.556C5.824 82.428 5.304 82.264 4.872 82.064C4.448 81.856 4.124 81.588 3.9 81.26C3.676 80.924 3.564 80.508 3.564 80.012C3.564 79.524 3.7 79.088 3.972 78.704C4.252 78.32 4.64 78.02 5.136 77.804C5.632 77.588 6.22 77.48 6.9 77.48C7.452 77.48 7.936 77.552 8.352 77.696C8.776 77.84 9.132 78.032 9.42 78.272C9.708 78.512 9.924 78.768 10.068 79.04C10.22 79.304 10.3 79.564 10.308 79.82C10.308 79.884 10.284 79.944 10.236 80C10.188 80.048 10.128 80.072 10.056 80.072H8.472C8.384 80.072 8.308 80.056 8.244 80.024C8.18 79.992 8.124 79.94 8.076 79.868C8.028 79.692 7.9 79.54 7.692 79.412C7.492 79.276 7.228 79.208 6.9 79.208C6.548 79.208 6.272 79.272 6.072 79.4C5.88 79.52 5.784 79.708 5.784 79.964C5.784 80.124 5.836 80.264 5.94 80.384C6.052 80.504 6.232 80.608 6.48 80.696C6.736 80.784 7.084 80.876 7.524 80.972C8.252 81.108 8.84 81.28 9.288 81.488C9.736 81.688 10.064 81.952 10.272 82.28C10.48 82.6 10.584 83.004 10.584 83.492C10.584 84.036 10.428 84.508 10.116 84.908C9.812 85.3 9.388 85.6 8.844 85.808C8.3 86.016 7.676 86.12 6.972 86.12ZM11.9533 86C11.8653 86 11.7933 85.972 11.7373 85.916C11.6813 85.86 11.6533 85.788 11.6533 85.7V80.06C11.6533 79.972 11.6813 79.9 11.7373 79.844C11.7933 79.788 11.8653 79.76 11.9533 79.76H13.3693C13.4493 79.76 13.5173 79.788 13.5733 79.844C13.6373 79.9 13.6693 79.972 13.6693 80.06V85.7C13.6693 85.788 13.6373 85.86 13.5733 85.916C13.5173 85.972 13.4493 86 13.3693 86H11.9533ZM11.9413 78.86C11.8533 78.86 11.7813 78.832 11.7253 78.776C11.6693 78.72 11.6413 78.648 11.6413 78.56V77.492C11.6413 77.404 11.6693 77.332 11.7253 77.276C11.7813 77.212 11.8533 77.18 11.9413 77.18H13.3693C13.4573 77.18 13.5293 77.212 13.5853 77.276C13.6493 77.332 13.6813 77.404 13.6813 77.492V78.56C13.6813 78.648 13.6493 78.72 13.5853 78.776C13.5293 78.832 13.4573 78.86 13.3693 78.86H11.9413ZM15.7502 86C15.6622 86 15.5902 85.972 15.5342 85.916C15.4782 85.86 15.4502 85.788 15.4502 85.7V80.06C15.4502 79.972 15.4782 79.9 15.5342 79.844C15.5902 79.788 15.6622 79.76 15.7502 79.76H17.1302C17.2182 79.76 17.2902 79.788 17.3462 79.844C17.4022 79.9 17.4302 79.972 17.4302 80.06V80.516C17.6382 80.268 17.9102 80.06 18.2462 79.892C18.5822 79.724 18.9782 79.64 19.4342 79.64C19.8982 79.64 20.3062 79.744 20.6582 79.952C21.0182 80.16 21.2982 80.468 21.4982 80.876C21.7062 81.276 21.8102 81.768 21.8102 82.352V85.7C21.8102 85.788 21.7782 85.86 21.7142 85.916C21.6582 85.972 21.5902 86 21.5102 86H19.9982C19.9182 86 19.8462 85.972 19.7822 85.916C19.7262 85.86 19.6982 85.788 19.6982 85.7V82.424C19.6982 82.048 19.6062 81.76 19.4222 81.56C19.2462 81.352 18.9822 81.248 18.6302 81.248C18.3022 81.248 18.0382 81.352 17.8382 81.56C17.6462 81.76 17.5502 82.048 17.5502 82.424V85.7C17.5502 85.788 17.5182 85.86 17.4542 85.916C17.3982 85.972 17.3302 86 17.2502 86H15.7502ZM26.0174 86.12C25.4254 86.12 24.9014 86.012 24.4454 85.796C23.9894 85.58 23.6254 85.268 23.3534 84.86C23.0894 84.444 22.9454 83.948 22.9214 83.372C22.9134 83.244 22.9094 83.084 22.9094 82.892C22.9094 82.692 22.9134 82.528 22.9214 82.4C22.9454 81.816 23.0894 81.32 23.3534 80.912C23.6174 80.496 23.9774 80.18 24.4334 79.964C24.8974 79.748 25.4254 79.64 26.0174 79.64C26.5694 79.64 27.0414 79.72 27.4334 79.88C27.8254 80.032 28.1454 80.224 28.3934 80.456C28.6414 80.688 28.8254 80.928 28.9454 81.176C29.0734 81.416 29.1414 81.628 29.1494 81.812C29.1574 81.892 29.1294 81.964 29.0654 82.028C29.0014 82.084 28.9294 82.112 28.8494 82.112H27.3254C27.2374 82.112 27.1694 82.092 27.1214 82.052C27.0734 82.012 27.0294 81.952 26.9894 81.872C26.8934 81.624 26.7694 81.448 26.6174 81.344C26.4734 81.24 26.2854 81.188 26.0534 81.188C25.7334 81.188 25.4854 81.292 25.3094 81.5C25.1414 81.708 25.0494 82.028 25.0334 82.46C25.0254 82.78 25.0254 83.064 25.0334 83.312C25.0494 83.752 25.1414 84.072 25.3094 84.272C25.4854 84.472 25.7334 84.572 26.0534 84.572C26.3014 84.572 26.4974 84.52 26.6414 84.416C26.7854 84.312 26.9014 84.136 26.9894 83.888C27.0294 83.808 27.0734 83.748 27.1214 83.708C27.1694 83.668 27.2374 83.648 27.3254 83.648H28.8494C28.9294 83.648 29.0014 83.68 29.0654 83.744C29.1294 83.8 29.1574 83.868 29.1494 83.948C29.1414 84.084 29.1014 84.244 29.0294 84.428C28.9574 84.604 28.8454 84.792 28.6934 84.992C28.5414 85.192 28.3414 85.38 28.0934 85.556C27.8534 85.724 27.5614 85.86 27.2174 85.964C26.8734 86.068 26.4734 86.12 26.0174 86.12ZM33.1075 86.12C32.1635 86.12 31.4115 85.864 30.8515 85.352C30.2915 84.84 29.9995 84.08 29.9755 83.072C29.9755 83.016 29.9755 82.944 29.9755 82.856C29.9755 82.768 29.9755 82.7 29.9755 82.652C29.9995 82.02 30.1395 81.48 30.3955 81.032C30.6595 80.576 31.0195 80.232 31.4755 80C31.9395 79.76 32.4795 79.64 33.0955 79.64C33.7995 79.64 34.3795 79.78 34.8355 80.06C35.2995 80.34 35.6475 80.72 35.8795 81.2C36.1115 81.68 36.2275 82.228 36.2275 82.844V83.132C36.2275 83.22 36.1955 83.292 36.1315 83.348C36.0755 83.404 36.0075 83.432 35.9275 83.432H32.0875C32.0875 83.44 32.0875 83.452 32.0875 83.468C32.0875 83.484 32.0875 83.5 32.0875 83.516C32.0955 83.748 32.1355 83.96 32.2075 84.152C32.2795 84.344 32.3915 84.496 32.5435 84.608C32.6955 84.72 32.8795 84.776 33.0955 84.776C33.2555 84.776 33.3875 84.752 33.4915 84.704C33.6035 84.648 33.6955 84.588 33.7675 84.524C33.8395 84.452 33.8955 84.392 33.9355 84.344C34.0075 84.264 34.0635 84.216 34.1035 84.2C34.1515 84.176 34.2235 84.164 34.3195 84.164H35.8075C35.8875 84.164 35.9515 84.188 35.9995 84.236C36.0555 84.276 36.0795 84.336 36.0715 84.416C36.0635 84.552 35.9955 84.716 35.8675 84.908C35.7395 85.1 35.5515 85.292 35.3035 85.484C35.0635 85.668 34.7595 85.82 34.3915 85.94C34.0235 86.06 33.5955 86.12 33.1075 86.12ZM32.0875 82.244H34.1155V82.22C34.1155 81.964 34.0755 81.74 33.9955 81.548C33.9235 81.356 33.8075 81.208 33.6475 81.104C33.4955 81 33.3115 80.948 33.0955 80.948C32.8795 80.948 32.6955 81 32.5435 81.104C32.3995 81.208 32.2875 81.356 32.2075 81.548C32.1275 81.74 32.0875 81.964 32.0875 82.22V82.244ZM40.0032 86C39.9152 86 39.8392 85.972 39.7752 85.916C39.7192 85.86 39.6912 85.788 39.6912 85.7V84.848C39.6912 84.792 39.7072 84.708 39.7392 84.596C39.7712 84.476 39.8552 84.364 39.9912 84.26L41.2392 83.036C41.8792 82.548 42.4032 82.136 42.8112 81.8C43.2272 81.456 43.5352 81.152 43.7352 80.888C43.9352 80.624 44.0352 80.376 44.0352 80.144C44.0352 79.872 43.9632 79.648 43.8192 79.472C43.6832 79.288 43.4432 79.196 43.0992 79.196C42.8672 79.196 42.6712 79.248 42.5112 79.352C42.3592 79.448 42.2432 79.576 42.1632 79.736C42.0832 79.896 42.0272 80.06 41.9952 80.228C41.9632 80.332 41.9072 80.404 41.8272 80.444C41.7552 80.484 41.6752 80.504 41.5872 80.504H40.0872C40.0152 80.504 39.9552 80.48 39.9072 80.432C39.8592 80.384 39.8352 80.324 39.8352 80.252C39.8432 79.868 39.9232 79.508 40.0752 79.172C40.2352 78.836 40.4552 78.54 40.7352 78.284C41.0232 78.02 41.3632 77.816 41.7552 77.672C42.1552 77.528 42.6032 77.456 43.0992 77.456C43.7792 77.456 44.3552 77.564 44.8272 77.78C45.3072 77.996 45.6712 78.3 45.9192 78.692C46.1672 79.076 46.2912 79.528 46.2912 80.048C46.2912 80.44 46.2032 80.808 46.0272 81.152C45.8592 81.488 45.6152 81.812 45.2952 82.124C44.9832 82.428 44.6112 82.744 44.1792 83.072L43.0752 84.188H46.1592C46.2472 84.188 46.3192 84.216 46.3752 84.272C46.4392 84.328 46.4712 84.4 46.4712 84.488V85.7C46.4712 85.788 46.4392 85.86 46.3752 85.916C46.3192 85.972 46.2472 86 46.1592 86H40.0032ZM51.0719 86.12C50.4959 86.12 49.9959 86.04 49.5719 85.88C49.1479 85.712 48.7959 85.484 48.5159 85.196C48.2439 84.908 48.0359 84.572 47.8919 84.188C47.7479 83.804 47.6639 83.392 47.6399 82.952C47.6319 82.736 47.6239 82.492 47.6159 82.22C47.6159 81.94 47.6159 81.66 47.6159 81.38C47.6239 81.092 47.6319 80.836 47.6399 80.612C47.6639 80.172 47.7479 79.764 47.8919 79.388C48.0439 79.004 48.2599 78.672 48.5399 78.392C48.8279 78.104 49.1799 77.88 49.5959 77.72C50.0199 77.56 50.5119 77.48 51.0719 77.48C51.6399 77.48 52.1319 77.56 52.5479 77.72C52.9639 77.88 53.3119 78.104 53.5919 78.392C53.8799 78.672 54.0999 79.004 54.2519 79.388C54.4039 79.764 54.4879 80.172 54.5039 80.612C54.5199 80.836 54.5279 81.092 54.5279 81.38C54.5359 81.66 54.5359 81.94 54.5279 82.22C54.5279 82.492 54.5199 82.736 54.5039 82.952C54.4879 83.392 54.4039 83.804 54.2519 84.188C54.1079 84.572 53.8959 84.908 53.6159 85.196C53.3439 85.484 52.9959 85.712 52.5719 85.88C52.1559 86.04 51.6559 86.12 51.0719 86.12ZM51.0719 84.38C51.4879 84.38 51.7879 84.248 51.9719 83.984C52.1639 83.712 52.2639 83.348 52.2719 82.892C52.2879 82.66 52.2959 82.416 52.2959 82.16C52.3039 81.904 52.3039 81.648 52.2959 81.392C52.2959 81.136 52.2879 80.9 52.2719 80.684C52.2639 80.244 52.1639 79.888 51.9719 79.616C51.7879 79.344 51.4879 79.204 51.0719 79.196C50.6559 79.204 50.3559 79.344 50.1719 79.616C49.9879 79.888 49.8879 80.244 49.8719 80.684C49.8639 80.9 49.8559 81.136 49.8479 81.392C49.8479 81.648 49.8479 81.904 49.8479 82.16C49.8559 82.416 49.8639 82.66 49.8719 82.892C49.8879 83.348 49.9919 83.712 50.1839 83.984C50.3759 84.248 50.6719 84.38 51.0719 84.38ZM58.4842 86C58.4042 86 58.3322 85.972 58.2682 85.916C58.2122 85.86 58.1842 85.788 58.1842 85.7V79.988L56.5402 81.248C56.4682 81.304 56.3922 81.324 56.3122 81.308C56.2402 81.292 56.1762 81.248 56.1202 81.176L55.4122 80.252C55.3642 80.18 55.3442 80.104 55.3522 80.024C55.3682 79.936 55.4162 79.868 55.4962 79.82L58.2562 77.684C58.3042 77.652 58.3482 77.632 58.3882 77.624C58.4362 77.608 58.4882 77.6 58.5442 77.6H60.0442C60.1242 77.6 60.1922 77.628 60.2482 77.684C60.3122 77.74 60.3442 77.812 60.3442 77.9V85.7C60.3442 85.788 60.3122 85.86 60.2482 85.916C60.1922 85.972 60.1242 86 60.0442 86H58.4842ZM64.965 86.132C64.213 86.132 63.585 86.016 63.081 85.784C62.577 85.544 62.193 85.236 61.929 84.86C61.673 84.476 61.537 84.064 61.521 83.624C61.521 83.552 61.545 83.492 61.593 83.444C61.641 83.396 61.701 83.372 61.773 83.372H63.381C63.485 83.372 63.565 83.396 63.621 83.444C63.685 83.484 63.733 83.536 63.765 83.6C63.837 83.784 63.929 83.936 64.041 84.056C64.161 84.176 64.297 84.264 64.449 84.32C64.609 84.376 64.785 84.404 64.977 84.404C65.201 84.404 65.409 84.356 65.601 84.26C65.793 84.164 65.945 84.024 66.057 83.84C66.177 83.648 66.237 83.42 66.237 83.156C66.237 82.916 66.181 82.708 66.069 82.532C65.965 82.356 65.817 82.216 65.625 82.112C65.433 82.008 65.217 81.956 64.977 81.956C64.785 81.956 64.629 81.98 64.509 82.028C64.389 82.068 64.289 82.12 64.209 82.184C64.129 82.248 64.057 82.304 63.993 82.352C63.929 82.392 63.857 82.412 63.777 82.412H62.205C62.133 82.412 62.069 82.388 62.013 82.34C61.965 82.284 61.941 82.22 61.941 82.148L62.373 77.96C62.389 77.84 62.433 77.752 62.505 77.696C62.577 77.632 62.665 77.6 62.769 77.6H67.581C67.669 77.6 67.741 77.628 67.797 77.684C67.853 77.74 67.881 77.812 67.881 77.9V79.028C67.881 79.116 67.853 79.188 67.797 79.244C67.741 79.3 67.669 79.328 67.581 79.328H64.101L63.945 80.888C64.121 80.768 64.325 80.672 64.557 80.6C64.797 80.52 65.121 80.48 65.529 80.48C65.913 80.48 66.277 80.544 66.621 80.672C66.973 80.8 67.285 80.984 67.557 81.224C67.837 81.464 68.053 81.752 68.205 82.088C68.365 82.416 68.445 82.788 68.445 83.204C68.445 83.772 68.305 84.276 68.025 84.716C67.753 85.156 67.357 85.504 66.837 85.76C66.317 86.008 65.693 86.132 64.965 86.132Z" fill="white"/>
<defs>
<clipPath id="clip0_353_37852">
<rect width="72" height="72" fill="white"/>
</clipPath>
</defs>
</svg>
