<svg width="57" height="70" viewBox="0 0 57 70" fill="none" xmlns="http://www.w3.org/2000/svg">
<g clip-path="url(#clip0_147_52277)">
<path d="M28.9624 55.999C44.4261 55.999 56.9619 43.4632 56.9619 27.9995C56.9619 12.5358 44.4261 0 28.9624 0C13.4987 0 0.962891 12.5358 0.962891 27.9995C0.962891 43.4632 13.4987 55.999 28.9624 55.999Z" fill="#9AC331"/>
<path d="M47.6296 37.3335H28.9629V56.0002H47.6296V37.3335Z" fill="#14133B"/>
<path d="M31.6729 43.2942C31.7812 43.2972 31.9159 43.3022 32.0434 43.3022C32.171 43.3022 32.2914 43.2972 32.4139 43.2942V43.3731H32.3633C32.2945 43.3731 32.2287 43.3934 32.2287 43.4723C32.2287 43.5017 32.2459 43.5462 32.2661 43.606L32.6903 44.7843H32.6974L33.1793 43.2607H33.2754L33.7948 44.7712H33.8008L34.1633 43.7102C34.1835 43.6556 34.22 43.5432 34.22 43.4804C34.22 43.3974 34.1744 43.3731 34.0883 43.3731H34.0225V43.2942C34.1086 43.2972 34.2281 43.3022 34.3333 43.3022C34.4386 43.3022 34.5409 43.2972 34.6411 43.2942V43.3731H34.5905C34.4791 43.3731 34.4103 43.4065 34.3617 43.5503L33.7917 45.1893H33.6945L33.1752 43.6738H33.1691L32.6812 45.1893H32.584L31.9736 43.5584C31.9159 43.4065 31.8318 43.3731 31.7286 43.3731H31.6719V43.2942H31.6729Z" fill="white"/>
<path d="M35.5554 43.2607C36.1233 43.2607 36.6193 43.6819 36.6193 44.2245C36.6193 44.6851 36.2316 45.1893 35.5473 45.1893C34.9307 45.1893 34.4863 44.7631 34.4863 44.2458C34.4863 43.6626 34.9935 43.2607 35.5554 43.2607M35.5473 43.3701C35.1474 43.3701 34.7718 43.5948 34.7718 44.2012C34.7718 44.6244 35.0745 45.0901 35.5645 45.0901C36.0919 45.0901 36.3349 44.7337 36.3349 44.2539C36.3349 43.8327 36.0464 43.3711 35.5483 43.3711" fill="white"/>
<path d="M36.6738 45.0772H36.7244C36.8561 45.0772 36.9127 45.0326 36.9127 44.8636V43.588C36.9127 43.4179 36.8561 43.3734 36.7244 43.3734H36.6738V43.2944C36.773 43.2975 36.9107 43.3025 37.0393 43.3025C37.2296 43.3025 37.3673 43.2944 37.4928 43.2944C37.997 43.2944 38.0891 43.6579 38.0891 43.7783C38.0891 44.1205 37.8269 44.2258 37.6842 44.2673L38.0658 44.8474C38.2227 45.0822 38.2683 45.0984 38.5001 45.1116V45.1663C38.4454 45.1663 38.3948 45.1693 38.3412 45.1693C38.0891 45.1693 37.9727 45.1399 37.8218 44.9132L37.4878 44.4141C37.422 44.3169 37.3855 44.3129 37.1648 44.3068V44.8008C37.1648 45.0488 37.2134 45.0772 37.3278 45.0772H37.4098V45.1561C37.2843 45.1541 37.1648 45.148 37.0393 45.148C36.9138 45.148 36.7741 45.1531 36.6738 45.1561V45.0772ZM37.1638 44.1893C37.2124 44.2055 37.2843 44.2076 37.3572 44.2076C37.6143 44.2076 37.8259 44.1003 37.8259 43.829C37.8259 43.7135 37.7408 43.3947 37.344 43.3947C37.2762 43.3947 37.2215 43.4007 37.1638 43.4058V44.1904V44.1893Z" fill="white"/>
<path d="M38.5928 45.0771H38.6434C38.775 45.0771 38.8317 45.0326 38.8317 44.8635V43.588C38.8317 43.4179 38.774 43.3734 38.6434 43.3734H38.5928V43.2954C38.692 43.2974 38.8297 43.3035 38.9583 43.3035C39.0868 43.3035 39.2033 43.2974 39.3369 43.2954V43.3734H39.2711C39.1405 43.3734 39.0828 43.4179 39.0828 43.588V44.8028C39.0828 44.9982 39.1283 45.066 39.4796 45.066C39.9473 45.066 40.002 44.9901 40.0526 44.6924H40.1407L40.1235 45.1551C39.8724 45.1521 39.5495 45.147 39.2984 45.147C38.9654 45.147 38.691 45.1521 38.5918 45.1551V45.0761L38.5928 45.0771Z" fill="white"/>
<path d="M40.2539 45.0772H40.3055C40.4361 45.0772 40.4938 45.0326 40.4938 44.8636V43.588C40.4938 43.4179 40.4361 43.3734 40.3055 43.3734H40.2539V43.2944C40.3541 43.2975 40.4908 43.3025 40.6194 43.3025C40.8482 43.3025 41.079 43.2944 41.3067 43.2944C42.0771 43.2944 42.3485 43.8694 42.3485 44.2066C42.3485 44.5882 42.0741 45.1551 41.2015 45.1551C41.0273 45.1551 40.8218 45.147 40.6194 45.147C40.4918 45.147 40.3541 45.1521 40.2539 45.1551V45.0762V45.0772ZM40.7449 44.819C40.7449 45.0225 40.836 45.0569 41.161 45.0569C41.6611 45.0569 42.0741 44.8585 42.0741 44.2754C42.0741 43.8937 41.8139 43.3835 41.1073 43.3835C40.9879 43.3835 40.8674 43.3936 40.7449 43.4048V44.819Z" fill="white"/>
<path d="M32.2581 47.4614H32.3239C32.4778 47.4614 32.5061 47.428 32.5061 47.2134V45.789H32.1802C31.8754 45.789 31.838 45.951 31.8208 46.1555H31.7246V45.6797C31.8096 45.6817 32.2612 45.6878 32.6317 45.6878C32.9738 45.6878 33.4416 45.6827 33.5387 45.6797V46.1555H33.4416C33.4243 45.952 33.3869 45.789 33.0822 45.789H32.7572V47.2134C32.7572 47.428 32.7855 47.4614 32.9394 47.4614H33.0052V47.5404C32.8969 47.5373 32.7744 47.5323 32.6317 47.5323C32.4889 47.5323 32.3664 47.5373 32.2581 47.5404V47.4614V47.4614Z" fill="white"/>
<path d="M33.6914 47.461H33.743C33.8746 47.461 33.9313 47.4164 33.9313 47.2464V45.9708C33.9313 45.8007 33.8746 45.7562 33.743 45.7562H33.6914V45.6782C33.7916 45.6802 33.9283 45.6853 34.0559 45.6853C34.2472 45.6853 34.3849 45.6782 34.5104 45.6782C35.0145 45.6782 35.1057 46.0406 35.1057 46.1611C35.1057 46.5033 34.8435 46.6086 34.7007 46.6501L35.0824 47.2302C35.2403 47.466 35.2848 47.4519 35.5167 47.465V47.5197C35.4772 47.5308 35.38 47.5399 35.3253 47.544C35.1158 47.5602 34.9882 47.5227 34.8374 47.296L34.5043 46.7969C34.4385 46.6997 34.4011 46.6946 34.1814 46.6896V47.1836C34.1814 47.4316 34.23 47.46 34.3444 47.46H34.4274V47.5379C34.3019 47.5359 34.1814 47.5298 34.0559 47.5298C33.9303 47.5298 33.7906 47.5349 33.6914 47.5379V47.46V47.461ZM34.1824 46.5721C34.231 46.5873 34.3029 46.5903 34.3768 46.5903C34.6329 46.5903 34.8445 46.483 34.8445 46.2117C34.8445 46.0963 34.7584 45.7774 34.3626 45.7774C34.2948 45.7774 34.2401 45.7825 34.1824 45.7876V46.5721V46.5721Z" fill="white"/>
<path d="M35.3281 47.4611H35.3625C35.5195 47.4611 35.5822 47.3963 35.6703 47.1787L36.3233 45.6055H36.3779L37.1109 47.207C37.1797 47.3589 37.2678 47.4611 37.3994 47.4611H37.4591V47.5391C37.3508 47.534 37.2202 47.531 37.0714 47.531C36.9226 47.531 36.7839 47.534 36.6776 47.5391V47.4611H36.7484C36.8396 47.4611 36.8942 47.4328 36.8942 47.3771C36.8942 47.3406 36.8659 47.2698 36.8547 47.2465L36.6462 46.7757H35.9811L35.8302 47.1888C35.81 47.2404 35.7817 47.3194 35.7817 47.3771C35.7817 47.4236 35.81 47.4611 35.8991 47.4611H35.9619V47.5391C35.8626 47.534 35.7452 47.531 35.6106 47.531C35.5022 47.531 35.397 47.534 35.3281 47.5391V47.4611V47.4611ZM36.2838 45.9608L36.0185 46.6765H36.6027L36.2838 45.9608Z" fill="white"/>
<path d="M36.8643 45.6783C36.9787 45.6803 37.1214 45.6864 37.2551 45.6864C37.3887 45.6864 37.5254 45.6813 37.6428 45.6783V45.7562H37.6023C37.4717 45.7562 37.4312 45.8089 37.4312 45.8635C37.4312 45.9101 37.4484 45.9607 37.4909 46.0569L38.0194 47.2484L38.5812 46.0326C38.6157 45.9577 38.641 45.8838 38.641 45.8311C38.641 45.7785 38.5924 45.7552 38.5266 45.7552H38.4729V45.6772C38.561 45.6793 38.6723 45.6853 38.7746 45.6853C38.8768 45.6853 38.9771 45.6803 39.0763 45.6772V45.7552H39.0226C38.9173 45.7552 38.8465 45.7886 38.7462 46.0012L38.0082 47.5724H37.8999L37.172 45.9678C37.0981 45.8058 37.0465 45.7562 36.9179 45.7562H36.8633V45.6783H36.8643Z" fill="white"/>
<path d="M39.1602 47.461H39.2118C39.3434 47.461 39.4001 47.4165 39.4001 47.2464V45.9708C39.4001 45.8008 39.3434 45.7562 39.2118 45.7562H39.1602V45.6772C39.2513 45.6793 39.5762 45.6853 39.8617 45.6853C40.1988 45.6853 40.3325 45.6803 40.5319 45.6772C40.538 45.8392 40.543 45.9809 40.5582 46.1217H40.4782C40.4499 45.9384 40.4296 45.7765 39.9245 45.7765H39.6511V46.5165H39.8992C40.2474 46.5165 40.2575 46.4618 40.2636 46.3069H40.3436C40.3406 46.3667 40.3375 46.4487 40.3375 46.563C40.3375 46.6653 40.3406 46.7483 40.3436 46.8009H40.2636C40.2494 46.6704 40.2464 46.6157 39.9245 46.6157H39.6511V47.2423C39.6511 47.3992 39.7139 47.4387 39.8971 47.4387H39.9741C40.4539 47.4387 40.5785 47.3547 40.624 47.0652H40.704C40.6837 47.2271 40.6675 47.379 40.6463 47.5379C40.4752 47.5349 40.1705 47.5298 39.8617 47.5298C39.5084 47.5298 39.2513 47.5349 39.1602 47.5379V47.459V47.461Z" fill="white"/>
<path d="M40.832 47.461H40.8837C41.0143 47.461 41.072 47.4165 41.072 47.2464V45.9708C41.072 45.8008 41.0143 45.7562 40.8837 45.7562H40.832V45.6772C40.9323 45.6793 41.0689 45.6853 41.1975 45.6853C41.3261 45.6853 41.4425 45.6803 41.5771 45.6772V45.7562H41.5113C41.3797 45.7562 41.323 45.8008 41.323 45.9708V47.1856C41.323 47.381 41.3686 47.4489 41.7199 47.4489C42.1876 47.4489 42.2422 47.3729 42.2929 47.0753H42.3809L42.3637 47.5379C42.1127 47.5349 41.7897 47.5298 41.5397 47.5298C41.2056 47.5298 40.9323 47.5349 40.832 47.5379V47.459V47.461Z" fill="white"/>
<path d="M44.0196 46.546C44.0966 46.5481 44.1624 46.5531 44.2737 46.5531C44.4509 46.5531 44.5481 46.5481 44.622 46.546V46.624C44.4225 46.624 44.3993 46.6473 44.3729 46.8356C44.3648 46.8983 44.3254 47.0735 44.2677 47.1838C44.4904 47.4369 44.5643 47.4602 44.8133 47.4602V47.5392C44.7526 47.5361 44.6766 47.5311 44.6048 47.5311C44.4762 47.5311 44.3942 47.5361 44.3112 47.5392L44.1371 47.3671C44.051 47.4551 43.8576 47.5736 43.5438 47.5736C43.1784 47.5736 42.9395 47.3488 42.9395 47.0877C42.9395 46.8832 43.0873 46.7273 43.3586 46.5724C43.2219 46.4418 43.0913 46.3183 43.0913 46.1249C43.0913 45.8354 43.3464 45.644 43.6015 45.644C43.8212 45.644 44.0611 45.7777 44.0611 46.0176C44.0611 46.2191 43.9042 46.3335 43.5995 46.5086L44.2039 47.113C44.2413 47.037 44.2636 46.9064 44.2636 46.8012C44.2636 46.6392 44.1745 46.624 44.0216 46.624V46.546H44.0196ZM43.4092 46.627C43.2189 46.7424 43.1662 46.873 43.1662 47.0137C43.1662 47.2122 43.3606 47.4632 43.6906 47.4632C43.8536 47.4632 44.0186 47.3772 44.0783 47.2982L43.4082 46.626L43.4092 46.627ZM43.5266 45.7443C43.3889 45.7443 43.233 45.8668 43.2502 46.047C43.2634 46.1826 43.5205 46.4286 43.5519 46.458C43.723 46.3436 43.8546 46.2565 43.8546 46.0844C43.8546 45.9457 43.7584 45.7453 43.5276 45.7453" fill="white"/>
<path d="M32.2581 49.8442H32.3239C32.4778 49.8442 32.5061 49.8108 32.5061 49.5962V48.1718H32.1802C31.8754 48.1718 31.838 48.3348 31.8208 48.5383H31.7246V48.0625C31.8096 48.0655 32.2612 48.0706 32.6317 48.0706C32.9738 48.0706 33.4416 48.0655 33.5387 48.0625V48.5383H33.4416C33.4243 48.3348 33.3869 48.1718 33.0822 48.1718H32.7572V49.5962C32.7572 49.8108 32.7855 49.8442 32.9394 49.8442H33.0052V49.9232C32.8969 49.9212 32.7744 49.9151 32.6317 49.9151C32.4889 49.9151 32.3664 49.9212 32.2581 49.9232V49.8442V49.8442Z" fill="white"/>
<path d="M34.6365 48.0278C35.2044 48.0278 35.7004 48.449 35.7004 48.9926C35.7004 49.4522 35.3127 49.9574 34.6273 49.9574C34.0118 49.9574 33.5664 49.5312 33.5664 49.0139C33.5664 48.4307 34.0746 48.0278 34.6365 48.0278M34.6284 48.1382C34.2295 48.1382 33.8529 48.3629 33.8529 48.9683C33.8529 49.3925 34.1556 49.8571 34.6456 49.8571C35.173 49.8571 35.416 49.5018 35.416 49.0209C35.416 48.5998 35.1274 48.1382 34.6284 48.1382" fill="white"/>
<path d="M36.4339 48.1406H36.3792C36.2709 48.1456 36.2051 48.18 36.2021 48.3987C36.199 48.6731 36.1909 48.9504 36.1909 49.2248C36.1909 49.4465 36.2304 49.5487 36.3084 49.6479C36.3964 49.7654 36.5473 49.8565 36.7821 49.8565C37.0352 49.8565 37.2498 49.7178 37.3156 49.6317C37.4068 49.5143 37.4523 49.3523 37.4523 49.1671V48.8897C37.4523 48.5394 37.4189 48.26 37.3956 48.2104C37.3642 48.1507 37.3329 48.1395 37.261 48.1395H37.2013V48.0606C37.2812 48.0636 37.3956 48.0687 37.5009 48.0687C37.6062 48.0687 37.7034 48.0626 37.8066 48.0606V48.1395H37.7631C37.6609 48.1395 37.589 48.176 37.589 48.424V49.0932C37.589 49.3726 37.5181 49.5872 37.3663 49.7411C37.2468 49.8615 37.0008 49.9557 36.7639 49.9557C36.5564 49.9557 36.3904 49.9061 36.2112 49.7826C36.0168 49.652 35.9409 49.4353 35.9409 49.163V48.34C35.9409 48.173 35.8629 48.1385 35.7587 48.1385H35.707V48.0596C35.8245 48.0626 35.947 48.0677 36.0725 48.0677C36.198 48.0677 36.3144 48.0616 36.4349 48.0596V48.1385L36.4339 48.1406Z" fill="white"/>
<path d="M37.9746 49.8443H38.0252C38.1568 49.8443 38.2135 49.7997 38.2135 49.6307V48.3551C38.2135 48.185 38.1568 48.1405 38.0252 48.1405H37.9746V48.0615C38.0738 48.0646 38.2115 48.0696 38.3401 48.0696C38.5314 48.0696 38.6681 48.0615 38.7936 48.0615C39.2988 48.0615 39.3899 48.425 39.3899 48.5444C39.3899 48.8866 39.1277 48.9919 38.9839 49.0334L39.3666 49.6135C39.5235 49.8493 39.5691 49.8645 39.7999 49.8777V49.9323C39.7462 49.9323 39.6946 49.9354 39.6399 49.9354C39.3899 49.9354 39.2714 49.906 39.1206 49.6793L38.7875 49.1802C38.7217 49.084 38.6843 49.0789 38.4656 49.0729V49.5669C38.4656 49.8149 38.5142 49.8433 38.6286 49.8433H38.7106V49.9222C38.5861 49.9192 38.4656 49.9141 38.3401 49.9141C38.2145 49.9141 38.0748 49.9192 37.9746 49.9222V49.8433V49.8443ZM38.4656 48.9564C38.5142 48.9726 38.5861 48.9747 38.66 48.9747C38.9161 48.9747 39.1277 48.8674 39.1277 48.596C39.1277 48.4806 39.0416 48.1617 38.6448 48.1617C38.577 48.1617 38.5223 48.1668 38.4656 48.1719V48.9564V48.9564Z" fill="white"/>
<path d="M39.8711 49.8443H39.9227C40.0543 49.8443 40.111 49.7997 40.111 49.6307V48.3551C40.111 48.185 40.0533 48.1405 39.9227 48.1405H39.8711V48.0615C39.9713 48.0646 40.108 48.0696 40.2366 48.0696C40.3651 48.0696 40.4815 48.0646 40.602 48.0615V48.1405H40.5504C40.4198 48.1405 40.3621 48.185 40.3621 48.3551V49.6307C40.3621 49.8007 40.4198 49.8443 40.5504 49.8443H40.602V49.9232C40.4815 49.9212 40.3621 49.9151 40.2366 49.9151C40.111 49.9151 39.9713 49.9212 39.8711 49.9232V49.8443Z" fill="white"/>
<path d="M41.9964 48.538H41.8993C41.8962 48.454 41.874 48.128 41.4427 48.128C41.2068 48.128 41.055 48.2667 41.055 48.4368C41.055 48.5886 41.14 48.6949 41.3769 48.7941L41.6401 48.9045C41.8446 48.9905 42.0643 49.1313 42.0643 49.3935C42.0643 49.7194 41.8304 49.9583 41.3536 49.9583C41.3081 49.9583 41.06 49.9553 40.8434 49.8925L40.8312 49.4633H40.9173C40.9396 49.7042 41.1592 49.8682 41.4022 49.8682C41.6452 49.8682 41.8588 49.7326 41.8588 49.5129C41.8588 49.2831 41.6614 49.194 41.5024 49.1242L41.1937 48.9905C40.977 48.8964 40.8262 48.7557 40.8262 48.5411C40.8262 48.2718 41.0772 48.0288 41.4629 48.0288C41.6421 48.0288 41.8193 48.0683 41.9964 48.0997V48.539V48.538Z" fill="white"/>
<path d="M42.2726 49.8443H42.3242C42.4639 49.8443 42.5125 49.7795 42.5206 49.4606C42.5287 49.0972 42.5489 48.7307 42.5489 48.3551C42.5489 48.18 42.4912 48.1405 42.3404 48.1405H42.2888V48.0615C42.3768 48.0646 42.4457 48.0696 42.5338 48.0696C42.6218 48.0696 42.7281 48.0646 42.7615 48.0615L43.5461 49.5952L44.2396 48.0615C44.3307 48.0646 44.4198 48.0696 44.5018 48.0696C44.5838 48.0696 44.6759 48.0646 44.764 48.0615V48.1405H44.7265C44.5949 48.1405 44.5068 48.1688 44.5068 48.3551C44.5068 48.4887 44.518 49.1437 44.524 49.5385C44.5261 49.7997 44.5574 49.8443 44.7235 49.8443H44.7802V49.9232C44.686 49.9212 44.5665 49.9151 44.4147 49.9151C44.2628 49.9151 44.1414 49.9212 44.0442 49.9232V49.8443H44.0867C44.2466 49.8443 44.278 49.7977 44.278 49.5679V48.2508H44.273L43.5086 49.9475H43.4459L42.6613 48.4027H42.6552V49.4748C42.6552 49.7592 42.6805 49.8453 42.8375 49.8453H42.8769V49.9242C42.8061 49.9222 42.7028 49.9161 42.5753 49.9161C42.4477 49.9161 42.3556 49.9222 42.2695 49.9242V49.8453L42.2726 49.8443Z" fill="white"/>
<path d="M33.6971 50.9142H33.6515C33.5776 50.7775 33.4399 50.5224 32.9014 50.5224C32.3223 50.5224 32.137 51.0114 32.137 51.3951C32.137 52.0177 32.6189 52.2323 32.9155 52.2323C33.364 52.2323 33.5685 51.9994 33.7031 51.8456H33.7234V52.044C33.6232 52.131 33.3812 52.3416 32.9388 52.3416C32.2909 52.3416 31.8516 51.968 31.8516 51.4426C31.8516 50.9172 32.2363 50.4131 32.9125 50.4131C33.1949 50.4131 33.4663 50.4941 33.5655 50.5234C33.6191 50.5396 33.6738 50.5568 33.7082 50.5599L33.6971 50.9162V50.9142Z" fill="white"/>
<path d="M34.9177 50.4121C35.4856 50.4121 35.9817 50.8322 35.9817 51.3759C35.9817 51.8365 35.5929 52.3406 34.9086 52.3406C34.2921 52.3406 33.8477 51.9144 33.8477 51.3981C33.8477 50.815 34.3559 50.4121 34.9177 50.4121M34.9086 50.5225C34.5097 50.5225 34.1321 50.7462 34.1321 51.3526C34.1321 51.7768 34.4348 52.2414 34.9248 52.2414C35.4522 52.2414 35.6952 51.8861 35.6952 51.4052C35.6952 50.9841 35.4067 50.5225 34.9086 50.5225Z" fill="white"/>
<path d="M36.7132 50.5243H36.6585C36.5502 50.5293 36.4844 50.5638 36.4824 50.7824C36.4793 51.0568 36.4702 51.3342 36.4702 51.6085C36.4702 51.8302 36.5107 51.9324 36.5877 52.0317C36.6757 52.1491 36.8276 52.2412 37.0614 52.2412C37.3155 52.2412 37.5291 52.1025 37.5949 52.0165C37.6861 51.899 37.7316 51.7371 37.7316 51.5518V51.2744C37.7316 50.9242 37.6972 50.6447 37.6749 50.5951C37.6435 50.5354 37.6122 50.5243 37.5403 50.5243H37.4806V50.4453C37.5605 50.4473 37.6749 50.4534 37.7802 50.4534C37.8855 50.4534 37.9827 50.4473 38.0849 50.4453V50.5243H38.0424C37.9402 50.5243 37.8683 50.5607 37.8683 50.8087V51.4779C37.8683 51.7573 37.7974 51.9719 37.6466 52.1268C37.5271 52.2473 37.2821 52.3404 37.0452 52.3404C36.8367 52.3404 36.6717 52.2908 36.4915 52.1683C36.2971 52.0377 36.2202 51.8211 36.2202 51.5488V50.7257C36.2202 50.5587 36.1432 50.5253 36.038 50.5253H35.9863V50.4463C36.1038 50.4484 36.2263 50.4544 36.3518 50.4544C36.4773 50.4544 36.5947 50.4484 36.7142 50.4463V50.5253L36.7132 50.5243Z" fill="white"/>
<path d="M38.1937 52.2281H38.2393C38.3901 52.2281 38.4164 52.1714 38.4255 51.897C38.4367 51.5518 38.4417 51.0547 38.4417 50.7521C38.4417 50.5638 38.379 50.5243 38.2362 50.5243H38.1562V50.4453C38.2332 50.4473 38.3192 50.4534 38.4073 50.4534C38.4873 50.4534 38.5612 50.4473 38.6331 50.4453L39.9765 51.9588H39.9815L39.9643 50.8877C39.9582 50.587 39.9157 50.5243 39.7618 50.5243H39.7274V50.4453C39.8155 50.4473 39.9299 50.4534 40.0362 50.4534C40.1425 50.4534 40.2417 50.4473 40.3439 50.4453V50.5243H40.2984C40.2103 50.5243 40.1273 50.5526 40.1192 50.8067L40.0676 52.3303H39.9825L38.5683 50.7409H38.5622C38.5622 51.1459 38.5683 51.5478 38.5794 51.9537C38.5855 52.1683 38.631 52.2281 38.7647 52.2281H38.8214V52.307C38.7272 52.305 38.6128 52.2989 38.5075 52.2989C38.4023 52.2989 38.2818 52.305 38.1937 52.307V52.2281V52.2281Z" fill="white"/>
<path d="M42.2049 50.9142H42.1593C42.0854 50.7775 41.9488 50.5224 41.4092 50.5224C40.8301 50.5224 40.6449 51.0114 40.6449 51.3951C40.6449 52.0177 41.1267 52.2323 41.4234 52.2323C41.8718 52.2323 42.0763 51.9994 42.211 51.8456H42.2312V52.044C42.132 52.131 41.889 52.3416 41.4466 52.3416C40.7997 52.3416 40.3594 51.968 40.3594 51.4426C40.3594 50.9172 40.7451 50.4131 41.4203 50.4131C41.7028 50.4131 41.9741 50.4941 42.0733 50.5234C42.1279 50.5396 42.1816 50.5568 42.216 50.5599L42.2039 50.9162L42.2049 50.9142Z" fill="white"/>
<path d="M42.4023 52.2285H42.454C42.5846 52.2285 42.6423 52.184 42.6423 52.0149V50.7404C42.6423 50.5703 42.5846 50.5257 42.454 50.5257H42.4023V50.4468C42.5026 50.4488 42.6392 50.4549 42.7678 50.4549C42.8964 50.4549 43.0128 50.4488 43.1322 50.4468V50.5257H43.0816C42.95 50.5257 42.8933 50.5703 42.8933 50.7404V52.0149C42.8933 52.185 42.95 52.2285 43.0816 52.2285H43.1322V52.3075C43.0128 52.3054 42.8933 52.2994 42.7678 52.2994C42.6423 52.2994 42.5026 52.3054 42.4023 52.3075V52.2285Z" fill="white"/>
<path d="M43.3711 52.2285H43.4227C43.5543 52.2285 43.611 52.184 43.611 52.0149V50.7404C43.611 50.5703 43.5533 50.5257 43.4227 50.5257H43.3711V50.4468C43.4713 50.4488 43.608 50.4549 43.7365 50.4549C43.8651 50.4549 43.9825 50.4488 44.1162 50.4468V50.5257H44.0504C43.9188 50.5257 43.8621 50.5703 43.8621 50.7404V51.9552C43.8621 52.1516 43.9076 52.2194 44.2589 52.2194C44.7266 52.2194 44.7813 52.1435 44.8329 51.8458H44.921L44.9038 52.3085C44.6527 52.3065 44.3308 52.3004 44.0787 52.3004C43.7446 52.3004 43.4713 52.3065 43.3711 52.3085V52.2295V52.2285Z" fill="white"/>
<path d="M44.7782 42.2345C44.8329 42.0816 44.8653 41.9176 44.8653 41.7526C44.8653 41.5602 44.8258 41.376 44.7549 41.2079C44.6486 40.9569 44.4715 40.7433 44.2477 40.5924C44.024 40.4416 43.7537 40.3535 43.4652 40.3535C43.284 40.3535 43.1099 40.3879 42.9509 40.4507C42.9256 40.4608 42.9003 40.472 42.875 40.4831V40.9204C42.9418 40.8739 43.0137 40.8334 43.0906 40.804C43.206 40.7585 43.3326 40.7331 43.4652 40.7331C43.6069 40.7331 43.7406 40.7615 43.862 40.8131C44.0443 40.8901 44.2012 41.0196 44.3115 41.1826C44.4209 41.3456 44.4856 41.541 44.4856 41.7526C44.4856 41.866 44.4624 41.9905 44.4198 42.1069C44.3783 42.2233 44.3247 42.3175 44.2579 42.4126L44.2508 42.4217L42.876 44.4677V45.149L44.5616 42.6414C44.6486 42.5179 44.7256 42.3833 44.7782 42.2345" fill="white"/>
<path d="M44.276 41.7537C44.276 42.2012 43.9136 42.5636 43.4661 42.5636C43.0187 42.5636 42.6562 42.2002 42.6562 41.7537C42.6562 41.3073 43.0187 40.9438 43.4661 40.9438C43.9136 40.9438 44.276 41.3063 44.276 41.7537Z" fill="#9AC331"/>
<path d="M12.9631 28.4144H11.1966V30.929C11.1966 31.5132 11.5114 31.7521 12.0945 31.7521C12.3486 31.7521 12.4985 31.7369 12.6635 31.662L12.4691 33.3232C12.2595 33.4285 11.885 33.5034 11.4507 33.5034C9.92406 33.5034 9.01092 32.6946 9.01092 31.3482V28.4144H7.87305V26.6175H9.01092V25.1658L11.1966 24.3721V26.6175H13.3822L12.9631 28.4144V28.4144Z" fill="#14133B"/>
<path d="M19.346 28.953C19.2113 28.8781 18.9117 28.788 18.6869 28.788C17.9834 28.788 17.3395 29.1626 17.3395 30.2397V33.3982H15.1387V26.6165H17.3091V28.129H17.3243C17.5491 27.066 18.3427 26.4971 19.2559 26.4971C19.4654 26.4971 19.7195 26.5274 19.8846 26.5872L19.346 28.952V28.953Z" fill="#14133B"/>
<path d="M25.6042 33.6991C25.2003 33.609 24.7356 33.2952 24.5564 32.8012C24.2568 33.3549 23.6129 33.6242 22.7899 33.6242C21.5923 33.6242 20.5293 32.786 20.5293 31.3788C20.5293 30.1367 21.5022 29.2984 22.8496 29.1628L24.197 29.0281V28.8034C24.197 28.3995 23.868 28.1302 23.1341 28.1302C22.475 28.1302 21.7421 28.3397 21.2481 28.6546L20.8593 26.9933C21.4131 26.6339 22.3414 26.395 23.2393 26.395C25.0363 26.395 26.3078 27.2181 26.3078 28.85V31.066C26.3078 31.8597 26.6074 32.2788 27.1308 32.4731L25.6042 33.7011V33.6991ZM24.197 30.4353L23.374 30.5102C22.8051 30.5548 22.551 30.9597 22.551 31.3636C22.551 31.723 22.8202 32.0227 23.2393 32.0227C23.7637 32.0227 24.197 31.6187 24.197 31.0346V30.4363V30.4353Z" fill="#14133B"/>
<path d="M31.1269 33.4591H29.4798L26.875 26.6177H29.0009L29.9586 29.2073C30.0933 29.5666 30.2279 30.0759 30.3332 30.5243H30.3635C30.4688 30.09 30.6176 29.5666 30.7523 29.2073L31.71 26.6177H33.7458L31.1258 33.4591H31.1269Z" fill="#14133B"/>
<path d="M40.5876 29.627L39.6147 30.615H36.2912C36.3965 31.1688 37.1446 31.7975 38.2977 31.7975C39.0012 31.7975 39.72 31.5879 40.1685 31.2883L39.9589 33.1743C39.4497 33.4435 38.6712 33.6237 37.8036 33.6237C35.7374 33.6237 34.0762 32.1862 34.0762 29.9712C34.0762 27.7562 35.6625 26.3936 37.6093 26.3936C39.556 26.3936 40.6483 27.6964 40.6483 29.1036C40.6483 29.2686 40.618 29.4924 40.5886 29.628L40.5876 29.627ZM37.6083 28.0406C36.9644 28.0406 36.4258 28.5347 36.2912 29.1482H38.5821C38.5821 29.1036 38.5973 29.0581 38.5973 28.9983C38.5973 28.5347 38.1934 28.0406 37.6093 28.0406H37.6083Z" fill="#14133B"/>
<path d="M44.1504 33.6685C42.7584 33.6088 41.8301 32.89 41.8301 31.2581V22.7402H44.0005V30.9888C44.0005 31.5426 44.3154 31.8422 44.9137 31.8868L44.1504 33.6685V33.6685Z" fill="#14133B"/>
<path d="M48.0997 33.5491C47.1713 33.5491 46.4981 33.3547 45.9444 33.0703L45.75 31.1245C46.3493 31.5436 47.1268 31.8585 47.8759 31.8585C48.2799 31.8585 48.535 31.6489 48.535 31.3948C48.535 31.1104 48.3102 30.9909 47.9215 30.8704C46.6186 30.4959 45.8401 29.8378 45.8401 28.6544C45.8401 27.3222 46.9182 26.4688 48.3851 26.4688C49.2234 26.4688 50.0464 26.6935 50.3916 26.8727L50.017 28.4894C49.688 28.3102 49.1484 28.1148 48.6099 28.1148C48.2505 28.1148 48.0116 28.2798 48.0116 28.5491C48.0116 28.8032 48.1908 28.9379 48.6099 29.0432C50.1365 29.4471 50.7652 30.2104 50.7652 31.3483C50.7652 32.4861 49.9269 33.5491 48.1007 33.5491H48.0997Z" fill="#14133B"/>
<path d="M24.1959 38.6796C24.0177 38.6796 23.8476 38.6128 23.7656 38.5541V37.0244H23.9347V37.6905C23.9802 37.6419 24.1088 37.5923 24.2343 37.5923C24.536 37.5923 24.7587 37.8191 24.7587 38.1299C24.7587 38.4407 24.537 38.6796 24.1959 38.6796V38.6796ZM24.2192 37.7452C24.0754 37.7452 23.9762 37.811 23.9357 37.8545V38.468C23.9813 38.4954 24.0865 38.5318 24.1807 38.5318C24.4307 38.5318 24.5856 38.3688 24.5877 38.1339C24.5877 37.9072 24.4297 37.7452 24.2192 37.7452Z" fill="#14133B"/>
<path d="M25.4338 38.5582C25.2799 38.9317 25.1159 39.1008 24.9074 39.1919L24.793 39.0775C24.9873 38.9955 25.127 38.8649 25.2485 38.5784L24.8527 37.6167H25.0359L25.2414 38.1208C25.2708 38.1937 25.3083 38.2899 25.3356 38.377H25.3396C25.372 38.295 25.4156 38.1917 25.4429 38.1229L25.6494 37.6167H25.8185L25.4338 38.5582Z" fill="#14133B"/>
<path d="M17.7462 22.248C16.6681 22.248 15.6355 21.9342 15.0665 21.589L14.8418 19.4185C15.6203 19.9571 16.6387 20.3317 17.5964 20.3317C18.4194 20.3317 18.9438 19.9571 18.9438 19.374C18.9438 18.8202 18.5996 18.5054 17.7159 18.2665C15.845 17.7573 14.9764 16.7247 14.9764 15.272C14.9764 13.6856 16.1589 12.4131 18.2251 12.4131C19.3184 12.4131 20.2315 12.7279 20.6203 12.9517L20.2012 14.8225C19.8124 14.5977 19.0481 14.3284 18.3901 14.3284C17.5812 14.3284 17.2077 14.6878 17.2077 15.1515C17.2077 15.6151 17.6116 15.8854 18.3455 16.095C20.1718 16.6042 21.2651 17.5467 21.2651 19.2383C21.2651 21.0798 20.0675 22.247 17.7472 22.247L17.7462 22.248Z" fill="#14133B"/>
<path d="M27.489 22.413C27.085 22.3229 26.6204 22.0091 26.4412 21.5151C26.1415 22.0688 25.4977 22.3381 24.6746 22.3381C23.477 22.3381 22.4141 21.4999 22.4141 20.0927C22.4141 18.8506 23.3869 18.0123 24.7344 17.8767L26.0818 17.742V17.5173C26.0818 17.1134 25.7528 16.8431 25.0188 16.8431C24.3598 16.8431 23.6269 17.0526 23.1328 17.3675L22.7441 15.7062C23.2978 15.3468 24.2262 15.1079 25.1241 15.1079C26.921 15.1079 28.1925 15.9309 28.1925 17.5629V19.7789C28.1925 20.5726 28.4922 20.9917 29.0156 21.186L27.489 22.414V22.413ZM26.0818 19.1492L25.2588 19.2241C24.6898 19.2687 24.4357 19.6736 24.4357 20.0775C24.4357 20.4369 24.705 20.7366 25.1241 20.7366C25.6485 20.7366 26.0818 20.3326 26.0818 19.7485V19.1502V19.1492Z" fill="#14133B"/>
<path d="M34.7459 13.4155C34.4918 13.3112 34.1324 13.2363 33.8621 13.2363C33.0533 13.2363 32.6341 13.7152 32.6341 14.688V15.3319H34.5799L34.1456 17.1288H32.6331V22.1136H30.5072V17.1288H29.4746V15.3319H30.5072V14.5382C30.5072 12.472 31.8395 11.4546 33.5463 11.4546C34.1749 11.4546 34.8036 11.5295 35.1478 11.6793L34.7439 13.4155H34.7459Z" fill="#14133B"/>
<path d="M41.4216 18.3413L40.4487 19.3294H37.1252C37.2305 19.8832 37.9786 20.5118 39.1316 20.5118C39.8352 20.5118 40.554 20.3023 41.0025 20.0026L40.7929 21.8886C40.2837 22.1579 39.5052 22.3381 38.6376 22.3381C36.5714 22.3381 34.9102 20.9006 34.9102 18.6855C34.9102 16.4705 36.4965 15.1079 38.4432 15.1079C40.39 15.1079 41.4823 16.4108 41.4823 17.818C41.4823 17.983 41.4519 18.2067 41.4226 18.3424L41.4216 18.3413ZM38.4422 16.755C37.7984 16.755 37.2598 17.249 37.1252 17.8625H39.4161C39.4161 17.818 39.4313 17.7724 39.4313 17.7127C39.4313 17.249 39.0274 16.755 38.4432 16.755H38.4422Z" fill="#14133B"/>
</g>
<path d="M6.49504 67.3816C5.88433 67.3816 5.37745 67.2961 4.97438 67.1251C4.57132 66.948 4.26597 66.719 4.05833 66.4381C3.85069 66.1572 3.74076 65.8579 3.72855 65.5404C3.72855 65.4915 3.74687 65.4488 3.78351 65.4121C3.82626 65.3694 3.87512 65.348 3.93008 65.348H5.08431C5.16981 65.348 5.23393 65.3633 5.27668 65.3938C5.32554 65.4243 5.36829 65.464 5.40493 65.5129C5.45379 65.6045 5.52096 65.693 5.60646 65.7785C5.69807 65.864 5.8141 65.9343 5.95456 65.9892C6.10113 66.0381 6.28129 66.0625 6.49504 66.0625C6.84925 66.0625 7.1149 66.0076 7.29201 65.8976C7.47522 65.7877 7.56682 65.6381 7.56682 65.4488C7.56682 65.3144 7.51797 65.2045 7.42025 65.119C7.32254 65.0274 7.16376 64.948 6.9439 64.8808C6.73016 64.8075 6.44313 64.7342 6.08281 64.661C5.61868 64.5632 5.22172 64.4381 4.89194 64.2854C4.56827 64.1266 4.32093 63.922 4.14993 63.6716C3.97894 63.4151 3.89344 63.0976 3.89344 62.7189C3.89344 62.3464 3.99726 62.0136 4.2049 61.7204C4.41864 61.4273 4.71483 61.1983 5.09347 61.0334C5.47211 60.8685 5.92098 60.786 6.44007 60.786C6.86146 60.786 7.23094 60.841 7.5485 60.9509C7.87218 61.0609 8.14394 61.2074 8.36379 61.3906C8.58365 61.5738 8.74854 61.7693 8.85846 61.9769C8.9745 62.1784 9.03557 62.3769 9.04167 62.5723C9.04167 62.6212 9.02335 62.667 8.98671 62.7098C8.95007 62.7464 8.90427 62.7647 8.8493 62.7647H7.64011C7.57293 62.7647 7.51491 62.7525 7.46606 62.7281C7.4172 62.7037 7.37445 62.664 7.33781 62.609C7.30117 62.4746 7.20345 62.3586 7.04467 62.2609C6.892 62.1571 6.69046 62.1052 6.44007 62.1052C6.17136 62.1052 5.96067 62.154 5.80799 62.2517C5.66143 62.3433 5.58814 62.4869 5.58814 62.6823C5.58814 62.8044 5.62784 62.9113 5.70723 63.0029C5.79273 63.0945 5.93014 63.1739 6.11945 63.2411C6.31488 63.3082 6.58054 63.3785 6.91642 63.4518C7.47216 63.5556 7.92103 63.6869 8.26303 63.8457C8.60502 63.9983 8.85541 64.1999 9.01419 64.4503C9.17298 64.6945 9.25237 65.003 9.25237 65.3755C9.25237 65.7908 9.13328 66.1511 8.89511 66.4564C8.66304 66.7557 8.33936 66.9847 7.92409 67.1435C7.50881 67.3023 7.03246 67.3816 6.49504 67.3816ZM10.2977 67.29C10.2305 67.29 10.1755 67.2687 10.1328 67.2259C10.09 67.1832 10.0687 67.1282 10.0687 67.061V62.7556C10.0687 62.6884 10.09 62.6334 10.1328 62.5907C10.1755 62.5479 10.2305 62.5265 10.2977 62.5265H11.3786C11.4397 62.5265 11.4916 62.5479 11.5343 62.5907C11.5832 62.6334 11.6076 62.6884 11.6076 62.7556V67.061C11.6076 67.1282 11.5832 67.1832 11.5343 67.2259C11.4916 67.2687 11.4397 67.29 11.3786 67.29H10.2977ZM10.2885 61.8395C10.2213 61.8395 10.1664 61.8181 10.1236 61.7754C10.0809 61.7326 10.0595 61.6777 10.0595 61.6105V60.7952C10.0595 60.728 10.0809 60.6731 10.1236 60.6303C10.1664 60.5815 10.2213 60.557 10.2885 60.557H11.3786C11.4458 60.557 11.5008 60.5815 11.5435 60.6303C11.5924 60.6731 11.6168 60.728 11.6168 60.7952V61.6105C11.6168 61.6777 11.5924 61.7326 11.5435 61.7754C11.5008 61.8181 11.4458 61.8395 11.3786 61.8395H10.2885ZM13.1961 67.29C13.129 67.29 13.074 67.2687 13.0312 67.2259C12.9885 67.1832 12.9671 67.1282 12.9671 67.061V62.7556C12.9671 62.6884 12.9885 62.6334 13.0312 62.5907C13.074 62.5479 13.129 62.5265 13.1961 62.5265H14.2496C14.3168 62.5265 14.3717 62.5479 14.4145 62.5907C14.4572 62.6334 14.4786 62.6884 14.4786 62.7556V63.1037C14.6374 62.9143 14.845 62.7556 15.1015 62.6273C15.358 62.4991 15.6603 62.4349 16.0084 62.4349C16.3626 62.4349 16.6741 62.5143 16.9428 62.6731C17.2176 62.8319 17.4314 63.067 17.584 63.3785C17.7428 63.6838 17.8222 64.0594 17.8222 64.5052V67.061C17.8222 67.1282 17.7978 67.1832 17.7489 67.2259C17.7062 67.2687 17.6543 67.29 17.5932 67.29H16.439C16.3779 67.29 16.3229 67.2687 16.2741 67.2259C16.2313 67.1832 16.21 67.1282 16.21 67.061V64.5602C16.21 64.2732 16.1397 64.0533 15.9993 63.9006C15.8649 63.7418 15.6634 63.6625 15.3947 63.6625C15.1443 63.6625 14.9427 63.7418 14.7901 63.9006C14.6435 64.0533 14.5702 64.2732 14.5702 64.5602V67.061C14.5702 67.1282 14.5458 67.1832 14.4969 67.2259C14.4542 67.2687 14.4023 67.29 14.3412 67.29H13.1961ZM21.0339 67.3816C20.582 67.3816 20.182 67.2992 19.8339 67.1343C19.4858 66.9694 19.2079 66.7312 19.0003 66.4198C18.7987 66.1022 18.6888 65.7236 18.6705 65.2839C18.6644 65.1862 18.6613 65.064 18.6613 64.9175C18.6613 64.7648 18.6644 64.6396 18.6705 64.5419C18.6888 64.0961 18.7987 63.7174 19.0003 63.406C19.2018 63.0884 19.4766 62.8472 19.8247 62.6823C20.1789 62.5174 20.582 62.4349 21.0339 62.4349C21.4553 62.4349 21.8156 62.496 22.1149 62.6182C22.4141 62.7342 22.6584 62.8808 22.8477 63.0579C23.037 63.235 23.1775 63.4182 23.2691 63.6075C23.3668 63.7907 23.4187 63.9525 23.4248 64.093C23.4309 64.1541 23.4096 64.209 23.3607 64.2579C23.3119 64.3006 23.2569 64.322 23.1958 64.322H22.0324C21.9652 64.322 21.9133 64.3067 21.8767 64.2762C21.8401 64.2457 21.8065 64.1999 21.7759 64.1388C21.7026 63.9495 21.608 63.8151 21.492 63.7357C21.382 63.6563 21.2385 63.6167 21.0614 63.6167C20.8171 63.6167 20.6278 63.696 20.4935 63.8548C20.3652 64.0136 20.295 64.2579 20.2828 64.5877C20.2767 64.832 20.2767 65.0488 20.2828 65.2381C20.295 65.574 20.3652 65.8182 20.4935 65.9709C20.6278 66.1236 20.8171 66.1999 21.0614 66.1999C21.2507 66.1999 21.4003 66.1602 21.5103 66.0808C21.6202 66.0015 21.7088 65.8671 21.7759 65.6778C21.8065 65.6167 21.8401 65.5709 21.8767 65.5404C21.9133 65.5098 21.9652 65.4946 22.0324 65.4946H23.1958C23.2569 65.4946 23.3119 65.519 23.3607 65.5679C23.4096 65.6106 23.4309 65.6625 23.4248 65.7236C23.4187 65.8274 23.3882 65.9495 23.3332 66.09C23.2783 66.2244 23.1928 66.3679 23.0767 66.5206C22.9607 66.6732 22.808 66.8167 22.6187 66.9511C22.4355 67.0793 22.2126 67.1832 21.95 67.2626C21.6874 67.3419 21.382 67.3816 21.0339 67.3816ZM26.4464 67.3816C25.7258 67.3816 25.1517 67.1862 24.7242 66.7954C24.2967 66.4045 24.0738 65.8243 24.0555 65.0549C24.0555 65.0121 24.0555 64.9571 24.0555 64.89C24.0555 64.8228 24.0555 64.7709 24.0555 64.7342C24.0738 64.2518 24.1807 63.8396 24.3761 63.4976C24.5776 63.1495 24.8524 62.8869 25.2006 62.7098C25.5548 62.5265 25.967 62.4349 26.4372 62.4349C26.9746 62.4349 27.4174 62.5418 27.7655 62.7556C28.1197 62.9693 28.3854 63.2594 28.5625 63.6258C28.7396 63.9922 28.8281 64.4106 28.8281 64.8808V65.1007C28.8281 65.1678 28.8037 65.2228 28.7548 65.2656C28.7121 65.3083 28.6602 65.3297 28.5991 65.3297H25.6677C25.6677 65.3358 25.6677 65.3449 25.6677 65.3572C25.6677 65.3694 25.6677 65.3816 25.6677 65.3938C25.6738 65.5709 25.7044 65.7327 25.7593 65.8793C25.8143 66.0259 25.8998 66.1419 26.0158 66.2274C26.1319 66.3129 26.2723 66.3557 26.4372 66.3557C26.5594 66.3557 26.6601 66.3373 26.7395 66.3007C26.825 66.2579 26.8953 66.2121 26.9502 66.1633C27.0052 66.1083 27.0479 66.0625 27.0785 66.0259C27.1334 65.9648 27.1762 65.9282 27.2067 65.916C27.2434 65.8976 27.2983 65.8885 27.3716 65.8885H28.5075C28.5686 65.8885 28.6174 65.9068 28.6541 65.9434C28.6968 65.974 28.7152 66.0198 28.709 66.0808C28.7029 66.1847 28.651 66.3099 28.5533 66.4564C28.4556 66.603 28.3121 66.7496 28.1228 66.8961C27.9396 67.0366 27.7075 67.1526 27.4266 67.2442C27.1456 67.3358 26.8189 67.3816 26.4464 67.3816ZM25.6677 64.4228H27.2159V64.4045C27.2159 64.209 27.1853 64.038 27.1243 63.8915C27.0693 63.7449 26.9808 63.6319 26.8586 63.5525C26.7426 63.4731 26.6021 63.4334 26.4372 63.4334C26.2723 63.4334 26.1319 63.4731 26.0158 63.5525C25.9059 63.6319 25.8204 63.7449 25.7593 63.8915C25.6983 64.038 25.6677 64.209 25.6677 64.4045V64.4228ZM31.7104 67.29C31.6432 67.29 31.5852 67.2687 31.5364 67.2259C31.4936 67.1832 31.4722 67.1282 31.4722 67.061V66.4106C31.4722 66.3679 31.4845 66.3038 31.5089 66.2183C31.5333 66.1266 31.5974 66.0411 31.7013 65.9618L32.654 65.0274C33.1425 64.6549 33.5425 64.3403 33.854 64.0838C34.1716 63.8212 34.4067 63.5892 34.5594 63.3876C34.712 63.1861 34.7884 62.9968 34.7884 62.8197C34.7884 62.612 34.7334 62.441 34.6235 62.3067C34.5197 62.1662 34.3364 62.096 34.0738 62.096C33.8967 62.096 33.7471 62.1357 33.625 62.2151C33.5089 62.2884 33.4204 62.3861 33.3593 62.5082C33.2982 62.6304 33.2555 62.7556 33.2311 62.8838C33.2066 62.9632 33.1639 63.0182 33.1028 63.0487C33.0479 63.0792 32.9868 63.0945 32.9196 63.0945H31.7745C31.7196 63.0945 31.6738 63.0762 31.6371 63.0395C31.6005 63.0029 31.5822 62.9571 31.5822 62.9021C31.5883 62.609 31.6493 62.3342 31.7654 62.0777C31.8875 61.8212 32.0555 61.5952 32.2692 61.3998C32.4891 61.1983 32.7486 61.0425 33.0479 60.9326C33.3532 60.8227 33.6952 60.7677 34.0738 60.7677C34.5929 60.7677 35.0326 60.8502 35.393 61.0151C35.7594 61.1799 36.0373 61.412 36.2266 61.7113C36.4159 62.0044 36.5106 62.3494 36.5106 62.7464C36.5106 63.0456 36.4434 63.3266 36.309 63.5892C36.1808 63.8457 35.9945 64.093 35.7502 64.3312C35.5121 64.5632 35.2281 64.8045 34.8983 65.0549L34.0555 65.9068H36.4098C36.477 65.9068 36.5319 65.9282 36.5747 65.9709C36.6235 66.0137 36.648 66.0686 36.648 66.1358V67.061C36.648 67.1282 36.6235 67.1832 36.5747 67.2259C36.5319 67.2687 36.477 67.29 36.4098 67.29H31.7104ZM40.16 67.3816C39.7203 67.3816 39.3386 67.3206 39.015 67.1984C38.6913 67.0702 38.4226 66.8961 38.2088 66.6763C38.0012 66.4564 37.8424 66.1999 37.7325 65.9068C37.6226 65.6137 37.5584 65.2991 37.5401 64.9633C37.534 64.7984 37.5279 64.6121 37.5218 64.4045C37.5218 64.1907 37.5218 63.977 37.5218 63.7632C37.5279 63.5434 37.534 63.3479 37.5401 63.1769C37.5584 62.8411 37.6226 62.5296 37.7325 62.2426C37.8485 61.9494 38.0134 61.696 38.2272 61.4822C38.447 61.2624 38.7157 61.0914 39.0333 60.9692C39.357 60.8471 39.7325 60.786 40.16 60.786C40.5936 60.786 40.9692 60.8471 41.2868 60.9692C41.6044 61.0914 41.87 61.2624 42.0838 61.4822C42.3036 61.696 42.4716 61.9494 42.5876 62.2426C42.7036 62.5296 42.7677 62.8411 42.78 63.1769C42.7922 63.3479 42.7983 63.5434 42.7983 63.7632C42.8044 63.977 42.8044 64.1907 42.7983 64.4045C42.7983 64.6121 42.7922 64.7984 42.78 64.9633C42.7677 65.2991 42.7036 65.6137 42.5876 65.9068C42.4777 66.1999 42.3158 66.4564 42.1021 66.6763C41.8944 66.8961 41.6288 67.0702 41.3051 67.1984C40.9875 67.3206 40.6058 67.3816 40.16 67.3816ZM40.16 66.0534C40.4776 66.0534 40.7066 65.9526 40.8471 65.7511C40.9936 65.5434 41.07 65.2656 41.0761 64.9175C41.0883 64.7403 41.0944 64.5541 41.0944 64.3587C41.1005 64.1632 41.1005 63.9678 41.0944 63.7724C41.0944 63.577 41.0883 63.3968 41.0761 63.2319C41.07 62.896 40.9936 62.6243 40.8471 62.4166C40.7066 62.209 40.4776 62.1021 40.16 62.096C39.8425 62.1021 39.6135 62.209 39.473 62.4166C39.3325 62.6243 39.2562 62.896 39.244 63.2319C39.2379 63.3968 39.2318 63.577 39.2257 63.7724C39.2257 63.9678 39.2257 64.1632 39.2257 64.3587C39.2318 64.5541 39.2379 64.7403 39.244 64.9175C39.2562 65.2656 39.3356 65.5434 39.4822 65.7511C39.6287 65.9526 39.8547 66.0534 40.16 66.0534ZM45.8184 67.29C45.7573 67.29 45.7024 67.2687 45.6535 67.2259C45.6108 67.1832 45.5894 67.1282 45.5894 67.061V62.7006L44.3344 63.6625C44.2794 63.7052 44.2214 63.7205 44.1603 63.7083C44.1054 63.696 44.0565 63.6625 44.0138 63.6075L43.4733 62.9021C43.4367 62.8472 43.4214 62.7891 43.4275 62.7281C43.4397 62.6609 43.4764 62.609 43.5374 62.5723L45.6444 60.9418C45.681 60.9173 45.7146 60.9021 45.7451 60.896C45.7818 60.8838 45.8215 60.8776 45.8642 60.8776H47.0093C47.0703 60.8776 47.1223 60.899 47.165 60.9418C47.2139 60.9845 47.2383 61.0395 47.2383 61.1067V67.061C47.2383 67.1282 47.2139 67.1832 47.165 67.2259C47.1223 67.2687 47.0703 67.29 47.0093 67.29H45.8184ZM50.7658 67.3908C50.1917 67.3908 49.7123 67.3023 49.3275 67.1251C48.9428 66.9419 48.6497 66.7068 48.4481 66.4198C48.2527 66.1266 48.1489 65.8121 48.1367 65.4762C48.1367 65.4213 48.155 65.3755 48.1916 65.3388C48.2283 65.3022 48.2741 65.2839 48.329 65.2839H49.5566C49.6359 65.2839 49.697 65.3022 49.7398 65.3388C49.7886 65.3694 49.8253 65.4091 49.8497 65.4579C49.9047 65.5984 49.9749 65.7144 50.0604 65.806C50.152 65.8976 50.2558 65.9648 50.3718 66.0076C50.494 66.0503 50.6283 66.0717 50.7749 66.0717C50.9459 66.0717 51.1047 66.035 51.2513 65.9618C51.3978 65.8885 51.5139 65.7816 51.5994 65.6411C51.691 65.4946 51.7368 65.3205 51.7368 65.119C51.7368 64.9358 51.694 64.777 51.6085 64.6426C51.5291 64.5083 51.4162 64.4014 51.2696 64.322C51.123 64.2426 50.9581 64.2029 50.7749 64.2029C50.6283 64.2029 50.5093 64.2213 50.4176 64.2579C50.326 64.2884 50.2497 64.3281 50.1886 64.377C50.1276 64.4258 50.0726 64.4686 50.0237 64.5052C49.9749 64.5358 49.9199 64.551 49.8589 64.551H48.6588C48.6039 64.551 48.555 64.5327 48.5123 64.4961C48.4756 64.4533 48.4573 64.4045 48.4573 64.3495L48.7871 61.1525C48.7993 61.0609 48.8329 60.9937 48.8878 60.9509C48.9428 60.9021 49.01 60.8776 49.0894 60.8776H52.7628C52.8299 60.8776 52.8849 60.899 52.9276 60.9418C52.9704 60.9845 52.9918 61.0395 52.9918 61.1067V61.9678C52.9918 62.0349 52.9704 62.0899 52.9276 62.1326C52.8849 62.1754 52.8299 62.1968 52.7628 62.1968H50.1062L49.9871 63.3876C50.1215 63.296 50.2772 63.2227 50.4543 63.1678C50.6375 63.1067 50.8848 63.0762 51.1963 63.0762C51.4894 63.0762 51.7673 63.125 52.0299 63.2227C52.2986 63.3205 52.5368 63.4609 52.7444 63.6441C52.9582 63.8273 53.1231 64.0472 53.2391 64.3037C53.3612 64.5541 53.4223 64.8381 53.4223 65.1556C53.4223 65.5892 53.3154 65.974 53.1017 66.3099C52.8941 66.6457 52.5918 66.9114 52.1948 67.1068C51.7978 67.2961 51.3215 67.3908 50.7658 67.3908Z" fill="white"/>
<defs>
<clipPath id="clip0_147_52277">
<rect width="56" height="56" fill="white" transform="translate(0.962891)"/>
</clipPath>
</defs>
</svg>
