<svg width="44" height="56" viewBox="0 0 44 56" fill="none" xmlns="http://www.w3.org/2000/svg">
<g opacity="0.8">
<g clip-path="url(#clip0_147_52961)">
<path d="M21.9996 43.9992C34.1497 43.9992 43.9992 34.1497 43.9992 21.9996C43.9992 9.84956 34.1497 0 21.9996 0C9.84956 0 0 9.84956 0 21.9996C0 34.1497 9.84956 43.9992 21.9996 43.9992Z" fill="#9AC331"/>
<path d="M36.6667 29.3335H22V44.0002H36.6667V29.3335Z" fill="#14133B"/>
<path d="M24.1297 34.0165C24.2148 34.0189 24.3206 34.0228 24.4208 34.0228C24.521 34.0228 24.6157 34.0189 24.7119 34.0165V34.0785H24.6722C24.6181 34.0785 24.5664 34.0944 24.5664 34.1565C24.5664 34.1795 24.5799 34.2145 24.5958 34.2615L24.9291 35.1873H24.9347L25.3133 33.9902H25.3888L25.7969 35.177H25.8017L26.0864 34.3434C26.1023 34.3004 26.131 34.2122 26.131 34.1628C26.131 34.0976 26.0952 34.0785 26.0276 34.0785H25.9759V34.0165C26.0435 34.0189 26.1373 34.0228 26.2201 34.0228C26.3028 34.0228 26.3831 34.0189 26.4619 34.0165V34.0785H26.4221C26.3346 34.0785 26.2805 34.1048 26.2423 34.2177L25.7945 35.5055H25.7181L25.3101 34.3148H25.3053L24.9219 35.5055H24.8456L24.3659 34.2241C24.3206 34.1048 24.2546 34.0785 24.1734 34.0785H24.1289V34.0165H24.1297Z" fill="white"/>
<path d="M27.1798 33.9902C27.626 33.9902 28.0158 34.3211 28.0158 34.7475C28.0158 35.1094 27.7111 35.5055 27.1734 35.5055C26.689 35.5055 26.3398 35.1706 26.3398 34.7642C26.3398 34.306 26.7383 33.9902 27.1798 33.9902ZM27.1734 34.0761C26.8592 34.0761 26.5641 34.2527 26.5641 34.7292C26.5641 35.0617 26.802 35.4276 27.187 35.4276C27.6014 35.4276 27.7923 35.1476 27.7923 34.7705C27.7923 34.4396 27.5656 34.0769 27.1742 34.0769" fill="white"/>
<path d="M28.0586 35.4173H28.0984C28.2018 35.4173 28.2463 35.3823 28.2463 35.2495V34.2473C28.2463 34.1136 28.2018 34.0786 28.0984 34.0786H28.0586V34.0166C28.1365 34.019 28.2447 34.023 28.3457 34.023C28.4953 34.023 28.6035 34.0166 28.7021 34.0166C29.0982 34.0166 29.1706 34.3022 29.1706 34.3968C29.1706 34.6657 28.9646 34.7484 28.8524 34.781L29.1523 35.2368C29.2756 35.4213 29.3114 35.434 29.4935 35.4444V35.4873C29.4506 35.4873 29.4108 35.4897 29.3686 35.4897C29.1706 35.4897 29.0791 35.4666 28.9606 35.2885L28.6981 34.8963C28.6464 34.82 28.6178 34.8168 28.4444 34.812V35.2002C28.4444 35.3951 28.4825 35.4173 28.5724 35.4173H28.6369V35.4794C28.5382 35.4778 28.4444 35.473 28.3457 35.473C28.2471 35.473 28.1373 35.477 28.0586 35.4794V35.4173ZM28.4436 34.7197C28.4818 34.7325 28.5382 34.7341 28.5955 34.7341C28.7975 34.7341 28.9638 34.6498 28.9638 34.4366C28.9638 34.3459 28.897 34.0953 28.5852 34.0953C28.5319 34.0953 28.4889 34.1001 28.4436 34.1041V34.7205V34.7197Z" fill="white"/>
<path d="M29.5672 35.4175H29.607C29.7104 35.4175 29.7549 35.3825 29.7549 35.2497V34.2475C29.7549 34.1138 29.7096 34.0788 29.607 34.0788H29.5672V34.0176C29.6452 34.0192 29.7533 34.0239 29.8543 34.0239C29.9554 34.0239 30.0468 34.0192 30.1518 34.0176V34.0788H30.1001C29.9975 34.0788 29.9522 34.1138 29.9522 34.2475V35.202C29.9522 35.3555 29.988 35.4088 30.264 35.4088C30.6315 35.4088 30.6744 35.3491 30.7142 35.1153H30.7834L30.7699 35.4788C30.5726 35.4764 30.3189 35.4724 30.1216 35.4724C29.8599 35.4724 29.6444 35.4764 29.5664 35.4788V35.4167L29.5672 35.4175Z" fill="white"/>
<path d="M30.8711 35.4173H30.9117C31.0143 35.4173 31.0596 35.3823 31.0596 35.2495V34.2473C31.0596 34.1136 31.0143 34.0786 30.9117 34.0786H30.8711V34.0166C30.9498 34.019 31.0572 34.023 31.1582 34.023C31.338 34.023 31.5194 34.0166 31.6983 34.0166C32.3036 34.0166 32.5168 34.4684 32.5168 34.7333C32.5168 35.0331 32.3013 35.4786 31.6156 35.4786C31.4788 35.4786 31.3173 35.4722 31.1582 35.4722C31.058 35.4722 30.9498 35.4762 30.8711 35.4786V35.4165V35.4173ZM31.2569 35.2145C31.2569 35.3744 31.3285 35.4014 31.5838 35.4014C31.9767 35.4014 32.3013 35.2455 32.3013 34.7874C32.3013 34.4875 32.0968 34.0866 31.5416 34.0866C31.4478 34.0866 31.3531 34.0946 31.2569 34.1033V35.2145Z" fill="white"/>
<path d="M24.5891 37.291H24.6408C24.7617 37.291 24.784 37.2648 24.784 37.0962V35.977H24.5279C24.2884 35.977 24.259 36.1043 24.2455 36.265H24.1699V35.8911C24.2367 35.8927 24.5915 35.8975 24.8826 35.8975C25.1515 35.8975 25.5189 35.8935 25.5953 35.8911V36.265H25.5189C25.5054 36.1051 25.476 35.977 25.2366 35.977H24.9812V37.0962C24.9812 37.2648 25.0035 37.291 25.1244 37.291H25.1761V37.3531C25.091 37.3507 24.9948 37.3467 24.8826 37.3467C24.7705 37.3467 24.6742 37.3507 24.5891 37.3531V37.291Z" fill="white"/>
<path d="M25.7148 37.2904H25.7554C25.8588 37.2904 25.9034 37.2554 25.9034 37.1217V36.1195C25.9034 35.9859 25.8588 35.9509 25.7554 35.9509H25.7148V35.8896C25.7936 35.8912 25.901 35.8952 26.0012 35.8952C26.1515 35.8952 26.2597 35.8896 26.3583 35.8896C26.7545 35.8896 26.826 36.1744 26.826 36.2691C26.826 36.5379 26.62 36.6206 26.5079 36.6532L26.8077 37.109C26.9318 37.2944 26.9668 37.2832 27.149 37.2936V37.3365C27.118 37.3453 27.0416 37.3524 26.9986 37.3556C26.834 37.3683 26.7338 37.3389 26.6153 37.1607L26.3536 36.7686C26.3019 36.6922 26.2724 36.6882 26.0998 36.6843V37.0724C26.0998 37.2673 26.138 37.2896 26.2279 37.2896H26.2931V37.3508C26.1945 37.3492 26.0998 37.3445 26.0012 37.3445C25.9026 37.3445 25.7928 37.3484 25.7148 37.3508V37.2896V37.2904ZM26.1006 36.592C26.1388 36.6039 26.1953 36.6063 26.2533 36.6063C26.4546 36.6063 26.6208 36.522 26.6208 36.3088C26.6208 36.2182 26.5532 35.9676 26.2422 35.9676C26.1889 35.9676 26.146 35.9716 26.1006 35.9756V36.592Z" fill="white"/>
<path d="M27.002 37.2905H27.029C27.1523 37.2905 27.2016 37.2396 27.2708 37.0686L27.7838 35.8325H27.8268L28.4027 37.0909C28.4568 37.2102 28.526 37.2905 28.6294 37.2905H28.6763V37.3518C28.5912 37.3478 28.4886 37.3454 28.3717 37.3454C28.2547 37.3454 28.1458 37.3478 28.0622 37.3518V37.2905H28.1179C28.1895 37.2905 28.2325 37.2682 28.2325 37.2245C28.2325 37.1959 28.2102 37.1402 28.2014 37.1219L28.0376 36.752H27.515L27.3965 37.0766C27.3806 37.1171 27.3583 37.1792 27.3583 37.2245C27.3583 37.2611 27.3806 37.2905 27.4506 37.2905H27.4999V37.3518C27.4219 37.3478 27.3297 37.3454 27.2239 37.3454C27.1388 37.3454 27.056 37.3478 27.002 37.3518V37.2905ZM27.7528 36.1117L27.5444 36.6741H28.0034L27.7528 36.1117Z" fill="white"/>
<path d="M28.2078 35.89C28.2977 35.8915 28.4099 35.8963 28.5149 35.8963C28.6199 35.8963 28.7272 35.8923 28.8195 35.89V35.9512H28.7877C28.6851 35.9512 28.6533 35.9926 28.6533 36.0355C28.6533 36.0721 28.6668 36.1119 28.7002 36.1874L29.1154 37.1236L29.5569 36.1683C29.5839 36.1095 29.6038 36.0514 29.6038 36.0101C29.6038 35.9687 29.5656 35.9504 29.5139 35.9504H29.4717V35.8892C29.5409 35.8908 29.6284 35.8955 29.7088 35.8955C29.7891 35.8955 29.8679 35.8915 29.9458 35.8892V35.9504H29.9037C29.8209 35.9504 29.7653 35.9767 29.6865 36.1437L29.1066 37.3782H29.0215L28.4496 36.1174C28.3916 35.9902 28.351 35.9512 28.25 35.9512H28.207V35.89H28.2078Z" fill="white"/>
<path d="M30.0117 37.2907H30.0523C30.1557 37.2907 30.2002 37.2557 30.2002 37.1221V36.1198C30.2002 35.9862 30.1557 35.9512 30.0523 35.9512H30.0117V35.8892C30.0833 35.8908 30.3386 35.8955 30.5629 35.8955C30.8278 35.8955 30.9328 35.8915 31.0895 35.8892C31.0943 36.0164 31.0983 36.1278 31.1102 36.2383H31.0473C31.0251 36.0944 31.0092 35.9671 30.6123 35.9671H30.3975V36.5486H30.5924C30.866 36.5486 30.8739 36.5056 30.8787 36.3839H30.9416C30.9392 36.4308 30.9368 36.4953 30.9368 36.5851C30.9368 36.6655 30.9392 36.7307 30.9416 36.7721H30.8787C30.8676 36.6695 30.8652 36.6265 30.6123 36.6265H30.3975V37.1189C30.3975 37.2422 30.4468 37.2732 30.5908 37.2732H30.6512C31.0283 37.2732 31.1261 37.2072 31.1619 36.9797H31.2247C31.2088 37.1069 31.1961 37.2263 31.1794 37.3511C31.045 37.3487 30.8055 37.3448 30.5629 37.3448C30.2853 37.3448 30.0833 37.3487 30.0117 37.3511V37.2891V37.2907Z" fill="white"/>
<path d="M31.3262 37.2907H31.3667C31.4693 37.2907 31.5147 37.2557 31.5147 37.1221V36.1198C31.5147 35.9862 31.4693 35.9512 31.3667 35.9512H31.3262V35.8892C31.4049 35.8908 31.5123 35.8955 31.6133 35.8955C31.7143 35.8955 31.8058 35.8915 31.9116 35.8892V35.9512H31.8599C31.7565 35.9512 31.7119 35.9862 31.7119 36.1198V37.0743C31.7119 37.2278 31.7477 37.2811 32.0238 37.2811C32.3912 37.2811 32.4342 37.2215 32.474 36.9876H32.5432L32.5296 37.3511C32.3324 37.3487 32.0786 37.3448 31.8822 37.3448C31.6197 37.3448 31.4049 37.3487 31.3262 37.3511V37.2891V37.2907Z" fill="white"/>
<path d="M33.8311 36.5715C33.8916 36.5731 33.9433 36.5771 34.0308 36.5771C34.17 36.5771 34.2463 36.5731 34.3044 36.5715V36.6328C34.1477 36.6328 34.1294 36.6511 34.1087 36.799C34.1024 36.8483 34.0713 36.9859 34.026 37.0726C34.201 37.2715 34.2591 37.2898 34.4547 37.2898V37.3518C34.407 37.3494 34.3474 37.3454 34.2909 37.3454C34.1899 37.3454 34.1254 37.3494 34.0602 37.3518L33.9234 37.2166C33.8558 37.2858 33.7039 37.3789 33.4573 37.3789C33.1701 37.3789 32.9824 37.2023 32.9824 36.9971C32.9824 36.8364 33.0986 36.7139 33.3117 36.5922C33.2043 36.4896 33.1017 36.3925 33.1017 36.2406C33.1017 36.0131 33.3022 35.8628 33.5026 35.8628C33.6752 35.8628 33.8637 35.9678 33.8637 36.1563C33.8637 36.3146 33.7405 36.4045 33.501 36.5421L33.9759 37.0169C34.0053 36.9573 34.0228 36.8547 34.0228 36.772C34.0228 36.6447 33.9528 36.6328 33.8327 36.6328V36.5715H33.8311ZM33.3515 36.6351C33.202 36.7258 33.1606 36.8284 33.1606 36.939C33.1606 37.0949 33.3133 37.2922 33.5726 37.2922C33.7007 37.2922 33.8303 37.2245 33.8773 37.1625L33.3507 36.6343L33.3515 36.6351ZM33.4438 35.9415C33.3356 35.9415 33.2131 36.0378 33.2266 36.1794C33.237 36.286 33.439 36.4792 33.4636 36.5023C33.5981 36.4124 33.7015 36.344 33.7015 36.2088C33.7015 36.0998 33.6259 35.9423 33.4446 35.9423" fill="white"/>
<path d="M24.5891 39.1631H24.6408C24.7617 39.1631 24.784 39.1369 24.784 38.9682V37.8491H24.5279C24.2884 37.8491 24.259 37.9771 24.2455 38.137H24.1699V37.7632C24.2367 37.7656 24.5915 37.7695 24.8826 37.7695C25.1515 37.7695 25.5189 37.7656 25.5953 37.7632V38.137H25.5189C25.5054 37.9771 25.476 37.8491 25.2366 37.8491H24.9812V38.9682C24.9812 39.1369 25.0035 39.1631 25.1244 39.1631H25.1761V39.2252C25.091 39.2236 24.9948 39.2188 24.8826 39.2188C24.7705 39.2188 24.6742 39.2236 24.5891 39.2252V39.1631Z" fill="white"/>
<path d="M26.4579 37.7358C26.9042 37.7358 27.2939 38.0667 27.2939 38.4939C27.2939 38.855 26.9893 39.2519 26.4508 39.2519C25.9672 39.2519 25.6172 38.917 25.6172 38.5106C25.6172 38.0524 26.0165 37.7358 26.4579 37.7358ZM26.4516 37.8225C26.1382 37.8225 25.8423 37.9991 25.8423 38.4748C25.8423 38.8081 26.0801 39.1732 26.4651 39.1732C26.8795 39.1732 27.0704 38.894 27.0704 38.5161C27.0704 38.1852 26.8437 37.8225 26.4516 37.8225Z" fill="white"/>
<path d="M27.8699 37.8244H27.827C27.7419 37.8284 27.6902 37.8554 27.6878 38.0272C27.6854 38.2428 27.679 38.4607 27.679 38.6763C27.679 38.8505 27.7101 38.9308 27.7713 39.0087C27.8405 39.101 27.959 39.1726 28.1436 39.1726C28.3424 39.1726 28.511 39.0636 28.5627 38.996C28.6343 38.9038 28.6701 38.7765 28.6701 38.6309V38.413C28.6701 38.1378 28.6439 37.9182 28.6256 37.8793C28.6009 37.8323 28.5763 37.8236 28.5198 37.8236H28.4729V37.7615C28.5357 37.7639 28.6256 37.7679 28.7083 37.7679C28.791 37.7679 28.8674 37.7631 28.9485 37.7615V37.8236H28.9143C28.834 37.8236 28.7775 37.8522 28.7775 38.0471V38.5729C28.7775 38.7924 28.7218 38.961 28.6025 39.0819C28.5087 39.1766 28.3154 39.2506 28.1292 39.2506C27.9662 39.2506 27.8357 39.2116 27.6949 39.1145C27.5422 39.0119 27.4826 38.8417 27.4826 38.6277V37.9811C27.4826 37.8498 27.4213 37.8228 27.3394 37.8228H27.2988V37.7607C27.3911 37.7631 27.4873 37.7671 27.586 37.7671C27.6846 37.7671 27.7761 37.7623 27.8707 37.7607V37.8228L27.8699 37.8244Z" fill="white"/>
<path d="M29.082 39.1629H29.1218C29.2252 39.1629 29.2697 39.1279 29.2697 38.9951V37.9929C29.2697 37.8592 29.2252 37.8242 29.1218 37.8242H29.082V37.7622C29.16 37.7646 29.2682 37.7686 29.3692 37.7686C29.5195 37.7686 29.6269 37.7622 29.7255 37.7622C30.1224 37.7622 30.194 38.0478 30.194 38.1416C30.194 38.4105 29.988 38.4932 29.8751 38.5258L30.1757 38.9816C30.299 39.1669 30.3348 39.1788 30.5162 39.1892V39.2321C30.474 39.2321 30.4334 39.2345 30.3905 39.2345C30.194 39.2345 30.101 39.2115 29.9824 39.0333L29.7207 38.6411C29.669 38.5656 29.6396 38.5616 29.4678 38.5568V38.945C29.4678 39.1399 29.506 39.1621 29.5959 39.1621H29.6603V39.2242C29.5625 39.2218 29.4678 39.2178 29.3692 39.2178C29.2705 39.2178 29.1608 39.2218 29.082 39.2242V39.1621V39.1629ZM29.4678 38.4654C29.506 38.4781 29.5625 38.4797 29.6205 38.4797C29.8218 38.4797 29.988 38.3954 29.988 38.1822C29.988 38.0915 29.9204 37.841 29.6086 37.841C29.5553 37.841 29.5124 37.8449 29.4678 37.8489V38.4654Z" fill="white"/>
<path d="M30.5703 39.1629H30.6109C30.7143 39.1629 30.7588 39.1279 30.7588 38.9951V37.9929C30.7588 37.8592 30.7135 37.8242 30.6109 37.8242H30.5703V37.7622C30.6491 37.7646 30.7564 37.7686 30.8575 37.7686C30.9585 37.7686 31.0499 37.7646 31.1446 37.7622V37.8242H31.104C31.0014 37.8242 30.9561 37.8592 30.9561 37.9929V38.9951C30.9561 39.1287 31.0014 39.1629 31.104 39.1629H31.1446V39.225C31.0499 39.2234 30.9561 39.2186 30.8575 39.2186C30.7588 39.2186 30.6491 39.2234 30.5703 39.225V39.1629Z" fill="white"/>
<path d="M32.2418 38.1369H32.1654C32.163 38.0709 32.1455 37.8148 31.8067 37.8148C31.6213 37.8148 31.502 37.9237 31.502 38.0574C31.502 38.1767 31.5688 38.2602 31.755 38.3382L31.9618 38.4249C32.1225 38.4925 32.2951 38.603 32.2951 38.809C32.2951 39.0652 32.1113 39.2529 31.7367 39.2529C31.7009 39.2529 31.506 39.2505 31.3358 39.2012L31.3262 38.8639H31.3939C31.4114 39.0532 31.584 39.1821 31.7749 39.1821C31.9658 39.1821 32.1336 39.0755 32.1336 38.9029C32.1336 38.7223 31.9785 38.6523 31.8536 38.5975L31.611 38.4925C31.4408 38.4185 31.3223 38.3079 31.3223 38.1393C31.3223 37.9277 31.5195 37.7368 31.8226 37.7368C31.9634 37.7368 32.1026 37.7678 32.2418 37.7925V38.1377V38.1369Z" fill="white"/>
<path d="M32.4575 39.1629H32.498C32.6078 39.1629 32.646 39.112 32.6523 38.8615C32.6587 38.5759 32.6746 38.288 32.6746 37.9929C32.6746 37.8553 32.6293 37.8242 32.5108 37.8242H32.4702V37.7622C32.5394 37.7646 32.5935 37.7686 32.6627 37.7686C32.7319 37.7686 32.8154 37.7646 32.8417 37.7622L33.4581 38.9673L34.003 37.7622C34.0745 37.7646 34.1445 37.7686 34.209 37.7686C34.2734 37.7686 34.3458 37.7646 34.415 37.7622V37.8242H34.3856C34.2821 37.8242 34.2129 37.8465 34.2129 37.9929C34.2129 38.0979 34.2217 38.6125 34.2265 38.9227C34.2281 39.1279 34.2527 39.1629 34.3832 39.1629H34.4277V39.225C34.3537 39.2234 34.2599 39.2186 34.1406 39.2186C34.0213 39.2186 33.9258 39.2234 33.8494 39.225V39.1629H33.8829C34.0085 39.1629 34.0332 39.1263 34.0332 38.9458V37.9109H34.0292L33.4287 39.2441H33.3794L32.7629 38.0303H32.7581V38.8726C32.7581 39.0961 32.778 39.1637 32.9013 39.1637H32.9323V39.2258C32.8766 39.2242 32.7955 39.2194 32.6953 39.2194C32.5951 39.2194 32.5227 39.2242 32.4551 39.2258V39.1637L32.4575 39.1629Z" fill="white"/>
<path d="M25.7196 40.0036H25.6838C25.6257 39.8962 25.5175 39.6958 25.0944 39.6958C24.6394 39.6958 24.4938 40.08 24.4938 40.3814C24.4938 40.8706 24.8725 41.0392 25.1055 41.0392C25.4579 41.0392 25.6186 40.8563 25.7243 40.7354H25.7403V40.8913C25.6615 40.9597 25.4714 41.1251 25.1238 41.1251C24.6147 41.1251 24.2695 40.8316 24.2695 40.4188C24.2695 40.006 24.5718 39.6099 25.1031 39.6099C25.325 39.6099 25.5382 39.6735 25.6162 39.6966C25.6583 39.7093 25.7013 39.7228 25.7283 39.7252L25.7196 40.0052V40.0036Z" fill="white"/>
<path d="M26.6786 39.6094C27.1249 39.6094 27.5146 39.9395 27.5146 40.3666C27.5146 40.7285 27.2092 41.1246 26.6715 41.1246C26.1871 41.1246 25.8379 40.7898 25.8379 40.3841C25.8379 39.9259 26.2372 39.6094 26.6786 39.6094ZM26.6715 39.6961C26.3581 39.6961 26.0614 39.8719 26.0614 40.3483C26.0614 40.6816 26.2992 41.0467 26.6842 41.0467C27.0986 41.0467 27.2895 40.7675 27.2895 40.3897C27.2895 40.0588 27.0628 39.6961 26.6715 39.6961Z" fill="white"/>
<path d="M28.0906 39.6973H28.0477C27.9626 39.7013 27.9109 39.7283 27.9093 39.9001C27.9069 40.1157 27.8997 40.3336 27.8997 40.5492C27.8997 40.7234 27.9316 40.8037 27.992 40.8817C28.0612 40.9739 28.1805 41.0463 28.3643 41.0463C28.5639 41.0463 28.7317 40.9374 28.7834 40.8697C28.855 40.7775 28.8908 40.6502 28.8908 40.5046V40.2867C28.8908 40.0115 28.8638 39.792 28.8463 39.753C28.8216 39.706 28.797 39.6973 28.7405 39.6973H28.6936V39.6353C28.7564 39.6368 28.8463 39.6416 28.929 39.6416C29.0117 39.6416 29.0881 39.6368 29.1684 39.6353V39.6973H29.135C29.0547 39.6973 28.9982 39.7259 28.9982 39.9208V40.4466C28.9982 40.6661 28.9425 40.8347 28.824 40.9564C28.7302 41.0511 28.5377 41.1243 28.3515 41.1243C28.1877 41.1243 28.058 41.0853 27.9164 40.9891C27.7637 40.8864 27.7033 40.7162 27.7033 40.5023V39.8556C27.7033 39.7243 27.6428 39.6981 27.5601 39.6981H27.5195V39.6361C27.6118 39.6376 27.708 39.6424 27.8067 39.6424C27.9053 39.6424 27.9976 39.6376 28.0914 39.6361V39.6981L28.0906 39.6973Z" fill="white"/>
<path d="M29.254 41.036H29.2898C29.4084 41.036 29.429 40.9914 29.4362 40.7759C29.4449 40.5046 29.4489 40.1141 29.4489 39.8763C29.4489 39.7283 29.3996 39.6973 29.2874 39.6973H29.2246V39.6353C29.2851 39.6368 29.3527 39.6416 29.4219 39.6416C29.4847 39.6416 29.5428 39.6368 29.5992 39.6353L30.6548 40.8244H30.6587L30.6452 39.9829C30.6405 39.7466 30.607 39.6973 30.4861 39.6973H30.4591V39.6353C30.5283 39.6368 30.6182 39.6416 30.7017 39.6416C30.7852 39.6416 30.8632 39.6368 30.9435 39.6353V39.6973H30.9077C30.8385 39.6973 30.7733 39.7196 30.7669 39.9192L30.7264 41.1163H30.6595L29.5483 39.8675H29.5436C29.5436 40.1857 29.5483 40.5015 29.5571 40.8204C29.5619 40.9891 29.5977 41.036 29.7027 41.036H29.7472V41.098C29.6732 41.0964 29.5833 41.0917 29.5006 41.0917C29.4179 41.0917 29.3232 41.0964 29.254 41.098V41.036Z" fill="white"/>
<path d="M32.4051 40.0036H32.3693C32.3113 39.8962 32.2039 39.6958 31.7799 39.6958C31.3249 39.6958 31.1794 40.08 31.1794 40.3814C31.1794 40.8706 31.558 41.0392 31.7911 41.0392C32.1434 41.0392 32.3041 40.8563 32.4099 40.7354H32.4258V40.8913C32.3479 40.9597 32.157 41.1251 31.8094 41.1251C31.3011 41.1251 30.9551 40.8316 30.9551 40.4188C30.9551 40.006 31.2581 39.6099 31.7887 39.6099C32.0106 39.6099 32.2238 39.6735 32.3017 39.6966C32.3447 39.7093 32.3868 39.7228 32.4139 39.7252L32.4043 40.0052L32.4051 40.0036Z" fill="white"/>
<path d="M32.5605 41.0366H32.6011C32.7037 41.0366 32.7491 41.0017 32.7491 40.8688V39.8674C32.7491 39.7338 32.7037 39.6988 32.6011 39.6988H32.5605V39.6367C32.6393 39.6383 32.7467 39.6431 32.8477 39.6431C32.9487 39.6431 33.0402 39.6383 33.134 39.6367V39.6988H33.0943C32.9909 39.6988 32.9463 39.7338 32.9463 39.8674V40.8688C32.9463 41.0024 32.9909 41.0366 33.0943 41.0366H33.134V41.0987C33.0402 41.0971 32.9463 41.0923 32.8477 41.0923C32.7491 41.0923 32.6393 41.0971 32.5605 41.0987V41.0366Z" fill="white"/>
<path d="M33.3203 41.0366H33.3609C33.4643 41.0366 33.5088 41.0017 33.5088 40.8688V39.8674C33.5088 39.7338 33.4635 39.6988 33.3609 39.6988H33.3203V39.6367C33.3991 39.6383 33.5064 39.6431 33.6075 39.6431C33.7085 39.6431 33.8007 39.6383 33.9057 39.6367V39.6988H33.854C33.7506 39.6988 33.7061 39.7338 33.7061 39.8674V40.8219C33.7061 40.9762 33.7419 41.0295 34.0179 41.0295C34.3854 41.0295 34.4283 40.9698 34.4689 40.736H34.5381L34.5246 41.0995C34.3273 41.0979 34.0744 41.0931 33.8763 41.0931C33.6138 41.0931 33.3991 41.0979 33.3203 41.0995V41.0374V41.0366Z" fill="white"/>
<path d="M34.427 33.1839C34.47 33.0638 34.4954 32.935 34.4954 32.8053C34.4954 32.6542 34.4644 32.5094 34.4087 32.3774C34.3252 32.1801 34.186 32.0123 34.0102 31.8938C33.8344 31.7753 33.6221 31.7061 33.3954 31.7061C33.253 31.7061 33.1162 31.7331 32.9913 31.7824C32.9714 31.7904 32.9515 31.7991 32.9316 31.8079V32.1515C32.9841 32.1149 33.0406 32.0831 33.1011 32.06C33.1917 32.0242 33.2912 32.0043 33.3954 32.0043C33.5067 32.0043 33.6117 32.0266 33.7072 32.0672C33.8503 32.1276 33.9736 32.2294 34.0603 32.3575C34.1462 32.4856 34.1971 32.6391 34.1971 32.8053C34.1971 32.8944 34.1789 32.9922 34.1454 33.0837C34.1128 33.1752 34.0707 33.2492 34.0182 33.3239L34.0126 33.3311L32.9324 34.9386V35.4739L34.2568 33.5037C34.3252 33.4067 34.3857 33.3009 34.427 33.1839Z" fill="white"/>
<path d="M34.0324 32.8063C34.0324 33.1578 33.7477 33.4426 33.3961 33.4426C33.0445 33.4426 32.7598 33.157 32.7598 32.8063C32.7598 32.4555 33.0445 32.1699 33.3961 32.1699C33.7477 32.1699 34.0324 32.4547 34.0324 32.8063Z" fill="#9AC331"/>
<path d="M9.42904 22.326H8.04104V24.3018C8.04104 24.7608 8.28841 24.9485 8.74657 24.9485C8.94622 24.9485 9.06394 24.9366 9.19359 24.8777L9.04087 26.183C8.87622 26.2657 8.58192 26.3246 8.24069 26.3246C7.0412 26.3246 6.32373 25.689 6.32373 24.6311V22.326H5.42969V20.9141H6.32373V19.7735L8.04104 19.1499V20.9141H9.75834L9.42904 22.326Z" fill="#14133B"/>
<path d="M14.4444 22.749C14.3386 22.6902 14.1032 22.6194 13.9266 22.6194C13.3738 22.6194 12.8679 22.9137 12.8679 23.76V26.2417H11.1387V20.9132H12.844V22.1015H12.856C13.0326 21.2664 13.6562 20.8193 14.3736 20.8193C14.5383 20.8193 14.7379 20.8432 14.8676 20.8901L14.4444 22.7482V22.749Z" fill="#14133B"/>
<path d="M19.3605 26.4782C19.0431 26.4074 18.678 26.1608 18.5372 25.7726C18.3018 26.2077 17.7959 26.4193 17.1492 26.4193C16.2082 26.4193 15.373 25.7607 15.373 24.6551C15.373 23.6791 16.1374 23.0205 17.1961 22.9139L18.2548 22.8081V22.6315C18.2548 22.3142 17.9963 22.1026 17.4197 22.1026C16.9018 22.1026 16.326 22.2672 15.9378 22.5146L15.6324 21.2093C16.0674 20.927 16.7968 20.7393 17.5024 20.7393C18.9142 20.7393 19.9133 21.3859 19.9133 22.6681V24.4093C19.9133 25.0329 20.1487 25.3622 20.56 25.5149L19.3605 26.4798V26.4782ZM18.2548 23.9138L17.6082 23.9726C17.1611 24.0076 16.9615 24.3258 16.9615 24.6432C16.9615 24.9255 17.1731 25.161 17.5024 25.161C17.9144 25.161 18.2548 24.8436 18.2548 24.3846V23.9146V23.9138Z" fill="#14133B"/>
<path d="M23.7001 26.2895H22.406L20.3594 20.9141H22.0297L22.7822 22.9487C22.888 23.2311 22.9938 23.6312 23.0765 23.9836H23.1004C23.1831 23.6423 23.3 23.2311 23.4058 22.9487L24.1583 20.9141H25.7579L23.6993 26.2895H23.7001Z" fill="#14133B"/>
<path d="M31.1337 23.2788L30.3693 24.0552H27.7579C27.8407 24.4903 28.4285 24.9842 29.3345 24.9842C29.8873 24.9842 30.452 24.8196 30.8044 24.5841L30.6397 26.066C30.2396 26.2776 29.628 26.4191 28.9463 26.4191C27.3229 26.4191 26.0176 25.2896 26.0176 23.5493C26.0176 21.8089 27.264 20.7383 28.7936 20.7383C30.3232 20.7383 31.1814 21.762 31.1814 22.8676C31.1814 22.9973 31.1576 23.173 31.1345 23.2796L31.1337 23.2788ZM28.7928 22.0324C28.2869 22.0324 27.8637 22.4206 27.7579 22.9026H29.558C29.558 22.8676 29.5699 22.8318 29.5699 22.7849C29.5699 22.4206 29.2525 22.0324 28.7936 22.0324H28.7928Z" fill="#14133B"/>
<path d="M33.9325 26.4542C32.8388 26.4073 32.1094 25.8425 32.1094 24.5603V17.8677H33.8147V24.3487C33.8147 24.7838 34.0621 25.0193 34.5322 25.0543L33.9325 26.4542Z" fill="#14133B"/>
<path d="M37.0356 26.3605C36.3062 26.3605 35.7773 26.2078 35.3422 25.9843L35.1895 24.4555C35.6603 24.7848 36.2712 25.0322 36.8598 25.0322C37.1772 25.0322 37.3776 24.8675 37.3776 24.6679C37.3776 24.4443 37.2011 24.3505 36.8956 24.2558C35.8719 23.9615 35.2602 23.4445 35.2602 22.5147C35.2602 21.4679 36.1074 20.7974 37.2599 20.7974C37.9185 20.7974 38.5652 20.9739 38.8364 21.1147L38.5421 22.385C38.2836 22.2442 37.8597 22.0907 37.4365 22.0907C37.1541 22.0907 36.9664 22.2204 36.9664 22.4319C36.9664 22.6316 37.1072 22.7374 37.4365 22.8201C38.636 23.1375 39.1299 23.7372 39.1299 24.6313C39.1299 25.5253 38.4713 26.3605 37.0364 26.3605H37.0356Z" fill="#14133B"/>
<path d="M18.2541 30.3908C18.1141 30.3908 17.9804 30.3383 17.916 30.2922V29.0903H18.0488V29.6137C18.0846 29.5755 18.1857 29.5366 18.2843 29.5366C18.5213 29.5366 18.6963 29.7147 18.6963 29.9589C18.6963 30.2031 18.5221 30.3908 18.2541 30.3908ZM18.2724 29.6567C18.1594 29.6567 18.0815 29.7084 18.0496 29.7426V30.2246C18.0854 30.2461 18.1682 30.2747 18.2421 30.2747C18.4386 30.2747 18.5603 30.1466 18.5619 29.9621C18.5619 29.7839 18.4378 29.6567 18.2724 29.6567Z" fill="#14133B"/>
<path d="M19.2262 30.2954C19.1053 30.5889 18.9764 30.7217 18.8125 30.7933L18.7227 30.7035C18.8754 30.639 18.9851 30.5364 19.0806 30.3113L18.7696 29.5557H18.9136L19.075 29.9518C19.0981 30.0091 19.1275 30.0846 19.149 30.153H19.1522C19.1776 30.0886 19.2118 30.0075 19.2333 29.9534L19.3956 29.5557H19.5284L19.2262 30.2954Z" fill="#14133B"/>
<path d="M13.1883 17.4804C12.3412 17.4804 11.5299 17.2338 11.0828 16.9626L10.9062 15.2572C11.5179 15.6804 12.3181 15.9747 13.0706 15.9747C13.7172 15.9747 14.1293 15.6804 14.1293 15.2222C14.1293 14.7871 13.8588 14.5397 13.1644 14.352C11.6945 13.9519 11.012 13.1406 11.012 11.9992C11.012 10.7528 11.9411 9.75293 13.5645 9.75293C14.4236 9.75293 15.141 10.0003 15.4465 10.1761L15.1172 11.646C14.8117 11.4694 14.2112 11.2579 13.6942 11.2579C13.0586 11.2579 12.7651 11.5402 12.7651 11.9045C12.7651 12.2688 13.0825 12.4812 13.6592 12.6459C15.0941 13.046 15.9532 13.7865 15.9532 15.1156C15.9532 16.5625 15.0122 17.4796 13.1891 17.4796L13.1883 17.4804Z" fill="#14133B"/>
<path d="M20.8429 17.6103C20.5255 17.5395 20.1604 17.293 20.0196 16.9048C19.7842 17.3399 19.2783 17.5515 18.6316 17.5515C17.6907 17.5515 16.8555 16.8929 16.8555 15.7872C16.8555 14.8113 17.6199 14.1527 18.6786 14.0461L19.7373 13.9403V13.7637C19.7373 13.4463 19.4787 13.2339 18.9021 13.2339C18.3843 13.2339 17.8084 13.3986 17.4202 13.646L17.1148 12.3407C17.5499 12.0583 18.2793 11.8706 18.9848 11.8706C20.3967 11.8706 21.3957 12.5173 21.3957 13.7995V15.5407C21.3957 16.1643 21.6311 16.4936 22.0424 16.6463L20.8429 17.6111V17.6103ZM19.7373 15.0459L19.0906 15.1048C18.6436 15.1398 18.4439 15.4579 18.4439 15.7753C18.4439 16.0577 18.6555 16.2931 18.9848 16.2931C19.3968 16.2931 19.7373 15.9757 19.7373 15.5168V15.0467V15.0459Z" fill="#14133B"/>
<path d="M26.546 10.5407C26.3464 10.4588 26.064 10.3999 25.8516 10.3999C25.2161 10.3999 24.8868 10.7762 24.8868 11.5406V12.0464H26.4156L26.0743 13.4583H24.886V17.3749H23.2156V13.4583H22.4043V12.0464H23.2156V11.4228C23.2156 9.79939 24.2624 9 25.6035 9C26.0974 9 26.5914 9.05886 26.8618 9.17658L26.5444 10.5407H26.546Z" fill="#14133B"/>
<path d="M31.7899 14.4112L31.0255 15.1875H28.4142C28.4969 15.6226 29.0847 16.1165 29.9907 16.1165C30.5435 16.1165 31.1083 15.9519 31.4606 15.7164L31.296 17.1983C30.8959 17.4099 30.2842 17.5515 29.6025 17.5515C27.9791 17.5515 26.6738 16.422 26.6738 14.6816C26.6738 12.9412 27.9202 11.8706 29.4498 11.8706C30.9794 11.8706 31.8377 12.8943 31.8377 13.9999C31.8377 14.1296 31.8138 14.3054 31.7907 14.412L31.7899 14.4112ZM29.449 13.1647C28.9431 13.1647 28.52 13.5529 28.4142 14.0349H30.2142C30.2142 13.9999 30.2262 13.9641 30.2262 13.9172C30.2262 13.5529 29.9088 13.1647 29.4498 13.1647H29.449Z" fill="#14133B"/>
</g>
<path d="M4.46852 53.7665C3.97133 53.7665 3.55867 53.6969 3.23053 53.5577C2.90239 53.4135 2.6538 53.227 2.48475 52.9983C2.31571 52.7696 2.22622 52.526 2.21627 52.2675C2.21627 52.2277 2.23119 52.1929 2.26102 52.1631C2.29582 52.1283 2.3356 52.1109 2.38035 52.1109H3.32002C3.38963 52.1109 3.44183 52.1233 3.47664 52.1481C3.51641 52.173 3.55121 52.2053 3.58104 52.2451C3.62082 52.3197 3.67551 52.3918 3.74511 52.4614C3.81969 52.531 3.91416 52.5881 4.02851 52.6329C4.14783 52.6727 4.2945 52.6926 4.46852 52.6926C4.75688 52.6926 4.97316 52.6478 5.11734 52.5583C5.2665 52.4688 5.34107 52.347 5.34107 52.1929C5.34107 52.0835 5.3013 51.994 5.22175 51.9244C5.1422 51.8498 5.01293 51.7852 4.83395 51.7305C4.65993 51.6708 4.42626 51.6112 4.13292 51.5515C3.75506 51.472 3.43189 51.37 3.16341 51.2458C2.8999 51.1165 2.69854 50.9499 2.55933 50.7461C2.42012 50.5373 2.35051 50.2787 2.35051 49.9705C2.35051 49.6672 2.43504 49.3962 2.60408 49.1576C2.77809 48.9189 3.01923 48.7325 3.32748 48.5982C3.63573 48.464 4.00116 48.3969 4.42377 48.3969C4.76683 48.3969 5.06762 48.4416 5.32616 48.5311C5.58967 48.6206 5.81091 48.7399 5.9899 48.8891C6.16889 49.0383 6.30312 49.1974 6.39262 49.3664C6.48708 49.5305 6.5368 49.6921 6.54177 49.8512C6.54177 49.8909 6.52686 49.9282 6.49703 49.963C6.4672 49.9928 6.42991 50.0078 6.38516 50.0078H5.40074C5.34605 50.0078 5.29881 49.9978 5.25904 49.9779C5.21926 49.958 5.18446 49.9257 5.15463 49.881C5.1248 49.7716 5.04525 49.6771 4.91598 49.5976C4.79169 49.5131 4.62762 49.4708 4.42377 49.4708C4.20501 49.4708 4.03348 49.5106 3.90919 49.5901C3.78986 49.6647 3.7302 49.7815 3.7302 49.9406C3.7302 50.0401 3.76252 50.1271 3.82715 50.2017C3.89676 50.2762 4.00862 50.3409 4.16275 50.3956C4.32185 50.4503 4.53812 50.5074 4.81157 50.5671C5.26401 50.6516 5.62944 50.7585 5.90786 50.8878C6.18629 51.0121 6.39013 51.1761 6.5194 51.38C6.64867 51.5789 6.7133 51.8299 6.7133 52.1332C6.7133 52.4713 6.61635 52.7646 6.42245 53.0132C6.23352 53.2569 5.97001 53.4433 5.63193 53.5726C5.29384 53.7018 4.90604 53.7665 4.46852 53.7665ZM7.5643 53.6919C7.50961 53.6919 7.46486 53.6745 7.43006 53.6397C7.39526 53.6049 7.37786 53.5601 7.37786 53.5055V50.0003C7.37786 49.9456 7.39526 49.9009 7.43006 49.8661C7.46486 49.8313 7.50961 49.8139 7.5643 49.8139H8.44432C8.49403 49.8139 8.5363 49.8313 8.5711 49.8661C8.61087 49.9009 8.63076 49.9456 8.63076 50.0003V53.5055C8.63076 53.5601 8.61087 53.6049 8.5711 53.6397C8.5363 53.6745 8.49403 53.6919 8.44432 53.6919H7.5643ZM7.55684 49.2545C7.50215 49.2545 7.45741 49.2371 7.4226 49.2023C7.3878 49.1675 7.3704 49.1228 7.3704 49.0681V48.4043C7.3704 48.3497 7.3878 48.3049 7.4226 48.2701C7.45741 48.2303 7.50215 48.2104 7.55684 48.2104H8.44432C8.49901 48.2104 8.54375 48.2303 8.57856 48.2701C8.61833 48.3049 8.63822 48.3497 8.63822 48.4043V49.0681C8.63822 49.1228 8.61833 49.1675 8.57856 49.2023C8.54375 49.2371 8.49901 49.2545 8.44432 49.2545H7.55684ZM9.92398 53.6919C9.86929 53.6919 9.82454 53.6745 9.78974 53.6397C9.75494 53.6049 9.73754 53.5601 9.73754 53.5055V50.0003C9.73754 49.9456 9.75494 49.9009 9.78974 49.8661C9.82454 49.8313 9.86929 49.8139 9.92398 49.8139H10.7816C10.8363 49.8139 10.8811 49.8313 10.9159 49.8661C10.9507 49.9009 10.9681 49.9456 10.9681 50.0003V50.2837C11.0973 50.1296 11.2664 50.0003 11.4752 49.8959C11.684 49.7915 11.9301 49.7393 12.2135 49.7393C12.5019 49.7393 12.7554 49.8039 12.9742 49.9332C13.1979 50.0625 13.372 50.2539 13.4962 50.5074C13.6255 50.756 13.6901 51.0618 13.6901 51.4247V53.5055C13.6901 53.5601 13.6703 53.6049 13.6305 53.6397C13.5957 53.6745 13.5534 53.6919 13.5037 53.6919H12.564C12.5143 53.6919 12.4696 53.6745 12.4298 53.6397C12.395 53.6049 12.3776 53.5601 12.3776 53.5055V51.4695C12.3776 51.2358 12.3204 51.0568 12.2061 50.9325C12.0967 50.8033 11.9326 50.7386 11.7138 50.7386C11.51 50.7386 11.3459 50.8033 11.2216 50.9325C11.1023 51.0568 11.0426 51.2358 11.0426 51.4695V53.5055C11.0426 53.5601 11.0228 53.6049 10.983 53.6397C10.9482 53.6745 10.9059 53.6919 10.8562 53.6919H9.92398ZM16.3048 53.7665C15.9369 53.7665 15.6113 53.6994 15.3279 53.5651C15.0445 53.4309 14.8183 53.237 14.6492 52.9834C14.4852 52.7249 14.3957 52.4166 14.3807 52.0586C14.3758 51.9791 14.3733 51.8797 14.3733 51.7603C14.3733 51.636 14.3758 51.5341 14.3807 51.4546C14.3957 51.0916 14.4852 50.7834 14.6492 50.5298C14.8133 50.2713 15.037 50.0749 15.3204 49.9406C15.6088 49.8064 15.9369 49.7393 16.3048 49.7393C16.6479 49.7393 16.9412 49.789 17.1849 49.8884C17.4285 49.9829 17.6274 50.1022 17.7815 50.2464C17.9356 50.3906 18.05 50.5397 18.1245 50.6939C18.2041 50.843 18.2464 50.9748 18.2513 51.0891C18.2563 51.1389 18.2389 51.1836 18.1991 51.2234C18.1593 51.2582 18.1146 51.2756 18.0649 51.2756H17.1177C17.0631 51.2756 17.0208 51.2632 16.991 51.2383C16.9611 51.2134 16.9338 51.1761 16.9089 51.1264C16.8493 50.9723 16.7722 50.8629 16.6777 50.7983C16.5882 50.7337 16.4714 50.7013 16.3272 50.7013C16.1283 50.7013 15.9742 50.766 15.8648 50.8952C15.7604 51.0245 15.7033 51.2234 15.6933 51.4919C15.6883 51.6907 15.6883 51.8672 15.6933 52.0214C15.7033 52.2948 15.7604 52.4937 15.8648 52.618C15.9742 52.7423 16.1283 52.8044 16.3272 52.8044C16.4813 52.8044 16.6032 52.7721 16.6927 52.7075C16.7821 52.6428 16.8542 52.5335 16.9089 52.3793C16.9338 52.3296 16.9611 52.2923 16.991 52.2675C17.0208 52.2426 17.0631 52.2302 17.1177 52.2302H18.0649C18.1146 52.2302 18.1593 52.2501 18.1991 52.2898C18.2389 52.3246 18.2563 52.3669 18.2513 52.4166C18.2464 52.5011 18.2215 52.6006 18.1767 52.7149C18.132 52.8243 18.0624 52.9411 17.9679 53.0654C17.8735 53.1897 17.7492 53.3066 17.595 53.416C17.4459 53.5204 17.2644 53.6049 17.0506 53.6695C16.8368 53.7342 16.5882 53.7665 16.3048 53.7665ZM20.7112 53.7665C20.1245 53.7665 19.6572 53.6074 19.3092 53.2892C18.9611 52.971 18.7797 52.4987 18.7647 51.8722C18.7647 51.8374 18.7647 51.7927 18.7647 51.738C18.7647 51.6833 18.7647 51.641 18.7647 51.6112C18.7797 51.2184 18.8667 50.8828 19.0258 50.6044C19.1898 50.321 19.4136 50.1072 19.697 49.963C19.9853 49.8139 20.3209 49.7393 20.7038 49.7393C21.1413 49.7393 21.5017 49.8263 21.7851 50.0003C22.0735 50.1743 22.2898 50.4105 22.434 50.7088C22.5781 51.0071 22.6502 51.3477 22.6502 51.7305V51.9095C22.6502 51.9642 22.6303 52.0089 22.5906 52.0437C22.5558 52.0785 22.5135 52.0959 22.4638 52.0959H20.0773C20.0773 52.1009 20.0773 52.1084 20.0773 52.1183C20.0773 52.1283 20.0773 52.1382 20.0773 52.1481C20.0823 52.2923 20.1071 52.4241 20.1519 52.5434C20.1966 52.6627 20.2662 52.7572 20.3607 52.8268C20.4552 52.8964 20.5695 52.9312 20.7038 52.9312C20.8032 52.9312 20.8852 52.9163 20.9499 52.8865C21.0195 52.8517 21.0766 52.8144 21.1214 52.7746C21.1661 52.7298 21.2009 52.6926 21.2258 52.6627C21.2705 52.613 21.3054 52.5832 21.3302 52.5732C21.36 52.5583 21.4048 52.5509 21.4645 52.5509H22.3892C22.4389 52.5509 22.4787 52.5658 22.5085 52.5956C22.5433 52.6205 22.5583 52.6578 22.5533 52.7075C22.5483 52.792 22.5061 52.8939 22.4265 53.0132C22.347 53.1326 22.2301 53.2519 22.076 53.3712C21.9268 53.4856 21.7379 53.58 21.5092 53.6546C21.2805 53.7292 21.0145 53.7665 20.7112 53.7665ZM20.0773 51.3576H21.3377V51.3427C21.3377 51.1836 21.3128 51.0444 21.2631 50.9251C21.2183 50.8057 21.1463 50.7138 21.0468 50.6491C20.9524 50.5845 20.838 50.5522 20.7038 50.5522C20.5695 50.5522 20.4552 50.5845 20.3607 50.6491C20.2712 50.7138 20.2016 50.8057 20.1519 50.9251C20.1022 51.0444 20.0773 51.1836 20.0773 51.3427V51.3576ZM24.9967 53.6919C24.9421 53.6919 24.8948 53.6745 24.855 53.6397C24.8202 53.6049 24.8028 53.5601 24.8028 53.5055V52.976C24.8028 52.9411 24.8128 52.8889 24.8327 52.8193C24.8526 52.7448 24.9048 52.6752 24.9893 52.6105L25.7649 51.8498C26.1626 51.5465 26.4883 51.2905 26.7419 51.0817C27.0004 50.8679 27.1918 50.679 27.3161 50.5149C27.4404 50.3508 27.5026 50.1967 27.5026 50.0525C27.5026 49.8835 27.4578 49.7443 27.3683 49.6349C27.2838 49.5205 27.1346 49.4633 26.9208 49.4633C26.7767 49.4633 26.6549 49.4957 26.5554 49.5603C26.461 49.62 26.3889 49.6995 26.3391 49.7989C26.2894 49.8984 26.2546 50.0003 26.2347 50.1047C26.2148 50.1693 26.18 50.2141 26.1303 50.239C26.0856 50.2638 26.0359 50.2762 25.9812 50.2762H25.0489C25.0042 50.2762 24.9669 50.2613 24.9371 50.2315C24.9073 50.2017 24.8923 50.1644 24.8923 50.1196C24.8973 49.881 24.947 49.6572 25.0415 49.4484C25.1409 49.2396 25.2777 49.0557 25.4517 48.8966C25.6307 48.7325 25.842 48.6057 26.0856 48.5162C26.3342 48.4267 26.6126 48.382 26.9208 48.382C27.3435 48.382 27.7014 48.4491 27.9948 48.5833C28.2931 48.7176 28.5193 48.9065 28.6734 49.1501C28.8275 49.3888 28.9046 49.6697 28.9046 49.9928C28.9046 50.2365 28.8499 50.4652 28.7405 50.679C28.6361 50.8878 28.4845 51.0891 28.2856 51.283C28.0917 51.472 27.8605 51.6684 27.592 51.8722L26.9059 52.5658H28.8226C28.8773 52.5658 28.922 52.5832 28.9568 52.618C28.9966 52.6528 29.0165 52.6975 29.0165 52.7522V53.5055C29.0165 53.5601 28.9966 53.6049 28.9568 53.6397C28.922 53.6745 28.8773 53.6919 28.8226 53.6919H24.9967ZM31.8757 53.7665C31.5177 53.7665 31.207 53.7168 30.9435 53.6173C30.68 53.5129 30.4612 53.3712 30.2872 53.1922C30.1182 53.0132 29.9889 52.8044 29.8994 52.5658C29.8099 52.3271 29.7577 52.0711 29.7428 51.7976C29.7378 51.6634 29.7328 51.5117 29.7279 51.3427C29.7279 51.1687 29.7279 50.9947 29.7279 50.8207C29.7328 50.6417 29.7378 50.4826 29.7428 50.3434C29.7577 50.0699 29.8099 49.8163 29.8994 49.5827C29.9939 49.344 30.1281 49.1377 30.3021 48.9637C30.4811 48.7847 30.6999 48.6455 30.9584 48.546C31.2219 48.4466 31.5277 48.3969 31.8757 48.3969C32.2287 48.3969 32.5345 48.4466 32.793 48.546C33.0515 48.6455 33.2678 48.7847 33.4418 48.9637C33.6208 49.1377 33.7575 49.344 33.852 49.5827C33.9465 49.8163 33.9987 50.0699 34.0086 50.3434C34.0186 50.4826 34.0235 50.6417 34.0235 50.8207C34.0285 50.9947 34.0285 51.1687 34.0235 51.3427C34.0235 51.5117 34.0186 51.6634 34.0086 51.7976C33.9987 52.0711 33.9465 52.3271 33.852 52.5658C33.7625 52.8044 33.6308 53.0132 33.4568 53.1922C33.2877 53.3712 33.0714 53.5129 32.8079 53.6173C32.5494 53.7168 32.2387 53.7665 31.8757 53.7665ZM31.8757 52.6851C32.1342 52.6851 32.3207 52.6031 32.435 52.439C32.5544 52.2699 32.6165 52.0437 32.6215 51.7603C32.6314 51.6162 32.6364 51.4645 32.6364 51.3054C32.6414 51.1463 32.6414 50.9872 32.6364 50.8281C32.6364 50.669 32.6314 50.5223 32.6215 50.3881C32.6165 50.1147 32.5544 49.8934 32.435 49.7244C32.3207 49.5553 32.1342 49.4683 31.8757 49.4633C31.6172 49.4683 31.4307 49.5553 31.3164 49.7244C31.202 49.8934 31.1399 50.1147 31.1299 50.3881C31.125 50.5223 31.12 50.669 31.115 50.8281C31.115 50.9872 31.115 51.1463 31.115 51.3054C31.12 51.4645 31.125 51.6162 31.1299 51.7603C31.1399 52.0437 31.2045 52.2699 31.3238 52.439C31.4432 52.6031 31.6271 52.6851 31.8757 52.6851ZM36.4823 53.6919C36.4326 53.6919 36.3878 53.6745 36.348 53.6397C36.3132 53.6049 36.2958 53.5601 36.2958 53.5055V49.9556L35.2741 50.7386C35.2294 50.7734 35.1821 50.7859 35.1324 50.7759C35.0877 50.766 35.0479 50.7386 35.0131 50.6939L34.5731 50.1196C34.5433 50.0749 34.5308 50.0277 34.5358 49.9779C34.5457 49.9232 34.5756 49.881 34.6253 49.8512L36.3406 48.5237C36.3704 48.5038 36.3978 48.4914 36.4226 48.4864C36.4524 48.4764 36.4848 48.4715 36.5196 48.4715H37.4518C37.5015 48.4715 37.5438 48.4889 37.5786 48.5237C37.6183 48.5585 37.6382 48.6032 37.6382 48.6579V53.5055C37.6382 53.5601 37.6183 53.6049 37.5786 53.6397C37.5438 53.6745 37.5015 53.6919 37.4518 53.6919H36.4823ZM40.51 53.7739C40.0426 53.7739 39.6523 53.7018 39.3391 53.5577C39.0259 53.4085 38.7872 53.2171 38.6232 52.9834C38.4641 52.7448 38.3796 52.4887 38.3696 52.2153C38.3696 52.1705 38.3845 52.1332 38.4144 52.1034C38.4442 52.0736 38.4815 52.0586 38.5262 52.0586H39.5256C39.5902 52.0586 39.6399 52.0736 39.6747 52.1034C39.7145 52.1283 39.7443 52.1606 39.7642 52.2003C39.809 52.3147 39.8661 52.4092 39.9357 52.4837C40.0103 52.5583 40.0948 52.613 40.1893 52.6478C40.2887 52.6826 40.3981 52.7 40.5174 52.7C40.6567 52.7 40.7859 52.6702 40.9052 52.6105C41.0246 52.5509 41.119 52.4639 41.1886 52.3495C41.2632 52.2302 41.3005 52.0885 41.3005 51.9244C41.3005 51.7753 41.2657 51.646 41.1961 51.5366C41.1315 51.4272 41.0395 51.3402 40.9202 51.2756C40.8008 51.2109 40.6666 51.1786 40.5174 51.1786C40.3981 51.1786 40.3012 51.1935 40.2266 51.2234C40.152 51.2482 40.0899 51.2806 40.0401 51.3203C39.9904 51.3601 39.9457 51.3949 39.9059 51.4247C39.8661 51.4496 39.8214 51.462 39.7717 51.462H38.7947C38.75 51.462 38.7102 51.4471 38.6754 51.4173C38.6455 51.3825 38.6306 51.3427 38.6306 51.298L38.8991 48.6952C38.9091 48.6206 38.9364 48.5659 38.9811 48.5311C39.0259 48.4914 39.0806 48.4715 39.1452 48.4715H42.1358C42.1905 48.4715 42.2352 48.4889 42.27 48.5237C42.3048 48.5585 42.3222 48.6032 42.3222 48.6579V49.3589C42.3222 49.4136 42.3048 49.4584 42.27 49.4932C42.2352 49.528 42.1905 49.5454 42.1358 49.5454H39.973L39.8761 50.5149C39.9855 50.4403 40.1122 50.3807 40.2564 50.3359C40.4056 50.2862 40.6069 50.2613 40.8605 50.2613C41.0991 50.2613 41.3254 50.3011 41.5392 50.3807C41.7579 50.4602 41.9518 50.5746 42.1209 50.7237C42.2949 50.8729 42.4291 51.0518 42.5236 51.2607C42.623 51.4645 42.6727 51.6957 42.6727 51.9542C42.6727 52.3072 42.5857 52.6205 42.4117 52.8939C42.2427 53.1674 41.9966 53.3836 41.6734 53.5427C41.3502 53.6969 40.9624 53.7739 40.51 53.7739Z" fill="white"/>
</g>
<defs>
<clipPath id="clip0_147_52961">
<rect width="44" height="44" fill="white"/>
</clipPath>
</defs>
</svg>
