<svg width="25" height="25" viewBox="0 0 25 25" fill="none" xmlns="http://www.w3.org/2000/svg">
<path fill-rule="evenodd" clip-rule="evenodd" d="M24.5 12.5C24.5 19.1274 19.1274 24.5 12.5 24.5C5.87258 24.5 0.5 19.1274 0.5 12.5C0.5 5.87258 5.87258 0.5 12.5 0.5C19.1274 0.5 24.5 5.87258 24.5 12.5ZM18.5455 7.9545C18.1061 7.51517 17.3938 7.51517 16.9545 7.9545C16.9439 7.96511 16.9339 7.97635 16.9247 7.98816L11.7161 14.6251L8.57581 11.4848C8.13647 11.0455 7.42416 11.0455 6.98482 11.4848C6.54548 11.9242 6.54548 12.6365 6.98482 13.0758L10.9545 17.0455C11.3938 17.4848 12.1061 17.4848 12.5455 17.0455C12.5553 17.0357 12.5645 17.0254 12.5731 17.0146L18.5615 9.52921C18.9848 9.08872 18.9794 8.38846 18.5455 7.9545Z" fill="white" fill-opacity="0.5"/>
</svg>
