<svg width="95" height="94" viewBox="0 0 95 94" fill="none" xmlns="http://www.w3.org/2000/svg">
<path d="M44.5002 28.9998H53.5002L63.3702 19.0998C63.6491 18.8186 63.9809 18.5954 64.3465 18.4431C64.712 18.2908 65.1042 18.2124 65.5002 18.2124C65.8962 18.2124 66.2883 18.2908 66.6539 18.4431C67.0195 18.5954 67.3513 18.8186 67.6302 19.0998L75.3702 26.8698C75.9289 27.4319 76.2426 28.1922 76.2426 28.9848C76.2426 29.7774 75.9289 30.5377 75.3702 31.0998L68.5002 37.9998H44.5002V43.9998C44.5002 44.7954 44.1841 45.5585 43.6215 46.1211C43.0589 46.6837 42.2958 46.9998 41.5002 46.9998C40.7045 46.9998 39.9415 46.6837 39.3789 46.1211C38.8163 45.5585 38.5002 44.7954 38.5002 43.9998V34.9998C38.5002 33.4085 39.1323 31.8824 40.2576 30.7572C41.3828 29.6319 42.9089 28.9998 44.5002 28.9998ZM26.5002 43.9998V55.9998L19.6302 62.8698C19.0714 63.4319 18.7578 64.1922 18.7578 64.9848C18.7578 65.7774 19.0714 66.5377 19.6302 67.0998L27.3702 74.8698C27.6491 75.151 27.9809 75.3742 28.3465 75.5265C28.712 75.6788 29.1042 75.7572 29.5002 75.7572C29.8962 75.7572 30.2883 75.6788 30.6539 75.5265C31.0195 75.3742 31.3513 75.151 31.6302 74.8698L44.5002 61.9998H56.5002C57.2958 61.9998 58.0589 61.6837 58.6215 61.1211C59.1841 60.5585 59.5002 59.7954 59.5002 58.9998V55.9998H62.5002C63.2958 55.9998 64.0589 55.6837 64.6215 55.1211C65.1841 54.5585 65.5002 53.7954 65.5002 52.9998V49.9998H68.5002C69.2958 49.9998 70.0589 49.6837 70.6215 49.1211C71.1841 48.5585 71.5002 47.7954 71.5002 46.9998V43.9998H50.5002V46.9998C50.5002 48.5911 49.868 50.1172 48.7428 51.2424C47.6176 52.3677 46.0915 52.9998 44.5002 52.9998H38.5002C36.9089 52.9998 35.3828 52.3677 34.2576 51.2424C33.1323 50.1172 32.5002 48.5911 32.5002 46.9998V37.9998L26.5002 43.9998Z" fill="#70889E"/>
</svg>
