<svg width="282" height="76" viewBox="0 0 282 76" fill="none" xmlns="http://www.w3.org/2000/svg">
<path d="M96.1403 45.2202L87.7803 63.8402H90.4403L92.3403 59.4702H102.22L104.12 63.6502H106.4L98.2303 45.2202H96.1403ZM93.1003 57.0002L97.0903 48.0702L101.08 57.0002H93.1003Z" fill="white"/>
<path d="M123.88 51.6803C122.74 50.5403 121.03 49.7803 119.32 49.7803C115.33 49.7803 112.48 52.6303 112.48 56.6203C112.48 60.6103 115.14 63.4603 119.13 63.4603C121.03 63.4603 122.74 62.7003 123.88 61.5603V63.2703H125.97V44.8403H124.07V51.6803H123.88ZM119.32 61.5603C117.04 61.5603 114.57 60.4203 114.57 57.0003C114.57 53.9603 116.28 52.2503 119.32 52.2503C121.98 52.2503 123.88 54.1503 123.88 57.0003C123.88 59.6603 121.98 61.5603 119.32 61.5603Z" fill="white"/>
<path d="M140.22 60.6101L135.85 50.3501H133.57L139.08 63.6501H140.98L146.49 50.3501H144.4L140.22 60.6101Z" fill="white"/>
<path d="M159.98 50.1606C156.18 50.1606 153.33 53.2006 153.33 57.0006C153.33 60.8006 156.18 63.8406 159.98 63.8406C162.07 63.8406 164.54 62.7006 165.68 61.1806L165.87 60.8006L164.16 59.4706L163.97 60.0406C163.21 61.1806 161.31 61.7506 159.98 61.7506C158.08 61.7506 155.99 60.4206 155.61 58.1406H166.63V57.7606C166.82 55.4806 166.44 53.5806 165.11 52.2506C163.78 50.7306 162.07 50.1606 159.98 50.1606ZM164.54 56.0506H155.61C155.99 53.3906 158.08 52.2506 159.98 52.2506C162.64 52.2506 164.35 53.7706 164.54 56.0506Z" fill="white"/>
<path d="M181.45 50.1606C179.93 50.1606 178.6 50.7306 177.65 51.6806V50.7306H177.27V50.5406H175.75V63.8406H177.84V56.4306C177.84 54.1506 179.55 52.4406 181.64 52.4406C184.11 52.4406 185.44 53.7706 185.44 56.2406V63.8406H187.53V56.2406C187.34 52.6306 184.87 50.1606 181.45 50.1606Z" fill="white"/>
<path d="M202.73 61.3702C202.16 61.7502 201.59 61.9402 201.02 61.9402C199.69 61.9402 199.12 61.3702 199.12 59.6602V52.4402H203.3V50.5402H199.12V46.7402H197.03V50.3502H194.37V52.2502H197.03V59.4702C197.03 61.3702 197.41 64.0302 200.83 64.0302C201.59 64.0302 202.54 63.8402 203.3 63.4602L203.68 63.2702L202.92 61.3702H202.73Z" fill="white"/>
<path d="M221.92 57.5706C221.92 59.8506 220.21 61.5606 217.93 61.5606C215.46 61.5606 214.13 60.2306 214.13 57.7606V50.1606H212.04V57.9506C212.04 61.5606 214.51 63.8406 217.93 63.8406C219.45 63.8406 220.78 63.2706 221.92 62.3206V63.2706H222.3V63.4606H223.82V50.1606H221.73V57.5706H221.92Z" fill="white"/>
<path d="M238.83 50.3501C237.31 50.3501 235.98 50.7301 235.03 51.6801V50.9201H234.65V50.7301H233.13V64.0301H235.22V56.4301C235.22 54.3401 236.74 52.6301 238.64 52.6301C239.4 52.6301 239.97 52.8201 240.54 53.2001L240.92 53.3901L242.06 51.6801L241.68 51.4901C240.92 50.7301 239.97 50.3501 238.83 50.3501Z" fill="white"/>
<path d="M255.36 50.1606C251.56 50.1606 248.71 53.2006 248.71 57.0006C248.71 60.9906 251.37 63.8406 255.17 63.8406C257.26 63.8406 259.73 62.7006 260.87 61.1806L261.06 60.8006L259.35 59.4706L259.16 60.0406C258.4 61.1806 256.5 61.7506 255.17 61.7506C253.27 61.7506 251.18 60.4206 250.8 58.1406H261.82V57.7606C262.01 55.4806 261.63 53.5806 260.3 52.2506C259.16 50.7306 257.45 50.1606 255.36 50.1606ZM259.73 56.0506H250.8C251.18 53.3906 253.27 52.2506 255.17 52.2506C257.83 52.2506 259.54 53.7706 259.73 56.0506Z" fill="white"/>
<path d="M275.88 55.8608C275.5 55.8608 275.31 55.6708 274.93 55.6708C273.41 55.2908 272.27 55.1008 272.27 53.9608C272.27 52.8208 273.98 52.0608 275.69 52.0608C277.02 52.0608 277.97 52.2508 279.11 53.2008L279.49 53.3908L281.2 52.0608L280.82 51.6808C279.68 50.5408 277.78 49.7808 275.88 49.7808C273.22 49.7808 270.56 50.7308 270.56 53.5808C270.56 56.6208 273.22 57.1908 275.69 57.3808H275.88C277.97 57.7608 279.3 58.1408 279.3 59.2808C279.3 60.9908 277.02 60.9908 275.88 60.9908C273.98 60.9908 272.46 60.2308 271.7 59.0908L271.51 58.7108L269.8 60.0408L269.99 60.4208C271.13 62.5108 273.6 63.0808 275.69 63.0808C278.35 63.0808 281.2 62.1308 281.2 59.2808C281.2 56.6208 278.16 56.2408 275.88 55.8608Z" fill="white"/>
<path d="M97.4699 22.42L103.74 12.54H109.06V12.73L99.5599 26.41V36.29H94.9999V26.6L85.8799 12.92V12.54H91.1999L97.4699 22.42Z" fill="white"/>
<path d="M109.82 29.4499C110.01 31.5399 111.91 33.0599 114.76 33.0599C116.28 33.0599 118.37 32.4899 119.32 31.5399L121.98 34.1999C120.27 36.0999 117.42 36.8599 114.76 36.8599C109.06 36.8599 105.64 33.2499 105.64 27.9299C105.64 22.7999 109.06 19.1899 114.57 19.1899C120.08 19.1899 123.69 22.6099 122.93 29.6399H109.82V29.4499ZM118.94 26.0299C118.75 23.9399 117.04 22.7999 114.57 22.7999C112.29 22.7999 110.58 23.9399 109.82 26.0299H118.94Z" fill="white"/>
<path d="M130.15 12.54V36.29H125.97V12.54H130.15Z" fill="white"/>
<path d="M137.94 12.54V36.29H133.76V12.54H137.94Z" fill="white"/>
<path d="M158.08 27.9299C158.08 32.6799 154.85 36.6699 149.34 36.6699C143.83 36.6699 140.6 32.6799 140.6 27.9299C140.6 23.1799 143.83 19.1899 149.15 19.1899C154.66 19.1899 158.08 23.1799 158.08 27.9299ZM144.97 27.9299C144.97 30.3999 146.49 32.8699 149.53 32.8699C152.57 32.8699 154.09 30.3999 154.09 27.9299C154.09 25.4599 152.38 22.9899 149.53 22.9899C146.49 22.9899 144.97 25.4599 144.97 27.9299Z" fill="white"/>
<path d="M175.56 19.5698L179.17 32.1098L182.97 19.5698H187.53L181.64 36.4798H176.89L175.18 31.5398L173.66 25.8398L172.14 31.5398L170.43 36.4798H165.68L159.79 19.5698H164.35L168.15 32.1098L171.76 19.5698C171.76 19.5698 175.56 19.5698 175.56 19.5698Z" fill="white"/>
<path d="M217.17 36.29H213.37L210.33 28.88L207.86 21.28L205.39 28.88L202.54 36.29H198.74L190 12.54H194.94L200.45 29.64L206.15 12.54H209L214.89 29.64L220.4 12.54H225.34L217.17 36.29Z" fill="white"/>
<path d="M241.49 27.9299C241.49 32.6799 238.26 36.6699 232.75 36.6699C227.24 36.6699 224.01 32.6799 224.01 27.9299C224.01 23.1799 227.24 19.1899 232.56 19.1899C238.07 19.1899 241.49 23.1799 241.49 27.9299ZM228.38 27.9299C228.38 30.3999 229.9 32.8699 232.94 32.8699C235.98 32.8699 237.5 30.3999 237.5 27.9299C237.5 25.4599 235.79 22.9899 232.94 22.9899C229.9 22.9899 228.38 25.4599 228.38 27.9299Z" fill="white"/>
<path d="M261.06 27.9299C261.06 32.6799 257.83 36.6699 252.32 36.6699C246.81 36.6699 243.58 32.6799 243.58 27.9299C243.58 23.1799 246.81 19.1899 252.13 19.1899C257.64 19.1899 261.06 23.1799 261.06 27.9299ZM247.76 27.9299C247.76 30.3999 249.28 32.8699 252.32 32.8699C255.36 32.8699 256.88 30.3999 256.88 27.9299C256.88 25.4599 255.17 22.9899 252.32 22.9899C249.28 22.9899 247.76 25.4599 247.76 27.9299Z" fill="white"/>
<path d="M281.2 12.54V36.29H277.4L277.21 34.01C275.88 36.1 273.79 36.67 271.89 36.67C266.95 36.67 263.34 33.44 263.34 27.93C263.34 22.23 266.95 19.19 271.89 19.19C273.6 19.19 276.45 20.14 277.4 21.85V12.54H281.2ZM267.14 27.93C267.14 30.78 269.23 32.87 271.89 32.87C274.55 32.87 276.83 30.97 276.83 27.93C276.83 25.08 274.55 22.99 271.89 22.99C269.23 22.99 267.14 24.89 267.14 27.93Z" fill="white"/>
<path d="M38 76C58.9868 76 76 58.9868 76 38C76 17.0132 58.9868 0 38 0C17.0132 0 0 17.0132 0 38C0 58.9868 17.0132 76 38 76Z" fill="white"/>
<path d="M38.0004 74.0999C57.9379 74.0999 74.1004 57.9374 74.1004 37.9999C74.1004 18.0624 57.9379 1.8999 38.0004 1.8999C18.0629 1.8999 1.90039 18.0624 1.90039 37.9999C1.90039 57.9374 18.0629 74.0999 38.0004 74.0999Z" fill="#436B89"/>
<path d="M38.0002 72.0102C56.7834 72.0102 72.0102 56.7834 72.0102 38.0002C72.0102 19.217 56.7834 3.99023 38.0002 3.99023C19.217 3.99023 3.99023 19.217 3.99023 38.0002C3.99023 56.7834 19.217 72.0102 38.0002 72.0102Z" fill="#C9C9C9"/>
<path d="M68.4 41.8C68.02 41.04 67.45 40.28 66.88 39.71C65.93 38.76 64.98 37.81 64.03 37.05C63.46 36.48 62.51 36.29 61.94 35.72C61.37 35.34 60.8 34.96 60.23 34.58C59.28 33.63 57.95 32.87 56.62 32.68C56.43 32.68 56.43 32.68 56.24 32.49C55.29 31.73 54.34 30.97 53.2 30.4C51.68 29.45 50.35 28.12 49.4 26.6C48.83 25.65 48.26 24.51 47.88 23.37C47.5 22.61 47.31 22.04 46.74 21.47C46.36 21.09 46.17 20.71 45.98 20.33C45.41 19.19 44.46 18.81 43.51 18.43C42.56 17.67 41.8 17.1 40.85 16.53C40.09 15.96 39.33 15.96 38.57 16.53C37.62 17.29 36.48 17.67 35.34 17.67C34.96 17.67 34.58 17.48 34.2 17.48C33.63 17.29 33.44 17.48 33.25 17.86C32.68 19 32.3 20.33 31.54 21.47C30.97 22.61 30.21 23.75 29.64 24.89C29.26 25.27 28.88 25.27 28.5 24.89C28.12 24.32 27.55 23.75 27.17 23.37C26.6 22.61 26.41 22.61 25.46 23.18C24.7 23.75 23.94 24.13 23.18 24.7C22.8 25.08 22.42 25.46 22.04 26.03C22.42 25.84 22.61 25.46 22.99 25.27C22.99 25.27 22.99 25.27 23.18 25.46C22.99 25.84 22.8 26.03 22.61 26.41C22.23 26.98 22.04 27.36 22.42 27.93C22.61 28.31 22.42 28.69 22.04 28.88C21.09 29.64 20.14 30.4 19.38 31.16C19.19 31.35 19 31.54 18.81 31.73V31.92C19.38 31.92 20.14 31.73 20.9 31.54C20.71 31.92 20.52 32.11 20.33 32.11C19.76 32.49 19.19 32.68 18.62 33.25C18.24 33.44 18.05 33.82 17.67 34.2C17.1 34.96 16.72 35.53 16.15 36.29C16.15 36.48 15.96 36.67 15.96 36.67C16.34 36.67 16.72 36.86 16.91 36.86C16.53 38.38 15.2 38.95 14.06 39.9C12.92 40.85 11.78 41.8 11.4 43.51C11.4 43.89 11.02 44.08 11.02 44.46C10.83 44.65 10.83 45.03 10.64 45.41C11.59 45.03 12.16 44.46 13.3 44.46C13.11 44.84 12.92 45.03 12.92 45.22C11.59 46.93 10.07 48.64 8.74 50.35C8.74 50.35 8.74 50.35 8.55 50.54C8.55 50.35 8.36 50.16 8.36 49.78C8.36 48.26 9.5 45.98 8.36 45.03C7.03 44.08 8.36 42.94 8.36 41.8C8.36 41.61 8.36 41.23 8.55 41.04C9.5 39.9 10.26 38.76 11.4 37.62C12.16 36.67 13.11 35.91 13.87 34.96C14.44 34.39 15.01 33.63 15.39 32.87C15.39 32.87 15.2 32.68 15.01 32.49C15.2 32.49 15.39 32.49 15.58 32.49C16.34 32.68 16.53 32.3 16.53 31.92C16.53 31.92 16.53 31.92 16.53 31.73C16.91 32.11 17.29 31.73 17.48 31.54C18.43 30.59 19.19 29.45 19.95 28.5C20.33 27.93 20.71 27.55 21.09 27.17C21.09 26.98 21.28 26.98 21.28 26.79C21.28 26.79 21.28 26.79 21.09 26.79C21.09 26.79 20.9 26.79 20.9 26.98C19.76 28.31 18.62 29.64 17.48 30.97C16.72 31.92 15.58 32.3 14.44 32.87C13.87 33.06 13.49 33.44 13.11 34.01C12.54 34.77 11.97 35.34 11.21 35.91C10.45 36.48 9.88 37.24 9.31 38C8.74 38.76 7.6 40.28 6.65 41.8C6.08 42.75 5.32 43.51 4.75 44.46C5.89 50.54 8.74 56.24 12.73 60.61C13.87 61.94 15.2 63.08 16.53 64.22C16.34 64.41 16.53 64.6 16.91 64.6C17.1 64.79 17.29 64.98 17.48 64.98C17.48 64.98 17.48 64.98 17.67 65.17C17.86 65.36 18.05 65.36 18.24 65.55C18.24 65.55 18.43 65.55 18.43 65.74C18.62 65.93 18.81 65.93 19 66.12C19 66.12 19.19 66.12 19.19 66.31C19.38 66.5 19.57 66.5 19.76 66.69C19.76 66.69 19.95 66.69 19.95 66.88C25.27 70.3 31.54 72.2 38.19 72.2C46.74 72.2 54.53 68.97 60.42 63.84C60.61 63.65 60.8 63.46 60.99 63.27C61.18 63.08 61.37 62.89 61.56 62.7C61.56 62.7 61.56 62.7 61.75 62.51C61.94 62.32 61.94 62.32 62.13 62.13C66.69 57.57 70.11 51.49 71.44 44.84L71.63 44.27C70.11 43.89 69.16 42.94 68.4 41.8Z" fill="#436B89"/>
<path d="M21.8502 39.3301C21.6602 39.7101 21.4702 40.0901 21.2802 40.2801C20.7102 40.8501 20.1402 41.6101 19.5702 42.1801C19.1902 42.3701 18.6202 42.5601 18.2402 42.5601C17.8602 42.5601 17.6702 42.5601 17.4802 42.7501H17.1002C17.1002 42.7501 17.1002 42.7501 16.9102 42.5601C17.1002 42.5601 17.1002 42.3701 17.2902 42.1801C17.8602 41.6101 18.2402 41.2301 18.8102 40.8501C19.7602 40.2801 20.5202 39.7101 21.4702 39.1401H21.6602C21.8502 39.1401 21.8502 39.3301 21.8502 39.3301Z" fill="#2F3472"/>
<path d="M53.5802 33.4401C53.3902 33.2501 52.8202 33.8201 52.6302 33.6301C52.0602 33.4401 52.0602 33.6301 52.0602 33.0601C51.8702 33.4401 51.3002 33.2501 51.1102 33.2501C50.5402 33.2501 49.9702 33.2501 49.5902 32.8701C48.4502 31.9201 47.8802 32.8701 46.7402 31.7301C46.3602 31.3501 45.7902 30.9701 45.4102 30.5901C45.4102 30.5901 45.4102 30.5901 45.2202 30.7801C45.2202 30.9701 45.2202 31.1601 45.4102 31.5401C43.7002 30.9701 42.1802 30.0201 40.4702 29.8301V30.0201C41.0402 30.4001 41.8002 30.5901 42.3702 30.9701C43.1302 31.1601 43.5102 31.7301 44.0802 32.3001C43.7002 32.3001 43.5102 32.3001 43.3202 32.3001C42.1802 32.1101 41.0402 31.9201 39.9002 31.9201C39.5202 31.9201 38.9502 32.1101 38.5702 32.3001C37.4302 32.8701 36.2902 33.6301 35.1502 34.0101C34.5802 34.3901 33.8202 34.3901 33.0602 34.5801C32.6802 34.7701 32.1102 34.9601 31.9202 35.3401C30.7802 36.2901 29.4502 37.0501 28.1202 37.6201C28.1202 37.6201 28.1202 37.6201 27.7402 37.6201C28.3102 37.0501 28.6902 36.4801 29.0702 36.1001C30.5902 34.5801 32.1102 33.2501 33.6302 31.9201C33.8202 31.7301 34.0102 31.3501 34.3902 31.1601C34.2002 30.5901 34.0102 30.4001 34.0102 30.4001C34.0102 30.2101 34.2002 30.0201 34.3902 29.8301C35.1502 29.2601 35.7202 28.6901 36.4802 28.3101C36.6702 28.1201 37.0502 27.9301 37.2402 27.5501C37.0502 27.5501 37.0502 27.5501 36.8602 27.5501C36.2902 27.5501 35.9102 27.9301 35.3402 27.3601C35.1502 27.1701 34.9602 27.3601 34.7702 27.3601C34.2002 27.5501 34.0102 27.3601 34.0102 26.7901C34.0102 26.2201 34.0102 26.0301 33.4402 26.2201C32.6802 26.4101 31.9202 26.6001 30.9702 26.9801C30.9702 26.7901 30.9702 26.6001 31.1602 26.4101C31.5402 25.6501 32.1102 24.8901 32.6802 24.1301C33.2502 23.1801 33.8202 22.0401 34.3902 21.0901C34.3902 20.9001 34.5802 20.7101 34.5802 20.7101C35.1502 19.7601 35.7202 19.5701 36.8602 19.7601C37.6202 19.9501 38.3802 20.1401 38.9502 20.1401C39.9002 20.1401 40.6602 20.5201 41.0402 21.4701C41.4202 22.2301 41.4202 22.2301 40.4702 22.4201C39.9002 22.6101 39.3302 22.6101 38.9502 22.6101V22.8001C40.4702 23.5601 42.1802 24.3201 43.7002 25.0801C43.7002 25.0801 43.7002 25.0801 43.7002 24.8901C43.5102 24.5101 43.1302 24.1301 42.9402 23.7501C42.9402 23.7501 42.9402 23.5601 43.1302 23.5601C43.7002 23.7501 44.2702 23.9401 45.0302 24.3201C44.8402 23.9401 44.6502 23.3701 44.4602 22.8001C45.2202 23.1801 45.7902 23.5601 46.1702 24.1301C46.9302 25.2701 47.5002 26.6001 48.2602 27.7401C48.4502 28.1201 48.6402 28.3101 49.0202 28.6901C49.5902 29.2601 50.1602 29.8301 50.7302 30.4001C51.4902 31.1601 51.6802 30.2101 52.4402 30.7801C52.8202 31.1601 53.3902 31.9201 53.3902 32.3001C53.3902 32.4901 53.3902 32.4901 53.5802 32.6801C53.7702 32.8701 53.7702 32.6801 53.9602 32.6801C54.1502 32.4901 54.5302 33.0601 55.8602 33.2501L53.5802 33.4401Z" fill="white"/>
<path d="M17.1006 42.5604C17.2906 42.3704 17.2906 41.9904 17.4806 41.9904C18.0506 41.4204 18.8106 40.6604 19.5706 40.2804C20.7106 39.5204 21.8506 38.7604 22.9906 38.1904H23.1806C23.1806 38.1904 23.3706 38.3804 23.1806 38.5704C22.9906 38.9504 22.8006 39.5204 22.4206 39.9004C21.6606 40.6604 21.0906 41.6104 20.3306 42.1804C19.9506 42.5604 19.1906 42.7504 18.6206 42.7504C18.2406 42.7504 18.0506 42.5604 17.6706 42.9404C17.6706 42.7504 17.4806 42.7504 17.1006 42.5604C17.1006 42.7504 17.1006 42.7504 17.1006 42.5604Z" fill="white"/>
<path d="M37.81 76C16.91 76 0 58.9 0 38C0 17.1 16.91 0 37.81 0C58.71 0 75.62 17.1 75.62 38C75.62 58.9 58.71 76 37.81 76ZM37.81 0.57C17.29 0.57 0.57 17.29 0.57 38C0.57 58.71 17.29 75.43 37.81 75.43C58.33 75.43 75.24 58.71 75.24 38C75.24 17.29 58.52 0.57 37.81 0.57Z" fill="white"/>
<path d="M70.1094 30.7803C70.2994 30.9703 70.8694 30.9703 71.2494 31.1603V30.9703C71.0594 30.9703 70.6794 30.7803 70.4894 30.7803C70.2994 30.7803 70.2994 30.7803 70.1094 30.7803Z" fill="#EAD039"/>
<path d="M69.9199 35.3399C69.9199 35.5299 70.1099 35.5299 70.1099 35.7199C70.6799 35.3399 71.2499 34.7699 71.8199 34.3899C71.6299 34.1999 71.6299 33.8199 71.6299 33.6299C71.2499 34.0099 70.8699 34.3899 70.4899 34.7699C70.2999 34.9599 70.1099 35.1499 69.9199 35.3399Z" fill="#EAD039"/>
<path d="M47.8795 49.59C48.2595 49.4 48.8295 49.21 49.2095 49.02C48.6395 49.21 48.2595 49.4 47.6895 49.59H47.8795Z" fill="#EAD039"/>
<path d="M64.5997 40.2797C64.5997 41.0397 64.7897 41.7997 64.9797 42.3697V42.5597C64.9797 43.1297 65.1697 43.3197 65.5497 43.5097C65.7397 43.3197 65.3597 42.9397 65.9297 42.9397C65.3597 42.5597 65.1697 41.9897 64.9797 41.4197C64.9797 41.0397 64.7897 40.6597 64.5997 40.2797C64.7897 40.0897 64.9797 39.7097 65.1697 39.5197C65.7397 39.1397 66.1197 38.7597 66.6897 38.3797C66.8797 38.1897 67.0697 38.1897 67.0697 37.8097C67.6397 37.8097 68.0197 37.2397 68.3997 36.8597C68.5897 36.6697 68.7797 36.4797 68.9697 36.4797C68.9697 36.4797 68.9697 36.4797 68.9697 36.6697C68.9697 36.6697 69.1597 36.6697 69.1597 36.4797H68.9697C68.9697 36.4797 68.9697 36.4797 68.7797 36.2897C69.3497 36.4797 69.5397 36.0997 69.7297 35.9097C69.5397 35.9097 69.5397 35.7197 69.3497 35.7197C69.1597 35.9097 68.9697 36.0997 68.5897 36.2897H68.7797C68.3997 36.4797 68.0197 36.6697 67.8297 37.0497C67.4497 37.2397 67.0697 37.6197 66.6897 37.8097C66.1197 38.1897 65.7397 38.3797 65.5497 39.1397H65.3597C64.9797 39.5197 64.5997 39.7097 64.2197 40.0897C64.4097 39.8997 64.5997 40.0897 64.5997 40.2797Z" fill="#EAD039"/>
<path d="M53.7693 59.8499C53.1993 60.2299 52.6293 60.6099 52.0593 60.9899C51.8693 61.1799 51.6793 61.1799 51.4893 61.3699C52.0593 61.3699 52.2493 61.1799 52.6293 60.9899C52.8193 60.7999 52.8193 60.7999 53.0093 60.9899C53.0093 61.1799 53.3893 61.1799 53.3893 61.1799C53.5793 60.9899 53.7693 60.7999 53.7693 60.6099C53.9593 60.4199 53.7693 60.4199 53.7693 60.2299C54.1493 60.2299 54.3393 60.0399 54.5293 60.0399C54.3393 59.6599 53.9593 59.6599 53.7693 59.8499Z" fill="#EAD039"/>
<path d="M31.9199 63.2699C31.9199 63.0799 32.11 62.8899 32.11 62.6999C32.3 62.6999 32.3 62.8899 32.49 62.8899C32.11 62.5099 32.1099 61.9399 31.9199 61.3699C32.1099 61.1799 32.11 60.9899 32.11 60.6099L31.9199 60.7999C31.9199 60.9899 31.73 60.9899 31.73 61.1799C31.54 61.1799 31.73 61.1799 31.73 61.3699C31.92 61.3699 31.9199 61.3699 31.9199 61.3699C31.9199 61.9399 31.7299 62.5099 31.9199 63.2699Z" fill="#EAD039"/>
<path d="M67.4498 30.02C67.2598 30.21 67.2598 30.21 67.2598 30.4C67.8298 30.4 68.3998 30.4 68.9698 30.4C68.3998 30.4 68.0198 30.4 67.4498 30.02Z" fill="#EAD039"/>
<path d="M69.1602 30.3999C69.5402 30.7799 69.7302 30.7799 69.9202 30.7799C69.7302 30.3999 69.5402 30.3999 69.1602 30.3999Z" fill="#EAD039"/>
<path d="M45.2192 64.9797C45.5992 64.7897 46.1692 64.5997 46.5492 64.2197C45.5992 64.5997 44.6492 64.9797 43.6992 65.3597C44.0792 65.3597 44.2692 65.3597 45.2192 64.9797Z" fill="#EAD039"/>
<path d="M44.6494 50.3502C44.8394 50.3502 45.2194 50.3502 45.4094 50.1602C45.2194 50.1602 44.8394 50.3502 44.6494 50.3502Z" fill="#EAD039"/>
<path d="M46.1702 49.7803C45.9802 49.9703 45.6002 49.9703 45.4102 50.1603C45.7902 49.9703 45.9802 49.9703 46.1702 49.7803Z" fill="#EAD039"/>
<path d="M46.9294 49.5898C46.7394 49.7798 46.5494 49.7798 46.3594 49.7798C46.5494 49.9698 46.9294 50.1598 46.9294 49.5898Z" fill="#EAD039"/>
<path d="M63.0801 43.3201C63.0801 42.9401 63.0801 42.7501 62.8901 42.5601C62.5101 42.5601 62.3201 42.7501 62.5101 42.9401C62.5101 43.1301 62.8901 43.3201 63.0801 43.3201Z" fill="#EAD039"/>
<path d="M42.7501 65.9298C43.1301 65.7398 43.3201 65.7398 43.7001 65.5498C43.1301 65.5498 42.7501 65.5498 42.3701 65.5498C42.3701 65.9298 42.3701 65.9298 42.7501 65.9298Z" fill="#EAD039"/>
<path d="M52.6299 42.94C53.0099 43.13 53.3899 43.32 53.7699 43.32C53.3899 43.13 53.1999 42.75 52.6299 42.94Z" fill="#EAD039"/>
<path d="M18.8096 65.9298C19.1896 65.7398 19.5696 65.5498 20.1396 65.5498C19.7596 65.5498 19.1896 65.7398 18.8096 65.7398V65.9298Z" fill="#EAD039"/>
<path d="M31.9199 60.4196C32.1099 60.4196 32.2999 60.4196 32.2999 60.4196C32.4899 60.2296 32.4899 60.0396 32.6799 59.8496C32.4899 60.0396 32.2999 60.2296 31.9199 60.4196Z" fill="#EAD039"/>
<path d="M22.4199 65.17C22.7999 65.55 22.9899 64.98 23.1799 64.98C22.9899 64.98 22.9899 64.98 22.7999 65.17C22.6099 64.98 22.6099 65.17 22.4199 65.17Z" fill="#EAD039"/>
<path d="M68.02 46.3599C67.83 46.7399 68.02 46.9299 68.02 46.9299C68.21 46.7399 68.02 46.5499 68.02 46.3599Z" fill="#EAD039"/>
<path d="M68.2095 45.4102C68.2095 45.4102 68.2095 45.4102 68.0195 45.4102C68.0195 45.6002 68.0195 45.6002 68.0195 45.7902C68.0195 45.7902 68.2095 45.7902 68.3995 45.7902C68.3995 45.6002 68.2095 45.4102 68.2095 45.4102Z" fill="#EAD039"/>
<path d="M69.5402 47.3096C69.5402 47.6896 69.5402 48.0696 69.3502 48.2596C69.3502 48.0696 69.3502 47.8796 69.3502 47.8796C69.1602 47.6896 68.9702 47.6896 68.9702 47.4996C68.9702 47.6896 68.7802 47.6896 68.7802 47.8796C68.5902 48.2596 68.5902 48.6396 68.4002 49.0196C68.4002 49.2096 68.4002 49.3996 68.5902 49.5896C68.4002 49.3996 68.4002 49.3996 68.4002 49.3996C68.4002 49.5896 68.4002 49.5896 68.4002 49.7796C67.6402 50.1596 67.6402 50.3496 67.8302 50.7296C68.0202 51.1096 68.2102 51.6796 68.7802 51.6796C68.7802 51.6796 68.9702 51.6796 69.1602 51.6796C69.7302 50.3496 70.1102 49.2096 70.4902 47.8796C70.3002 47.6896 70.1102 47.3096 69.9202 47.1196C69.9202 47.1196 69.7302 47.3096 69.5402 47.3096Z" fill="#EAD039"/>
<path d="M70.6797 44.27V44.46C70.8697 44.46 70.8697 44.46 71.0597 44.46C70.8697 44.46 70.8697 44.46 71.0597 44.27C70.8697 44.27 70.8697 44.27 70.6797 44.27Z" fill="#EAD039"/>
<path d="M69.35 43.5098L69.16 43.3198C68.78 43.3198 68.59 43.5098 68.21 43.5098C68.59 43.8898 68.59 43.8898 68.78 43.8898C68.97 43.8898 69.16 43.6998 69.35 43.5098Z" fill="#EAD039"/>
<path d="M71.8199 41.04C71.8199 41.04 71.6299 41.04 71.6299 41.23L71.8199 41.04Z" fill="#EAD039"/>
<path d="M70.6798 41.8002C70.4898 41.8002 70.2998 41.6102 70.1098 41.6102H70.2998C71.2498 41.4202 70.8698 41.4202 71.0598 40.6602C70.6798 40.6602 70.2998 40.8502 70.2998 41.0402C70.2998 41.2302 70.1098 41.4202 69.9198 41.2302L69.5398 41.4202C69.5398 41.6102 69.3498 41.6102 69.3498 41.8002C69.1598 42.1802 68.9698 42.5602 68.5898 42.5602C68.7798 42.7502 68.9698 42.7502 69.1598 42.5602C69.3498 42.3702 69.7298 42.3702 69.9198 42.3702C70.1098 42.3702 70.2998 42.5602 70.4898 42.1802C70.6798 41.9902 70.8698 41.9902 71.0598 41.8002C71.2498 41.8002 71.2498 41.8002 71.4398 41.6102C71.4398 41.6102 71.4398 41.4202 71.6298 41.2302C71.4398 41.4202 71.0598 41.4202 70.6798 41.8002ZM70.1098 41.6102C69.9198 41.8002 70.1098 41.6102 70.1098 41.6102V41.6102Z" fill="#EAD039"/>
<path d="M63.46 46.5498C63.46 46.7398 63.46 47.1198 63.46 47.3098C63.65 47.1198 63.65 46.7398 63.46 46.5498Z" fill="#EAD039"/>
<path d="M63.4595 54.15C63.4595 53.96 63.4595 53.96 63.6495 53.77C63.4595 53.77 63.4595 53.77 63.2695 53.96L63.4595 54.15Z" fill="#EAD039"/>
<path d="M66.12 52.0601C66.12 52.0601 65.93 52.0601 66.12 52.0601C65.93 52.0601 65.93 52.0601 66.12 52.0601C65.93 52.2501 65.93 52.2501 66.12 52.0601Z" fill="#EAD039"/>
<path d="M66.5001 52.0601C66.1201 52.0601 66.1201 52.0601 66.1201 52.0601C66.1201 52.0601 66.1201 52.2501 66.1201 52.4401C66.3101 52.2501 66.5001 52.2501 66.5001 52.0601Z" fill="#EAD039"/>
<path d="M64.5996 53.9599C64.5996 53.9599 64.7896 53.7699 64.5996 53.9599C64.5996 53.7699 64.5996 53.9599 64.5996 53.9599Z" fill="#EAD039"/>
<path d="M66.8793 47.6898C66.8793 47.4998 66.8793 47.3098 66.6893 47.3098C66.6893 47.4998 66.6893 47.4998 66.4993 47.6898C66.3093 47.4998 66.3093 47.3098 66.1193 47.3098C65.7393 47.1198 65.5493 46.9298 65.3593 46.3598C65.3593 46.3598 65.1693 46.1698 65.1693 46.3598L64.9793 46.5498C64.9793 46.7398 64.9793 46.7398 65.1693 46.9298C64.7893 46.7398 64.4093 46.5498 64.2193 46.5498C64.0293 47.1198 63.8393 47.6898 63.6493 48.2598V48.4498C63.8393 49.0198 63.6493 49.3998 63.4593 49.7798C63.4593 49.9698 63.4593 50.1598 63.4593 50.1598C63.6493 50.5398 63.4593 50.9198 63.2693 51.1098C63.2693 51.2998 63.0793 51.4898 63.0793 51.6798C63.0793 51.6798 63.0793 51.6798 62.8893 51.6798C62.8893 51.2998 63.0793 50.9198 63.0793 50.5398V50.3498C63.0793 49.9698 63.0793 49.3998 63.2693 49.0198C63.2693 48.6398 63.2693 48.2598 63.4593 48.0698C63.6493 47.6898 63.4593 47.4998 63.4593 47.3098C63.2693 47.3098 63.2693 47.3098 63.0793 47.3098C62.8893 47.3098 62.6993 47.3098 62.5093 47.3098C62.5093 47.1198 62.5093 47.1198 62.6993 46.9298C62.5093 46.9298 62.3193 46.9298 62.1293 46.9298C62.1293 46.7398 62.1293 46.5498 61.7493 46.7398C61.7493 46.7398 61.5593 46.9298 61.5593 46.7398C61.5593 46.7398 61.3693 46.5498 61.3693 46.3598C61.3693 46.3598 61.5593 46.5498 61.5593 46.3598C61.5593 46.3598 61.7493 46.3598 61.7493 46.1698V45.9798C61.7493 45.9798 61.5593 45.9798 61.3693 45.9798C61.1793 46.1698 61.1793 46.1698 60.9893 46.1698C60.9893 45.9798 61.1793 45.7898 61.1793 45.5998C61.1793 45.5998 61.1793 45.5998 60.9893 45.5998C60.9893 45.7898 60.7993 45.9798 60.7993 45.9798H60.6093C60.7993 46.1698 60.7993 46.1698 60.7993 46.3598C60.6093 46.1698 60.6093 45.9798 60.4193 45.7898C60.7993 45.5998 60.2293 45.4098 60.2293 45.2198C60.0393 45.2198 60.0393 45.2198 59.8493 45.2198C59.8493 45.0298 59.8493 45.0298 59.8493 44.8398C59.8493 44.6498 59.8493 44.6498 59.8493 44.4598C59.6593 44.2698 59.6593 43.8898 60.0393 43.6998C60.2293 43.6998 60.4193 44.0798 60.7993 43.8898C60.9893 43.6998 61.3693 43.6998 61.3693 43.3198C61.3693 43.1298 61.5593 42.9398 61.7493 43.1298C61.9393 43.3198 62.1293 43.3198 62.3193 43.1298C62.3193 43.1298 62.5093 43.1298 62.5093 42.9398C62.3193 42.7498 62.1293 42.5598 61.9393 42.3698C61.5593 42.1798 61.7493 41.9898 61.9393 41.7998H61.7493C61.7493 41.4198 62.5093 41.0398 63.0793 41.2298C63.0793 41.0398 63.0793 40.8498 63.0793 40.6598C63.4593 40.4698 63.8393 40.2798 64.2193 40.0898C63.8393 40.2798 63.6493 40.2798 63.2693 40.4698C63.2693 40.4698 63.4593 40.2798 63.6493 40.2798C63.4593 40.2798 63.2693 40.4698 63.2693 40.4698C63.0793 40.4698 62.8893 40.6598 62.8893 40.6598C62.8893 40.6598 62.8893 40.6598 62.8893 40.8498C62.8893 40.8498 62.8893 40.8498 62.6993 40.8498C62.6993 41.0398 62.5093 41.0398 62.3193 41.0398L62.5093 40.8498C62.3193 40.8498 62.1293 41.0398 62.1293 41.0398C62.1293 41.0398 62.1293 41.0398 61.9393 41.0398C61.7493 41.0398 61.5593 41.2298 61.3693 41.4198C61.1793 41.6098 61.1793 41.6098 60.9893 41.6098C61.1793 41.7998 60.9893 41.7998 60.7993 41.7998C60.7993 41.9898 60.9893 41.9898 60.9893 41.9898C60.9893 41.9898 60.9893 41.9898 60.7993 42.1798C60.7993 42.1798 60.6093 42.1798 60.6093 42.3698C60.6093 42.1798 60.6093 42.1798 60.4193 41.9898C60.2293 41.9898 60.2293 42.1798 60.0393 42.1798C59.4693 42.3698 59.0893 42.5598 58.5193 43.1298C58.3293 43.3198 58.1393 43.3198 57.9493 43.5098C57.5693 43.6998 56.9993 43.8898 56.6193 44.0798C56.2393 44.4598 55.8593 44.2698 55.4793 44.2698H55.2893C55.2893 44.2698 55.2893 44.2698 55.2893 44.4598H55.4793C55.6693 44.4598 55.8593 44.6498 55.6693 44.8398C55.2893 45.2198 54.7193 45.5998 54.1493 45.9798C53.3893 46.3598 52.6293 46.9298 51.8693 47.4998V47.6898C51.6793 47.6898 51.4893 47.8798 51.4893 47.8798C50.7293 48.4498 49.9693 48.8298 49.2093 49.0198C49.5893 48.8298 49.7793 48.8298 50.1593 48.8298C50.5393 48.8298 50.3493 49.0198 50.3493 49.2098C50.1593 49.5898 50.1593 50.1598 50.3493 50.5398L50.5393 50.7298C50.5393 50.5398 50.7293 50.5398 50.7293 50.3498C50.7293 50.1598 50.7293 49.9698 50.7293 49.7798C50.7293 49.2098 50.7293 48.6398 51.2993 48.4498C51.4893 48.4498 51.6793 48.2598 51.8693 48.0698V47.8798C52.0593 47.8798 52.2493 47.8798 52.2493 47.6898C52.6293 47.3098 53.0093 46.9298 53.3893 46.7398C53.5793 46.7398 53.7693 46.7398 53.7693 46.5498C54.1493 46.3598 54.5293 45.9798 54.9093 45.5998C55.2893 45.4098 55.6693 45.0298 56.0493 44.8398C56.4293 44.4598 56.9993 44.4598 57.3793 44.0798H57.5693C57.7593 44.0798 57.9493 43.8898 58.1393 43.8898C58.1393 43.8898 58.1393 44.0798 58.1393 44.2698C57.9493 44.6498 57.5693 44.2698 57.1893 44.4598H56.9993C56.8093 44.4598 56.6193 44.6498 56.6193 44.6498C56.6193 44.6498 56.8093 44.8398 56.8093 45.0298C56.6193 45.0298 56.4293 45.0298 56.2393 45.2198C55.8593 45.4098 55.6693 45.4098 55.2893 45.5998C54.7193 45.7898 54.3393 46.1698 53.9593 46.5498C53.3893 46.9298 53.1993 47.4998 53.1993 48.0698C52.8193 48.6398 53.0093 49.0198 52.4393 49.3998C52.2493 49.3998 52.2493 49.5898 52.0593 49.5898C52.8193 49.5898 53.5793 49.3998 54.1493 49.3998C54.3393 49.3998 54.5293 49.3998 54.7193 49.7798C54.7193 49.9698 55.0993 49.9698 55.2893 49.9698C55.6693 49.9698 56.0493 49.7798 56.4293 49.7798C56.6193 49.7798 56.6193 49.9698 56.8093 49.9698C56.6193 49.9698 56.6193 50.1598 56.4293 50.1598C56.0493 50.3498 55.6693 50.3498 55.4793 50.5398C55.4793 50.5398 55.2893 50.5398 55.2893 50.7298C55.6693 51.1098 55.8593 51.4898 55.8593 52.0598V52.2498C55.8593 52.2498 55.6693 52.4398 55.4793 52.4398C55.4793 52.6298 55.6693 52.6298 55.6693 52.8198H55.8593C56.0493 52.8198 56.2393 52.6298 56.4293 53.0098C56.4293 53.1998 56.2393 53.3898 56.0493 53.3898H55.8593C55.6693 53.3898 55.4793 53.3898 55.2893 53.3898C54.9093 53.3898 54.7193 53.3898 54.3393 53.1998C54.1493 53.1998 54.1493 53.1998 53.9593 53.0098C53.9593 53.1998 53.9593 53.1998 53.7693 53.3898C53.7693 53.1998 53.5793 53.0098 53.3893 52.8198C53.3893 53.1998 53.3893 53.3898 53.3893 53.5798L53.1993 53.7698L53.0093 53.5798C52.8193 53.3898 52.8193 53.1998 52.8193 52.8198C52.8193 52.6298 52.8193 52.4398 52.8193 52.4398C52.8193 52.4398 53.0093 52.4398 53.1993 52.4398C53.1993 52.4398 53.1993 52.4398 53.1993 52.2498C53.1993 52.2498 53.1993 52.2498 53.0093 52.2498C53.0093 52.2498 53.0093 52.2498 52.8193 52.2498C52.6293 52.0598 52.4393 52.0598 52.4393 51.8698C52.0593 51.2998 51.6793 50.9198 50.9193 50.7298C50.7293 50.7298 50.7293 50.7298 50.7293 50.9198C50.7293 51.1098 50.7293 51.2998 50.5393 51.4898C50.5393 51.6798 50.5393 51.6798 50.5393 51.8698C50.5393 52.6298 50.7293 53.3898 50.7293 54.1498C50.7293 54.1498 50.7293 54.1498 50.7293 54.3398C50.7293 54.1498 50.7293 53.9598 50.5393 53.7698C50.3493 53.3898 50.3493 53.0098 50.1593 52.6298V52.4398C50.1593 52.2498 50.1593 52.0598 49.9693 51.8698C49.9693 51.6798 49.7793 51.4898 49.5893 51.2998C49.3993 51.6798 49.0193 52.2498 48.8293 52.6298C48.8293 52.4398 48.8293 52.2498 48.8293 52.0598C48.6393 52.2498 48.6393 52.4398 48.6393 52.6298C48.4493 53.0098 48.2593 53.3898 47.8793 53.5798C47.8793 53.3898 48.0693 53.1998 48.0693 53.0098C48.0693 52.8198 48.0693 52.6298 48.2593 52.4398C48.2593 52.2498 48.0693 52.0598 48.4493 52.0598C48.4493 52.0598 48.4493 51.8698 48.4493 51.6798L48.2593 51.4898C48.0693 51.6798 47.6893 51.6798 47.4993 51.6798C47.3093 51.6798 47.3093 51.6798 47.1193 51.6798C46.7393 51.6798 46.7393 51.6798 46.7393 51.4898C46.7393 51.6798 46.5493 51.8698 46.5493 51.8698C46.1693 51.6798 45.7893 51.8698 45.2193 51.6798C45.4093 51.6798 45.5993 51.6798 45.5993 51.4898C45.5993 51.4898 45.5993 51.2998 45.7893 51.1098C45.0293 51.4898 44.2693 51.8698 43.6993 52.2498C43.3193 52.4398 42.7493 52.8198 42.5593 53.3898C42.5593 53.5798 42.1793 53.9598 41.9893 54.1498C41.6093 54.5298 41.6093 55.2898 41.4193 55.6698C41.4193 55.8598 41.2293 56.0498 41.2293 56.4298C41.2293 56.6198 41.2293 56.8098 41.2293 56.9998V57.1898C41.2293 57.1898 41.2293 57.3798 41.4193 57.3798C41.0393 57.7598 41.0393 57.9498 41.2293 58.3298C41.4193 58.7098 41.4193 59.0898 41.4193 59.6598C41.6093 59.2798 41.7993 59.4698 41.9893 59.6598C41.6093 60.2298 41.7993 60.7998 42.1793 61.3698C42.1793 61.5598 42.3693 61.7498 42.3693 61.9398C42.3693 62.1298 42.5593 62.3198 42.5593 62.5098C42.9393 62.8898 43.1293 63.2698 43.1293 63.8398C43.1293 64.0298 43.3193 64.2198 43.3193 64.4098C43.6993 64.0298 43.8893 63.8398 44.2693 63.6498C44.4593 63.6498 44.4593 63.4598 44.6493 63.4598C45.4093 63.2698 45.7893 62.6998 46.5493 62.5098C46.5493 62.5098 46.5493 62.3198 46.7393 62.3198C46.7393 62.3198 46.7393 62.1298 46.9293 62.1298C47.3093 61.7498 47.6893 61.5598 48.0693 61.1798C48.2593 60.9898 48.4493 60.7998 48.4493 60.6098C48.6393 60.4198 48.6393 60.2298 48.8293 60.2298C49.0193 60.0398 49.0193 59.8498 49.0193 59.6598C49.2093 59.6598 49.7793 59.2798 49.7793 58.8998C49.7793 58.3298 50.1593 57.7598 50.5393 57.3798C50.5393 57.1898 50.5393 57.1898 50.7293 56.9998C50.7293 56.6198 50.7293 56.0498 50.9193 55.6698C50.9193 55.2898 50.7293 55.2898 50.5393 54.9098C50.5393 54.7198 50.3493 54.7198 50.3493 54.7198C50.7293 54.5298 50.9193 54.5298 51.2993 54.5298C51.4893 55.2898 51.6793 56.0498 51.8693 56.8098C52.2493 56.8098 52.2493 56.9998 52.2493 57.1898C52.4393 57.5698 52.6293 57.9498 53.0093 58.1398C53.1993 58.5198 53.5793 58.8998 53.7693 59.0898L53.9593 59.2798H54.1493C54.3393 59.4698 54.7193 59.6598 54.9093 59.8498C55.2893 60.0398 55.6693 60.0398 56.0493 60.2298C56.0493 60.2298 56.2393 60.2298 56.2393 60.4198C56.2393 60.4198 56.2393 60.4198 56.4293 60.4198C56.6193 60.4198 56.9993 60.4198 57.1893 60.4198C57.5693 60.4198 57.9493 60.6098 58.3293 60.6098C58.3293 60.6098 58.3293 60.6098 58.5193 60.6098C58.8993 60.2298 58.8993 60.4198 58.8993 60.7998C59.2793 60.7998 59.4693 60.9898 59.6593 60.9898C60.2293 61.3698 60.7993 61.3698 61.3693 61.1798H61.1793C61.5593 60.9898 61.9393 60.9898 62.3193 60.7998C62.5093 60.7998 62.6993 60.7998 62.8893 60.6098C63.0793 60.6098 63.0793 60.4198 63.2693 60.4198C63.4593 60.2298 63.6493 59.8498 64.0293 59.6598C63.6493 59.6598 63.4593 59.6598 63.2693 60.0398C63.2693 60.2298 62.8893 60.2298 62.6993 60.2298C62.5093 60.2298 62.3193 60.2298 62.1293 60.4198C61.5593 60.4198 61.1793 60.6098 60.6093 60.7998H60.4193C60.2293 60.4198 59.8493 60.4198 59.4693 60.4198H59.2793V60.2298C59.6593 59.8498 59.6593 59.6598 59.4693 59.0898C59.4693 58.8998 59.4693 58.5198 59.4693 58.3298C59.4693 57.9498 59.6593 57.3798 59.6593 56.9998C59.6593 56.8098 59.8493 56.6198 60.0393 56.4298C60.0393 55.8598 59.6593 55.4798 59.4693 55.0998C59.0893 54.7198 58.8993 54.1498 58.7093 53.7698C58.7093 53.5798 58.7093 53.5798 58.7093 53.3898C58.7093 53.1998 58.7093 53.0098 58.5193 52.8198C58.5193 52.8198 58.5193 52.8198 58.5193 52.6298C58.5193 52.0598 58.5193 51.4898 58.8993 50.9198C58.8993 50.7298 59.2793 50.9198 59.4693 50.9198L59.6593 51.1098C59.4693 51.1098 59.0893 51.1098 58.8993 51.1098C59.0893 51.2998 59.0893 51.6798 59.2793 51.6798C59.4693 51.6798 59.4693 51.4898 59.6593 51.4898C59.8493 51.2998 60.0393 51.1098 60.2293 50.9198C60.2293 50.9198 60.2293 50.9198 60.4193 51.1098C60.2293 51.2998 60.2293 51.2998 60.0393 51.4898C59.8493 51.6798 59.8493 51.8698 60.0393 51.8698C60.2293 52.0598 60.2293 52.4398 60.6093 52.4398C60.6093 52.6298 60.6093 52.6298 60.7993 52.8198C60.7993 53.0098 60.7993 53.0098 60.9893 53.1998C61.1793 53.1998 61.3693 53.0098 61.5593 53.0098C61.9393 53.1998 61.9393 53.1998 61.5593 53.3898C61.5593 53.3898 61.5593 53.5798 61.5593 53.7698C62.1293 53.3898 62.5093 53.1998 62.5093 53.0098C62.5093 53.0098 62.6993 53.0098 62.8893 53.0098C62.8893 53.3898 62.6993 53.7698 63.2693 53.7698C63.2693 53.7698 63.4593 53.5798 63.4593 53.3898C63.4593 53.5798 63.6493 53.7698 63.6493 53.7698C63.8393 54.1498 64.0293 54.3398 64.0293 54.5298C64.0293 54.5298 64.0293 54.9098 63.8393 54.9098C63.4593 54.9098 63.2693 55.2898 63.0793 55.6698L62.8893 55.8598C63.0793 55.6698 63.2693 55.6698 63.2693 55.4798C63.4593 55.2898 63.6493 55.2898 63.8393 55.0998C64.0293 54.9098 64.2193 54.7198 64.2193 54.3398C64.4093 54.1498 64.4093 54.1498 64.5993 53.9598C64.4093 54.1498 64.4093 54.1498 64.2193 54.1498C64.2193 54.1498 64.2193 54.1498 64.0293 53.9598C64.2193 53.7698 64.2193 53.7698 64.4093 53.5798C64.4093 53.3898 64.2193 53.3898 64.0293 53.1998C64.2193 53.1998 64.2193 53.0098 64.4093 53.0098C64.4093 52.8198 64.4093 52.6298 64.4093 52.4398C64.4093 52.4398 64.4093 52.4398 64.5993 52.4398C64.7893 52.6298 64.7893 53.0098 64.9793 53.1998C65.1693 53.3898 65.1693 53.5798 65.3593 53.3898L65.1693 53.1998L65.3593 53.0098C65.5493 53.1998 65.7393 53.0098 65.9293 52.8198C65.7393 52.6298 66.1193 52.2498 65.5493 52.0598C65.7393 52.0598 65.9293 52.0598 65.9293 52.0598C65.9293 52.0598 65.9293 52.0598 66.1193 51.8698L66.3093 51.6798C66.4993 51.6798 66.6893 51.4898 66.6893 51.4898C66.8793 51.1098 67.2593 50.5398 66.6893 50.1598C66.4993 50.1598 66.8793 49.5898 67.0693 49.3998C67.0693 49.5898 67.0693 49.7798 67.0693 49.9698C67.2593 49.9698 67.2593 49.7798 67.4493 49.5898C67.2593 49.2098 67.0693 48.8298 67.0693 48.4498C67.0693 48.2598 67.0693 47.8798 66.8793 47.6898ZM58.5193 44.0798C58.5193 43.8898 58.5193 43.8898 58.5193 43.6998C58.5193 43.6998 58.7093 43.6998 58.7093 43.5098C58.7093 43.5098 58.8993 43.6998 58.8993 43.8898C58.7093 43.8898 58.7093 43.8898 58.5193 44.0798ZM59.0893 43.5098C59.0893 43.3198 59.2793 43.3198 59.4693 43.1298C59.6593 43.1298 59.6593 42.9398 59.8493 42.9398C60.0393 42.9398 60.0393 43.1298 60.0393 43.3198C59.6593 43.3198 59.4693 43.5098 59.0893 43.5098Z" fill="#EAD039"/>
<path d="M53.2 45.22C53.2 45.03 53.39 45.03 53.2 45.22C53.58 44.84 53.58 44.84 53.77 44.65L53.96 44.46C53.96 44.46 53.96 44.27 53.77 44.27C53.58 44.46 53.39 44.65 53.2 44.65C52.82 44.84 52.82 45.03 53.2 45.22Z" fill="#EAD039"/>
<path d="M69.1597 46.1699C68.7797 46.5499 69.1597 46.5499 69.3497 46.9299C69.5397 46.5499 69.3497 46.3599 69.1597 46.1699Z" fill="#EAD039"/>
<path d="M54.7194 34.0098C54.5294 33.6298 54.5294 34.0098 54.1494 34.1998C54.5294 34.3898 54.7194 34.1998 54.7194 34.0098Z" fill="#EAD039"/>
<path d="M54.1495 44.8398C53.9595 44.8398 53.9595 44.8398 53.7695 45.0298C54.1495 45.4098 54.3395 45.4098 54.5295 45.0298C54.7195 44.8398 54.9095 44.8398 55.0995 44.6498L55.2895 44.4598C54.7195 44.2698 54.3395 44.4598 54.1495 44.8398Z" fill="#EAD039"/>
<path d="M66.3093 47.3103C66.6893 46.3603 65.9293 45.7903 65.7393 45.0303C65.7393 45.2203 65.7393 45.4103 65.9293 45.6003C65.9293 45.7903 66.1193 45.9803 66.1193 46.1703C65.9293 46.1703 65.9293 46.1703 65.7393 46.1703C65.9293 46.1703 66.1193 46.3603 66.3093 46.3603C66.3093 46.3603 66.3093 46.3603 66.1193 46.3603C66.1193 46.9303 66.1193 47.1203 66.3093 47.3103Z" fill="#EAD039"/>
<path d="M64.79 55.48C64.79 55.86 64.98 55.86 65.17 56.05C65.36 56.24 65.55 56.24 65.17 56.43C65.17 56.43 64.98 56.24 64.79 56.24C64.79 56.43 64.79 56.62 64.98 56.81C65.36 57 65.55 57 65.93 57.19C65.93 57 66.12 57 66.12 56.81C65.74 56.24 65.36 55.86 64.79 55.48Z" fill="#EAD039"/>
<path d="M30.7798 64.03C30.9698 64.22 31.1598 64.22 31.1598 64.03C31.1598 63.65 31.1598 63.27 31.1598 63.08C31.1598 63.08 30.9698 62.89 30.9698 63.08C30.7798 63.08 30.7798 63.27 30.5898 63.27C30.9698 63.27 31.1598 63.46 30.9698 63.84C30.7798 63.84 30.7798 63.84 30.7798 64.03Z" fill="#EAD039"/>
<path d="M33.8201 57.0002C33.6301 57.0002 33.6301 57.0002 33.4401 57.0002C33.0601 56.8102 32.8701 57.3802 32.6801 57.3802V57.5702C32.6801 57.7602 32.8701 57.7602 32.8701 57.9502C32.6801 58.1402 32.4901 58.5202 32.1101 58.7102C31.7301 58.5202 31.7301 58.5202 32.1101 58.1402V57.9502C31.7301 58.5202 30.9701 58.3302 30.5901 58.9002C30.5901 59.0902 30.4001 59.0902 30.2101 59.2802C30.0201 59.2802 30.0201 59.4702 29.8301 59.4702C30.0201 60.0402 30.2101 60.6102 30.4001 61.1802C30.4001 60.8002 30.5901 60.8002 30.7801 60.8002C31.1601 60.4202 31.7301 60.2302 32.3001 59.8502C32.4901 59.4702 32.8701 59.2802 33.0601 59.0902C33.4401 58.7102 33.8201 58.1402 34.2001 57.7602C34.3901 57.5702 34.5801 57.3802 34.5801 57.1902C34.5801 57.1902 34.7701 57.1902 35.1501 57.3802C34.9601 57.1902 34.7701 57.1902 34.5801 57.0002C34.3901 57.0002 34.0101 57.0002 33.8201 57.0002Z" fill="#EAD039"/>
<path d="M33.4397 65.9303C33.2497 66.1203 32.8697 66.3103 32.6797 66.5003C32.8697 66.5003 32.8697 66.6902 33.0597 66.6902C32.8697 66.6902 32.6797 66.8803 32.4897 66.8803C32.2997 66.8803 32.1097 67.0703 32.1097 67.2603C32.1097 67.4503 31.7297 67.6403 31.5397 67.4503C31.5397 67.4503 31.5397 67.2602 31.3497 67.0702C31.3497 67.0702 31.1597 67.0702 30.9697 67.0702C30.7797 67.0702 30.5897 66.8803 30.5897 66.8803C30.5897 66.6903 30.3997 66.3102 30.5897 66.1202C30.7797 65.5502 30.5897 65.1702 30.2097 64.7902C29.8297 64.9802 29.6397 65.1703 29.4497 65.3603C29.0697 65.5503 28.8797 65.7402 29.0697 66.1202C29.0697 66.3102 29.0697 66.6903 29.2597 66.8803V67.0702C29.4497 67.2602 29.4497 67.4503 29.2597 67.8303C29.0697 67.6403 28.8797 67.4503 29.0697 67.2603C29.0697 67.0703 29.0697 66.8803 28.8797 66.8803C28.3097 66.6903 28.3097 66.3102 28.6897 65.7402C28.6897 65.7402 28.8797 65.5503 28.6897 65.3603C28.6897 65.3603 28.8797 65.1703 28.8797 64.9803V65.1702C29.0697 65.1702 29.2597 65.1702 29.4497 65.1702C29.4497 64.9802 29.4497 64.7903 29.2597 64.6003C29.2597 64.6003 29.2597 64.6003 29.2597 64.4103C28.6897 64.6003 28.1197 64.7903 27.5497 64.9803L27.7397 64.7902C27.5497 64.7902 27.3597 64.7902 27.1697 64.7902C27.7397 64.4102 28.3097 64.0303 29.0697 63.6503L28.8797 63.4603C29.2597 63.4603 29.6397 63.2702 30.0197 63.2702C30.0197 63.2702 30.0197 63.4603 30.0197 63.6503C30.2097 63.4603 30.3997 63.0802 30.7797 62.8902C30.0197 62.3202 29.2597 62.7002 28.4997 62.8902C28.4997 62.8902 28.4997 62.8903 28.4997 62.7003L28.3097 62.5103C27.7397 62.7003 27.3597 62.7003 26.9797 63.0803C26.4097 63.2703 26.0297 63.4602 25.4597 63.8402C25.0797 64.0302 24.6997 64.4103 24.5097 64.6003C24.1297 64.9803 23.9397 65.1703 23.5597 65.5503C23.3697 65.7403 23.1797 65.9303 22.9897 66.3103C22.7997 66.5003 22.7997 66.5003 22.6097 66.3103C22.4197 66.5003 22.4197 66.6903 22.2297 66.3103C22.2297 66.5003 22.0397 66.5002 22.0397 66.6902C22.2297 66.8802 22.4197 67.0702 22.4197 67.0702C22.4197 67.2602 22.2297 67.4502 22.0397 67.6402C21.6597 67.2602 22.2297 66.8802 21.6597 66.6902C21.6597 67.0702 21.4697 67.4503 21.4697 67.8303C22.0397 68.2103 22.7997 68.5903 23.3697 68.7803C23.5597 68.7803 23.5597 68.5902 23.7497 68.5902C23.9397 68.4002 24.5097 68.2103 24.8897 68.4003C25.0797 68.5903 25.2697 68.5903 25.6497 68.7803C25.6497 68.9703 25.6497 68.9703 25.8397 69.1603C26.0297 69.5403 26.0297 69.5403 26.2197 69.1603C26.4097 69.1603 26.5997 69.1603 26.7897 69.1603C26.7897 69.3503 26.7897 69.3502 26.5997 69.5402C26.9797 69.5402 27.3597 69.5403 27.3597 70.1103C27.3597 69.9203 27.5497 69.7302 27.5497 69.5402C27.9297 69.3502 28.3097 69.3503 28.4997 69.7303C28.8797 69.3503 29.0697 69.3502 29.4497 69.9202C29.2597 70.3002 29.0697 70.6803 28.6897 71.0603C28.4997 71.0603 28.4997 71.0603 28.3097 71.0603C30.0197 71.6303 31.7297 71.8203 33.4397 72.2003C32.8697 71.6303 33.0597 70.8703 33.2497 70.1103C33.2497 69.9203 33.2497 69.9203 33.0597 69.7303C32.8697 69.5403 33.6297 69.3503 33.0597 69.1603C32.8697 68.9703 32.4897 69.1602 32.2997 68.9702C32.2997 68.9702 32.2997 68.9702 32.4897 68.9702C32.6797 68.9702 32.8697 68.7803 33.0597 68.7803C33.0597 68.9703 33.2497 68.9703 33.2497 69.1603C33.4397 68.7803 33.4397 68.5903 33.4397 68.4003C33.6297 68.2103 33.6297 67.8302 33.8197 67.6402C33.8197 67.4502 33.8197 67.0702 33.8197 66.6902C33.8197 66.6902 33.6297 66.6903 33.4397 66.5003C33.4397 66.3103 33.8197 66.1203 33.4397 65.9303Z" fill="#EAD039"/>
<path d="M11.5896 58.3301C11.2096 58.3301 11.0196 58.3301 10.6396 58.3301C10.8296 58.5201 10.8296 58.7101 11.0196 58.9001C11.2096 58.9001 11.2096 58.7101 11.0196 58.5201C11.3996 58.5201 11.3996 58.5201 11.5896 58.3301Z" fill="#EAD039"/>
<path d="M34.96 52.0599C34.77 52.2499 34.58 52.4399 34.39 52.4399C34.2 52.6299 34.01 52.6299 33.82 52.8199C33.82 52.8199 33.82 53.0099 33.82 53.1999C33.63 53.1999 33.44 53.1999 33.25 53.1999C33.44 53.5799 33.25 53.7699 33.06 53.7699C33.06 53.9599 33.06 53.9599 33.06 53.9599C32.68 54.3399 32.49 54.7199 31.92 54.9099C31.73 54.9099 31.54 54.9099 31.54 55.2899C31.54 55.4799 31.35 55.4799 31.16 55.6699C30.4 56.0499 30.21 56.6199 30.21 57.3799C30.21 57.5699 30.21 57.5699 30.21 57.7599C30.4 57.5699 30.59 57.5699 30.78 57.5699C31.16 57.7599 31.16 57.3799 31.35 57.1899C31.35 57.1899 31.35 56.9999 31.35 56.8099C31.16 56.8099 31.16 56.8099 30.97 56.8099C30.78 56.8099 30.78 56.9999 30.59 57.1899C30.59 56.9999 30.4 56.8099 30.59 56.8099C30.59 56.6199 30.78 56.4299 30.97 56.4299C31.54 56.6199 31.92 56.4299 32.11 56.0499C32.11 55.8599 32.3 55.8599 32.49 55.8599C32.68 55.6699 32.87 55.6699 33.06 55.4799C33.25 55.4799 33.25 55.4799 33.44 55.4799H33.63C33.82 55.4799 34.01 55.4799 34.01 55.2899C34.01 55.0999 34.2 55.0999 34.2 54.9099C34.39 54.7199 34.39 54.7199 34.58 54.5299H34.77C34.77 54.5299 34.77 54.7199 34.77 54.9099C34.58 55.2899 34.2 55.6699 33.82 55.6699C33.44 55.6699 33.25 55.8599 33.06 56.2399C32.87 56.2399 32.87 56.2399 32.68 56.4299V56.6199C32.68 56.6199 32.68 56.8099 32.87 56.8099H33.06V56.6199C33.25 56.6199 33.44 56.6199 33.63 56.6199H33.82C33.63 56.8099 33.63 56.8099 33.63 56.8099C34.2 56.8099 34.58 56.9999 35.15 56.9999C35.34 56.9999 35.53 56.8099 35.53 56.8099C35.34 56.9999 35.34 57.1899 35.15 57.3799C34.96 57.5699 34.96 57.5699 34.77 57.7599C34.77 57.5699 34.96 57.3799 35.15 57.3799C34.96 57.5699 34.77 57.7599 34.58 57.9499C34.58 57.9499 34.58 57.9499 34.77 57.9499L34.58 58.1399C34.58 58.1399 34.58 58.1399 34.39 58.3299C34.39 58.3299 34.39 58.1399 34.39 57.9499C34.2 58.1399 34.01 58.5199 33.82 58.7099C34.2 58.5199 34.2 58.5199 34.39 58.3299C34.2 58.5199 34.01 58.7099 33.82 58.8999C33.44 59.2799 33.25 59.6599 32.87 59.8499C32.68 60.0399 32.49 60.4199 32.49 60.7999C33.06 60.7999 33.44 60.6099 33.63 60.4199C34.01 60.0399 34.39 60.0399 34.77 59.8499C34.96 59.6599 35.34 59.4699 35.53 59.2799C35.72 59.0899 35.91 59.0899 36.1 58.8999C36.29 58.7099 36.48 58.7099 36.48 58.5199C36.48 58.5199 36.48 58.3299 36.67 58.3299C36.86 58.3299 37.05 58.1399 37.24 57.9499C37.62 57.7599 37.62 57.3799 37.62 56.9999C37.62 56.8099 37.81 56.6199 38 56.4299C38.19 56.2399 38.38 56.0499 38.38 55.8599C38.57 55.4799 38.76 55.2899 38.76 54.9099C38.76 54.7199 38.76 54.5299 38.76 54.3399C38.76 54.3399 38.95 54.3399 38.95 54.1499C38.95 54.1499 38.95 54.1499 38.95 54.3399C39.14 54.3399 39.14 54.3399 39.33 54.1499C39.71 53.7699 40.28 53.3899 40.66 53.1999C41.42 52.8199 41.61 52.2499 42.37 51.8699C42.75 51.6799 42.94 51.4899 43.32 51.4899C43.13 51.2999 43.32 51.2999 43.32 51.1099C42.56 51.2999 41.8 51.6799 41.04 51.8699L41.23 51.6799C41.04 51.6799 40.85 51.6799 40.85 51.6799C40.85 51.8699 40.85 51.8699 40.85 51.8699C40.47 52.0599 39.9 52.0599 39.52 51.8699C39.71 52.0599 40.09 52.2499 40.28 52.6299C40.47 52.6299 40.66 52.4399 40.85 52.4399C40.47 53.0099 39.9 53.1999 39.52 53.5799V53.3899C39.52 53.1999 39.33 53.0099 39.33 52.8199C39.33 52.6299 39.33 52.4399 38.95 52.2499C38.76 52.2499 38.76 51.8699 38.57 51.6799C38.19 51.2999 38 51.2999 37.62 51.4899C37.05 51.6799 37.05 52.2499 37.24 52.6299V52.8199C37.24 52.8199 37.24 52.8199 37.05 52.8199C37.05 52.4399 37.05 52.0599 37.05 51.4899C36.67 51.6799 36.1 51.8699 35.72 52.0599C35.53 52.0599 35.53 52.0599 35.34 52.0599C35.15 52.0599 35.15 52.0599 34.96 52.0599ZM36.29 56.2399C36.29 56.2399 36.1 56.4299 36.29 56.2399C36.1 56.4299 36.1 56.4299 36.29 56.2399ZM38.38 54.5299C38.19 54.7199 38.19 54.7199 38 54.9099C38.19 54.7199 38.19 54.7199 38.38 54.5299Z" fill="#EAD039"/>
<path d="M30.0197 58.5203C30.0197 58.3303 30.2097 58.1403 30.2097 58.1403C30.2097 58.1403 30.2097 57.9503 30.2097 57.7603C30.0197 57.7603 30.0197 57.9503 29.8297 57.9503C29.8297 58.1403 29.6397 58.1403 30.0197 58.5203Z" fill="#EAD039"/>
<path d="M30.5901 63.27C30.2101 63.46 30.0201 63.65 29.8301 63.84C30.5901 63.84 30.7801 63.84 30.5901 63.27Z" fill="#EAD039"/>
<path d="M51.6797 45.22C51.6797 45.41 51.6797 45.41 51.8697 45.6C52.0597 45.22 52.0597 44.65 52.2497 44.27C52.4397 43.89 52.6297 43.7 52.2497 43.13L52.0597 43.32V43.51C51.2997 43.32 50.9197 44.08 50.5397 44.27C50.1597 44.46 49.7797 44.84 49.3997 45.03C49.0197 45.41 48.6397 45.6 48.2597 45.98C48.0697 46.17 47.8797 46.17 47.6897 46.17C47.6897 45.98 47.6897 45.98 47.6897 45.79C47.8797 45.79 48.0697 45.6 48.0697 45.6C48.2597 45.41 48.4497 45.22 48.6397 45.22C48.8297 45.22 48.8297 45.03 49.0197 44.84C49.2097 44.65 49.2097 44.65 49.3997 44.65C49.5897 44.46 49.9697 44.46 49.9697 44.27C50.1597 43.89 50.5397 43.89 50.7297 43.51C50.9197 43.32 51.1097 43.13 51.4897 43.13C51.4897 43.13 51.4897 43.13 51.4897 42.94C51.2997 42.94 50.9197 42.75 50.7297 42.75C50.1597 42.75 49.5897 42.75 49.0197 42.94C48.2597 43.13 47.4997 43.13 46.9297 43.32C46.1697 43.51 45.5997 43.89 45.0297 44.27C44.8397 44.46 44.6497 44.65 44.4597 44.65C43.8897 44.84 43.6997 45.03 43.5097 45.6V45.79C42.9397 46.17 42.5597 46.93 42.1797 47.5C41.9897 47.88 41.6097 48.26 41.2297 48.45C41.2297 48.64 41.0397 48.64 41.0397 48.83C41.0397 49.21 40.6597 49.59 40.8497 49.97V50.16C40.6597 50.54 40.4697 50.73 40.4697 50.92C40.6597 51.11 40.8497 51.11 41.0397 51.11C41.6097 51.3 41.9897 51.11 42.5597 50.73H42.7497C43.3197 50.73 43.8897 50.35 44.4597 50.16C44.6497 49.97 45.0297 49.97 45.2197 49.78C45.7897 49.59 46.3597 49.4 46.9297 49.21C47.3097 49.02 47.6897 48.83 48.0697 48.64C48.2597 48.64 48.4497 48.64 48.4497 48.45C49.0197 48.26 49.5897 48.07 50.1597 47.69C50.7297 47.31 51.2997 46.74 51.6797 45.98V45.79C51.6797 45.79 51.6797 45.79 51.6797 45.6C51.4897 45.79 51.4897 45.79 51.2997 45.98C51.2997 45.79 51.1097 45.6 51.2997 45.41C51.4897 45.03 51.6797 44.65 51.8697 44.27C51.8697 44.27 51.8697 44.27 52.0597 44.27C52.0597 44.65 51.8697 45.03 51.6797 45.22C51.8697 45.22 51.8697 45.22 51.6797 45.22Z" fill="#EAD039"/>
<path d="M70.4894 45.0297C70.2994 45.0297 70.1094 44.8397 69.9194 44.6497C70.1094 44.6497 70.2994 44.4597 70.4894 44.4597C70.2994 44.2697 70.1094 44.2697 69.7294 44.0797C69.7294 44.0797 69.7294 43.8897 69.7294 43.6997C69.5394 43.8897 69.3494 44.0797 69.1594 44.2697C68.9694 44.2697 68.5894 44.2697 68.3994 44.2697C68.5894 44.6497 68.7794 44.6497 69.1594 44.4597C69.1594 44.4597 69.1594 44.4597 69.1594 44.6497C68.9694 44.8397 68.9694 44.8397 68.7794 45.0297C68.9694 45.2197 69.3494 45.5997 69.5394 45.7897C69.7294 45.9797 69.9194 46.3597 69.9194 46.5497C70.1094 46.7397 70.2994 47.1197 70.4894 47.4997C70.6794 46.7397 70.8694 45.7897 71.0594 45.0297C71.0594 44.8397 70.8694 44.8397 70.4894 45.0297Z" fill="#EAD039"/>
<path d="M30.5893 61.7502C30.5893 61.7502 30.7793 61.7502 30.9693 61.5602C30.9693 61.5602 31.1593 61.3702 30.9693 61.1802C30.7793 61.1802 30.5893 61.3702 30.5893 61.3702C30.3993 61.5602 30.5893 61.7502 30.5893 61.7502Z" fill="#EAD039"/>
<path d="M67.0697 35.3396C67.2597 34.9596 67.2597 34.5796 67.2597 34.1996C67.2597 33.8196 67.4497 33.6296 67.4497 33.2496C67.4497 33.0596 67.6397 32.8696 67.2597 32.8696C67.0697 32.8696 67.0697 32.4896 67.0697 32.2996C67.0697 31.9196 67.2597 31.7296 67.2597 31.3496C67.2597 31.3496 67.0697 31.1596 66.8797 30.9696C66.8797 32.1096 67.0697 33.0596 66.8797 33.8196C66.6897 34.7696 66.6897 35.7196 66.1197 36.4796C66.1197 36.2896 66.1197 36.2896 66.1197 36.0996C66.3097 35.7196 66.3097 35.1496 66.4997 34.7696C66.4997 34.7696 66.4997 34.5796 66.4997 34.3896C66.3097 34.0096 66.3097 33.6296 66.1197 33.4396C66.1197 33.4396 66.1197 33.2496 66.1197 33.0596C66.4997 32.8696 66.4997 32.4896 66.6897 32.1096C66.8797 31.7296 66.6897 31.5396 66.4997 31.3496C66.4997 31.5396 66.4997 31.5396 66.4997 31.5396C66.4997 31.9196 66.3097 32.1096 65.9297 31.9196C65.7397 31.9196 65.5497 32.1096 65.5497 32.1096C65.1697 32.4896 64.7897 32.8696 64.5997 33.2496C64.5997 33.4396 64.4097 33.4396 64.4097 33.6296C64.4097 33.6296 64.4097 33.6296 64.2197 33.6296C64.0297 33.8196 63.8397 34.0096 63.6497 34.1996C63.4597 34.5796 63.4597 34.9596 63.0797 35.1496C62.8897 35.3396 62.6997 35.5296 62.5097 35.9096C62.3197 35.5296 62.5097 35.3396 62.6997 35.1496C63.0797 34.9596 63.2697 34.9596 63.2697 34.5796C63.4597 34.5796 63.4597 34.3896 63.6497 34.0096C63.8397 33.6296 64.0297 33.2496 64.4097 32.8696C64.5997 32.6796 64.9797 32.4896 65.1697 32.1096C65.3597 31.7296 65.7397 31.5396 65.9297 31.1596C66.1197 30.9696 66.3097 30.7796 66.4997 30.3996C66.3097 30.0196 66.1197 30.2096 65.9297 30.2096C65.7397 30.2096 65.5497 30.3996 65.5497 30.3996C64.5997 30.5896 63.6497 30.9696 62.6997 31.5396C61.9397 31.9196 61.1797 32.2996 60.4197 32.6796C60.2297 32.6796 60.0397 32.8696 60.0397 33.0596C60.2297 33.0596 60.2297 32.8696 60.4197 32.8696C61.1797 32.4896 61.7497 32.2996 62.5097 32.1096C62.5097 32.1096 62.5097 32.1096 62.5097 32.2996C62.1297 32.4896 61.7497 32.6796 61.3697 32.8696C61.5597 33.0596 61.5597 33.0596 61.7497 33.0596C61.5597 33.0596 61.5597 33.0596 61.3697 33.0596C61.1797 33.0596 61.1797 32.8696 60.9897 32.8696C60.9897 32.8696 60.9897 32.8696 60.9897 33.0596C60.9897 33.0596 60.9897 33.2496 61.1797 33.2496C60.7997 33.4396 60.6097 33.8196 60.4197 34.0096C60.0397 33.8196 59.6597 33.8196 59.2797 34.1996C59.0897 34.3896 58.8997 34.3896 58.7097 34.5796C58.5197 34.7696 58.5197 34.9596 58.5197 35.1496C58.5197 35.1496 58.5197 35.1496 58.7097 35.3396C58.5197 35.3396 58.3297 35.3396 58.1397 35.3396L57.9497 35.5296C58.1397 35.5296 58.1397 35.5296 58.1397 35.5296C58.1397 35.5296 58.1397 35.5296 58.1397 35.7196C57.9497 35.7196 57.9497 35.7196 57.7597 35.9096C57.5697 36.0996 57.5697 36.2896 57.3797 36.4796C56.9997 36.8596 56.8097 37.2396 56.9997 37.8096C56.9997 37.8096 56.9997 37.9996 56.8097 38.1896C56.4297 38.5696 56.4297 38.9496 56.4297 39.3296C56.4297 39.5196 56.4297 39.7096 56.4297 39.8996C56.4297 40.0896 56.4297 40.2796 56.4297 40.4696C56.4297 40.8496 56.4297 41.0396 56.4297 41.4196C56.4297 41.6096 56.4297 41.6096 56.4297 41.7996C56.6197 41.9896 56.6197 42.3696 56.4297 42.5596C56.4297 42.9396 56.4297 43.1296 56.6197 43.5096C56.6197 43.5096 56.8097 43.6996 56.8097 43.5096C56.9997 43.5096 57.3797 43.3196 57.5697 43.1296C57.7597 42.9396 58.1397 42.9396 58.3297 42.7496C58.5197 42.5596 58.7097 42.3696 59.0897 42.3696C59.2797 42.1796 59.6597 41.9896 59.8497 41.9896C60.0397 41.7996 60.2297 41.7996 60.4197 41.6096C60.6097 41.6096 60.6097 41.6096 60.7997 41.4196C60.9897 41.4196 61.1797 41.2296 61.1797 41.2296C61.3697 41.2296 61.3697 41.0396 61.5597 40.8496C61.5597 40.8496 61.5597 40.6596 61.5597 40.4696C62.1297 40.6596 62.6997 40.2796 63.0797 39.8996C62.8897 39.8996 62.6997 39.8996 62.5097 39.8996C62.5097 39.8996 62.5097 39.8996 62.5097 39.7096C62.6997 39.7096 63.0797 39.7096 63.4597 39.7096C63.4597 39.7096 63.4597 39.5196 63.2697 39.5196C63.6497 39.5196 63.8397 39.5196 64.0297 39.5196C63.8397 38.5696 64.5997 38.7596 64.9797 38.7596C64.9797 38.5696 64.9797 38.5696 64.9797 38.3796C65.1697 38.3796 65.1697 38.3796 65.3597 38.3796C65.9297 37.9996 65.3597 37.4296 65.5497 37.0496C65.7397 37.2396 65.7397 37.4296 65.9297 37.8096C66.1197 37.6196 66.4997 37.4296 66.8797 37.2396C66.3097 36.8596 66.4997 36.6696 66.6897 36.2896C66.8797 35.9096 67.0697 35.7196 67.0697 35.3396Z" fill="#EAD039"/>
<path d="M43.1295 71.0598C43.1295 70.8698 43.1295 70.6798 43.1295 70.4898C43.1295 70.2998 43.1295 70.1098 43.1295 69.9198C43.1295 69.5398 42.9395 69.1598 42.9395 68.5898C42.9395 68.2098 42.7495 68.0198 42.7495 67.6398C42.7495 67.4498 42.5595 67.4498 42.7495 67.2598C42.7495 66.8798 42.5595 66.4998 42.3695 66.1198C42.3695 65.9298 42.3695 65.7398 42.1795 65.5498C42.1795 65.3598 41.9895 65.3598 41.7995 65.1698C42.1795 65.1698 42.3695 65.1698 42.7495 65.1698C42.1795 64.9798 41.4195 64.5998 40.8495 64.4098C40.4695 64.4098 40.0895 64.0298 39.7095 63.8398C39.5195 63.8398 39.3295 63.8398 39.1395 64.0298C39.3295 64.0298 39.5195 64.0298 39.8995 64.0298C39.8995 64.0298 39.8995 64.2198 39.7095 64.4098C39.5195 64.4098 39.3295 64.5998 39.3295 64.4098C39.1395 64.4098 39.1395 64.2198 38.9495 64.4098C38.7595 64.5998 38.7595 64.7898 38.9495 64.9798C38.9495 64.9798 38.9495 64.9798 39.1395 64.9798C38.9495 65.1698 38.7595 65.3598 38.5695 65.3598C38.3795 65.3598 38.3795 65.3598 38.1895 65.3598C37.9995 65.1698 37.8095 65.1698 37.4295 64.9798C37.8095 64.7898 38.1895 64.5998 38.5695 64.4098C38.3795 64.2198 38.3795 64.2198 38.1895 64.2198C37.9995 64.4098 37.8095 64.5998 37.6195 64.2198C37.6195 64.4098 37.6195 64.4098 37.6195 64.4098C37.2395 64.4098 36.8595 64.4098 36.4795 64.5998C36.6695 64.7898 36.6695 64.7898 36.8595 64.9798C36.6695 64.9798 36.4795 65.1698 36.2895 65.1698C36.0995 65.1698 35.9095 64.9798 35.9095 64.5998C36.0995 64.5998 36.2895 64.5998 36.6695 64.4098C36.4795 64.4098 36.4795 64.2198 36.2895 64.2198C36.0995 64.2198 35.9095 64.2198 35.9095 64.2198C35.7195 64.4098 35.7195 64.5998 35.3395 64.4098V64.5998C35.5295 64.7898 35.7195 64.9798 35.9095 65.1698L36.0995 65.3598C36.2895 65.9298 36.6695 66.4998 37.0495 66.8798L37.2395 67.0698C37.2395 67.2598 37.2395 67.4498 37.4295 67.6398C37.0495 66.8798 36.4795 66.1198 35.9095 65.3598V65.5498C35.9095 65.5498 35.7195 65.5498 35.7195 65.7398C35.7195 66.1198 35.5295 66.3098 35.5295 66.6898C35.5295 67.2598 35.1495 67.6398 34.9595 68.2098C34.9595 68.3998 34.7695 68.5898 34.7695 68.7798C34.9595 68.7798 34.9595 68.7798 35.1495 68.7798C35.1495 68.9698 35.1495 68.9698 35.1495 69.1598C35.1495 69.3498 34.9595 69.5398 35.3395 69.5398V69.7298C35.1495 69.9198 35.1495 69.9198 35.3395 70.1098C35.5295 70.2998 35.5295 70.4898 35.5295 70.6798C35.5295 71.0598 35.5295 71.2498 35.5295 71.6298C38.3795 72.0098 41.4195 71.8198 44.4595 71.4398C43.3195 71.4398 43.3195 71.2498 43.1295 71.0598ZM37.8095 68.2098C37.9995 68.3998 38.1895 68.5898 38.1895 68.9698C37.9995 68.5898 37.8095 68.2098 37.6195 67.8298C37.6195 68.0198 37.8095 68.0198 37.8095 68.2098ZM38.9495 70.2998C38.7595 69.9198 38.5695 69.5398 38.1895 69.1598C38.1895 69.1598 38.1895 69.1598 38.3795 69.1598C38.5695 69.5398 38.7595 69.9198 39.1395 70.1098L38.9495 70.2998Z" fill="#EAD039"/>
<path d="M32.11 57.19C31.92 57 31.92 57 31.73 57C31.73 57 31.54 57 31.54 57.19C31.73 57.19 31.73 57.19 31.73 57.38C31.92 57.19 31.92 57.19 32.11 57.19Z" fill="#EAD039"/>
<path d="M49.3994 61.9401C49.3994 61.9401 49.3994 61.7501 49.3994 61.5601C48.8294 61.7501 48.4494 61.7501 48.0694 61.9401C47.8794 61.9401 47.6894 62.3201 47.4994 62.3201C46.9294 62.5101 46.5494 62.8901 46.3594 63.4601C46.5494 63.6501 46.7394 63.4601 46.9294 63.4601C47.3094 63.2701 47.4994 63.0801 47.8794 62.8901C48.6394 62.3201 49.0194 62.1301 49.3994 61.9401Z" fill="#EAD039"/>
<path d="M29.6396 48.2603C29.2596 48.4503 28.6896 48.4503 28.3096 48.6403C28.3096 48.6403 28.3096 48.6403 28.3096 48.8303C29.2596 49.2103 30.0196 48.8303 30.9696 48.6403C30.5896 48.6403 30.2096 48.6403 30.0196 48.6403C29.8296 48.4503 29.6396 48.2603 29.6396 48.2603Z" fill="#EAD039"/>
<path d="M28.6896 51.2997C28.8796 51.1097 29.2596 51.1097 29.4496 51.1097C29.6396 50.7297 30.0196 50.5397 30.3996 50.5397C30.5896 50.3497 30.7796 50.1597 31.1596 50.3497C31.1596 50.3497 31.3496 50.3497 31.5396 50.3497C31.5396 50.1597 31.3496 50.1597 31.3496 50.1597L31.1596 49.9697C30.9696 49.9697 30.9696 49.9697 30.7796 49.9697C30.3996 49.9697 29.8296 49.9697 29.4496 49.9697C28.8796 49.9697 28.3096 50.1597 27.7396 50.3497C27.5496 50.3497 27.1696 50.5397 26.9796 50.5397C26.7896 50.5397 26.7896 50.7297 26.5996 50.7297C26.5996 50.7297 26.5996 50.7297 26.5996 50.9197C26.7896 50.9197 26.9796 50.9197 27.1696 50.7297C27.3596 50.5397 27.7396 50.7297 27.7396 50.9197C27.9296 51.1097 27.9296 51.1097 27.9296 51.1097L27.7396 51.2997C27.9296 51.2997 27.9296 51.4897 28.1196 51.4897C28.3096 51.4897 28.3096 51.4897 28.6896 51.2997C28.6896 51.4897 28.6896 51.4897 28.6896 51.2997Z" fill="#EAD039"/>
<path d="M24.5098 52.6297C24.6998 52.8197 24.8898 53.0097 25.0798 52.8197C25.2698 52.8197 25.4598 52.6297 25.8398 52.6297C25.4598 52.2497 24.6998 52.2497 24.5098 52.6297Z" fill="#EAD039"/>
<path d="M26.5998 52.6301C26.2198 52.2501 26.0298 52.4401 25.8398 52.6301C26.0298 52.8201 26.2198 53.0101 26.4098 53.2001C26.4098 52.6301 26.7898 52.6301 27.1698 52.8201C27.5498 52.8201 28.1198 52.8201 28.4998 52.4401C28.1198 52.0601 26.9798 52.0601 26.5998 52.6301Z" fill="#EAD039"/>
<path d="M31.73 44.8398C31.54 45.0298 31.54 45.2198 31.54 45.5998C31.92 45.4098 32.11 45.2198 31.73 44.8398Z" fill="#EAD039"/>
<path d="M31.7295 47.5C32.1095 47.69 32.1095 47.69 32.2995 47.69C32.1095 47.69 32.1095 47.5 31.7295 47.5C31.9195 47.31 31.7295 47.5 31.7295 47.5Z" fill="#EAD039"/>
<path d="M22.2301 45.41C22.4201 45.22 22.4201 45.22 22.4201 45.22C22.4201 45.41 22.4201 45.79 22.4201 45.98C22.8001 45.79 22.9901 45.98 23.1801 46.36L23.3701 46.55C23.5601 46.55 23.7501 46.74 23.7501 46.74C24.1301 47.12 24.7001 47.12 25.0801 47.12C25.2701 47.12 25.2701 47.12 25.4601 47.12H25.6501C26.0301 46.93 26.2201 46.93 26.6001 47.12C26.7901 47.12 26.7901 47.31 26.9801 47.31C26.9801 47.31 27.1701 47.12 27.1701 46.93C27.1701 47.12 27.1701 47.12 27.1701 47.31C27.3601 47.12 27.5501 47.12 27.5501 46.93C27.5501 46.93 27.5501 47.12 27.7401 47.12C27.5501 47.12 27.5501 47.31 27.3601 47.31C27.1701 47.31 26.9801 47.5 26.7901 47.5H26.6001C26.4101 47.5 26.4101 47.31 26.2201 47.31C25.8401 47.31 25.6501 47.5 25.2701 47.5C25.2701 47.5 25.0801 47.88 25.2701 47.88C25.4601 48.07 25.6501 48.26 25.8401 48.45C26.0301 48.64 26.0301 48.64 26.2201 48.83C26.4101 48.64 26.4101 48.26 26.4101 48.07C26.6001 48.07 26.6001 48.26 26.7901 48.26C26.9801 48.26 27.1701 48.07 26.9801 47.88C27.5501 47.69 28.1201 47.5 28.6901 47.12C28.6901 47.12 28.6901 47.31 28.8801 47.5C29.0701 47.12 29.2601 46.93 29.2601 46.55C29.4501 46.55 29.4501 46.36 29.6401 46.55C30.0201 46.74 30.4001 46.55 30.5901 46.36H30.7801C30.9701 46.17 30.9701 46.17 31.1601 45.98C30.9701 45.79 30.7801 45.6 30.5901 45.22V44.84C30.7801 44.65 30.9701 44.46 30.9701 44.27C30.9701 44.27 30.9701 44.08 31.1601 44.08C30.7801 43.89 30.5901 43.7 30.2101 43.51C30.0201 43.32 29.8301 43.13 29.6401 42.75C29.4501 42.56 29.4501 42.56 29.2601 42.37C29.2601 42.18 29.2601 41.99 29.0701 41.99C29.0701 41.99 29.0701 41.99 29.2601 41.99L29.0701 41.8C28.8801 41.8 28.8801 41.61 28.8801 41.42C28.8801 41.23 28.8801 41.23 28.8801 41.04C28.6901 41.04 28.5001 41.04 28.5001 41.04C28.1201 41.23 27.9301 41.04 27.5501 41.23C27.3601 41.23 27.1701 41.42 26.7901 41.42C26.6001 41.42 26.4101 41.61 26.2201 41.61C26.0301 41.61 25.8401 41.61 25.8401 41.8C25.8401 41.99 26.0301 41.99 26.2201 42.18C26.2201 42.37 26.6001 42.75 26.0301 42.94C25.8401 42.56 25.4601 42.18 25.2701 41.8C24.8901 42.18 24.5101 42.56 23.9401 42.56C23.7501 42.56 23.3701 42.94 23.1801 42.94C22.6101 43.13 22.0401 43.51 21.4701 43.7C21.0901 43.89 21.0901 43.89 21.2801 44.27C22.0401 44.84 22.0401 45.03 22.2301 45.41Z" fill="#EAD039"/>
<path d="M31.5393 46.9299C31.7293 46.9299 31.9193 46.9299 31.9193 46.7399C31.9193 46.7399 31.9193 46.5499 31.9193 46.3599C31.5393 46.7399 31.3493 46.5499 31.3493 46.3599C31.1593 46.3599 30.9693 46.5499 30.7793 46.5499C30.7793 46.7399 30.9693 46.7399 30.9693 46.7399C31.1593 46.7399 31.3493 46.9299 31.5393 46.9299Z" fill="#EAD039"/>
<path d="M18.2398 63.65C17.6698 63.65 17.2898 63.46 16.9098 63.84C16.7198 64.03 16.5298 64.03 16.3398 64.22L16.5298 64.41C16.7198 64.22 16.9098 64.22 17.2898 64.22C17.6698 64.03 18.0498 64.03 18.4298 64.03C18.6198 64.03 18.6198 64.03 18.8098 63.84C18.4298 63.65 18.2398 63.65 18.2398 63.65Z" fill="#EAD039"/>
<path d="M11.5897 57.95C11.7797 57.95 11.7797 57.95 11.9697 57.95C12.1597 57.57 12.5397 57.76 12.7297 57.76C12.9197 57.76 13.1097 57.76 13.2997 57.76C13.4897 57.76 13.6797 57.76 14.0597 57.57C14.6297 57.57 15.0097 57.38 15.5797 57.38C15.9597 57.19 16.3397 57.19 16.7197 57H16.9097C16.9097 57 17.0997 56.81 17.4797 56.62C17.2897 56.62 16.9097 56.62 16.7197 56.62C16.1497 56.62 15.5797 56.43 15.0097 56.43C14.4397 56.24 13.8697 56.05 13.1097 55.86C12.7297 55.86 12.3497 55.67 11.9697 55.67C11.0197 55.48 9.87969 55.67 8.92969 55.86C9.49969 56.62 9.87969 57.38 10.6397 58.14C11.0197 58.14 11.2097 57.95 11.5897 57.95Z" fill="#EAD039"/>
<path d="M21.0892 57.7602C21.2792 57.5702 21.2792 57.5702 21.4692 57.5702C21.6592 57.3802 21.8492 57.1902 21.6592 57.0002C21.6592 56.8102 21.8492 56.4302 22.2292 56.2402C22.6092 56.0502 22.9892 55.8602 23.5592 55.6702C23.9392 55.4802 24.3192 55.4802 24.5092 55.2902C24.5092 55.2902 24.5092 55.2902 24.5092 55.4802C24.3192 55.8602 23.9392 56.0502 23.7492 56.4302C23.5592 56.6202 23.3692 56.8102 22.9892 56.8102C22.9892 56.8102 22.9892 56.8102 22.7992 56.8102C22.7992 56.8102 22.6092 57.0002 22.2292 57.0002L22.0392 57.1902C22.0392 57.3802 22.0392 57.5702 21.8492 57.7602C21.8492 57.7602 21.8492 57.9502 21.6592 57.9502H21.8492C22.4192 57.7602 22.7992 57.7602 23.3692 57.3802C23.5592 57.1902 23.7492 57.1902 23.9392 57.1902C24.5092 57.0002 25.2692 56.8102 25.8392 56.4302C26.4092 56.2402 26.7892 56.0502 27.3592 55.8602C27.7392 55.6702 28.1192 55.4802 28.6892 55.2902C28.6892 55.2902 28.6892 55.2902 28.8792 55.2902C29.2592 55.2902 29.6392 54.9102 29.8292 54.7202C30.0192 54.5302 30.3992 54.5302 30.5892 54.5302C30.9692 54.3402 31.3492 54.1502 31.5392 53.7702C31.7292 53.3902 32.1092 53.0102 32.4892 52.8202C32.6792 52.4402 32.8692 52.2502 33.2492 51.8702C33.0592 51.3002 33.6292 51.1102 33.8192 50.7302C33.8192 50.7302 34.0092 50.5402 34.1992 50.5402C34.5792 50.5402 34.5792 50.3502 34.7692 50.1602C34.3892 50.1602 34.1992 50.3502 33.8192 50.3502C33.6292 50.5402 33.2492 50.5402 33.0592 50.7302C33.0592 50.7302 32.8692 50.7302 32.6792 50.7302C32.4892 50.9202 32.2992 51.1102 32.1092 51.1102C31.9192 51.3002 31.7292 51.4902 31.5392 51.4902H31.3492C30.9692 51.6802 30.5892 52.0602 30.2092 52.2502C30.2092 52.2502 30.2092 52.2502 30.0192 52.2502C29.2592 52.2502 28.8792 52.6302 28.3092 53.0102C28.1192 53.0102 27.9292 53.2002 27.7392 53.2002C27.3592 53.2002 26.9792 53.2002 26.5992 53.5802H26.4092C26.2192 53.3902 26.0292 53.5802 25.6492 53.5802C25.2692 53.5802 25.0792 53.5802 24.6992 53.5802C24.1292 53.5802 23.7492 53.5802 23.1792 53.5802C22.9892 53.5802 22.7992 53.7702 22.4192 53.9602C22.2292 53.9602 22.2292 54.1502 22.0392 54.3402C22.2292 54.3402 22.2292 54.3402 22.4192 54.3402C22.2292 54.3402 22.2292 54.5302 22.2292 54.5302C21.8492 54.5302 21.4692 54.9102 21.2792 55.1002C21.0892 55.2902 21.0892 55.2902 21.2792 55.6702C21.2792 55.8602 21.2792 56.0502 21.2792 56.0502C21.2792 56.2402 21.0892 56.6202 21.2792 57.0002C21.2792 57.0002 21.0892 57.1902 21.0892 57.3802C20.7092 57.5702 20.5192 57.7602 20.1392 57.9502C20.1392 57.9502 20.1392 58.1402 19.9492 58.3302C20.3292 57.9502 20.8992 57.9502 21.4692 57.7602C21.2792 57.7602 21.2792 57.7602 21.0892 57.7602Z" fill="#EAD039"/>
<path d="M34.1995 49.9697C34.0095 50.1597 33.6295 50.1597 33.4395 50.3497C33.6295 50.3497 33.6295 50.3497 33.8195 50.3497C34.0095 50.1597 34.0095 50.1597 34.1995 50.1597C34.1995 50.1597 34.1995 50.1597 34.1995 49.9697Z" fill="#EAD039"/>
<path d="M32.6797 50.7299C32.6797 50.5399 32.8697 50.5399 32.6797 50.7299C32.6797 50.5399 32.6797 50.5399 32.6797 50.7299Z" fill="#EAD039"/>
<path d="M53.7696 65.7398C53.3896 65.5498 52.8196 65.1698 52.4396 65.1698C51.8696 64.9798 51.4896 64.4098 50.7296 64.7898H50.5396C50.3496 64.5998 50.1596 64.4098 49.9696 64.2198C50.1596 64.0298 50.1596 63.8398 50.3496 63.6498C50.3496 63.4598 50.5396 63.2698 50.5396 62.8898C50.5396 62.8898 50.5396 62.6998 50.7296 62.6998C50.7296 62.6998 50.9196 62.5098 50.7296 62.5098L50.5396 62.3198C50.3496 62.3198 50.1596 62.3198 50.1596 62.5098C49.5896 62.8898 48.8296 63.2698 48.2596 63.8398C47.8796 64.0298 47.6896 64.4098 47.3096 64.7898C47.4996 64.7898 47.6896 64.7898 47.8796 64.7898C48.2596 64.7898 48.4496 64.9798 48.2596 65.5498C48.0696 65.7398 48.0696 65.9298 48.2596 66.1198C48.8296 65.9298 49.0196 65.7398 49.3996 65.3598C49.3996 65.1698 49.5896 65.1698 49.5896 64.9798C49.7796 64.7898 49.9696 64.7898 49.9696 64.7898C50.1596 64.7898 50.1596 64.9798 50.1596 65.1698C50.3496 65.3598 50.3496 65.5498 50.5396 65.9298C51.1096 65.7398 51.6796 65.9298 52.2496 66.1198C53.1996 66.4998 53.9596 67.0698 54.7196 67.6398C54.9096 67.8298 54.9096 67.8298 55.0996 68.0198L55.2896 67.8298C54.9096 67.4498 54.3396 67.0698 53.9596 66.6898C53.9596 66.6898 53.9596 66.6898 53.9596 66.4998C54.3396 66.6898 54.7196 66.8798 55.0996 67.0698C55.2896 67.2598 55.4796 67.4498 55.6696 67.6398C55.8596 67.6398 55.8596 67.4498 56.0496 67.4498C55.2896 66.3098 54.7196 65.9298 53.7696 65.7398Z" fill="#EAD039"/>
<path d="M30.3996 42.1799C30.7796 42.5599 30.9696 42.7499 30.9696 42.9399V43.1299C31.5396 43.6999 31.7296 44.4599 32.4896 45.0299C32.8696 45.4099 33.2496 45.7899 33.6296 46.1699C33.2496 45.4099 32.6796 44.6499 32.2996 43.8899C32.6796 43.8899 32.6796 44.0799 32.8696 44.2699L33.0596 44.4599C33.0596 44.2699 33.2496 44.2699 33.2496 44.0799C33.2496 43.6999 33.0596 43.5099 32.8696 43.1299V42.9399C33.0596 42.3699 32.4896 42.3699 32.2996 42.1799C31.9196 41.7999 31.3496 41.6099 30.9696 41.4199C30.7796 41.4199 30.5896 41.4199 30.3996 41.4199C30.2096 41.4199 30.0196 41.4199 29.8296 41.4199C29.8296 41.4199 29.6396 41.4199 29.6396 41.6099C29.6396 41.6099 29.6396 41.7999 29.6396 41.9899C30.2096 41.7999 30.3996 41.9899 30.3996 42.1799Z" fill="#EAD039"/>
<path d="M16.91 59.8498C17.1 59.6598 17.29 59.4698 17.29 59.2798H17.48C17.67 59.0898 17.86 58.8998 17.86 58.5198V58.3298C18.05 58.3298 18.05 58.1398 18.05 57.9498C18.05 57.7598 18.05 57.7598 18.05 57.5698C18.43 57.3798 18.43 57.1898 18.43 56.8098C18.05 56.6198 17.86 57.1898 17.48 57.1898C17.1 56.9998 16.91 57.5698 16.53 57.7598L16.34 57.5698H16.15C15.96 57.5698 15.96 57.7598 15.77 57.7598C15.39 57.7598 15.01 57.9498 14.82 58.3298C14.82 58.3298 14.82 58.3298 14.63 58.5198C14.63 58.3298 14.63 58.1398 14.63 58.1398C14.25 58.1398 14.06 58.1398 13.68 58.1398C13.49 58.1398 13.49 58.3298 13.3 58.3298C13.11 58.5198 12.92 57.9498 12.54 58.3298C11.97 58.1398 11.78 58.5198 11.59 58.8998C11.59 58.7098 11.4 58.8998 11.21 59.0898C11.78 59.8498 12.54 60.7998 13.3 61.5598H13.49H13.68C14.25 61.3698 14.82 61.1798 15.2 60.9898C15.77 60.7998 16.15 60.7998 16.34 60.4198C16.53 60.2298 16.72 59.8498 16.91 59.8498Z" fill="#EAD039"/>
<path d="M31.16 48.0698C30.78 48.0698 30.59 48.2598 30.21 48.2598C30.4 48.6398 30.97 48.4498 31.16 48.0698Z" fill="#EAD039"/>
<path d="M51.8701 49.9703C51.8701 50.1603 52.0601 50.1603 52.0601 50.3503C52.0601 50.1603 52.0601 49.9703 52.0601 49.7803C51.8701 49.7803 51.8701 49.9703 51.8701 49.9703Z" fill="#EAD039"/>
<path d="M53.9601 52.0596C53.7701 52.0596 53.7701 52.0596 53.5801 51.8696C53.7701 52.2496 53.7701 52.4396 53.9601 52.6296C53.9601 52.4396 53.9601 52.2496 53.9601 52.0596Z" fill="#EAD039"/>
<path d="M48.4492 49.3999C46.9292 49.9699 45.4092 50.5399 43.6992 51.1099C44.2692 51.1099 44.8392 51.1099 45.2192 50.7299C45.4092 50.5399 45.7892 50.5399 45.9792 50.5399C46.5492 50.5399 46.9292 50.3499 47.4992 50.3499V50.1599C47.3092 50.1599 46.9292 50.1599 46.7392 50.3499C46.7392 50.3499 46.7392 50.3499 46.7392 50.1599C47.3092 49.9699 47.8792 49.7799 48.4492 49.3999Z" fill="#EAD039"/>
<path d="M49.2101 66.1198C49.0201 66.4998 49.0201 66.8798 48.8301 67.0698C48.6401 67.2598 48.4501 67.4498 48.2601 67.4498C47.8801 67.6398 47.5001 68.0198 47.1201 68.2098C47.1201 68.2098 47.1201 68.2098 47.1201 68.3998C47.3101 68.2098 47.6901 68.0198 47.8801 67.8298C47.8801 68.3998 48.0701 68.5898 48.0701 68.9698L48.2601 68.7798C48.6401 68.0198 49.2101 67.0698 49.5901 66.3098C49.5901 66.1198 49.9701 66.1198 49.9701 65.9298C49.5901 65.5498 49.4001 65.7398 49.2101 66.1198Z" fill="#EAD039"/>
<path d="M64.7901 28.88L64.6001 28.69C64.4101 28.5 64.4101 28.5 64.2201 28.5C64.0301 28.69 63.8401 28.69 63.6501 28.69C63.4601 28.69 63.2701 28.88 63.0801 29.07C63.4601 29.07 63.8401 29.45 64.2201 29.07C64.4101 29.07 64.4101 29.07 64.7901 28.88C64.9801 28.88 65.5501 29.07 65.9301 29.07C66.1201 29.07 66.3101 29.07 66.3101 28.88C66.5001 28.69 66.8801 28.69 67.0701 28.88C67.0701 28.69 67.0701 28.69 67.0701 28.5C67.4501 28.69 67.8301 28.88 68.2101 28.5H68.4001C68.7801 28.31 69.3501 28.12 69.7301 27.93C69.9201 27.74 70.3001 27.74 70.4901 27.93C69.9201 25.84 69.1601 23.94 68.0201 22.04C67.6401 22.04 67.0701 22.23 66.6901 22.23C66.6901 22.42 66.3101 22.99 66.3101 23.18C66.1201 23.37 65.9301 23.56 65.7401 23.56C65.9301 23.75 66.5001 23.75 66.1201 24.32C65.9301 24.7 65.7401 24.32 65.5501 24.32C65.1701 24.89 64.9801 25.46 64.6001 26.03C64.7901 26.03 64.9801 26.22 65.1701 26.22C64.9801 26.41 64.9801 26.6 64.7901 26.6C64.6001 26.6 64.6001 26.6 64.4101 26.79C64.4101 26.79 64.4101 26.79 64.4101 26.98C64.6001 26.98 64.9801 27.17 65.1701 27.17C64.9801 27.36 64.9801 27.55 64.7901 27.74C64.9801 28.12 65.3601 28.12 65.7401 27.93C65.7401 28.31 65.9301 28.5 66.3101 28.5C66.5001 28.5 66.6901 28.5 66.8801 28.5C66.1201 29.26 65.3601 28.69 64.7901 28.88Z" fill="#EAD039"/>
<path d="M45.7897 65.1699C45.5997 65.1699 45.4097 65.3599 45.2197 65.5499C45.2197 65.5499 45.4097 65.5499 45.4097 65.7399C45.7897 65.5499 45.7897 65.5499 45.7897 65.1699Z" fill="#EAD039"/>
<path d="M45.2197 66.5C45.4097 66.69 45.4097 66.5 45.2197 66.5V66.5Z" fill="#EAD039"/>
<path d="M45.0293 66.5C45.0293 66.5 45.0293 66.69 45.0293 66.5C45.2193 66.5 45.0293 66.5 45.0293 66.5Z" fill="#EAD039"/>
<path d="M45.4093 68.0199C45.0293 67.6399 45.2193 67.2599 45.0293 66.6899C45.0293 67.0699 45.0293 67.2599 45.0293 67.6399C45.0293 67.8299 45.0293 68.0199 45.2193 68.0199C45.4093 68.3999 45.5993 68.7799 45.7893 69.1599L45.9793 69.3499C45.9793 69.1599 46.1693 69.1599 45.9793 68.9699C45.7893 68.5899 45.5993 68.3999 45.4093 68.0199Z" fill="#EAD039"/>
<path d="M32.8693 46.1699C32.6793 46.3599 32.4893 46.5499 32.4893 46.5499C32.6793 46.5499 32.8693 46.5499 33.2493 46.5499C33.0593 46.3599 33.0593 46.3599 32.8693 46.1699Z" fill="#EAD039"/>
<path d="M62.7 28.8799C62.7 28.6899 62.89 28.6899 63.08 28.6899C63.27 28.3099 63.84 28.1199 63.65 27.5499C63.27 27.3599 62.7 27.3599 62.13 27.1699C62.13 27.3599 62.13 27.5499 62.32 27.5499C62.13 27.5499 62.13 27.5499 61.94 27.7399C62.13 27.9299 61.94 28.1199 61.75 28.3099C62.13 28.4999 62.32 28.6899 62.7 28.8799Z" fill="#EAD039"/>
<path d="M34.5793 46.9299C34.3893 46.7399 34.1993 46.5499 34.0093 46.1699C34.0093 46.1699 33.8193 46.1699 33.8193 46.3599C34.1993 46.7399 34.1993 46.9299 34.5793 46.9299Z" fill="#EAD039"/>
<path d="M33.25 47.3097C33.44 47.3097 33.63 47.3097 33.82 47.1197C33.63 46.9297 33.44 46.9297 33.25 46.7397C33.25 47.1197 33.25 47.1197 33.25 47.3097Z" fill="#EAD039"/>
<path d="M33.25 47.8801C33.44 47.8801 33.82 47.8801 34.2 47.8801C34.2 47.8801 34.39 47.8801 34.39 47.6901C34.58 47.6901 34.58 47.5001 34.77 47.6901C34.77 47.6901 34.96 47.6901 35.15 47.6901C35.34 47.6901 35.34 47.6901 35.53 47.5001C35.15 47.3101 34.96 47.3101 34.58 47.3101C34.01 47.8801 33.63 47.8801 33.25 47.8801Z" fill="#EAD039"/>
<path d="M51.1093 34.1996C51.4893 34.0096 51.6793 34.0096 52.0593 34.1996C52.0593 34.1996 52.0593 34.3896 51.8693 34.3896C51.6793 34.5796 51.4893 34.7696 51.4893 34.9596C52.4393 34.7696 53.1993 34.9596 54.1493 34.9596C54.1493 34.7696 54.1493 34.5796 54.1493 34.3896C53.9593 34.3896 53.5793 34.5796 53.3893 34.5796C53.3893 34.5796 53.3893 34.5796 53.3893 34.3896C53.7693 34.1996 53.7693 33.8196 54.1493 33.6296C54.3393 33.6296 54.3393 33.2496 54.5293 33.0596C54.3393 33.0596 54.1493 33.0596 53.9593 33.0596C54.1493 33.0596 54.3393 32.8696 54.5293 32.8696C54.9093 32.8696 55.0993 32.6796 55.0993 32.4896C55.0993 32.2996 55.2893 32.2996 55.4793 32.2996C55.6693 32.2996 56.0493 32.2996 56.2393 32.1096C56.8093 31.9196 57.1893 31.7296 57.5693 31.5396C57.7593 31.3496 58.1393 31.3496 58.3293 31.1596C58.5193 30.9696 58.7093 30.9696 59.0893 30.7796H59.2793C59.8493 30.5896 60.0393 30.3996 60.6093 30.3996C60.4193 30.5896 60.2293 30.7796 59.8493 30.7796C59.0893 30.9696 58.5193 31.3496 57.7593 31.5396C57.5693 31.5396 57.3793 31.9196 57.3793 31.9196H57.1893C56.9993 31.9196 56.2393 32.1096 56.2393 32.2996C56.4293 32.2996 56.6193 32.2996 56.8093 32.2996C56.6193 33.0596 56.0493 33.0596 55.6693 33.4396C55.4793 33.8196 54.9093 34.1996 54.5293 34.5796C54.5293 34.5796 54.5293 34.5796 54.5293 34.7696C54.9093 34.7696 55.4793 34.7696 55.8593 34.5796C56.4293 34.3896 56.9993 34.1996 57.5693 34.0096C57.7593 34.0096 57.9493 33.8196 58.1393 33.8196C58.7093 33.6296 59.0893 33.2496 59.6593 33.0596C60.0393 32.8696 60.6093 32.4896 60.9893 32.2996C61.7493 31.9196 62.3193 31.3496 63.0793 30.9696C63.6493 30.5896 64.0293 30.3996 64.5993 30.0196C64.7893 30.0196 64.9793 30.0196 65.1693 30.0196C65.1693 30.0196 65.1693 30.0196 65.1693 29.8296C64.9793 29.8296 64.7893 29.6396 64.5993 29.6396C63.8393 29.8296 63.0793 29.8296 62.1293 30.0196C61.7493 30.2096 61.3693 30.2096 60.9893 30.2096C61.1793 30.2096 61.1793 30.0196 61.3693 30.0196H61.5593C61.7493 30.0196 62.1293 29.8296 62.3193 29.8296C62.6993 29.8296 62.6993 29.8296 62.5093 29.4496C62.5093 29.4496 62.5093 29.2596 62.5093 29.0696C62.3193 29.2596 61.9393 29.2596 61.7493 29.0696H61.5593C61.3693 28.4996 60.9893 28.8796 60.6093 28.6896C60.7993 28.4996 60.9893 28.3096 60.9893 28.3096C60.7993 28.3096 60.6093 28.3096 60.2293 28.3096C60.4193 27.9296 60.6093 27.3596 60.7993 26.9796C60.6093 26.5996 60.2293 26.5996 59.6593 26.5996C59.2793 26.5996 58.7093 26.5996 58.3293 26.5996C57.9493 26.5996 57.5693 26.5996 57.3793 26.9796C57.3793 27.1696 57.1893 27.1696 56.9993 27.1696C56.6193 27.3596 56.2393 27.3596 56.0493 27.5496C55.8593 27.5496 55.8593 27.7396 55.8593 27.9296C55.8593 28.1196 55.6693 28.4996 55.2893 28.4996C54.7193 28.4996 54.5293 29.0696 54.3393 29.4496L54.1493 29.6396C53.9593 29.8296 53.5793 30.0196 53.3893 30.2096C53.3893 30.2096 53.3893 30.2096 53.1993 30.3996C53.0093 30.9696 52.6293 31.1596 52.2493 31.5396C52.0593 31.7296 52.0593 31.9196 51.8693 32.1096C51.4893 32.2996 51.1093 32.8696 50.7293 33.0596C50.3493 33.2496 50.3493 33.6296 50.1593 33.8196C50.1593 33.8196 50.1593 34.0096 50.1593 34.1996C49.9693 34.1996 49.9693 34.1996 49.7793 34.3896C49.9693 34.3896 49.9693 34.5796 50.1593 34.5796C50.3493 34.5796 50.7293 34.5796 51.1093 34.1996Z" fill="#EAD039"/>
<path d="M37.6196 42.5599C37.8096 42.5599 37.9996 42.7499 37.9996 42.5599C38.1896 42.3699 38.3796 42.5599 38.3796 42.5599C38.5696 42.9399 38.9496 42.7499 39.1396 42.5599C39.1396 42.7499 39.1396 42.7499 38.9496 42.9399C38.9496 43.1299 38.7596 43.3199 39.1396 43.5099C39.7096 43.6999 40.2796 43.8899 40.8496 43.8899C41.9896 43.8899 43.1296 43.8899 44.2696 43.5099C44.6496 43.3199 45.2196 43.3199 45.5996 43.1299C46.3596 42.9399 46.9296 42.5599 47.6896 42.3699C48.2596 42.1799 49.0196 41.9899 49.5896 41.7999C49.7796 41.7999 50.1596 41.6099 50.3496 41.6099C49.9696 41.4199 49.5896 41.4199 49.3996 41.2299H49.2096C48.8296 41.2299 48.2596 41.0399 47.8796 41.0399C47.8796 41.0399 47.8796 41.0399 47.6896 41.0399C47.1196 41.0399 46.5496 41.0399 45.9796 41.0399C45.7896 41.0399 45.4096 41.0399 45.2196 41.0399C45.0296 41.0399 44.8396 41.0399 44.6496 41.0399C44.2696 41.0399 44.0796 41.2299 43.6996 41.0399C43.6996 41.0399 43.5096 41.0399 43.3196 41.0399C42.9396 41.0399 42.5596 41.0399 42.1796 41.0399H41.9896C41.7996 41.2299 41.6096 41.2299 41.2296 41.0399C41.0396 41.0399 40.8496 41.0399 40.6596 41.0399C40.4696 41.0399 40.4696 41.0399 40.2796 41.0399C40.2796 41.0399 40.0896 41.2299 39.8996 41.0399C39.8996 41.0399 39.7096 41.0399 39.5196 41.0399C39.3296 41.0399 39.3296 41.0399 38.9496 41.0399C39.1396 40.6599 39.7096 41.0399 39.7096 40.6599C39.8996 40.6599 40.0896 40.6599 40.2796 40.6599H40.4696C40.8496 40.8499 41.0396 40.8499 41.4196 40.4699C41.9896 40.8499 42.5596 40.8499 43.1296 40.6599C43.1296 40.6599 43.1296 40.6599 43.1296 40.4699C42.9396 40.4699 42.7496 40.4699 42.5596 40.2799C42.7496 40.0899 42.7496 39.8999 42.3696 39.8999H42.5596C42.7496 40.0899 42.9396 40.0899 43.1296 40.2799C43.5096 40.6599 43.8896 40.8499 44.4596 40.6599C44.8396 40.8499 44.8396 40.4699 45.2196 40.4699C45.4096 40.4699 45.5996 40.4699 45.5996 40.6599C45.9796 40.6599 46.3596 40.4699 46.7396 40.4699C46.7396 40.4699 46.7396 40.2799 46.7396 40.0899C46.9296 40.0899 46.9296 40.0899 46.9296 40.2799C47.1196 40.6599 47.6896 40.6599 48.0696 40.6599C48.2596 40.6599 48.4496 40.8499 48.6396 40.8499H48.8296C49.0196 40.6599 49.0196 40.6599 49.0196 40.4699C49.3996 40.6599 49.7796 41.0399 50.1596 41.0399C50.7296 40.8499 50.9196 41.4199 51.2996 41.2299C51.2996 40.8499 51.2996 40.6599 50.9196 40.4699C50.9196 40.4699 50.7296 40.2799 50.7296 40.0899C50.7296 39.8999 50.7296 39.7099 50.5396 39.7099L50.3496 39.5199C50.3496 39.1399 49.9696 39.1399 49.7796 38.7599H49.5896C49.5896 38.3799 49.3996 38.1899 49.0196 38.1899C48.8296 37.9999 48.4496 37.8099 48.2596 37.6199C47.8796 37.2399 47.4996 37.2399 47.1196 37.2399C46.5496 37.0499 45.7896 37.0499 45.2196 36.8599H45.0296C44.6496 37.0499 44.2696 37.0499 43.6996 37.0499C43.3196 37.0499 43.1296 37.2399 42.9396 37.4299C42.7496 37.6199 42.5596 37.6199 42.3696 37.8099C42.5596 38.1899 42.7496 38.3799 43.1296 38.7599C42.9396 38.7599 42.7496 39.1399 42.5596 38.5699C42.5596 38.5699 42.3696 38.5699 42.1796 38.5699C41.9896 38.5699 41.6096 38.5699 41.4196 38.7599C41.2296 38.7599 41.0396 38.7599 40.8496 38.9499C40.4696 39.1399 40.0896 39.1399 39.7096 39.3299C38.9496 39.7099 38.1896 40.0899 37.4296 40.4699C37.2396 40.4699 36.8596 40.6599 36.6696 40.6599C36.6696 40.6599 36.6696 40.8499 36.4796 40.8499C36.2896 40.8499 36.2896 40.8499 36.0996 40.8499C36.0996 41.0399 36.2896 41.2299 36.2896 41.2299C36.8596 41.7999 37.2396 42.1799 37.6196 42.5599ZM41.9896 39.3299C42.1796 39.3299 42.1796 39.5199 42.3696 39.5199C42.1796 39.5199 42.1796 39.5199 41.9896 39.3299ZM41.7996 39.3299H41.9896C42.3696 39.8999 41.9896 39.8999 41.7996 39.7099V39.3299C41.6096 39.3299 41.6096 39.3299 41.7996 39.3299Z" fill="#EAD039"/>
</svg>
