<svg width="215" height="59" viewBox="0 0 215 59" fill="none" xmlns="http://www.w3.org/2000/svg">
<path d="M73.3916 34.52L67.0098 48.7342H69.0404L70.4908 45.3982H78.033L79.4834 48.5891H81.2239L74.9871 34.52H73.3916ZM71.0709 43.5126L74.1168 36.6957L77.1627 43.5126H71.0709Z" fill="white"/>
<path d="M94.5678 39.4515C93.6975 38.5812 92.3921 38.0011 91.0868 38.0011C88.0409 38.0011 85.8652 40.1767 85.8652 43.2226C85.8652 46.2685 87.8958 48.4441 90.9417 48.4441C92.3921 48.4441 93.6975 47.864 94.5678 46.9937V48.2991H96.1632V34.23H94.7128V39.4515H94.5678ZM91.0868 46.9937C89.3462 46.9937 87.4607 46.1234 87.4607 43.5127C87.4607 41.192 88.7661 39.8866 91.0868 39.8866C93.1173 39.8866 94.5678 41.3371 94.5678 43.5127C94.5678 45.5433 93.1173 46.9937 91.0868 46.9937Z" fill="white"/>
<path d="M107.041 46.2688L103.705 38.4365H101.965L106.171 48.5895H107.621L111.828 38.4365H110.232L107.041 46.2688Z" fill="white"/>
<path d="M122.125 38.2915C119.224 38.2915 117.049 40.6122 117.049 43.513C117.049 46.4139 119.224 48.7345 122.125 48.7345C123.721 48.7345 125.606 47.8643 126.477 46.704L126.622 46.4139L125.316 45.3986L125.171 45.8337C124.591 46.704 123.141 47.1391 122.125 47.1391C120.675 47.1391 119.079 46.1238 118.789 44.3833H127.202V44.0932C127.347 42.3527 127.057 40.9023 126.041 39.887C125.026 38.7266 123.721 38.2915 122.125 38.2915ZM125.606 42.7878H118.789C119.079 40.7572 120.675 39.887 122.125 39.887C124.156 39.887 125.461 41.0473 125.606 42.7878Z" fill="white"/>
<path d="M138.515 38.2915C137.355 38.2915 136.34 38.7266 135.614 39.4518V38.7266H135.324V38.5816H134.164V48.7345H135.76V43.0779C135.76 41.3374 137.065 40.032 138.66 40.032C140.546 40.032 141.561 41.0473 141.561 42.9329V48.7345H143.157V42.9329C143.012 40.1771 141.126 38.2915 138.515 38.2915Z" fill="white"/>
<path d="M154.761 46.8489C154.326 47.139 153.891 47.284 153.455 47.284C152.44 47.284 152.005 46.8489 152.005 45.5435V40.0319H155.196V38.5815H152.005V35.6807H150.409V38.4365H148.379V39.8869H150.409V45.3985C150.409 46.8489 150.7 48.8795 153.31 48.8795C153.891 48.8795 154.616 48.7345 155.196 48.4444L155.486 48.2993L154.906 46.8489H154.761Z" fill="white"/>
<path d="M169.409 43.9482C169.409 45.6887 168.104 46.994 166.363 46.994C164.478 46.994 163.463 45.9787 163.463 44.0932V38.2915H161.867V44.2382C161.867 46.994 163.753 48.7345 166.363 48.7345C167.524 48.7345 168.539 48.2994 169.409 47.5742V48.2994H169.699V48.4445H170.86V38.2915H169.264V43.9482H169.409Z" fill="white"/>
<path d="M182.318 38.4365C181.158 38.4365 180.142 38.7266 179.417 39.4518V38.8716H179.127V38.7266H177.967V48.8796H179.562V43.0779C179.562 41.4824 180.723 40.177 182.173 40.177C182.753 40.177 183.188 40.3221 183.623 40.6122L183.914 40.7572L184.784 39.4518L184.494 39.3068C183.914 38.7266 183.188 38.4365 182.318 38.4365Z" fill="white"/>
<path d="M194.938 38.2915C192.037 38.2915 189.861 40.6122 189.861 43.513C189.861 46.5589 191.892 48.7345 194.793 48.7345C196.388 48.7345 198.274 47.8643 199.144 46.704L199.289 46.4139L197.984 45.3986L197.839 45.8337C197.258 46.704 195.808 47.1391 194.793 47.1391C193.342 47.1391 191.747 46.1238 191.457 44.3833H199.869V44.0932C200.014 42.3527 199.724 40.9023 198.709 39.887C197.839 38.7266 196.533 38.2915 194.938 38.2915ZM198.274 42.7878H191.457C191.747 40.7572 193.342 39.887 194.793 39.887C196.823 39.887 198.129 41.0473 198.274 42.7878Z" fill="white"/>
<path d="M210.602 42.6428C210.312 42.6428 210.167 42.4978 209.877 42.4978C208.717 42.2077 207.846 42.0626 207.846 41.1924C207.846 40.3221 209.152 39.742 210.457 39.742C211.473 39.742 212.198 39.887 213.068 40.6122L213.358 40.7573L214.663 39.742L214.373 39.4519C213.503 38.5816 212.053 38.0015 210.602 38.0015C208.572 38.0015 206.541 38.7267 206.541 40.9023C206.541 43.223 208.572 43.6581 210.457 43.8032H210.602C212.198 44.0932 213.213 44.3833 213.213 45.2536C213.213 46.559 211.473 46.559 210.602 46.559C209.152 46.559 207.992 45.9788 207.411 45.1085L207.266 44.8184L205.961 45.8337L206.106 46.1238C206.976 47.7193 208.862 48.1544 210.457 48.1544C212.488 48.1544 214.663 47.4292 214.663 45.2536C214.663 43.223 212.343 42.9329 210.602 42.6428Z" fill="white"/>
<path d="M74.4062 17.1154L79.1926 9.57324H83.2537V9.71828L76.0016 20.1613V27.7035H72.5206V20.3064L65.5586 9.86333V9.57324H69.6198L74.4062 17.1154Z" fill="white"/>
<path d="M83.8335 22.4822C83.9786 24.0776 85.429 25.238 87.6046 25.238C88.7649 25.238 90.3604 24.8029 91.0856 24.0776L93.1162 26.1082C91.8108 27.5587 89.6352 28.1388 87.6046 28.1388C83.2533 28.1388 80.6426 25.383 80.6426 21.3218C80.6426 17.4057 83.2533 14.6499 87.4596 14.6499C91.6658 14.6499 94.4216 17.2607 93.8414 22.6272H83.8335V22.4822ZM90.7955 19.8714C90.6505 18.276 89.3451 17.4057 87.4596 17.4057C85.7191 17.4057 84.4137 18.276 83.8335 19.8714H90.7955Z" fill="white"/>
<path d="M99.353 9.57324V27.7035H96.1621V9.57324H99.353Z" fill="white"/>
<path d="M105.3 9.57324V27.7035H102.109V9.57324H105.3Z" fill="white"/>
<path d="M120.674 21.3218C120.674 24.9479 118.208 27.9938 114.002 27.9938C109.796 27.9938 107.33 24.9479 107.33 21.3218C107.33 17.6958 109.796 14.6499 113.857 14.6499C118.063 14.6499 120.674 17.6958 120.674 21.3218ZM110.666 21.3218C110.666 23.2074 111.826 25.0929 114.147 25.0929C116.468 25.0929 117.628 23.2074 117.628 21.3218C117.628 19.4363 116.323 17.5507 114.147 17.5507C111.826 17.5507 110.666 19.4363 110.666 21.3218Z" fill="white"/>
<path d="M134.019 14.9395L136.775 24.5122L139.676 14.9395H143.157L138.66 27.8482H135.034L133.729 24.0771L132.569 19.7258L131.408 24.0771L130.103 27.8482H126.477L121.98 14.9395H125.461L128.362 24.5122L131.118 14.9395C131.118 14.9395 134.019 14.9395 134.019 14.9395Z" fill="white"/>
<path d="M165.782 27.7035H162.881L160.561 22.0469L158.675 16.2452L156.789 22.0469L154.614 27.7035H151.713L145.041 9.57324H148.812L153.018 22.627L157.37 9.57324H159.545L164.042 22.627L168.248 9.57324H172.019L165.782 27.7035Z" fill="white"/>
<path d="M184.348 21.3218C184.348 24.9479 181.882 27.9938 177.676 27.9938C173.47 27.9938 171.004 24.9479 171.004 21.3218C171.004 17.6958 173.47 14.6499 177.531 14.6499C181.737 14.6499 184.348 17.6958 184.348 21.3218ZM174.34 21.3218C174.34 23.2074 175.5 25.0929 177.821 25.0929C180.142 25.0929 181.302 23.2074 181.302 21.3218C181.302 19.4363 179.997 17.5507 177.821 17.5507C175.5 17.5507 174.34 19.4363 174.34 21.3218Z" fill="white"/>
<path d="M199.287 21.3218C199.287 24.9479 196.822 27.9938 192.615 27.9938C188.409 27.9938 185.943 24.9479 185.943 21.3218C185.943 17.6958 188.409 14.6499 192.47 14.6499C196.676 14.6499 199.287 17.6958 199.287 21.3218ZM189.134 21.3218C189.134 23.2074 190.295 25.0929 192.615 25.0929C194.936 25.0929 196.096 23.2074 196.096 21.3218C196.096 19.4363 194.791 17.5507 192.615 17.5507C190.295 17.5507 189.134 19.4363 189.134 21.3218Z" fill="white"/>
<path d="M214.661 9.57324V27.7035H211.76L211.615 25.963C210.6 27.5585 209.005 27.9936 207.554 27.9936C203.783 27.9936 201.027 25.5279 201.027 21.3217C201.027 16.9704 203.783 14.6497 207.554 14.6497C208.86 14.6497 211.035 15.3749 211.76 16.6803V9.57324H214.661ZM203.928 21.3217C203.928 23.4973 205.524 25.0928 207.554 25.0928C209.585 25.0928 211.325 23.6423 211.325 21.3217C211.325 19.146 209.585 17.5506 207.554 17.5506C205.524 17.5506 203.928 19.001 203.928 21.3217Z" fill="white"/>
<path d="M29.0084 58.0169C45.0294 58.0169 58.0169 45.0294 58.0169 29.0084C58.0169 12.9875 45.0294 0 29.0084 0C12.9875 0 0 12.9875 0 29.0084C0 45.0294 12.9875 58.0169 29.0084 58.0169Z" fill="white"/>
<path d="M29.0092 56.5662C44.2291 56.5662 56.5672 44.2281 56.5672 29.0082C56.5672 13.7883 44.2291 1.4502 29.0092 1.4502C13.7893 1.4502 1.45117 13.7883 1.45117 29.0082C1.45117 44.2281 13.7893 56.5662 29.0092 56.5662Z" fill="#436B89"/>
<path d="M29.0075 54.971C43.3462 54.971 54.9701 43.3472 54.9701 29.0085C54.9701 14.6697 43.3462 3.0459 29.0075 3.0459C14.6688 3.0459 3.04492 14.6697 3.04492 29.0085C3.04492 43.3472 14.6688 54.971 29.0075 54.971Z" fill="#C9C9C9"/>
<path d="M52.2142 31.9094C51.9241 31.3293 51.4889 30.7491 51.0538 30.314C50.3286 29.5888 49.6034 28.8636 48.8782 28.2834C48.4431 27.8483 47.7178 27.7032 47.2827 27.2681C46.8476 26.978 46.4125 26.6879 45.9773 26.3978C45.2521 25.6726 44.2368 25.0925 43.2215 24.9474C43.0765 24.9474 43.0765 24.9474 42.9315 24.8024C42.2062 24.2222 41.481 23.642 40.6108 23.2069C39.4504 22.4817 38.4351 21.4664 37.7099 20.3061C37.2748 19.5809 36.8397 18.7106 36.5496 17.8403C36.2595 17.2602 36.1145 16.8251 35.6793 16.3899C35.3893 16.0998 35.2442 15.8098 35.0992 15.5197C34.664 14.6494 33.9388 14.3593 33.2136 14.0692C32.4884 13.4891 31.9082 13.054 31.183 12.6188C30.6029 12.1837 30.0227 12.1837 29.4425 12.6188C28.7173 13.199 27.8471 13.4891 26.9768 13.4891C26.6867 13.4891 26.3966 13.344 26.1066 13.344C25.6714 13.199 25.5264 13.344 25.3813 13.6341C24.9462 14.5044 24.6561 15.5197 24.076 16.3899C23.6408 17.2602 23.0607 18.1304 22.6255 19.0007C22.3355 19.2908 22.0454 19.2908 21.7553 19.0007C21.4652 18.5656 21.0301 18.1304 20.74 17.8403C20.3049 17.2602 20.1598 17.2602 19.4346 17.6953C18.8544 18.1304 18.2743 18.4205 17.6941 18.8556C17.404 19.1457 17.1139 19.4358 16.8238 19.8709C17.1139 19.7259 17.259 19.4358 17.5491 19.2908C17.5491 19.2908 17.5491 19.2908 17.6941 19.4358C17.5491 19.7259 17.404 19.8709 17.259 20.161C16.9689 20.5961 16.8238 20.8862 17.1139 21.3214C17.259 21.6114 17.1139 21.9015 16.8238 22.0466C16.0986 22.6267 15.3734 23.2069 14.7933 23.7871C14.6482 23.9321 14.5032 24.0772 14.3581 24.2222V24.3672C14.7933 24.3672 15.3734 24.2222 15.9536 24.0772C15.8085 24.3673 15.6635 24.5123 15.5185 24.5123C15.0833 24.8024 14.6482 24.9474 14.2131 25.3825C13.923 25.5276 13.778 25.8177 13.4879 26.1078C13.0527 26.6879 12.7627 27.1231 12.3275 27.7032C12.3275 27.8483 12.1825 27.9933 12.1825 27.9933C12.4726 27.9933 12.7627 28.1383 12.9077 28.1383C12.6176 29.2987 11.6023 29.7338 10.7321 30.459C9.86182 31.1842 8.99156 31.9094 8.70148 33.2148C8.70148 33.5049 8.4114 33.65 8.4114 33.94C8.26635 34.0851 8.26635 34.3752 8.12131 34.6653C8.84652 34.3752 9.28165 33.94 10.1519 33.94C10.0069 34.2301 9.86182 34.3752 9.86182 34.5202C8.84652 35.8256 7.68618 37.131 6.67089 38.4363C6.67089 38.4363 6.67089 38.4363 6.52585 38.5814C6.52585 38.4363 6.3808 38.2913 6.3808 38.0012C6.3808 36.8409 7.25106 35.1004 6.3808 34.3752C5.36551 33.65 6.3808 32.7797 6.3808 31.9094C6.3808 31.7644 6.3808 31.4743 6.52585 31.3293C7.25106 30.459 7.83123 29.5888 8.70148 28.7185C9.28165 27.9933 10.0069 27.4131 10.587 26.6879C11.0222 26.2528 11.4573 25.6726 11.7474 25.0925C11.7474 25.0925 11.6023 24.9474 11.4573 24.8024C11.6023 24.8024 11.7474 24.8024 11.8924 24.8024C12.4726 24.9474 12.6176 24.6573 12.6176 24.3672C12.6176 24.3672 12.6176 24.3673 12.6176 24.2222C12.9077 24.5123 13.1978 24.2222 13.3428 24.0772C14.068 23.352 14.6482 22.4817 15.2284 21.7565C15.5185 21.3214 15.8086 21.0313 16.0986 20.7412C16.0986 20.5962 16.2437 20.5962 16.2437 20.4511C16.2437 20.4511 16.2437 20.4511 16.0986 20.4511C16.0986 20.4511 15.9536 20.4511 15.9536 20.5962C15.0833 21.6114 14.2131 22.6267 13.3428 23.642C12.7627 24.3672 11.8924 24.6573 11.0222 25.0925C10.587 25.2375 10.2969 25.5276 10.0069 25.9627C9.57173 26.5429 9.13661 26.978 8.55644 27.4131C7.97627 27.8483 7.54114 28.4284 7.10601 29.0086C6.67089 29.5888 5.80063 30.7491 5.07542 31.9094C4.6403 32.6347 4.06013 33.2148 3.625 33.94C4.49525 38.5814 6.67089 42.9327 9.71677 46.2686C10.587 47.2839 11.6023 48.1542 12.6176 49.0244C12.4726 49.1695 12.6176 49.3145 12.9077 49.3145C13.0527 49.4596 13.1978 49.6046 13.3428 49.6046C13.3428 49.6046 13.3428 49.6046 13.4879 49.7496C13.6329 49.8947 13.778 49.8947 13.923 50.0397C13.923 50.0397 14.068 50.0397 14.068 50.1848C14.2131 50.3298 14.3581 50.3298 14.5032 50.4749C14.5032 50.4749 14.6482 50.4749 14.6482 50.6199C14.7933 50.7649 14.9383 50.7649 15.0833 50.91C15.0833 50.91 15.2284 50.91 15.2284 51.055C19.2896 53.6658 24.076 55.1162 29.1524 55.1162C35.6793 55.1162 41.6261 52.6505 46.1224 48.7343C46.2674 48.5893 46.4125 48.4443 46.5575 48.2992C46.7025 48.1542 46.8476 48.0091 46.9926 47.8641C46.9926 47.8641 46.9926 47.8641 47.1377 47.7191C47.2827 47.574 47.2827 47.574 47.4278 47.429C50.9088 43.948 53.5195 39.3066 54.5348 34.2301L54.6799 33.795C53.5195 33.5049 52.7943 32.7797 52.2142 31.9094Z" fill="#436B89"/>
<path d="M16.6793 30.0235C16.5343 30.3135 16.3892 30.6036 16.2442 30.7487C15.809 31.1838 15.3739 31.764 14.9388 32.1991C14.6487 32.3441 14.2136 32.4892 13.9235 32.4892C13.6334 32.4892 13.4884 32.4892 13.3433 32.6342H13.0532C13.0532 32.6342 13.0532 32.6342 12.9082 32.4892C13.0532 32.4892 13.0532 32.3441 13.1983 32.1991C13.6334 31.764 13.9235 31.4739 14.3586 31.1838C15.0838 30.7487 15.664 30.3135 16.3892 29.8784H16.5343C16.6793 29.8784 16.6793 30.0235 16.6793 30.0235Z" fill="#2F3472"/>
<path d="M40.9015 25.5273C40.7565 25.3822 40.3214 25.8174 40.1763 25.6723C39.7412 25.5273 39.7412 25.6723 39.7412 25.2372C39.5961 25.5273 39.161 25.3822 39.016 25.3822C38.5809 25.3822 38.1457 25.3822 37.8556 25.0921C36.9854 24.3669 36.5503 25.0922 35.68 24.2219C35.3899 23.9318 34.9548 23.6417 34.6647 23.3516C34.6647 23.3516 34.6647 23.3516 34.5197 23.4967C34.5197 23.6417 34.5197 23.7868 34.6647 24.0769C33.3593 23.6417 32.199 22.9165 30.8936 22.7715V22.9165C31.3287 23.2066 31.9089 23.3516 32.344 23.6417C32.9242 23.7868 33.2143 24.2219 33.6494 24.657C33.3593 24.657 33.2143 24.657 33.0692 24.657C32.199 24.512 31.3287 24.3669 30.4585 24.3669C30.1684 24.3669 29.7333 24.512 29.4432 24.657C28.5729 25.0921 27.7027 25.6723 26.8324 25.9624C26.3973 26.2525 25.8171 26.2525 25.237 26.3975C24.9469 26.5426 24.5118 26.6876 24.3667 26.9777C23.4965 27.7029 22.4812 28.2831 21.4659 28.7182C21.4659 28.7182 21.4659 28.7182 21.1758 28.7182C21.6109 28.2831 21.901 27.848 22.1911 27.5579C23.3514 26.3975 24.5118 25.3822 25.6721 24.3669C25.8171 24.2219 25.9622 23.9318 26.2523 23.7868C26.1072 23.3516 25.9622 23.2066 25.9622 23.2066C25.9622 23.0616 26.1072 22.9165 26.2523 22.7715C26.8324 22.3363 27.2676 21.9012 27.8477 21.6111C27.9928 21.4661 28.2829 21.3211 28.4279 21.031C28.2829 21.031 28.2829 21.031 28.1378 21.031C27.7027 21.031 27.4126 21.3211 26.9775 20.8859C26.8324 20.7409 26.6874 20.8859 26.5423 20.8859C26.1072 21.031 25.9622 20.8859 25.9622 20.4508C25.9622 20.0157 25.9622 19.8706 25.527 20.0157C24.9469 20.1607 24.3667 20.3058 23.6415 20.5958C23.6415 20.4508 23.6415 20.3058 23.7865 20.1607C24.0766 19.5805 24.5118 19.0004 24.9469 18.4202C25.382 17.695 25.8171 16.8247 26.2523 16.0995C26.2523 15.9545 26.3973 15.8094 26.3973 15.8094C26.8324 15.0842 27.2676 14.9392 28.1378 15.0842C28.718 15.2293 29.2981 15.3743 29.7333 15.3743C30.4585 15.3743 31.0387 15.6644 31.3287 16.3896C31.6188 16.9698 31.6188 16.9698 30.8936 17.1148C30.4585 17.2599 30.0234 17.2599 29.7333 17.2599V17.4049C30.8936 17.9851 32.199 18.5652 33.3593 19.1454C33.3593 19.1454 33.3593 19.1454 33.3593 19.0004C33.2143 18.7103 32.9242 18.4202 32.7792 18.1301C32.7792 18.1301 32.7792 17.9851 32.9242 17.9851C33.3593 18.1301 33.7945 18.2752 34.3746 18.5652C34.2296 18.2752 34.0845 17.84 33.9395 17.4049C34.5197 17.695 34.9548 17.9851 35.2449 18.4202C35.825 19.2905 36.2602 20.3058 36.8403 21.176C36.9854 21.4661 37.1304 21.6111 37.4205 21.9012C37.8556 22.3363 38.2908 22.7715 38.7259 23.2066C39.3061 23.7868 39.4511 23.0616 40.0313 23.4967C40.3214 23.7868 40.7565 24.3669 40.7565 24.657C40.7565 24.8021 40.7565 24.8021 40.9015 24.9471C41.0466 25.0922 41.0466 24.9471 41.1916 24.9471C41.3367 24.8021 41.6267 25.2372 42.642 25.3822L40.9015 25.5273Z" fill="white"/>
<path d="M13.0527 32.4893C13.1978 32.3442 13.1978 32.0542 13.3428 32.0542C13.7779 31.619 14.3581 31.0389 14.9383 30.7488C15.8085 30.1686 16.6788 29.5884 17.549 29.1533H17.6941C17.6941 29.1533 17.8391 29.2984 17.6941 29.4434C17.549 29.7335 17.404 30.1686 17.1139 30.4587C16.5337 31.0389 16.0986 31.7641 15.5185 32.1992C15.2284 32.4893 14.6482 32.6343 14.2131 32.6343C13.923 32.6343 13.7779 32.4893 13.4879 32.7794C13.4879 32.6343 13.3428 32.6343 13.0527 32.4893C13.0527 32.6343 13.0527 32.6343 13.0527 32.4893Z" fill="white"/>
<path d="M28.8634 58.0169C12.9088 58.0169 0 44.9631 0 29.0084C0 13.0538 12.9088 0 28.8634 0C44.8181 0 57.7268 13.0538 57.7268 29.0084C57.7268 44.9631 44.8181 58.0169 28.8634 58.0169ZM28.8634 0.435127C13.1988 0.435127 0.435127 13.1988 0.435127 29.0084C0.435127 44.8181 13.1988 57.5818 28.8634 57.5818C44.528 57.5818 57.4367 44.8181 57.4367 29.0084C57.4367 13.1988 44.673 0.435127 28.8634 0.435127Z" fill="white"/>
<path d="M53.5195 23.4971C53.6646 23.6421 54.0997 23.6421 54.3898 23.7872V23.6421C54.2447 23.6421 53.9547 23.4971 53.8096 23.4971C53.6646 23.4971 53.6646 23.4971 53.5195 23.4971Z" fill="#EAD039"/>
<path d="M53.375 26.9782C53.375 27.1233 53.52 27.1233 53.52 27.2683C53.9552 26.9782 54.3903 26.5431 54.8254 26.253C54.6804 26.108 54.6804 25.8179 54.6804 25.6729C54.3903 25.9629 54.1002 26.253 53.8101 26.5431C53.6651 26.6881 53.52 26.8332 53.375 26.9782Z" fill="#EAD039"/>
<path d="M36.5513 37.856C36.8414 37.711 37.2765 37.5659 37.5666 37.4209C37.1315 37.5659 36.8414 37.711 36.4062 37.856H36.5513Z" fill="#EAD039"/>
<path d="M49.3135 30.7491C49.3135 31.3293 49.4586 31.9094 49.6036 32.3445V32.4896C49.6036 32.9247 49.7486 33.0698 50.0387 33.2148C50.1838 33.0698 49.8937 32.7797 50.3288 32.7797C49.8937 32.4896 49.7487 32.0545 49.6036 31.6193C49.6036 31.3292 49.4586 31.0392 49.3135 30.7491C49.4586 30.604 49.6036 30.314 49.7486 30.1689C50.1838 29.8788 50.4739 29.5887 50.909 29.2987C51.054 29.1536 51.1991 29.1536 51.1991 28.8635C51.6342 28.8635 51.9243 28.4284 52.2144 28.1383C52.3594 27.9933 52.5045 27.8482 52.6495 27.8482C52.6495 27.8482 52.6495 27.8482 52.6495 27.9933C52.6495 27.9933 52.7945 27.9933 52.7945 27.8482H52.6495C52.6495 27.8482 52.6495 27.8482 52.5045 27.7032C52.9396 27.8482 53.0846 27.5582 53.2297 27.4131C53.0846 27.4131 53.0846 27.2681 52.9396 27.2681C52.7945 27.4131 52.6495 27.5582 52.3594 27.7032H52.5045C52.2144 27.8482 51.9243 27.9933 51.7792 28.2834C51.4892 28.4284 51.1991 28.7185 50.909 28.8635C50.4739 29.1536 50.1838 29.2987 50.0387 29.8788H49.8937C49.6036 30.1689 49.3135 30.314 49.0234 30.604C49.1685 30.459 49.3135 30.604 49.3135 30.7491Z" fill="#EAD039"/>
<path d="M41.0471 45.688C40.612 45.9781 40.1769 46.2682 39.7418 46.5583C39.5967 46.7033 39.4517 46.7033 39.3066 46.8484C39.7418 46.8484 39.8868 46.7033 40.1769 46.5583C40.3219 46.4133 40.3219 46.4133 40.467 46.5583C40.467 46.7033 40.7571 46.7033 40.7571 46.7033C40.9021 46.5583 41.0471 46.4133 41.0471 46.2682C41.1922 46.1232 41.0471 46.1232 41.0471 45.9781C41.3372 45.9781 41.4823 45.8331 41.6273 45.8331C41.4823 45.543 41.1922 45.543 41.0471 45.688Z" fill="#EAD039"/>
<path d="M24.3658 48.2991C24.3658 48.1541 24.5108 48.0091 24.5108 47.864C24.6558 47.864 24.6558 48.0091 24.8009 48.0091C24.5108 47.719 24.5108 47.2838 24.3658 46.8487C24.5108 46.7037 24.5108 46.5586 24.5108 46.2686L24.3658 46.4136C24.3658 46.5586 24.2207 46.5586 24.2207 46.7037C24.0757 46.7037 24.2207 46.7037 24.2207 46.8487C24.3658 46.8487 24.3658 46.8487 24.3658 46.8487C24.3658 47.2838 24.2207 47.719 24.3658 48.2991Z" fill="#EAD039"/>
<path d="M51.4888 22.9165C51.3437 23.0615 51.3438 23.0615 51.3438 23.2066C51.7789 23.2066 52.214 23.2066 52.6491 23.2066C52.214 23.2066 51.9239 23.2066 51.4888 22.9165Z" fill="#EAD039"/>
<path d="M52.7949 23.2065C53.085 23.4966 53.23 23.4966 53.3751 23.4966C53.23 23.2065 53.085 23.2065 52.7949 23.2065Z" fill="#EAD039"/>
<path d="M34.5197 49.6046C34.8098 49.4595 35.2449 49.3145 35.535 49.0244C34.8098 49.3145 34.0846 49.6046 33.3594 49.8947C33.6495 49.8947 33.7945 49.8947 34.5197 49.6046Z" fill="#EAD039"/>
<path d="M34.084 38.4365C34.229 38.4365 34.5191 38.4365 34.6642 38.2915C34.5191 38.2915 34.229 38.4365 34.084 38.4365Z" fill="#EAD039"/>
<path d="M35.2442 38.0015C35.0992 38.1465 34.8091 38.1465 34.6641 38.2915C34.9541 38.1465 35.0992 38.1465 35.2442 38.0015Z" fill="#EAD039"/>
<path d="M35.8258 37.856C35.6807 38.001 35.5357 38.001 35.3906 38.001C35.5357 38.146 35.8258 38.2911 35.8258 37.856Z" fill="#EAD039"/>
<path d="M48.1541 33.0699C48.1541 32.7798 48.1541 32.6348 48.0091 32.4897C47.719 32.4897 47.574 32.6348 47.719 32.7798C47.719 32.9249 48.0091 33.0699 48.1541 33.0699Z" fill="#EAD039"/>
<path d="M32.6338 50.3296C32.9239 50.1846 33.069 50.1846 33.359 50.0396C32.9239 50.0396 32.6338 50.0396 32.3438 50.0396C32.3438 50.3296 32.3438 50.3296 32.6338 50.3296Z" fill="#EAD039"/>
<path d="M40.1758 32.7798C40.4659 32.9248 40.7559 33.0698 41.046 33.0698C40.7559 32.9248 40.6109 32.6347 40.1758 32.7798Z" fill="#EAD039"/>
<path d="M14.3594 50.3296C14.6495 50.1846 14.9395 50.0396 15.3747 50.0396C15.0846 50.0396 14.6495 50.1846 14.3594 50.1846V50.3296Z" fill="#EAD039"/>
<path d="M24.3672 46.1236C24.5122 46.1236 24.6573 46.1236 24.6573 46.1236C24.8023 45.9786 24.8023 45.8335 24.9474 45.6885C24.8023 45.8335 24.6573 45.9786 24.3672 46.1236Z" fill="#EAD039"/>
<path d="M17.1152 49.75C17.4053 50.0401 17.5504 49.605 17.6954 49.605C17.5504 49.605 17.5504 49.605 17.4053 49.75C17.2603 49.605 17.2603 49.75 17.1152 49.75Z" fill="#EAD039"/>
<path d="M51.9238 35.3906C51.7788 35.6807 51.9238 35.8258 51.9238 35.8258C52.0689 35.6807 51.9238 35.5357 51.9238 35.3906Z" fill="#EAD039"/>
<path d="M52.0689 34.665C52.0689 34.665 52.0689 34.665 51.9238 34.665C51.9238 34.8101 51.9238 34.8101 51.9238 34.9551C51.9238 34.9551 52.0689 34.9551 52.2139 34.9551C52.2139 34.8101 52.0689 34.665 52.0689 34.665Z" fill="#EAD039"/>
<path d="M53.0852 36.1157C53.0852 36.4058 53.0852 36.6959 52.9401 36.841C52.9401 36.6959 52.9401 36.5509 52.9401 36.5509C52.7951 36.4058 52.65 36.4058 52.65 36.2608C52.65 36.4058 52.505 36.4058 52.505 36.5509C52.36 36.841 52.36 37.131 52.2149 37.4211C52.2149 37.5662 52.2149 37.7112 52.36 37.8563C52.2149 37.7112 52.2149 37.7112 52.2149 37.7112C52.2149 37.8563 52.2149 37.8563 52.2149 38.0013C51.6348 38.2914 51.6348 38.4364 51.7798 38.7265C51.9248 39.0166 52.0699 39.4517 52.505 39.4517C52.505 39.4517 52.6501 39.4517 52.7951 39.4517C53.2302 38.4364 53.5203 37.5662 53.8104 36.5509C53.6653 36.4058 53.5203 36.1157 53.3753 35.9707C53.3753 35.9707 53.2302 36.1157 53.0852 36.1157Z" fill="#EAD039"/>
<path d="M53.9551 33.7949V33.94C54.1001 33.94 54.1001 33.94 54.2452 33.94C54.1001 33.94 54.1001 33.94 54.2452 33.7949C54.1001 33.7949 54.1001 33.7949 53.9551 33.7949Z" fill="#EAD039"/>
<path d="M52.9406 33.2149L52.7955 33.0698C52.5054 33.0698 52.3604 33.2149 52.0703 33.2149C52.3604 33.505 52.3604 33.505 52.5054 33.505C52.6505 33.505 52.7955 33.3599 52.9406 33.2149Z" fill="#EAD039"/>
<path d="M54.8267 31.3296C54.8267 31.3296 54.6816 31.3296 54.6816 31.4746L54.8267 31.3296Z" fill="#EAD039"/>
<path d="M53.9548 31.9093C53.8098 31.9093 53.6648 31.7643 53.5197 31.7643H53.6648C54.39 31.6192 54.0999 31.6192 54.2449 31.0391C53.9548 31.0391 53.6648 31.1841 53.6648 31.3291C53.6648 31.4742 53.5197 31.6192 53.3747 31.4742L53.0846 31.6192C53.0846 31.7643 52.9395 31.7643 52.9395 31.9093C52.7945 32.1994 52.6495 32.4895 52.3594 32.4895C52.5044 32.6345 52.6495 32.6345 52.7945 32.4895C52.9395 32.3444 53.2296 32.3444 53.3747 32.3444C53.5197 32.3444 53.6648 32.4895 53.8098 32.1994C53.9548 32.0544 54.0999 32.0544 54.2449 31.9093C54.39 31.9093 54.39 31.9093 54.535 31.7643C54.535 31.7643 54.535 31.6192 54.6801 31.4742C54.535 31.6192 54.2449 31.6192 53.9548 31.9093ZM53.5197 31.7643C53.3747 31.9093 53.5197 31.7643 53.5197 31.7643V31.7643Z" fill="#EAD039"/>
<path d="M48.4434 35.5352C48.4434 35.6802 48.4434 35.9703 48.4434 36.1153C48.5884 35.9703 48.5884 35.6802 48.4434 35.5352Z" fill="#EAD039"/>
<path d="M48.4439 41.337C48.4439 41.1919 48.4439 41.1919 48.5889 41.0469C48.4439 41.0469 48.4439 41.0469 48.2988 41.1919L48.4439 41.337Z" fill="#EAD039"/>
<path d="M50.474 39.7417C50.474 39.7417 50.329 39.7417 50.474 39.7417C50.329 39.7417 50.329 39.7417 50.474 39.7417C50.329 39.8867 50.329 39.8867 50.474 39.7417Z" fill="#EAD039"/>
<path d="M50.7647 39.7417C50.4746 39.7417 50.4746 39.7417 50.4746 39.7417C50.4746 39.7417 50.4746 39.8867 50.4746 40.0318C50.6197 39.8867 50.7647 39.8867 50.7647 39.7417Z" fill="#EAD039"/>
<path d="M49.3145 41.1924C49.3145 41.1924 49.4595 41.0474 49.3145 41.1924C49.3145 41.0474 49.3145 41.1924 49.3145 41.1924Z" fill="#EAD039"/>
<path d="M51.0549 36.4057C51.0549 36.2607 51.0549 36.1156 50.9098 36.1156C50.9098 36.2607 50.9098 36.2607 50.7648 36.4057C50.6198 36.2607 50.6198 36.1156 50.4747 36.1156C50.1846 35.9706 50.0396 35.8255 49.8945 35.3904C49.8945 35.3904 49.7495 35.2454 49.7495 35.3904L49.6045 35.5354C49.6045 35.6805 49.6045 35.6805 49.7495 35.8255C49.4594 35.6805 49.1693 35.5354 49.0243 35.5354C48.8792 35.9706 48.7342 36.4057 48.5892 36.8408V36.9859C48.7342 37.421 48.5892 37.7111 48.4441 38.0012C48.4441 38.1462 48.4441 38.2912 48.4441 38.2912C48.5892 38.5813 48.4441 38.8714 48.2991 39.0165C48.2991 39.1615 48.154 39.3065 48.154 39.4516C48.154 39.4516 48.154 39.4516 48.009 39.4516C48.009 39.1615 48.154 38.8714 48.154 38.5813V38.4363C48.154 38.1462 48.154 37.7111 48.2991 37.421C48.2991 37.1309 48.2991 36.8408 48.4441 36.6958C48.5892 36.4057 48.4441 36.2607 48.4441 36.1156C48.2991 36.1156 48.2991 36.1156 48.154 36.1156C48.009 36.1156 47.864 36.1156 47.7189 36.1156C47.7189 35.9706 47.7189 35.9706 47.864 35.8255C47.7189 35.8255 47.5739 35.8255 47.4288 35.8255C47.4288 35.6805 47.4288 35.5354 47.1387 35.6805C47.1387 35.6805 46.9937 35.8255 46.9937 35.6805C46.9937 35.6805 46.8487 35.5354 46.8487 35.3904C46.8487 35.3904 46.9937 35.5354 46.9937 35.3904C46.9937 35.3904 47.1387 35.3904 47.1387 35.2454V35.1003C47.1387 35.1003 46.9937 35.1003 46.8487 35.1003C46.7036 35.2454 46.7036 35.2454 46.5586 35.2454C46.5586 35.1003 46.7036 34.9553 46.7036 34.8102C46.7036 34.8102 46.7036 34.8102 46.5586 34.8102C46.5586 34.9553 46.4135 35.1003 46.4135 35.1003H46.2685C46.4135 35.2454 46.4135 35.2454 46.4135 35.3904C46.2685 35.2454 46.2685 35.1003 46.1234 34.9553C46.4135 34.8102 45.9784 34.6652 45.9784 34.5201C45.8334 34.5201 45.8334 34.5201 45.6883 34.5201C45.6883 34.3751 45.6883 34.3751 45.6883 34.2301C45.6883 34.085 45.6883 34.085 45.6883 33.94C45.5433 33.7949 45.5433 33.5048 45.8334 33.3598C45.9784 33.3598 46.1234 33.6499 46.4135 33.5048C46.5586 33.3598 46.8487 33.3598 46.8487 33.0697C46.8487 32.9247 46.9937 32.7796 47.1387 32.9247C47.2838 33.0697 47.4288 33.0697 47.5739 32.9247C47.5739 32.9247 47.7189 32.9247 47.7189 32.7796C47.5739 32.6346 47.4288 32.4896 47.2838 32.3445C46.9937 32.1995 47.1387 32.0544 47.2838 31.9094H47.1387C47.1387 31.6193 47.7189 31.3292 48.154 31.4743C48.154 31.3292 48.154 31.1842 48.154 31.0391C48.4441 30.8941 48.7342 30.749 49.0243 30.604C48.7342 30.749 48.5892 30.749 48.2991 30.8941C48.2991 30.8941 48.4441 30.749 48.5892 30.749C48.4441 30.749 48.2991 30.8941 48.2991 30.8941C48.154 30.8941 48.009 31.0391 48.009 31.0391C48.009 31.0391 48.009 31.0391 48.009 31.1842C48.009 31.1842 48.009 31.1842 47.864 31.1842C47.864 31.3292 47.7189 31.3292 47.5739 31.3292L47.7189 31.1842C47.5739 31.1842 47.4288 31.3292 47.4288 31.3292C47.4288 31.3292 47.4288 31.3292 47.2838 31.3292C47.1387 31.3292 46.9937 31.4743 46.8487 31.6193C46.7036 31.7643 46.7036 31.7643 46.5586 31.7643C46.7036 31.9094 46.5586 31.9094 46.4135 31.9094C46.4135 32.0544 46.5586 32.0544 46.5586 32.0544C46.5586 32.0544 46.5586 32.0544 46.4135 32.1995C46.4135 32.1995 46.2685 32.1995 46.2685 32.3445C46.2685 32.1995 46.2685 32.1995 46.1234 32.0544C45.9784 32.0544 45.9784 32.1995 45.8334 32.1995C45.3982 32.3445 45.1081 32.4896 44.673 32.9247C44.528 33.0697 44.3829 33.0697 44.2379 33.2148C43.9478 33.3598 43.5127 33.5048 43.2226 33.6499C42.9325 33.94 42.6424 33.7949 42.3523 33.7949H42.2073C42.2073 33.7949 42.2073 33.7949 42.2073 33.94H42.3523C42.4974 33.94 42.6424 34.085 42.4974 34.2301C42.2073 34.5201 41.7722 34.8102 41.3371 35.1003C40.7569 35.3904 40.1767 35.8255 39.5965 36.2607V36.4057C39.4515 36.4057 39.3065 36.5507 39.3065 36.5507C38.7263 36.9859 38.1461 37.2759 37.566 37.421C37.856 37.2759 38.0011 37.2759 38.2912 37.2759C38.5812 37.2759 38.4362 37.421 38.4362 37.566C38.2912 37.8561 38.2912 38.2912 38.4362 38.5813L38.5812 38.7264C38.5812 38.5813 38.7263 38.5813 38.7263 38.4363C38.7263 38.2912 38.7263 38.1462 38.7263 38.0012C38.7263 37.566 38.7263 37.1309 39.1614 36.9859C39.3065 36.9859 39.4515 36.8408 39.5965 36.6958V36.5507C39.7416 36.5507 39.8866 36.5507 39.8866 36.4057C40.1767 36.1156 40.4668 35.8255 40.7569 35.6805C40.9019 35.6805 41.047 35.6805 41.047 35.5354C41.3371 35.3904 41.6271 35.1003 41.9172 34.8102C42.2073 34.6652 42.4974 34.3751 42.7875 34.2301C43.0776 33.94 43.5127 33.94 43.8028 33.6499H43.9478C44.0929 33.6499 44.2379 33.5048 44.3829 33.5048C44.3829 33.5048 44.3829 33.6499 44.3829 33.7949C44.2379 34.085 43.9478 33.7949 43.6577 33.94H43.5127C43.3676 33.94 43.2226 34.085 43.2226 34.085C43.2226 34.085 43.3676 34.2301 43.3676 34.3751C43.2226 34.3751 43.0776 34.3751 42.9325 34.5201C42.6424 34.6652 42.4974 34.6652 42.2073 34.8102C41.7722 34.9553 41.4821 35.2454 41.192 35.5354C40.7569 35.8255 40.6118 36.2607 40.6118 36.6958C40.3218 37.1309 40.4668 37.421 40.0317 37.7111C39.8866 37.7111 39.8866 37.8561 39.7416 37.8561C40.3218 37.8561 40.9019 37.7111 41.3371 37.7111C41.4821 37.7111 41.6271 37.7111 41.7722 38.0012C41.7722 38.1462 42.0623 38.1462 42.2073 38.1462C42.4974 38.1462 42.7875 38.0012 43.0776 38.0012C43.2226 38.0012 43.2226 38.1462 43.3676 38.1462C43.2226 38.1462 43.2226 38.2912 43.0776 38.2912C42.7875 38.4363 42.4974 38.4363 42.3523 38.5813C42.3523 38.5813 42.2073 38.5813 42.2073 38.7264C42.4974 39.0165 42.6424 39.3065 42.6424 39.7417V39.8867C42.6424 39.8867 42.4974 40.0318 42.3523 40.0318C42.3523 40.1768 42.4974 40.1768 42.4974 40.3218H42.6424C42.7875 40.3218 42.9325 40.1768 43.0776 40.4669C43.0776 40.6119 42.9325 40.757 42.7875 40.757H42.6424C42.4974 40.757 42.3523 40.757 42.2073 40.757C41.9172 40.757 41.7722 40.757 41.4821 40.6119C41.3371 40.6119 41.3371 40.6119 41.192 40.4669C41.192 40.6119 41.192 40.6119 41.047 40.757C41.047 40.6119 40.9019 40.4669 40.7569 40.3218C40.7569 40.6119 40.7569 40.757 40.7569 40.902L40.6118 41.047L40.4668 40.902C40.3218 40.757 40.3218 40.6119 40.3218 40.3218C40.3218 40.1768 40.3218 40.0318 40.3218 40.0318C40.3218 40.0318 40.4668 40.0318 40.6118 40.0318C40.6118 40.0318 40.6118 40.0317 40.6118 39.8867C40.6118 39.8867 40.6118 39.8867 40.4668 39.8867C40.4668 39.8867 40.4668 39.8867 40.3218 39.8867C40.1767 39.7417 40.0317 39.7417 40.0317 39.5966C39.7416 39.1615 39.4515 38.8714 38.8713 38.7264C38.7263 38.7264 38.7263 38.7264 38.7263 38.8714C38.7263 39.0165 38.7263 39.1615 38.5812 39.3065C38.5812 39.4516 38.5812 39.4516 38.5812 39.5966C38.5812 40.1768 38.7263 40.757 38.7263 41.3371C38.7263 41.3371 38.7263 41.3371 38.7263 41.4822C38.7263 41.3371 38.7263 41.1921 38.5812 41.047C38.4362 40.757 38.4362 40.4669 38.2912 40.1768V40.0318C38.2912 39.8867 38.2912 39.7417 38.1461 39.5966C38.1461 39.4516 38.0011 39.3065 37.856 39.1615C37.711 39.4516 37.4209 39.8867 37.2759 40.1768C37.2759 40.0318 37.2759 39.8867 37.2759 39.7417C37.1308 39.8867 37.1308 40.0318 37.1308 40.1768C36.9858 40.4669 36.8407 40.757 36.5507 40.902C36.5507 40.757 36.6957 40.6119 36.6957 40.4669C36.6957 40.3218 36.6957 40.1768 36.8407 40.0318C36.8407 39.8867 36.6957 39.7417 36.9858 39.7417C36.9858 39.7417 36.9858 39.5966 36.9858 39.4516L36.8407 39.3065C36.6957 39.4516 36.4056 39.4516 36.2606 39.4516C36.1155 39.4516 36.1155 39.4516 35.9705 39.4516C35.6804 39.4516 35.6804 39.4516 35.6804 39.3065C35.6804 39.4516 35.5354 39.5966 35.5354 39.5966C35.2453 39.4516 34.9552 39.5966 34.5201 39.4516C34.6651 39.4516 34.8101 39.4516 34.8101 39.3065C34.8101 39.3065 34.8101 39.1615 34.9552 39.0165C34.375 39.3065 33.7949 39.5966 33.3597 39.8867C33.0696 40.0317 32.6345 40.3218 32.4895 40.757C32.4895 40.902 32.1994 41.1921 32.0543 41.3371C31.7643 41.6272 31.7643 42.2074 31.6192 42.4975C31.6192 42.6425 31.4742 42.7876 31.4742 43.0776C31.4742 43.2227 31.4742 43.3677 31.4742 43.5128V43.6578C31.4742 43.6578 31.4742 43.8028 31.6192 43.8028C31.3291 44.0929 31.3291 44.238 31.4742 44.5281C31.6192 44.8181 31.6192 45.1082 31.6192 45.5434C31.7643 45.2533 31.9093 45.3983 32.0543 45.5434C31.7643 45.9785 31.9093 46.4136 32.1994 46.8487C32.1994 46.9938 32.3444 47.1388 32.3444 47.2839C32.3444 47.4289 32.4895 47.5739 32.4895 47.719C32.7796 48.0091 32.9246 48.2992 32.9246 48.7343C32.9246 48.8793 33.0696 49.0244 33.0696 49.1694C33.3597 48.8793 33.5048 48.7343 33.7949 48.5892C33.9399 48.5892 33.9399 48.4442 34.0849 48.4442C34.6651 48.2992 34.9552 47.864 35.5354 47.719C35.5354 47.719 35.5354 47.5739 35.6804 47.5739C35.6804 47.5739 35.6804 47.4289 35.8254 47.4289C36.1155 47.1388 36.4056 46.9938 36.6957 46.7037C36.8407 46.5587 36.9858 46.4136 36.9858 46.2686C37.1308 46.1235 37.1308 45.9785 37.2759 45.9785C37.4209 45.8334 37.4209 45.6884 37.4209 45.5434C37.566 45.5434 38.0011 45.2533 38.0011 44.9632C38.0011 44.5281 38.2912 44.0929 38.5812 43.8028C38.5812 43.6578 38.5812 43.6578 38.7263 43.5128C38.7263 43.2227 38.7263 42.7876 38.8713 42.4975C38.8713 42.2074 38.7263 42.2074 38.5812 41.9173C38.5812 41.7723 38.4362 41.7723 38.4362 41.7723C38.7263 41.6272 38.8713 41.6272 39.1614 41.6272C39.3065 42.2074 39.4515 42.7876 39.5965 43.3677C39.8866 43.3677 39.8866 43.5128 39.8866 43.6578C40.0317 43.9479 40.1767 44.238 40.4668 44.383C40.6118 44.6731 40.9019 44.9632 41.047 45.1082L41.192 45.2533H41.3371C41.4821 45.3983 41.7722 45.5434 41.9172 45.6884C42.2073 45.8334 42.4974 45.8334 42.7875 45.9785C42.7875 45.9785 42.9325 45.9785 42.9325 46.1235C42.9325 46.1235 42.9325 46.1235 43.0776 46.1235C43.2226 46.1235 43.5127 46.1235 43.6577 46.1235C43.9478 46.1235 44.2379 46.2686 44.528 46.2686C44.528 46.2686 44.528 46.2686 44.673 46.2686C44.9631 45.9785 44.9631 46.1235 44.9631 46.4136C45.2532 46.4136 45.3982 46.5586 45.5433 46.5586C45.9784 46.8487 46.4135 46.8487 46.8487 46.7037H46.7036C46.9937 46.5587 47.2838 46.5587 47.5739 46.4136C47.7189 46.4136 47.864 46.4136 48.009 46.2686C48.154 46.2686 48.154 46.1235 48.2991 46.1235C48.4441 45.9785 48.5892 45.6884 48.8792 45.5434C48.5892 45.5434 48.4441 45.5434 48.2991 45.8334C48.2991 45.9785 48.009 45.9785 47.864 45.9785C47.7189 45.9785 47.5739 45.9785 47.4288 46.1235C46.9937 46.1235 46.7036 46.2686 46.2685 46.4136H46.1234C45.9784 46.1235 45.6883 46.1235 45.3982 46.1235H45.2532V45.9785C45.5433 45.6884 45.5433 45.5434 45.3982 45.1082C45.3982 44.9632 45.3982 44.6731 45.3982 44.5281C45.3982 44.238 45.5433 43.8028 45.5433 43.5128C45.5433 43.3677 45.6883 43.2227 45.8334 43.0776C45.8334 42.6425 45.5433 42.3524 45.3982 42.0623C45.1081 41.7723 44.9631 41.3371 44.8181 41.047C44.8181 40.902 44.8181 40.902 44.8181 40.757C44.8181 40.6119 44.8181 40.4669 44.673 40.3218C44.673 40.3218 44.673 40.3218 44.673 40.1768C44.673 39.7417 44.673 39.3065 44.9631 38.8714C44.9631 38.7264 45.2532 38.8714 45.3982 38.8714L45.5433 39.0165C45.3982 39.0165 45.1081 39.0165 44.9631 39.0165C45.1081 39.1615 45.1082 39.4516 45.2532 39.4516C45.3982 39.4516 45.3982 39.3065 45.5433 39.3065C45.6883 39.1615 45.8334 39.0165 45.9784 38.8714C45.9784 38.8714 45.9784 38.8714 46.1234 39.0165C45.9784 39.1615 45.9784 39.1615 45.8334 39.3065C45.6883 39.4516 45.6883 39.5966 45.8334 39.5966C45.9784 39.7417 45.9784 40.0318 46.2685 40.0318C46.2685 40.1768 46.2685 40.1768 46.4135 40.3218C46.4135 40.4669 46.4135 40.4669 46.5586 40.6119C46.7036 40.6119 46.8487 40.4669 46.9937 40.4669C47.2838 40.6119 47.2838 40.6119 46.9937 40.757C46.9937 40.757 46.9937 40.902 46.9937 41.047C47.4288 40.757 47.7189 40.6119 47.7189 40.4669C47.7189 40.4669 47.864 40.4669 48.009 40.4669C48.009 40.757 47.864 41.047 48.2991 41.047C48.2991 41.047 48.4441 40.902 48.4441 40.757C48.4441 40.902 48.5892 41.047 48.5892 41.047C48.7342 41.3371 48.8792 41.4822 48.8792 41.6272C48.8792 41.6272 48.8792 41.9173 48.7342 41.9173C48.4441 41.9173 48.2991 42.2074 48.154 42.4975L48.009 42.6425C48.154 42.4975 48.2991 42.4975 48.2991 42.3524C48.4441 42.2074 48.5892 42.2074 48.7342 42.0623C48.8792 41.9173 49.0243 41.7723 49.0243 41.4822C49.1693 41.3371 49.1693 41.3371 49.3144 41.1921C49.1693 41.3371 49.1693 41.3371 49.0243 41.3371C49.0243 41.3371 49.0243 41.3371 48.8792 41.1921C49.0243 41.047 49.0243 41.047 49.1693 40.902C49.1693 40.757 49.0243 40.757 48.8792 40.6119C49.0243 40.6119 49.0243 40.4669 49.1693 40.4669C49.1693 40.3218 49.1693 40.1768 49.1693 40.0318C49.1693 40.0318 49.1693 40.0318 49.3144 40.0318C49.4594 40.1768 49.4594 40.4669 49.6045 40.6119C49.7495 40.757 49.7495 40.902 49.8945 40.757L49.7495 40.6119L49.8945 40.4669C50.0396 40.6119 50.1846 40.4669 50.3297 40.3218C50.1846 40.1768 50.4747 39.8867 50.0396 39.7417C50.1846 39.7417 50.3297 39.7417 50.3297 39.7417C50.3297 39.7417 50.3297 39.7417 50.4747 39.5966L50.6198 39.4516C50.7648 39.4516 50.9098 39.3065 50.9098 39.3065C51.0549 39.0165 51.345 38.5813 50.9098 38.2912C50.7648 38.2912 51.0549 37.8561 51.1999 37.7111C51.1999 37.8561 51.1999 38.0012 51.1999 38.1462C51.345 38.1462 51.345 38.0012 51.49 37.8561C51.345 37.566 51.1999 37.2759 51.1999 36.9859C51.1999 36.8408 51.1999 36.5507 51.0549 36.4057ZM44.673 33.6499C44.673 33.5048 44.673 33.5048 44.673 33.3598C44.673 33.3598 44.8181 33.3598 44.8181 33.2148C44.8181 33.2148 44.9631 33.3598 44.9631 33.5048C44.8181 33.5048 44.8181 33.5048 44.673 33.6499ZM45.1082 33.2148C45.1082 33.0697 45.2532 33.0697 45.3982 32.9247C45.5433 32.9247 45.5433 32.7796 45.6883 32.7796C45.8334 32.7796 45.8334 32.9247 45.8334 33.0697C45.5433 33.0697 45.3982 33.2148 45.1082 33.2148Z" fill="#EAD039"/>
<path d="M40.6121 34.5201C40.6121 34.3751 40.7571 34.3751 40.6121 34.5201C40.9022 34.23 40.9022 34.23 41.0472 34.085L41.1923 33.94C41.1923 33.94 41.1923 33.7949 41.0472 33.7949C40.9022 33.94 40.7571 34.085 40.6121 34.085C40.322 34.23 40.322 34.3751 40.6121 34.5201Z" fill="#EAD039"/>
<path d="M52.794 35.2456C52.504 35.5357 52.794 35.5357 52.9391 35.8258C53.0841 35.5357 52.9391 35.3906 52.794 35.2456Z" fill="#EAD039"/>
<path d="M41.7711 25.9625C41.626 25.6724 41.626 25.9625 41.3359 26.1075C41.626 26.2526 41.7711 26.1075 41.7711 25.9625Z" fill="#EAD039"/>
<path d="M41.337 34.2298C41.1919 34.2298 41.1919 34.2298 41.0469 34.3748C41.337 34.6649 41.482 34.6649 41.627 34.3748C41.7721 34.2298 41.9171 34.2298 42.0622 34.0848L42.2072 33.9397C41.7721 33.7947 41.482 33.9397 41.337 34.2298Z" fill="#EAD039"/>
<path d="M50.6187 36.1155C50.9088 35.3903 50.3286 34.9552 50.1836 34.375C50.1836 34.52 50.1836 34.6651 50.3286 34.8101C50.3286 34.9552 50.4737 35.1002 50.4737 35.2453C50.3286 35.2453 50.3286 35.2453 50.1836 35.2453C50.3286 35.2453 50.4737 35.3903 50.6187 35.3903C50.6187 35.3903 50.6187 35.3903 50.4737 35.3903C50.4737 35.8254 50.4737 35.9705 50.6187 36.1155Z" fill="#EAD039"/>
<path d="M49.459 42.3525C49.459 42.6426 49.604 42.6426 49.7491 42.7877C49.8941 42.9327 50.0392 42.9327 49.7491 43.0778C49.7491 43.0778 49.604 42.9327 49.459 42.9327C49.459 43.0777 49.459 43.2228 49.604 43.3678C49.8941 43.5129 50.0392 43.5129 50.3292 43.6579C50.3292 43.5129 50.4743 43.5129 50.4743 43.3678C50.1842 42.9327 49.8941 42.6426 49.459 42.3525Z" fill="#EAD039"/>
<path d="M23.4966 48.8795C23.6416 49.0246 23.7867 49.0246 23.7867 48.8795C23.7867 48.5894 23.7867 48.2993 23.7867 48.1543C23.7867 48.1543 23.6416 48.0093 23.6416 48.1543C23.4966 48.1543 23.4966 48.2993 23.3516 48.2993C23.6416 48.2993 23.7867 48.4444 23.6416 48.7345C23.4966 48.7345 23.4966 48.7345 23.4966 48.8795Z" fill="#EAD039"/>
<path d="M25.8174 43.513C25.6723 43.513 25.6723 43.513 25.5273 43.513C25.2372 43.368 25.0922 43.8031 24.9471 43.8031V43.9481C24.9471 44.0932 25.0922 44.0932 25.0922 44.2382C24.9471 44.3833 24.8021 44.6733 24.512 44.8184C24.2219 44.6733 24.2219 44.6733 24.512 44.3833V44.2382C24.2219 44.6733 23.6417 44.5283 23.3517 44.9634C23.3517 45.1085 23.2066 45.1085 23.0616 45.2535C22.9165 45.2535 22.9165 45.3985 22.7715 45.3985C22.9165 45.8337 23.0616 46.2688 23.2066 46.7039C23.2066 46.4138 23.3517 46.4138 23.4967 46.4138C23.7868 46.1238 24.2219 45.9787 24.657 45.6886C24.8021 45.3985 25.0922 45.2535 25.2372 45.1085C25.5273 44.8184 25.8174 44.3833 26.1075 44.0932C26.2525 43.9481 26.3975 43.8031 26.3975 43.658C26.3975 43.658 26.5426 43.658 26.8327 43.8031C26.6876 43.658 26.5426 43.658 26.3975 43.513C26.2525 43.513 25.9624 43.513 25.8174 43.513Z" fill="#EAD039"/>
<path d="M25.5263 50.33C25.3813 50.475 25.0912 50.6201 24.9462 50.7651C25.0912 50.7651 25.0912 50.9102 25.2362 50.9102C25.0912 50.9102 24.9462 51.0552 24.8011 51.0552C24.6561 51.0552 24.511 51.2003 24.511 51.3453C24.511 51.4903 24.221 51.6354 24.0759 51.4903C24.0759 51.4903 24.0759 51.3453 23.9309 51.2002C23.9309 51.2002 23.7858 51.2002 23.6408 51.2002C23.4957 51.2002 23.3507 51.0552 23.3507 51.0552C23.3507 50.9102 23.2057 50.6201 23.3507 50.475C23.4957 50.0399 23.3507 49.7498 23.0606 49.4597C22.7705 49.6048 22.6255 49.7498 22.4804 49.8949C22.1904 50.0399 22.0453 50.185 22.1904 50.475C22.1904 50.6201 22.1904 50.9102 22.3354 51.0552V51.2002C22.4804 51.3453 22.4804 51.4903 22.3354 51.7804C22.1904 51.6354 22.0453 51.4903 22.1904 51.3453C22.1904 51.2003 22.1904 51.0552 22.0453 51.0552C21.6102 50.9102 21.6102 50.6201 21.9003 50.185C21.9003 50.185 22.0453 50.0399 21.9003 49.8949C21.9003 49.8949 22.0453 49.7498 22.0453 49.6048V49.7498C22.1904 49.7498 22.3354 49.7498 22.4804 49.7498C22.4804 49.6048 22.4804 49.4597 22.3354 49.3147C22.3354 49.3147 22.3354 49.3147 22.3354 49.1697C21.9003 49.3147 21.4652 49.4597 21.03 49.6048L21.1751 49.4597C21.03 49.4597 20.885 49.4597 20.7399 49.4597C21.1751 49.1697 21.6102 48.8796 22.1904 48.5895L22.0453 48.4444C22.3354 48.4444 22.6255 48.2994 22.9156 48.2994C22.9156 48.2994 22.9156 48.4444 22.9156 48.5895C23.0606 48.4444 23.2057 48.1544 23.4957 48.0093C22.9156 47.5742 22.3354 47.8643 21.7552 48.0093C21.7552 48.0093 21.7552 48.0093 21.7552 47.8643L21.6102 47.7192C21.1751 47.8643 20.885 47.8643 20.5949 48.1544C20.1598 48.2994 19.8697 48.4444 19.4346 48.7345C19.1445 48.8796 18.8544 49.1697 18.7093 49.3147C18.4193 49.6048 18.2742 49.7498 17.9841 50.0399C17.8391 50.185 17.6941 50.33 17.549 50.6201C17.404 50.7651 17.404 50.7651 17.2589 50.6201C17.1139 50.7651 17.1139 50.9102 16.9688 50.6201C16.9688 50.7651 16.8238 50.7651 16.8238 50.9102C16.9688 51.0552 17.1139 51.2002 17.1139 51.2002C17.1139 51.3453 16.9688 51.4903 16.8238 51.6354C16.5337 51.3453 16.9688 51.0552 16.5337 50.9102C16.5337 51.2002 16.3887 51.4903 16.3887 51.7804C16.8238 52.0705 17.404 52.3606 17.8391 52.5056C17.9841 52.5056 17.9841 52.3606 18.1292 52.3606C18.2742 52.2155 18.7093 52.0705 18.9994 52.2155C19.1445 52.3606 19.2895 52.3606 19.5796 52.5056C19.5796 52.6507 19.5796 52.6507 19.7246 52.7957C19.8697 53.0858 19.8697 53.0858 20.0147 52.7957C20.1598 52.7957 20.3048 52.7957 20.4499 52.7957C20.4499 52.9408 20.4499 52.9408 20.3048 53.0858C20.5949 53.0858 20.885 53.0858 20.885 53.5209C20.885 53.3759 21.03 53.2308 21.03 53.0858C21.3201 52.9408 21.6102 52.9408 21.7552 53.2308C22.0453 52.9408 22.1904 52.9408 22.4804 53.3759C22.3354 53.666 22.1904 53.9561 21.9003 54.2461C21.7552 54.2461 21.7552 54.2461 21.6102 54.2461C22.9156 54.6813 24.221 54.8263 25.5263 55.1164C25.0912 54.6813 25.2362 54.1011 25.3813 53.5209C25.3813 53.3759 25.3813 53.3759 25.2362 53.2308C25.0912 53.0858 25.6714 52.9408 25.2362 52.7957C25.0912 52.6507 24.8011 52.7957 24.6561 52.6507C24.6561 52.6507 24.6561 52.6507 24.8011 52.6507C24.9462 52.6507 25.0912 52.5056 25.2362 52.5056C25.2362 52.6507 25.3813 52.6507 25.3813 52.7957C25.5263 52.5056 25.5263 52.3606 25.5263 52.2155C25.6714 52.0705 25.6714 51.7804 25.8164 51.6354C25.8164 51.4903 25.8164 51.2002 25.8164 50.9102C25.8164 50.9102 25.6714 50.9102 25.5263 50.7651C25.5263 50.6201 25.8164 50.475 25.5263 50.33Z" fill="#EAD039"/>
<path d="M8.84631 44.5283C8.55622 44.5283 8.41118 44.5283 8.12109 44.5283C8.26614 44.6734 8.26614 44.8184 8.41118 44.9634C8.55622 44.9634 8.55622 44.8184 8.41118 44.6734C8.70126 44.6734 8.70126 44.6734 8.84631 44.5283Z" fill="#EAD039"/>
<path d="M26.6866 39.7418C26.5416 39.8869 26.3965 40.0319 26.2515 40.0319C26.1064 40.1769 25.9614 40.1769 25.8163 40.322C25.8163 40.322 25.8163 40.467 25.8163 40.6121C25.6713 40.6121 25.5263 40.6121 25.3812 40.6121C25.5263 40.9022 25.3812 41.0472 25.2362 41.0472C25.2362 41.1922 25.2362 41.1922 25.2362 41.1922C24.9461 41.4823 24.8011 41.7724 24.3659 41.9174C24.2209 41.9174 24.0758 41.9174 24.0758 42.2075C24.0758 42.3526 23.9308 42.3526 23.7858 42.4976C23.2056 42.7877 23.0605 43.2228 23.0605 43.803C23.0605 43.948 23.0605 43.948 23.0605 44.0931C23.2056 43.948 23.3506 43.948 23.4957 43.948C23.7858 44.0931 23.7858 43.803 23.9308 43.658C23.9308 43.658 23.9308 43.5129 23.9308 43.3679C23.7858 43.3679 23.7858 43.3679 23.6407 43.3679C23.4957 43.3679 23.4957 43.5129 23.3506 43.658C23.3506 43.5129 23.2056 43.3679 23.3506 43.3679C23.3506 43.2228 23.4957 43.0778 23.6407 43.0778C24.0758 43.2228 24.3659 43.0778 24.511 42.7877C24.511 42.6427 24.656 42.6427 24.8011 42.6427C24.9461 42.4976 25.0911 42.4976 25.2362 42.3526C25.3812 42.3526 25.3812 42.3526 25.5263 42.3526H25.6713C25.8164 42.3526 25.9614 42.3526 25.9614 42.2075C25.9614 42.0625 26.1064 42.0625 26.1064 41.9174C26.2515 41.7724 26.2515 41.7724 26.3965 41.6274H26.5416C26.5416 41.6274 26.5416 41.7724 26.5416 41.9174C26.3965 42.2075 26.1064 42.4976 25.8163 42.4976C25.5263 42.4976 25.3812 42.6427 25.2362 42.9327C25.0911 42.9327 25.0911 42.9327 24.9461 43.0778V43.2228C24.9461 43.2228 24.9461 43.3679 25.0911 43.3679H25.2362V43.2228C25.3812 43.2228 25.5263 43.2228 25.6713 43.2228H25.8163C25.6713 43.3679 25.6713 43.3679 25.6713 43.3679C26.1064 43.3679 26.3965 43.5129 26.8316 43.5129C26.9767 43.5129 27.1217 43.3679 27.1217 43.3679C26.9767 43.5129 26.9767 43.658 26.8316 43.803C26.6866 43.948 26.6866 43.948 26.5416 44.0931C26.5416 43.948 26.6866 43.803 26.8316 43.803C26.6866 43.948 26.5416 44.0931 26.3965 44.2381C26.3965 44.2381 26.3965 44.2381 26.5416 44.2381L26.3965 44.3832C26.3965 44.3832 26.3965 44.3832 26.2515 44.5282C26.2515 44.5282 26.2515 44.3832 26.2515 44.2381C26.1064 44.3832 25.9614 44.6732 25.8163 44.8183C26.1064 44.6732 26.1064 44.6733 26.2515 44.5282C26.1064 44.6733 25.9614 44.8183 25.8163 44.9633C25.5263 45.2534 25.3812 45.5435 25.0911 45.6885C24.9461 45.8336 24.8011 46.1237 24.8011 46.4138C25.2362 46.4138 25.5263 46.2687 25.6713 46.1237C25.9614 45.8336 26.2515 45.8336 26.5416 45.6885C26.6866 45.5435 26.9767 45.3985 27.1217 45.2534C27.2668 45.1084 27.4118 45.1084 27.5569 44.9633C27.7019 44.8183 27.8469 44.8183 27.8469 44.6732C27.8469 44.6732 27.8469 44.5282 27.992 44.5282C28.137 44.5282 28.2821 44.3832 28.4271 44.2381C28.7172 44.0931 28.7172 43.803 28.7172 43.5129C28.7172 43.3679 28.8622 43.2228 29.0073 43.0778C29.1523 42.9327 29.2974 42.7877 29.2974 42.6427C29.4424 42.3526 29.5874 42.2075 29.5874 41.9174C29.5874 41.7724 29.5874 41.6274 29.5874 41.4823C29.5874 41.4823 29.7325 41.4823 29.7325 41.3373C29.7325 41.3373 29.7325 41.3373 29.7325 41.4823C29.8775 41.4823 29.8775 41.4823 30.0226 41.3373C30.3127 41.0472 30.7478 40.7571 31.0379 40.6121C31.618 40.322 31.7631 39.8869 32.3433 39.5968C32.6333 39.4517 32.7784 39.3067 33.0685 39.3067C32.9234 39.1616 33.0685 39.1616 33.0685 39.0166C32.4883 39.1616 31.9081 39.4517 31.328 39.5968L31.473 39.4517C31.328 39.4517 31.1829 39.4517 31.1829 39.4517C31.1829 39.5968 31.1829 39.5968 31.1829 39.5968C30.8928 39.7418 30.4577 39.7418 30.1676 39.5968C30.3127 39.7418 30.6027 39.8869 30.7478 40.1769C30.8928 40.1769 31.0379 40.0319 31.1829 40.0319C30.8928 40.467 30.4577 40.6121 30.1676 40.9022V40.7571C30.1676 40.6121 30.0226 40.467 30.0226 40.322C30.0226 40.1769 30.0226 40.0319 29.7325 39.8869C29.5874 39.8869 29.5874 39.5968 29.4424 39.4517C29.1523 39.1616 29.0073 39.1616 28.7172 39.3067C28.2821 39.4517 28.2821 39.8869 28.4271 40.1769V40.322C28.4271 40.322 28.4271 40.322 28.2821 40.322C28.2821 40.0319 28.2821 39.7418 28.2821 39.3067C27.992 39.4517 27.5569 39.5968 27.2668 39.7418C27.1217 39.7418 27.1217 39.7418 26.9767 39.7418C26.8316 39.7418 26.8316 39.7418 26.6866 39.7418ZM27.7019 42.9327C27.7019 42.9327 27.5569 43.0778 27.7019 42.9327C27.5569 43.0778 27.5569 43.0778 27.7019 42.9327ZM29.2974 41.6274C29.1523 41.7724 29.1523 41.7724 29.0073 41.9174C29.1523 41.7724 29.1523 41.7724 29.2974 41.6274Z" fill="#EAD039"/>
<path d="M22.9157 44.6734C22.9157 44.5284 23.0607 44.3833 23.0607 44.3833C23.0607 44.3833 23.0607 44.2383 23.0607 44.0933C22.9157 44.0933 22.9157 44.2383 22.7706 44.2383C22.7706 44.3833 22.6256 44.3833 22.9157 44.6734Z" fill="#EAD039"/>
<path d="M23.3517 48.2993C23.0616 48.4444 22.9165 48.5894 22.7715 48.7344C23.3517 48.7344 23.4967 48.7344 23.3517 48.2993Z" fill="#EAD039"/>
<path d="M39.452 34.5198C39.452 34.6649 39.452 34.6649 39.5971 34.8099C39.7421 34.5198 39.7421 34.0847 39.8872 33.7946C40.0322 33.5045 40.1772 33.3595 39.8872 32.9244L39.7421 33.0694V33.2144C39.1619 33.0694 38.8719 33.6496 38.5818 33.7946C38.2917 33.9397 38.0016 34.2297 37.7115 34.3748C37.4214 34.6649 37.1313 34.8099 36.8413 35.1C36.6962 35.245 36.5512 35.245 36.4061 35.245C36.4061 35.1 36.4061 35.1 36.4061 34.955C36.5512 34.955 36.6962 34.8099 36.6962 34.8099C36.8413 34.6649 36.9863 34.5198 37.1313 34.5198C37.2764 34.5198 37.2764 34.3748 37.4214 34.2297C37.5665 34.0847 37.5665 34.0847 37.7115 34.0847C37.8566 33.9397 38.1466 33.9397 38.1466 33.7946C38.2917 33.5045 38.5818 33.5045 38.7268 33.2144C38.8719 33.0694 39.0169 32.9244 39.307 32.9244C39.307 32.9244 39.307 32.9244 39.307 32.7793C39.1619 32.7793 38.8719 32.6343 38.7268 32.6343C38.2917 32.6343 37.8566 32.6343 37.4214 32.7793C36.8413 32.9244 36.2611 32.9244 35.826 33.0694C35.2458 33.2144 34.8107 33.5045 34.3755 33.7946C34.2305 33.9397 34.0855 34.0847 33.9404 34.0847C33.5053 34.2297 33.3602 34.3748 33.2152 34.8099V34.955C32.7801 35.245 32.49 35.8252 32.1999 36.2603C32.0549 36.5504 31.7648 36.8405 31.4747 36.9855C31.4747 37.1306 31.3297 37.1306 31.3297 37.2756C31.3297 37.5657 31.0396 37.8558 31.1846 38.1459V38.2909C31.0396 38.581 30.8945 38.7261 30.8945 38.8711C31.0396 39.0161 31.1846 39.0161 31.3297 39.0161C31.7648 39.1612 32.0549 39.0161 32.49 38.7261H32.635C33.0702 38.7261 33.5053 38.436 33.9404 38.2909C34.0855 38.1459 34.3755 38.1459 34.5206 38.0008C34.9557 37.8558 35.3908 37.7108 35.826 37.5657C36.1161 37.4207 36.4061 37.2756 36.6962 37.1306C36.8413 37.1306 36.9863 37.1306 36.9863 36.9855C37.4214 36.8405 37.8566 36.6955 38.2917 36.4054C38.7268 36.1153 39.1619 35.6802 39.452 35.1V34.955C39.452 34.955 39.452 34.955 39.452 34.8099C39.307 34.955 39.307 34.955 39.1619 35.1C39.1619 34.955 39.0169 34.8099 39.1619 34.6649C39.307 34.3748 39.452 34.0847 39.5971 33.7946C39.5971 33.7946 39.5971 33.7946 39.7421 33.7946C39.7421 34.0847 39.5971 34.3748 39.452 34.5198C39.5971 34.5198 39.5971 34.5198 39.452 34.5198Z" fill="#EAD039"/>
<path d="M53.8103 34.3752C53.6653 34.3752 53.5202 34.2301 53.3752 34.0851C53.5202 34.0851 53.6653 33.94 53.8103 33.94C53.6653 33.795 53.5202 33.795 53.2301 33.6499C53.2301 33.6499 53.2301 33.5049 53.2301 33.3599C53.0851 33.5049 52.9401 33.6499 52.795 33.795C52.65 33.795 52.3599 33.795 52.2148 33.795C52.3599 34.0851 52.5049 34.0851 52.795 33.94C52.795 33.94 52.795 33.94 52.795 34.0851C52.65 34.2301 52.65 34.2301 52.5049 34.3752C52.65 34.5202 52.9401 34.8103 53.0851 34.9553C53.2301 35.1004 53.3752 35.3905 53.3752 35.5355C53.5202 35.6805 53.6653 35.9706 53.8103 36.2607C53.9553 35.6805 54.1004 34.9553 54.2454 34.3752C54.2454 34.2301 54.1004 34.2301 53.8103 34.3752Z" fill="#EAD039"/>
<path d="M23.3516 47.1392C23.3516 47.1392 23.4966 47.1392 23.6417 46.9942C23.6417 46.9942 23.7867 46.8491 23.6417 46.7041C23.4966 46.7041 23.3516 46.8491 23.3516 46.8491C23.2065 46.9942 23.3516 47.1392 23.3516 47.1392Z" fill="#EAD039"/>
<path d="M51.2005 26.9778C51.3455 26.6877 51.3455 26.3976 51.3455 26.1075C51.3455 25.8175 51.4906 25.6724 51.4906 25.3823C51.4906 25.2373 51.6356 25.0922 51.3455 25.0922C51.2005 25.0922 51.2005 24.8022 51.2005 24.6571C51.2005 24.367 51.3455 24.222 51.3455 23.9319C51.3455 23.9319 51.2005 23.7869 51.0554 23.6418C51.0554 24.5121 51.2005 25.2373 51.0554 25.8175C50.9104 26.5427 50.9104 27.2679 50.4753 27.848C50.4753 27.703 50.4753 27.703 50.4753 27.558C50.6203 27.2679 50.6203 26.8327 50.7654 26.5427C50.7654 26.5427 50.7654 26.3976 50.7654 26.2526C50.6203 25.9625 50.6203 25.6724 50.4753 25.5274C50.4753 25.5274 50.4753 25.3823 50.4753 25.2373C50.7654 25.0922 50.7654 24.8022 50.9104 24.5121C51.0554 24.222 50.9104 24.0769 50.7654 23.9319C50.7654 24.0769 50.7654 24.0769 50.7654 24.0769C50.7654 24.367 50.6203 24.5121 50.3302 24.367C50.1852 24.367 50.0402 24.5121 50.0402 24.5121C49.7501 24.8022 49.46 25.0922 49.3149 25.3823C49.3149 25.5274 49.1699 25.5274 49.1699 25.6724C49.1699 25.6724 49.1699 25.6724 49.0249 25.6724C48.8798 25.8175 48.7348 25.9625 48.5897 26.1075C48.4447 26.3976 48.4447 26.6877 48.1546 26.8328C48.0096 26.9778 47.8645 27.1228 47.7195 27.4129C47.5744 27.1228 47.7195 26.9778 47.8645 26.8328C48.1546 26.6877 48.2996 26.6877 48.2996 26.3976C48.4447 26.3976 48.4447 26.2526 48.5897 25.9625C48.7348 25.6724 48.8798 25.3823 49.1699 25.0922C49.3149 24.9472 49.605 24.8022 49.7501 24.5121C49.8951 24.222 50.1852 24.0769 50.3302 23.7869C50.4753 23.6418 50.6203 23.4968 50.7654 23.2067C50.6203 22.9166 50.4753 23.0617 50.3302 23.0617C50.1852 23.0617 50.0402 23.2067 50.0402 23.2067C49.3149 23.3517 48.5897 23.6418 47.8645 24.0769C47.2843 24.367 46.7042 24.6571 46.124 24.9472C45.979 24.9472 45.8339 25.0922 45.8339 25.2373C45.979 25.2373 45.979 25.0922 46.124 25.0922C46.7042 24.8022 47.1393 24.6571 47.7195 24.5121C47.7195 24.5121 47.7195 24.5121 47.7195 24.6571C47.4294 24.8022 47.1393 24.9472 46.8492 25.0922C46.9943 25.2373 46.9943 25.2373 47.1393 25.2373C46.9943 25.2373 46.9943 25.2373 46.8492 25.2373C46.7042 25.2373 46.7042 25.0922 46.5591 25.0922C46.5591 25.0922 46.5591 25.0922 46.5591 25.2373C46.5591 25.2373 46.5591 25.3823 46.7042 25.3823C46.4141 25.5274 46.2691 25.8175 46.124 25.9625C45.8339 25.8175 45.5438 25.8175 45.2538 26.1075C45.1087 26.2526 44.9637 26.2526 44.8186 26.3976C44.6736 26.5427 44.6736 26.6877 44.6736 26.8328C44.6736 26.8328 44.6736 26.8328 44.8186 26.9778C44.6736 26.9778 44.5285 26.9778 44.3835 26.9778L44.2385 27.1228C44.3835 27.1228 44.3835 27.1228 44.3835 27.1228C44.3835 27.1228 44.3835 27.1228 44.3835 27.2679C44.2385 27.2679 44.2385 27.2679 44.0934 27.4129C43.9484 27.558 43.9484 27.703 43.8033 27.848C43.5133 28.1381 43.3682 28.4282 43.5133 28.8633C43.5133 28.8633 43.5133 29.0084 43.3682 29.1534C43.0781 29.4435 43.0781 29.7336 43.0781 30.0237C43.0781 30.1687 43.0781 30.3138 43.0781 30.4588C43.0781 30.6038 43.0781 30.7489 43.0781 30.8939C43.0781 31.184 43.0781 31.3291 43.0781 31.6191C43.0781 31.7642 43.0781 31.7642 43.0781 31.9092C43.2232 32.0543 43.2232 32.3444 43.0781 32.4894C43.0781 32.7795 43.0781 32.9245 43.2232 33.2146C43.2232 33.2146 43.3682 33.3597 43.3682 33.2146C43.5133 33.2146 43.8033 33.0696 43.9484 32.9245C44.0934 32.7795 44.3835 32.7795 44.5285 32.6344C44.6736 32.4894 44.8186 32.3444 45.1087 32.3444C45.2538 32.1993 45.5438 32.0543 45.6889 32.0543C45.8339 31.9092 45.979 31.9092 46.124 31.7642C46.2691 31.7642 46.2691 31.7642 46.4141 31.6191C46.5591 31.6191 46.7042 31.4741 46.7042 31.4741C46.8492 31.4741 46.8492 31.3291 46.9943 31.184C46.9943 31.184 46.9943 31.039 46.9943 30.8939C47.4294 31.039 47.8645 30.7489 48.1546 30.4588C48.0096 30.4588 47.8645 30.4588 47.7195 30.4588C47.7195 30.4588 47.7195 30.4588 47.7195 30.3138C47.8645 30.3138 48.1546 30.3138 48.4447 30.3138C48.4447 30.3138 48.4447 30.1687 48.2996 30.1687C48.5897 30.1687 48.7348 30.1687 48.8798 30.1687C48.7348 29.4435 49.3149 29.5886 49.605 29.5886C49.605 29.4435 49.605 29.4435 49.605 29.2985C49.7501 29.2985 49.7501 29.2985 49.8951 29.2985C50.3302 29.0084 49.8951 28.5733 50.0402 28.2832C50.1852 28.4282 50.1852 28.5733 50.3302 28.8633C50.4753 28.7183 50.7654 28.5733 51.0554 28.4282C50.6203 28.1381 50.7654 27.9931 50.9104 27.703C51.0554 27.4129 51.2005 27.2679 51.2005 26.9778Z" fill="#EAD039"/>
<path d="M32.9248 54.246C32.9248 54.1009 32.9248 53.9559 32.9248 53.8109C32.9248 53.6658 32.9248 53.5208 32.9248 53.3757C32.9248 53.0856 32.7798 52.7956 32.7798 52.3604C32.7798 52.0703 32.6347 51.9253 32.6347 51.6352C32.6347 51.4902 32.4897 51.4902 32.6347 51.3451C32.6347 51.0551 32.4897 50.765 32.3447 50.4749C32.3447 50.3298 32.3447 50.1848 32.1996 50.0398C32.1996 49.8947 32.0546 49.8947 31.9095 49.7497C32.1996 49.7497 32.3447 49.7497 32.6347 49.7497C32.1996 49.6046 31.6194 49.3145 31.1843 49.1695C30.8942 49.1695 30.6042 48.8794 30.3141 48.7344C30.169 48.7344 30.024 48.7344 29.8789 48.8794C30.024 48.8794 30.169 48.8794 30.4591 48.8794C30.4591 48.8794 30.4591 49.0245 30.3141 49.1695C30.169 49.1695 30.024 49.3145 30.024 49.1695C29.8789 49.1695 29.8789 49.0245 29.7339 49.1695C29.5889 49.3145 29.5889 49.4596 29.7339 49.6046C29.7339 49.6046 29.7339 49.6046 29.8789 49.6046C29.7339 49.7497 29.5889 49.8947 29.4438 49.8947C29.2988 49.8947 29.2988 49.8947 29.1537 49.8947C29.0087 49.7497 28.8636 49.7497 28.5736 49.6046C28.8636 49.4596 29.1537 49.3145 29.4438 49.1695C29.2988 49.0245 29.2988 49.0245 29.1537 49.0245C29.0087 49.1695 28.8636 49.3145 28.7186 49.0245C28.7186 49.1695 28.7186 49.1695 28.7186 49.1695C28.4285 49.1695 28.1384 49.1695 27.8484 49.3145C27.9934 49.4596 27.9934 49.4596 28.1384 49.6046C27.9934 49.6046 27.8484 49.7497 27.7033 49.7497C27.5583 49.7497 27.4132 49.6046 27.4132 49.3145C27.5583 49.3145 27.7033 49.3145 27.9934 49.1695C27.8483 49.1695 27.8484 49.0245 27.7033 49.0245C27.5583 49.0245 27.4132 49.0245 27.4132 49.0245C27.2682 49.1695 27.2682 49.3145 26.9781 49.1695V49.3145C27.1231 49.4596 27.2682 49.6046 27.4132 49.7497L27.5583 49.8947C27.7033 50.3298 27.9934 50.765 28.2835 51.0551L28.4285 51.2001C28.4285 51.3451 28.4285 51.4902 28.5736 51.6352C28.2835 51.0551 27.8483 50.4749 27.4132 49.8947V50.0398C27.4132 50.0398 27.2682 50.0398 27.2682 50.1848C27.2682 50.4749 27.1231 50.6199 27.1231 50.91C27.1231 51.3451 26.8331 51.6352 26.688 52.0704C26.688 52.2154 26.543 52.3604 26.543 52.5055C26.688 52.5055 26.688 52.5055 26.8331 52.5055C26.8331 52.6505 26.8331 52.6505 26.8331 52.7956C26.8331 52.9406 26.688 53.0856 26.9781 53.0856V53.2307C26.8331 53.3757 26.8331 53.3757 26.9781 53.5208C27.1231 53.6658 27.1231 53.8109 27.1231 53.9559C27.1231 54.246 27.1231 54.391 27.1231 54.6811C29.2988 54.9712 31.6194 54.8261 33.9401 54.5361C33.0699 54.5361 33.0699 54.391 32.9248 54.246ZM28.8636 52.0704C29.0087 52.2154 29.1537 52.3604 29.1537 52.6505C29.0087 52.3604 28.8636 52.0704 28.7186 51.7803C28.7186 51.9253 28.8636 51.9253 28.8636 52.0704ZM29.7339 53.6658C29.5889 53.3757 29.4438 53.0856 29.1537 52.7956C29.1537 52.7956 29.1537 52.7956 29.2988 52.7956C29.4438 53.0856 29.5889 53.3757 29.8789 53.5208L29.7339 53.6658Z" fill="#EAD039"/>
<path d="M24.5113 43.6577C24.3663 43.5127 24.3663 43.5127 24.2212 43.5127C24.2212 43.5127 24.0762 43.5127 24.0762 43.6577C24.2212 43.6577 24.2212 43.6577 24.2212 43.8028C24.3663 43.6577 24.3663 43.6577 24.5113 43.6577Z" fill="#EAD039"/>
<path d="M37.7113 47.2842C37.7113 47.2842 37.7113 47.1392 37.7113 46.9941C37.2762 47.1392 36.9861 47.1392 36.696 47.2842C36.551 47.2842 36.4059 47.5743 36.2609 47.5743C35.8258 47.7193 35.5357 48.0094 35.3906 48.4446C35.5357 48.5896 35.6807 48.4446 35.8258 48.4446C36.1158 48.2995 36.2609 48.1545 36.551 48.0094C37.1311 47.5743 37.4212 47.4293 37.7113 47.2842Z" fill="#EAD039"/>
<path d="M22.6266 36.8408C22.3365 36.9859 21.9014 36.9859 21.6113 37.1309C21.6113 37.1309 21.6113 37.1309 21.6113 37.2759C22.3365 37.566 22.9167 37.2759 23.6419 37.1309C23.3518 37.1309 23.0618 37.1309 22.9167 37.1309C22.7717 36.9859 22.6266 36.8408 22.6266 36.8408Z" fill="#EAD039"/>
<path d="M21.9002 39.1618C22.0452 39.0167 22.3353 39.0167 22.4803 39.0167C22.6254 38.7267 22.9154 38.5816 23.2055 38.5816C23.3506 38.4366 23.4956 38.2915 23.7857 38.4366C23.7857 38.4366 23.9307 38.4366 24.0758 38.4366C24.0758 38.2915 23.9307 38.2915 23.9307 38.2915L23.7857 38.1465C23.6407 38.1465 23.6407 38.1465 23.4956 38.1465C23.2055 38.1465 22.7704 38.1465 22.4803 38.1465C22.0452 38.1465 21.6101 38.2915 21.1749 38.4366C21.0299 38.4366 20.7398 38.5816 20.5948 38.5816C20.4497 38.5816 20.4497 38.7267 20.3047 38.7267C20.3047 38.7267 20.3047 38.7267 20.3047 38.8717C20.4497 38.8717 20.5948 38.8717 20.7398 38.7267C20.8849 38.5816 21.1749 38.7267 21.1749 38.8717C21.32 39.0167 21.32 39.0167 21.32 39.0167L21.1749 39.1618C21.32 39.1618 21.32 39.3068 21.465 39.3068C21.6101 39.3068 21.6101 39.3068 21.9002 39.1618C21.9002 39.3068 21.9002 39.3068 21.9002 39.1618Z" fill="#EAD039"/>
<path d="M18.7109 40.177C18.856 40.3221 19.001 40.4671 19.1461 40.3221C19.2911 40.3221 19.4361 40.177 19.7262 40.177C19.4361 39.887 18.856 39.887 18.7109 40.177Z" fill="#EAD039"/>
<path d="M20.3048 40.1768C20.0147 39.8867 19.8697 40.0318 19.7246 40.1768C19.8697 40.3218 20.0147 40.4669 20.1597 40.6119C20.1597 40.1768 20.4498 40.1768 20.7399 40.3218C21.03 40.3218 21.4651 40.3218 21.7552 40.0318C21.4651 39.7417 20.5949 39.7417 20.3048 40.1768Z" fill="#EAD039"/>
<path d="M24.2212 34.23C24.0762 34.375 24.0762 34.5201 24.0762 34.8101C24.3663 34.6651 24.5113 34.5201 24.2212 34.23Z" fill="#EAD039"/>
<path d="M24.2207 36.2608C24.5108 36.4058 24.5108 36.4058 24.6558 36.4058C24.5108 36.4058 24.5108 36.2608 24.2207 36.2608C24.3657 36.1157 24.2207 36.2608 24.2207 36.2608Z" fill="#EAD039"/>
<path d="M16.9689 34.6656C17.114 34.5205 17.114 34.5205 17.114 34.5205C17.114 34.6656 17.114 34.9556 17.114 35.1007C17.404 34.9556 17.5491 35.1007 17.6941 35.3908L17.8392 35.5358C17.9842 35.5358 18.1293 35.6809 18.1293 35.6809C18.4193 35.9709 18.8545 35.9709 19.1446 35.9709C19.2896 35.9709 19.2896 35.9709 19.4346 35.9709H19.5797C19.8698 35.8259 20.0148 35.8259 20.3049 35.9709C20.4499 35.9709 20.4499 36.116 20.595 36.116C20.595 36.116 20.74 35.9709 20.74 35.8259C20.74 35.9709 20.74 35.9709 20.74 36.116C20.8851 35.9709 21.0301 35.9709 21.0301 35.8259C21.0301 35.8259 21.0301 35.9709 21.1751 35.9709C21.0301 35.9709 21.0301 36.116 20.8851 36.116C20.74 36.116 20.595 36.261 20.4499 36.261H20.3049C20.1599 36.261 20.1599 36.116 20.0148 36.116C19.7247 36.116 19.5797 36.261 19.2896 36.261C19.2896 36.261 19.1446 36.5511 19.2896 36.5511C19.4346 36.6962 19.5797 36.8412 19.7247 36.9862C19.8698 37.1313 19.8698 37.1313 20.0148 37.2763C20.1599 37.1313 20.1598 36.8412 20.1598 36.6962C20.3049 36.6962 20.3049 36.8412 20.4499 36.8412C20.595 36.8412 20.74 36.6962 20.595 36.5511C21.0301 36.4061 21.4652 36.261 21.9004 35.9709C21.9004 35.9709 21.9004 36.116 22.0454 36.261C22.1904 35.9709 22.3355 35.8259 22.3355 35.5358C22.4805 35.5358 22.4805 35.3908 22.6256 35.5358C22.9157 35.6809 23.2057 35.5358 23.3508 35.3908H23.4958C23.6409 35.2457 23.6409 35.2457 23.7859 35.1007C23.6409 34.9556 23.4958 34.8106 23.3508 34.5205V34.2304C23.4958 34.0854 23.6409 33.9403 23.6409 33.7953C23.6409 33.7953 23.6409 33.6503 23.7859 33.6503C23.4958 33.5052 23.3508 33.3602 23.0607 33.2151C22.9157 33.0701 22.7706 32.9251 22.6256 32.635C22.4805 32.4899 22.4805 32.4899 22.3355 32.3449C22.3355 32.1998 22.3355 32.0548 22.1904 32.0548C22.1904 32.0548 22.1904 32.0548 22.3355 32.0548L22.1904 31.9098C22.0454 31.9098 22.0454 31.7647 22.0454 31.6197C22.0454 31.4746 22.0454 31.4746 22.0454 31.3296C21.9004 31.3296 21.7553 31.3296 21.7553 31.3296C21.4652 31.4746 21.3202 31.3296 21.0301 31.4746C20.8851 31.4746 20.74 31.6197 20.4499 31.6197C20.3049 31.6197 20.1599 31.7647 20.0148 31.7647C19.8698 31.7647 19.7247 31.7647 19.7247 31.9098C19.7247 32.0548 19.8698 32.0548 20.0148 32.1998C20.0148 32.3449 20.3049 32.635 19.8698 32.78C19.7247 32.4899 19.4346 32.1998 19.2896 31.9098C18.9995 32.1998 18.7094 32.4899 18.2743 32.4899C18.1293 32.4899 17.8392 32.78 17.6941 32.78C17.259 32.9251 16.8239 33.2151 16.3888 33.3602C16.0987 33.5052 16.0987 33.5052 16.2437 33.7953C16.8239 34.2304 16.8239 34.3755 16.9689 34.6656Z" fill="#EAD039"/>
<path d="M24.0763 35.8258C24.2213 35.8258 24.3663 35.8258 24.3663 35.6807C24.3663 35.6807 24.3663 35.5357 24.3663 35.3906C24.0763 35.6807 23.9312 35.5357 23.9312 35.3906C23.7862 35.3906 23.6411 35.5357 23.4961 35.5357C23.4961 35.6807 23.6411 35.6807 23.6411 35.6807C23.7862 35.6807 23.9312 35.8258 24.0763 35.8258Z" fill="#EAD039"/>
<path d="M13.9231 48.5895C13.488 48.5895 13.1979 48.4444 12.9078 48.7345C12.7627 48.8796 12.6177 48.8796 12.4727 49.0246L12.6177 49.1697C12.7627 49.0246 12.9078 49.0246 13.1979 49.0246C13.488 48.8796 13.778 48.8796 14.0681 48.8796C14.2132 48.8796 14.2132 48.8796 14.3582 48.7345C14.0681 48.5895 13.9231 48.5895 13.9231 48.5895Z" fill="#EAD039"/>
<path d="M8.847 44.2381C8.99204 44.2381 8.99204 44.2381 9.13708 44.2381C9.28213 43.948 9.57221 44.093 9.71725 44.093C9.86229 44.093 10.0073 44.093 10.1524 44.093C10.2974 44.093 10.4425 44.093 10.7325 43.948C11.1677 43.948 11.4578 43.803 11.8929 43.803C12.183 43.6579 12.4731 43.6579 12.7631 43.5129H12.9082C12.9082 43.5129 13.0532 43.3678 13.3433 43.2228C13.1983 43.2228 12.9082 43.2228 12.7631 43.2228C12.328 43.2228 11.8929 43.0777 11.4578 43.0777C11.0226 42.9327 10.5875 42.7877 10.0073 42.6426C9.71725 42.6426 9.42717 42.4976 9.13708 42.4976C8.41187 42.3525 7.54162 42.4976 6.81641 42.6426C7.25153 43.2228 7.54162 43.803 8.12179 44.3831C8.41187 44.3831 8.55691 44.2381 8.847 44.2381Z" fill="#EAD039"/>
<path d="M16.0988 44.0932C16.2438 43.9482 16.2438 43.9482 16.3889 43.9482C16.5339 43.8031 16.6789 43.6581 16.5339 43.513C16.5339 43.368 16.6789 43.0779 16.969 42.9329C17.2591 42.7878 17.5492 42.6428 17.9843 42.4977C18.2744 42.3527 18.5645 42.3527 18.7095 42.2076C18.7095 42.2076 18.7095 42.2076 18.7095 42.3527C18.5645 42.6428 18.2744 42.7878 18.1294 43.0779C17.9843 43.2229 17.8393 43.368 17.5492 43.368C17.5492 43.368 17.5492 43.368 17.4041 43.368C17.4041 43.368 17.2591 43.513 16.969 43.513L16.824 43.6581C16.824 43.8031 16.824 43.9482 16.6789 44.0932C16.6789 44.0932 16.6789 44.2382 16.5339 44.2382H16.6789C17.1141 44.0932 17.4041 44.0932 17.8393 43.8031C17.9843 43.6581 18.1294 43.6581 18.2744 43.6581C18.7095 43.513 19.2897 43.368 19.7248 43.0779C20.16 42.9329 20.45 42.7878 20.8852 42.6428C21.1752 42.4977 21.4653 42.3527 21.9005 42.2076C21.9005 42.2076 21.9005 42.2076 22.0455 42.2076C22.3356 42.2076 22.6257 41.9176 22.7707 41.7725C22.9158 41.6275 23.2058 41.6275 23.3509 41.6275C23.641 41.4824 23.9311 41.3374 24.0761 41.0473C24.2211 40.7572 24.5112 40.4671 24.8013 40.3221C24.9463 40.032 25.0914 39.887 25.3815 39.5969C25.2364 39.1618 25.6716 39.0167 25.8166 38.7266C25.8166 38.7266 25.9616 38.5816 26.1067 38.5816C26.3968 38.5816 26.3968 38.4365 26.5418 38.2915C26.2517 38.2915 26.1067 38.4365 25.8166 38.4365C25.6716 38.5816 25.3815 38.5816 25.2364 38.7266C25.2364 38.7266 25.0914 38.7266 24.9463 38.7266C24.8013 38.8717 24.6563 39.0167 24.5112 39.0167C24.3662 39.1618 24.2211 39.3068 24.0761 39.3068H23.9311C23.641 39.4518 23.3509 39.7419 23.0608 39.887C23.0608 39.887 23.0608 39.887 22.9158 39.887C22.3356 39.887 22.0455 40.1771 21.6104 40.4671C21.4653 40.4671 21.3203 40.6122 21.1752 40.6122C20.8852 40.6122 20.5951 40.6122 20.305 40.9023H20.16C20.0149 40.7572 19.8699 40.9023 19.5798 40.9023C19.2897 40.9023 19.1447 40.9023 18.8546 40.9023C18.4194 40.9023 18.1294 40.9023 17.6942 40.9023C17.5492 40.9023 17.4041 41.0473 17.1141 41.1923C16.969 41.1923 16.969 41.3374 16.824 41.4824C16.969 41.4824 16.969 41.4824 17.1141 41.4824C16.969 41.4824 16.969 41.6275 16.969 41.6275C16.6789 41.6275 16.3889 41.9176 16.2438 42.0626C16.0988 42.2076 16.0988 42.2076 16.2438 42.4977C16.2438 42.6428 16.2438 42.7878 16.2438 42.7878C16.2438 42.9329 16.0988 43.2229 16.2438 43.513C16.2438 43.513 16.0988 43.6581 16.0988 43.8031C15.8087 43.9482 15.6636 44.0932 15.3736 44.2382C15.3736 44.2382 15.3736 44.3833 15.2285 44.5283C15.5186 44.2382 15.9537 44.2382 16.3889 44.0932C16.2438 44.0932 16.2438 44.0932 16.0988 44.0932Z" fill="#EAD039"/>
<path d="M26.1075 38.1465C25.9625 38.2915 25.6724 38.2915 25.5273 38.4366C25.6724 38.4366 25.6724 38.4366 25.8174 38.4366C25.9625 38.2915 25.9625 38.2915 26.1075 38.2915C26.1075 38.2915 26.1075 38.2915 26.1075 38.1465Z" fill="#EAD039"/>
<path d="M24.9473 38.7265C24.9473 38.5814 25.0923 38.5814 24.9473 38.7265C24.9473 38.5814 24.9473 38.5814 24.9473 38.7265Z" fill="#EAD039"/>
<path d="M41.0467 50.1845C40.7566 50.0394 40.3215 49.7494 40.0314 49.7494C39.5962 49.6043 39.3062 49.1692 38.726 49.4593H38.581C38.4359 49.3142 38.2909 49.1692 38.1458 49.0242C38.2909 48.8791 38.2909 48.7341 38.4359 48.589C38.4359 48.444 38.581 48.2989 38.581 48.0089C38.581 48.0089 38.581 47.8638 38.726 47.8638C38.726 47.8638 38.871 47.7188 38.726 47.7188L38.581 47.5737C38.4359 47.5737 38.2909 47.5737 38.2909 47.7188C37.8557 48.0089 37.2756 48.2989 36.8404 48.7341C36.5504 48.8791 36.4053 49.1692 36.1152 49.4593C36.2603 49.4593 36.4053 49.4593 36.5504 49.4593C36.8404 49.4593 36.9855 49.6043 36.8404 50.0394C36.6954 50.1845 36.6954 50.3295 36.8404 50.4746C37.2756 50.3295 37.4206 50.1845 37.7107 49.8944C37.7107 49.7494 37.8557 49.7494 37.8557 49.6043C38.0008 49.4593 38.1458 49.4593 38.1458 49.4593C38.2909 49.4593 38.2909 49.6043 38.2909 49.7494C38.4359 49.8944 38.4359 50.0395 38.581 50.3295C39.0161 50.1845 39.4512 50.3295 39.8863 50.4746C40.6115 50.7647 41.1917 51.1998 41.7719 51.6349C41.9169 51.78 41.9169 51.78 42.062 51.925L42.207 51.78C41.9169 51.4899 41.4818 51.1998 41.1917 50.9097C41.1917 50.9097 41.1917 50.9097 41.1917 50.7647C41.4818 50.9097 41.7719 51.0547 42.062 51.1998C42.207 51.3448 42.3521 51.4899 42.4971 51.6349C42.6421 51.6349 42.6421 51.4899 42.7872 51.4899C42.207 50.6196 41.7719 50.3295 41.0467 50.1845Z" fill="#EAD039"/>
<path d="M23.2071 32.1993C23.4972 32.4894 23.6422 32.6344 23.6422 32.7795V32.9245C24.0774 33.3596 24.2224 33.9398 24.8026 34.3749C25.0927 34.665 25.3828 34.9551 25.6728 35.2452C25.3828 34.665 24.9476 34.0849 24.6575 33.5047C24.9476 33.5047 24.9476 33.6497 25.0927 33.7948L25.2377 33.9398C25.2377 33.7948 25.3828 33.7948 25.3828 33.6497C25.3828 33.3596 25.2377 33.2146 25.0927 32.9245V32.7795C25.2377 32.3444 24.8026 32.3444 24.6575 32.1993C24.3675 31.9092 23.9323 31.7642 23.6422 31.6191C23.4972 31.6191 23.3522 31.6191 23.2071 31.6191C23.0621 31.6191 22.917 31.6191 22.772 31.6191C22.772 31.6191 22.627 31.6191 22.627 31.7642C22.627 31.7642 22.627 31.9092 22.627 32.0543C23.0621 31.9092 23.2071 32.0543 23.2071 32.1993Z" fill="#EAD039"/>
<path d="M12.9079 45.6882C13.0529 45.5431 13.198 45.3981 13.198 45.253H13.343C13.4881 45.108 13.6331 44.963 13.6331 44.6729V44.5278C13.7782 44.5278 13.7782 44.3828 13.7782 44.2377C13.7782 44.0927 13.7782 44.0927 13.7782 43.9477C14.0682 43.8026 14.0682 43.6576 14.0682 43.3675C13.7782 43.2224 13.6331 43.6576 13.343 43.6576C13.0529 43.5125 12.9079 43.9477 12.6178 44.0927L12.4728 43.9477H12.3277C12.1827 43.9477 12.1827 44.0927 12.0377 44.0927C11.7476 44.0927 11.4575 44.2377 11.3124 44.5278C11.3124 44.5278 11.3124 44.5278 11.1674 44.6729C11.1674 44.5278 11.1674 44.3828 11.1674 44.3828C10.8773 44.3828 10.7323 44.3828 10.4422 44.3828C10.2971 44.3828 10.2971 44.5278 10.1521 44.5278C10.0071 44.6729 9.86202 44.2377 9.57194 44.5278C9.13681 44.3828 8.99177 44.6729 8.84672 44.963C8.84672 44.8179 8.70168 44.963 8.55664 45.108C8.99177 45.6882 9.57194 46.4134 10.1521 46.9936H10.2971H10.4422C10.8773 46.8485 11.3124 46.7035 11.6025 46.5584C12.0377 46.4134 12.3277 46.4134 12.4728 46.1233C12.6178 45.9783 12.7629 45.6882 12.9079 45.6882Z" fill="#EAD039"/>
<path d="M23.7858 36.6958C23.4957 36.6958 23.3506 36.8408 23.0605 36.8408C23.2056 37.1309 23.6407 36.9859 23.7858 36.6958Z" fill="#EAD039"/>
<path d="M39.5957 38.1465C39.5957 38.2915 39.7407 38.2915 39.7407 38.4366C39.7407 38.2915 39.7407 38.1465 39.7407 38.0015C39.5957 38.0015 39.5957 38.1465 39.5957 38.1465Z" fill="#EAD039"/>
<path d="M41.1924 39.7417C41.0474 39.7417 41.0474 39.7417 40.9023 39.5967C41.0474 39.8868 41.0474 40.0318 41.1924 40.1769C41.1924 40.0318 41.1924 39.8868 41.1924 39.7417Z" fill="#EAD039"/>
<path d="M36.9854 37.7109C35.8251 38.1461 34.6648 38.5812 33.3594 39.0163C33.7945 39.0163 34.2296 39.0163 34.5197 38.7262C34.6648 38.5812 34.9548 38.5812 35.0999 38.5812C35.535 38.5812 35.8251 38.4361 36.2602 38.4361V38.2911C36.1152 38.2911 35.8251 38.2911 35.6801 38.4361C35.6801 38.4361 35.6801 38.4361 35.6801 38.2911C36.1152 38.1461 36.5503 38.001 36.9854 37.7109Z" fill="#EAD039"/>
<path d="M37.5662 50.475C37.4211 50.7651 37.4211 51.0552 37.2761 51.2002C37.131 51.3453 36.986 51.4903 36.841 51.4903C36.5509 51.6354 36.2608 51.9255 35.9707 52.0705C35.9707 52.0705 35.9707 52.0705 35.9707 52.2155C36.1157 52.0705 36.4058 51.9255 36.5509 51.7804C36.5509 52.2155 36.6959 52.3606 36.6959 52.6507L36.841 52.5056C37.131 51.9255 37.5662 51.2003 37.8563 50.6201C37.8563 50.475 38.1463 50.475 38.1463 50.33C37.8563 50.0399 37.7112 50.185 37.5662 50.475Z" fill="#EAD039"/>
<path d="M49.4597 22.0467L49.3146 21.9017C49.1696 21.7566 49.1696 21.7566 49.0245 21.7566C48.8795 21.9017 48.7345 21.9017 48.5894 21.9017C48.4444 21.9017 48.2993 22.0467 48.1543 22.1918C48.4444 22.1918 48.7345 22.4818 49.0245 22.1918C49.1696 22.1918 49.1696 22.1918 49.4597 22.0467C49.6047 22.0467 50.0398 22.1918 50.3299 22.1918C50.475 22.1918 50.62 22.1918 50.62 22.0467C50.7651 21.9017 51.0551 21.9017 51.2002 22.0467C51.2002 21.9017 51.2002 21.9017 51.2002 21.7566C51.4903 21.9017 51.7804 22.0467 52.0704 21.7566H52.2155C52.5056 21.6116 52.9407 21.4665 53.2308 21.3215C53.3758 21.1765 53.6659 21.1765 53.8109 21.3215C53.3758 19.726 52.7956 18.2756 51.9254 16.8252C51.6353 16.8252 51.2002 16.9702 50.9101 16.9702C50.9101 17.1153 50.62 17.5504 50.62 17.6954C50.475 17.8405 50.3299 17.9855 50.1849 17.9855C50.3299 18.1306 50.7651 18.1306 50.475 18.5657C50.3299 18.8558 50.1849 18.5657 50.0398 18.5657C49.7498 19.0008 49.6047 19.436 49.3146 19.8711C49.4597 19.8711 49.6047 20.0161 49.7498 20.0161C49.6047 20.1612 49.6047 20.3062 49.4597 20.3062C49.3146 20.3062 49.3146 20.3062 49.1696 20.4513C49.1696 20.4513 49.1696 20.4513 49.1696 20.5963C49.3146 20.5963 49.6047 20.7413 49.7498 20.7413C49.6047 20.8864 49.6047 21.0314 49.4597 21.1765C49.6047 21.4665 49.8948 21.4665 50.1849 21.3215C50.1849 21.6116 50.3299 21.7566 50.62 21.7566C50.7651 21.7566 50.9101 21.7566 51.0551 21.7566C50.475 22.3368 49.8948 21.9017 49.4597 22.0467Z" fill="#EAD039"/>
<path d="M34.9547 49.7495C34.8096 49.7495 34.6646 49.8946 34.5195 50.0396C34.5195 50.0396 34.6646 50.0396 34.6646 50.1846C34.9547 50.0396 34.9547 50.0396 34.9547 49.7495Z" fill="#EAD039"/>
<path d="M34.5195 50.7646C34.6646 50.9097 34.6646 50.7646 34.5195 50.7646V50.7646Z" fill="#EAD039"/>
<path d="M34.375 50.7646C34.375 50.7646 34.375 50.9097 34.375 50.7646C34.52 50.7646 34.375 50.7646 34.375 50.7646Z" fill="#EAD039"/>
<path d="M34.6651 51.9255C34.375 51.6354 34.52 51.3453 34.375 50.9102C34.375 51.2002 34.375 51.3453 34.375 51.6354C34.375 51.7804 34.375 51.9255 34.52 51.9255C34.6651 52.2155 34.8101 52.5056 34.9552 52.7957L35.1002 52.9408C35.1002 52.7957 35.2453 52.7957 35.1002 52.6507C34.9552 52.3606 34.8101 52.2155 34.6651 51.9255Z" fill="#EAD039"/>
<path d="M25.0928 35.2456C24.9478 35.3906 24.8027 35.5357 24.8027 35.5357C24.9478 35.5357 25.0928 35.5357 25.3829 35.5357C25.2379 35.3906 25.2379 35.3906 25.0928 35.2456Z" fill="#EAD039"/>
<path d="M47.8639 22.0466C47.8639 21.9015 48.0089 21.9015 48.154 21.9015C48.299 21.6115 48.7341 21.4664 48.5891 21.0313C48.299 20.8863 47.8639 20.8863 47.4288 20.7412C47.4288 20.8863 47.4288 21.0313 47.5738 21.0313C47.4288 21.0313 47.4288 21.0313 47.2837 21.1763C47.4288 21.3214 47.2837 21.4664 47.1387 21.6115C47.4288 21.7565 47.5738 21.9015 47.8639 22.0466Z" fill="#EAD039"/>
<path d="M26.3966 35.8258C26.2515 35.6807 26.1065 35.5357 25.9614 35.2456C25.9614 35.2456 25.8164 35.2456 25.8164 35.3906C26.1065 35.6807 26.1065 35.8258 26.3966 35.8258Z" fill="#EAD039"/>
<path d="M25.3828 36.1158C25.5279 36.1158 25.6729 36.1158 25.8179 35.9707C25.6729 35.8257 25.5279 35.8257 25.3828 35.6807C25.3828 35.9707 25.3828 35.9707 25.3828 36.1158Z" fill="#EAD039"/>
<path d="M25.3828 36.5509C25.5279 36.5509 25.8179 36.5509 26.108 36.5509C26.108 36.5509 26.2531 36.5509 26.2531 36.4058C26.3981 36.4058 26.3981 36.2608 26.5431 36.4058C26.5431 36.4058 26.6882 36.4058 26.8332 36.4058C26.9783 36.4058 26.9783 36.4058 27.1233 36.2608C26.8332 36.1157 26.6882 36.1157 26.3981 36.1157C25.963 36.5508 25.6729 36.5509 25.3828 36.5509Z" fill="#EAD039"/>
<path d="M39.0153 26.1078C39.3054 25.9628 39.4504 25.9628 39.7405 26.1078C39.7405 26.1078 39.7405 26.2529 39.5955 26.2529C39.4504 26.3979 39.3054 26.543 39.3054 26.688C40.0306 26.543 40.6108 26.688 41.336 26.688C41.336 26.543 41.336 26.3979 41.336 26.2529C41.1909 26.2529 40.9008 26.3979 40.7558 26.3979C40.7558 26.3979 40.7558 26.3979 40.7558 26.2529C41.0459 26.1078 41.0459 25.8178 41.336 25.6727C41.481 25.6727 41.481 25.3826 41.6261 25.2376C41.481 25.2376 41.336 25.2376 41.1909 25.2376C41.336 25.2376 41.481 25.0925 41.6261 25.0925C41.9161 25.0925 42.0612 24.9475 42.0612 24.8025C42.0612 24.6574 42.2062 24.6574 42.3513 24.6574C42.4963 24.6574 42.7864 24.6574 42.9314 24.5124C43.3666 24.3673 43.6566 24.2223 43.9467 24.0773C44.0918 23.9322 44.3819 23.9322 44.5269 23.7872C44.6719 23.6421 44.817 23.6421 45.1071 23.4971H45.2521C45.6872 23.352 45.8323 23.207 46.2674 23.207C46.1224 23.352 45.9773 23.4971 45.6872 23.4971C45.1071 23.6421 44.6719 23.9322 44.0918 24.0773C43.9467 24.0773 43.8017 24.3673 43.8017 24.3673H43.6566C43.5116 24.3673 42.9314 24.5124 42.9314 24.6574C43.0765 24.6574 43.2215 24.6574 43.3666 24.6574C43.2215 25.2376 42.7864 25.2376 42.4963 25.5277C42.3513 25.8178 41.9161 26.1078 41.6261 26.3979C41.6261 26.3979 41.6261 26.3979 41.6261 26.543C41.9161 26.543 42.3513 26.543 42.6414 26.3979C43.0765 26.2529 43.5116 26.1078 43.9467 25.9628C44.0918 25.9628 44.2368 25.8178 44.3819 25.8178C44.817 25.6727 45.1071 25.3826 45.5422 25.2376C45.8323 25.0925 46.2674 24.8025 46.5575 24.6574C47.1377 24.3673 47.5728 23.9322 48.153 23.6421C48.5881 23.352 48.8782 23.207 49.3133 22.9169C49.4583 22.9169 49.6034 22.9169 49.7484 22.9169C49.7484 22.9169 49.7484 22.9169 49.7484 22.7719C49.6034 22.7719 49.4583 22.6268 49.3133 22.6268C48.7331 22.7719 48.153 22.7719 47.4277 22.9169C47.1377 23.062 46.8476 23.062 46.5575 23.062C46.7025 23.062 46.7025 22.9169 46.8476 22.9169H46.9926C47.1377 22.9169 47.4277 22.7719 47.5728 22.7719C47.8629 22.7719 47.8629 22.7719 47.7178 22.4818C47.7178 22.4818 47.7178 22.3367 47.7178 22.1917C47.5728 22.3367 47.2827 22.3367 47.1377 22.1917H46.9926C46.8476 21.7566 46.5575 22.0467 46.2674 21.9016C46.4124 21.7566 46.5575 21.6115 46.5575 21.6115C46.4124 21.6115 46.2674 21.6115 45.9773 21.6115C46.1224 21.3214 46.2674 20.8863 46.4124 20.5962C46.2674 20.3062 45.9773 20.3062 45.5422 20.3062C45.2521 20.3062 44.817 20.3062 44.5269 20.3062C44.2368 20.3062 43.9467 20.3062 43.8017 20.5962C43.8017 20.7413 43.6566 20.7413 43.5116 20.7413C43.2215 20.8863 42.9314 20.8863 42.7864 21.0314C42.6414 21.0314 42.6414 21.1764 42.6414 21.3214C42.6414 21.4665 42.4963 21.7566 42.2062 21.7566C41.7711 21.7566 41.6261 22.1917 41.481 22.4818L41.336 22.6268C41.1909 22.7719 40.9008 22.9169 40.7558 23.062C40.7558 23.062 40.7558 23.062 40.6108 23.207C40.4657 23.6421 40.1756 23.7872 39.8855 24.0773C39.7405 24.2223 39.7405 24.3673 39.5955 24.5124C39.3054 24.6574 39.0153 25.0925 38.7252 25.2376C38.4351 25.3826 38.4351 25.6727 38.2901 25.8178C38.2901 25.8178 38.2901 25.9628 38.2901 26.1078C38.145 26.1078 38.145 26.1078 38 26.2529C38.145 26.2529 38.145 26.3979 38.2901 26.3979C38.4351 26.3979 38.7252 26.3979 39.0153 26.1078Z" fill="#EAD039"/>
<path d="M28.717 32.4899C28.862 32.4899 29.0071 32.635 29.0071 32.4899C29.1521 32.3449 29.2971 32.4899 29.2971 32.4899C29.4422 32.78 29.7323 32.635 29.8773 32.4899C29.8773 32.635 29.8773 32.635 29.7323 32.78C29.7323 32.9251 29.5872 33.0701 29.8773 33.2152C30.3124 33.3602 30.7476 33.5052 31.1827 33.5052C32.053 33.5052 32.9232 33.5052 33.7935 33.2152C34.0835 33.0701 34.5187 33.0701 34.8088 32.9251C35.3889 32.78 35.824 32.4899 36.4042 32.3449C36.8393 32.1999 37.4195 32.0548 37.8546 31.9098C37.9997 31.9098 38.2898 31.7647 38.4348 31.7647C38.1447 31.6197 37.8546 31.6197 37.7096 31.4746H37.5646C37.2745 31.4746 36.8393 31.3296 36.5493 31.3296C36.5493 31.3296 36.5493 31.3296 36.4042 31.3296C35.9691 31.3296 35.534 31.3296 35.0988 31.3296C34.9538 31.3296 34.6637 31.3296 34.5187 31.3296C34.3736 31.3296 34.2286 31.3296 34.0835 31.3296C33.7935 31.3296 33.6484 31.4746 33.3583 31.3296C33.3583 31.3296 33.2133 31.3296 33.0682 31.3296C32.7782 31.3296 32.4881 31.3296 32.198 31.3296H32.053C31.9079 31.4746 31.7629 31.4746 31.4728 31.3296C31.3277 31.3296 31.1827 31.3296 31.0377 31.3296C30.8926 31.3296 30.8926 31.3296 30.7476 31.3296C30.7476 31.3296 30.6025 31.4746 30.4575 31.3296C30.4575 31.3296 30.3124 31.3296 30.1674 31.3296C30.0224 31.3296 30.0224 31.3296 29.7323 31.3296C29.8773 31.0395 30.3124 31.3296 30.3124 31.0395C30.4575 31.0395 30.6025 31.0395 30.7476 31.0395H30.8926C31.1827 31.1846 31.3277 31.1846 31.6178 30.8945C32.0529 31.1846 32.4881 31.1846 32.9232 31.0395C32.9232 31.0395 32.9232 31.0395 32.9232 30.8945C32.7782 30.8945 32.6331 30.8945 32.4881 30.7494C32.6331 30.6044 32.6331 30.4593 32.343 30.4593H32.4881C32.6331 30.6044 32.7782 30.6044 32.9232 30.7494C33.2133 31.0395 33.5034 31.1846 33.9385 31.0395C34.2286 31.1846 34.2286 30.8945 34.5187 30.8945C34.6637 30.8945 34.8088 30.8945 34.8088 31.0395C35.0988 31.0395 35.3889 30.8945 35.679 30.8945C35.679 30.8945 35.679 30.7494 35.679 30.6044C35.824 30.6044 35.824 30.6044 35.824 30.7494C35.9691 31.0395 36.4042 31.0395 36.6943 31.0395C36.8393 31.0395 36.9844 31.1846 37.1294 31.1846H37.2745C37.4195 31.0395 37.4195 31.0395 37.4195 30.8945C37.7096 31.0395 37.9997 31.3296 38.2898 31.3296C38.7249 31.1846 38.8699 31.6197 39.16 31.4746C39.16 31.1846 39.16 31.0395 38.8699 30.8945C38.8699 30.8945 38.7249 30.7494 38.7249 30.6044C38.7249 30.4593 38.7249 30.3143 38.5799 30.3143L38.4348 30.1693C38.4348 29.8792 38.1447 29.8792 37.9997 29.5891H37.8546C37.8546 29.299 37.7096 29.154 37.4195 29.154C37.2745 29.0089 36.9844 28.8639 36.8393 28.7188C36.5493 28.4288 36.2592 28.4288 35.9691 28.4288C35.534 28.2837 34.9538 28.2837 34.5187 28.1387H34.3736C34.0835 28.2837 33.7935 28.2837 33.3583 28.2837C33.0682 28.2837 32.9232 28.4288 32.7782 28.5738C32.6331 28.7188 32.4881 28.7188 32.343 28.8639C32.4881 29.154 32.6331 29.299 32.9232 29.5891C32.7782 29.5891 32.6331 29.8792 32.4881 29.4441C32.4881 29.4441 32.343 29.4441 32.198 29.4441C32.053 29.4441 31.7629 29.4441 31.6178 29.5891C31.4728 29.5891 31.3277 29.5891 31.1827 29.7341C30.8926 29.8792 30.6025 29.8792 30.3124 30.0242C29.7323 30.3143 29.1521 30.6044 28.5719 30.8945C28.4269 30.8945 28.1368 31.0395 27.9918 31.0395C27.9918 31.0395 27.9918 31.1846 27.8467 31.1846C27.7017 31.1846 27.7017 31.1846 27.5566 31.1846C27.5566 31.3296 27.7017 31.4746 27.7017 31.4746C28.1368 31.9098 28.4269 32.1999 28.717 32.4899ZM32.053 30.0242C32.198 30.0242 32.198 30.1693 32.343 30.1693C32.198 30.1693 32.198 30.1693 32.053 30.0242ZM31.9079 30.0242H32.053C32.343 30.4593 32.053 30.4593 31.9079 30.3143V30.0242C31.7629 30.0242 31.7629 30.0242 31.9079 30.0242Z" fill="#EAD039"/>
</svg>
