<svg width="168" height="46" viewBox="0 0 168 46" fill="none" xmlns="http://www.w3.org/2000/svg">
<g clip-path="url(#clip0_147_52836)">
<path d="M57.2132 26.9097L52.2383 37.9901H53.8212L54.9519 35.3896H60.8313L61.9619 37.8771H63.3187L58.4569 26.9097H57.2132ZM55.4041 33.9198L57.7785 28.6057L60.1529 33.9198H55.4041Z" fill="white"/>
<path d="M73.7214 30.754C73.0431 30.0756 72.0255 29.6233 71.0079 29.6233C68.6335 29.6233 66.9375 31.3193 66.9375 33.6937C66.9375 36.0681 68.5204 37.764 70.8948 37.764C72.0255 37.764 73.0431 37.3118 73.7214 36.6334V37.651H74.9652V26.6836H73.8345V30.754H73.7214ZM71.0079 36.6334C69.6511 36.6334 68.1812 35.955 68.1812 33.9198C68.1812 32.1108 69.1988 31.0932 71.0079 31.0932C72.5908 31.0932 73.7214 32.2238 73.7214 33.9198C73.7214 35.5027 72.5908 36.6334 71.0079 36.6334Z" fill="white"/>
<path d="M83.4436 36.068L80.8431 29.9624H79.4863L82.7652 37.877H83.8959L87.1748 29.9624H85.9311L83.4436 36.068Z" fill="white"/>
<path d="M95.2034 29.8496C92.9421 29.8496 91.2461 31.6587 91.2461 33.92C91.2461 36.1813 92.9421 37.9903 95.2034 37.9903C96.4471 37.9903 97.917 37.312 98.5954 36.4074L98.7084 36.1813L97.6909 35.3898L97.5778 35.729C97.1255 36.4074 95.9949 36.7466 95.2034 36.7466C94.0727 36.7466 92.829 35.9552 92.6029 34.5984H99.1607V34.3722C99.2738 33.0155 99.0476 31.8848 98.2562 31.0933C97.4647 30.1888 96.4471 29.8496 95.2034 29.8496ZM97.917 33.3547H92.6029C92.829 31.7717 94.0727 31.0933 95.2034 31.0933C96.7863 31.0933 97.8039 31.9979 97.917 33.3547Z" fill="white"/>
<path d="M107.98 29.8496C107.075 29.8496 106.284 30.1888 105.719 30.7541V30.1888H105.492V30.0757H104.588V37.9903H105.832V33.5808C105.832 32.224 106.849 31.2064 108.093 31.2064C109.563 31.2064 110.354 31.9979 110.354 33.4677V37.9903H111.598V33.4677C111.485 31.3195 110.015 29.8496 107.98 29.8496Z" fill="white"/>
<path d="M120.643 36.5205C120.304 36.7467 119.964 36.8597 119.625 36.8597C118.834 36.8597 118.495 36.5205 118.495 35.5029V31.2064H120.982V30.0758H118.495V27.8145H117.251V29.9627H115.668V31.0934H117.251V35.3899C117.251 36.5205 117.477 38.1034 119.512 38.1034C119.964 38.1034 120.53 37.9904 120.982 37.7642L121.208 37.6512L120.756 36.5205H120.643Z" fill="white"/>
<path d="M132.063 34.2592C132.063 35.616 131.045 36.6336 129.689 36.6336C128.219 36.6336 127.427 35.8421 127.427 34.3722V29.8496H126.184V34.4853C126.184 36.6336 127.653 37.9903 129.689 37.9903C130.593 37.9903 131.385 37.6512 132.063 37.0858V37.6512H132.289V37.7642H133.194V29.8496H131.95V34.2592H132.063Z" fill="white"/>
<path d="M142.126 29.9624C141.222 29.9624 140.43 30.1885 139.865 30.7539V30.3016H139.639V30.1885H138.734V38.1031H139.978V33.5805C139.978 32.3368 140.883 31.3192 142.013 31.3192C142.466 31.3192 142.805 31.4323 143.144 31.6584L143.37 31.7715L144.048 30.7539L143.822 30.6408C143.37 30.1885 142.805 29.9624 142.126 29.9624Z" fill="white"/>
<path d="M151.963 29.8496C149.702 29.8496 148.006 31.6587 148.006 33.92C148.006 36.2944 149.589 37.9903 151.85 37.9903C153.094 37.9903 154.564 37.312 155.242 36.4074L155.355 36.1813L154.338 35.3898L154.224 35.729C153.772 36.4074 152.642 36.7466 151.85 36.7466C150.719 36.7466 149.476 35.9552 149.25 34.5984H155.807V34.3722C155.92 33.0155 155.694 31.8848 154.903 31.0933C154.224 30.1888 153.207 29.8496 151.963 29.8496ZM154.564 33.3547H149.25C149.476 31.7717 150.719 31.0933 151.85 31.0933C153.433 31.0933 154.451 31.9979 154.564 33.3547Z" fill="white"/>
<path d="M164.173 33.2416C163.947 33.2416 163.834 33.1286 163.607 33.1286C162.703 32.9024 162.025 32.7894 162.025 32.111C162.025 31.4326 163.042 30.9803 164.06 30.9803C164.851 30.9803 165.417 31.0934 166.095 31.6587L166.321 31.7718L167.339 30.9803L167.113 30.7542C166.434 30.0758 165.303 29.6235 164.173 29.6235C162.59 29.6235 161.007 30.1889 161.007 31.8849C161.007 33.6939 162.59 34.0331 164.06 34.1462H164.173C165.417 34.3723 166.208 34.5984 166.208 35.2768C166.208 36.2944 164.851 36.2944 164.173 36.2944C163.042 36.2944 162.138 35.8422 161.685 35.1638L161.572 34.9376L160.555 35.7291L160.668 35.9552C161.346 37.1989 162.816 37.5381 164.06 37.5381C165.643 37.5381 167.339 36.9728 167.339 35.2768C167.339 33.6939 165.53 33.4678 164.173 33.2416Z" fill="white"/>
<path d="M58.0044 13.3418L61.7356 7.4624H64.9015V7.57547L59.2482 15.7162V21.5956H56.5346V15.8293L51.1074 7.68853V7.4624H54.2733L58.0044 13.3418Z" fill="white"/>
<path d="M65.3527 17.525C65.4657 18.7687 66.5964 19.6732 68.2924 19.6732C69.1969 19.6732 70.4406 19.334 71.006 18.7687L72.5889 20.3516C71.5713 21.4823 69.8753 21.9346 68.2924 21.9346C64.9004 21.9346 62.8652 19.7863 62.8652 16.6205C62.8652 13.5677 64.9004 11.4194 68.1793 11.4194C71.4582 11.4194 73.6065 13.4546 73.1542 17.6381H65.3527V17.525ZM70.7798 15.4898C70.6668 14.2461 69.6492 13.5677 68.1793 13.5677C66.8225 13.5677 65.8049 14.2461 65.3527 15.4898H70.7798Z" fill="white"/>
<path d="M77.4523 7.4624V21.5956H74.9648V7.4624H77.4523Z" fill="white"/>
<path d="M82.0871 7.4624V21.5956H79.5996V7.4624H82.0871Z" fill="white"/>
<path d="M94.072 16.6205C94.072 19.4471 92.1499 21.8215 88.8709 21.8215C85.592 21.8215 83.6699 19.4471 83.6699 16.6205C83.6699 13.7938 85.592 11.4194 88.7579 11.4194C92.0368 11.4194 94.072 13.7938 94.072 16.6205ZM86.2704 16.6205C86.2704 18.0903 87.175 19.5602 88.984 19.5602C90.7931 19.5602 91.6976 18.0903 91.6976 16.6205C91.6976 15.1506 90.68 13.6808 88.984 13.6808C87.175 13.6808 86.2704 15.1506 86.2704 16.6205Z" fill="white"/>
<path d="M104.474 11.646L106.623 19.1083L108.884 11.646H111.597L108.092 21.7089H105.266L104.248 18.7691L103.344 15.3772L102.439 18.7691L101.422 21.7089H98.5949L95.0898 11.646H97.8034L100.065 19.1083L102.213 11.646C102.213 11.646 104.474 11.646 104.474 11.646Z" fill="white"/>
<path d="M129.237 21.5956H126.975L125.166 17.1861L123.697 12.6634L122.227 17.1861L120.531 21.5956H118.269L113.068 7.4624H116.008L119.287 17.6383L122.679 7.4624H124.375L127.88 17.6383L131.159 7.4624H134.099L129.237 21.5956Z" fill="white"/>
<path d="M143.709 16.6205C143.709 19.4471 141.787 21.8215 138.508 21.8215C135.229 21.8215 133.307 19.4471 133.307 16.6205C133.307 13.7938 135.229 11.4194 138.395 11.4194C141.674 11.4194 143.709 13.7938 143.709 16.6205ZM135.907 16.6205C135.907 18.0903 136.812 19.5602 138.621 19.5602C140.43 19.5602 141.334 18.0903 141.334 16.6205C141.334 15.1506 140.317 13.6808 138.621 13.6808C136.812 13.6808 135.907 15.1506 135.907 16.6205Z" fill="white"/>
<path d="M155.353 16.6205C155.353 19.4471 153.431 21.8215 150.152 21.8215C146.873 21.8215 144.951 19.4471 144.951 16.6205C144.951 13.7938 146.873 11.4194 150.039 11.4194C153.318 11.4194 155.353 13.7938 155.353 16.6205ZM147.439 16.6205C147.439 18.0903 148.343 19.5602 150.152 19.5602C151.961 19.5602 152.866 18.0903 152.866 16.6205C152.866 15.1506 151.848 13.6808 150.152 13.6808C148.343 13.6808 147.439 15.1506 147.439 16.6205Z" fill="white"/>
<path d="M167.339 7.4624V21.5956H165.078L164.965 20.2388C164.173 21.4826 162.93 21.8218 161.799 21.8218C158.859 21.8218 156.711 19.8996 156.711 16.6207C156.711 13.2288 158.859 11.4197 161.799 11.4197C162.816 11.4197 164.512 11.985 165.078 13.0026V7.4624H167.339ZM158.972 16.6207C158.972 18.3167 160.216 19.5604 161.799 19.5604C163.382 19.5604 164.739 18.4298 164.739 16.6207C164.739 14.9247 163.382 13.681 161.799 13.681C160.216 13.681 158.972 14.8117 158.972 16.6207Z" fill="white"/>
<path d="M22.6151 45.2263C35.104 45.2263 45.2283 35.1021 45.2283 22.6132C45.2283 10.1243 35.104 0 22.6151 0C10.1262 0 0.00195312 10.1243 0.00195312 22.6132C0.00195312 35.1021 10.1262 45.2263 22.6151 45.2263Z" fill="white"/>
<path d="M22.6153 44.0959C34.4798 44.0959 44.0978 34.4778 44.0978 22.6134C44.0978 10.7489 34.4798 1.13086 22.6153 1.13086C10.7509 1.13086 1.13281 10.7489 1.13281 22.6134C1.13281 34.4778 10.7509 44.0959 22.6153 44.0959Z" fill="#436B89"/>
<path d="M22.6157 42.8521C33.7933 42.8521 42.8545 33.7909 42.8545 22.6133C42.8545 11.4357 33.7933 2.37451 22.6157 2.37451C11.4382 2.37451 2.37695 11.4357 2.37695 22.6133C2.37695 33.7909 11.4382 42.8521 22.6157 42.8521Z" fill="#C9C9C9"/>
<path d="M40.7052 24.8747C40.4791 24.4224 40.1399 23.9701 39.8007 23.631C39.2353 23.0656 38.67 22.5003 38.1047 22.048C37.7655 21.7088 37.2001 21.5958 36.8609 21.2566C36.5217 21.0304 36.1826 20.8043 35.8434 20.5782C35.278 20.0128 34.4866 19.5606 33.6951 19.4475C33.582 19.4475 33.582 19.4475 33.469 19.3344C32.9036 18.8822 32.3383 18.4299 31.6599 18.0907C30.7554 17.5254 29.9639 16.7339 29.3986 15.8294C29.0594 15.2641 28.7202 14.5857 28.4941 13.9073C28.2679 13.455 28.1549 13.1158 27.8157 12.7766C27.5895 12.5505 27.4765 12.3244 27.3634 12.0982C27.0242 11.4198 26.4589 11.1937 25.8936 10.9676C25.3282 10.5153 24.876 10.1761 24.3106 9.83692C23.8584 9.49772 23.4061 9.49772 22.9538 9.83692C22.3885 10.2892 21.7101 10.5153 21.0317 10.5153C20.8056 10.5153 20.5795 10.4022 20.3533 10.4022C20.0141 10.2892 19.9011 10.4022 19.788 10.6284C19.4488 11.3068 19.2227 12.0982 18.7704 12.7766C18.4312 13.455 17.9789 14.1334 17.6398 14.8118C17.4136 15.0379 17.1875 15.0379 16.9614 14.8118C16.7352 14.4726 16.396 14.1334 16.1699 13.9073C15.8307 13.455 15.7176 13.455 15.1523 13.7942C14.7 14.1334 14.2478 14.3596 13.7955 14.6987C13.5694 14.9249 13.3432 15.151 13.1171 15.4902C13.3432 15.3771 13.4563 15.151 13.6824 15.0379C13.6824 15.0379 13.6824 15.0379 13.7955 15.151C13.6824 15.3771 13.5694 15.4902 13.4563 15.7163C13.2302 16.0555 13.1171 16.2817 13.3432 16.6209C13.4563 16.847 13.3432 17.0731 13.1171 17.1862C12.5518 17.6385 11.9865 18.0907 11.5342 18.543C11.4211 18.6561 11.3081 18.7691 11.195 18.8822V18.9953C11.5342 18.9953 11.9865 18.8822 12.4387 18.7691C12.3257 18.9953 12.2126 19.1083 12.0995 19.1083C11.7603 19.3344 11.4211 19.4475 11.0819 19.7867C10.8558 19.8998 10.7427 20.1259 10.5166 20.352C10.1774 20.8043 9.95127 21.1435 9.61208 21.5958C9.61208 21.7088 9.49901 21.8219 9.49901 21.8219C9.72514 21.8219 9.95127 21.935 10.0643 21.935C9.83821 22.8395 9.04675 23.1787 8.36835 23.744C7.68996 24.3093 7.01156 24.8747 6.78543 25.8923C6.78543 26.1184 6.5593 26.2315 6.5593 26.4576C6.44623 26.5707 6.44623 26.7968 6.33317 27.0229C6.8985 26.7968 7.23769 26.4576 7.91609 26.4576C7.80302 26.6837 7.68996 26.7968 7.68996 26.9099C6.8985 27.9275 5.99397 28.945 5.20251 29.9626C5.20251 29.9626 5.20251 29.9626 5.08944 30.0757C5.08944 29.9626 4.97638 29.8496 4.97638 29.6234C4.97638 28.7189 5.65477 27.3621 4.97638 26.7968C4.18492 26.2315 4.97638 25.5531 4.97638 24.8747C4.97638 24.7616 4.97638 24.5355 5.08944 24.4224C5.65477 23.744 6.10703 23.0656 6.78543 22.3872C7.23769 21.8219 7.80302 21.3696 8.25529 20.8043C8.59448 20.4651 8.93368 20.0128 9.15981 19.5606C9.15981 19.5606 9.04675 19.4475 8.93368 19.3344C9.04675 19.3344 9.15981 19.3344 9.27288 19.3344C9.72514 19.4475 9.83821 19.2214 9.83821 18.9953C9.83821 18.9953 9.83821 18.9953 9.83821 18.8822C10.0643 19.1083 10.2905 18.8822 10.4035 18.7691C10.9689 18.2038 11.4211 17.5254 11.8734 16.9601C12.0995 16.6209 12.3257 16.3947 12.5518 16.1686C12.5518 16.0555 12.6649 16.0555 12.6649 15.9425C12.6649 15.9425 12.6649 15.9425 12.5518 15.9425C12.5518 15.9425 12.4387 15.9425 12.4387 16.0555C11.7603 16.847 11.0819 17.6385 10.4035 18.4299C9.95127 18.9953 9.27288 19.2214 8.59448 19.5606C8.25529 19.6736 8.02915 19.8998 7.80302 20.239C7.46382 20.6912 7.12463 21.0304 6.67236 21.3696C6.2201 21.7088 5.8809 22.1611 5.54171 22.6134C5.20251 23.0656 4.52411 23.9701 3.95878 24.8747C3.61959 25.44 3.16732 25.8923 2.82812 26.4576C3.50652 30.0757 5.20251 33.4677 7.57689 36.0682C8.25529 36.8597 9.04675 37.538 9.83821 38.2164C9.72514 38.3295 9.83821 38.4426 10.0643 38.4426C10.1774 38.5556 10.2905 38.6687 10.4035 38.6687C10.4035 38.6687 10.4035 38.6687 10.5166 38.7818C10.6297 38.8948 10.7427 38.8948 10.8558 39.0079C10.8558 39.0079 10.9689 39.0079 10.9689 39.121C11.0819 39.234 11.195 39.234 11.3081 39.3471C11.3081 39.3471 11.4211 39.3471 11.4211 39.4602C11.5342 39.5732 11.6473 39.5732 11.7603 39.6863C11.7603 39.6863 11.8734 39.6863 11.8734 39.7994C15.0392 41.8346 18.7704 42.9652 22.7277 42.9652C27.8157 42.9652 32.4514 41.0431 35.9564 37.9903C36.0695 37.8772 36.1825 37.7642 36.2956 37.6511C36.4087 37.538 36.5218 37.425 36.6348 37.3119C36.6348 37.3119 36.6348 37.3119 36.7479 37.1989C36.8609 37.0858 36.8609 37.0858 36.974 36.9727C39.6876 34.2591 41.7228 30.641 42.5142 26.6837L42.6273 26.3445C41.7228 26.1184 41.1574 25.5531 40.7052 24.8747Z" fill="#436B89"/>
<path d="M13.0042 23.4046C12.8911 23.6307 12.778 23.8568 12.665 23.9699C12.3258 24.3091 11.9866 24.7614 11.6474 25.1006C11.4212 25.2136 11.082 25.3267 10.8559 25.3267C10.6298 25.3267 10.5167 25.3267 10.4037 25.4398H10.1775C10.1775 25.4398 10.1775 25.4398 10.0645 25.3267C10.1775 25.3267 10.1775 25.2136 10.2906 25.1006C10.6298 24.7614 10.8559 24.5352 11.1951 24.3091C11.7604 23.9699 12.2127 23.6307 12.778 23.2915H12.8911C13.0042 23.2915 13.0042 23.4046 13.0042 23.4046Z" fill="#2F3472"/>
<path d="M31.8867 19.8999C31.7737 19.7868 31.4345 20.126 31.3214 20.0129C30.9822 19.8999 30.9822 20.0129 30.9822 19.6737C30.8691 19.8999 30.5299 19.7868 30.4169 19.7868C30.0777 19.7868 29.7385 19.7868 29.5123 19.5607C28.8339 18.9953 28.4947 19.5607 27.8163 18.8823C27.5902 18.6561 27.251 18.43 27.0249 18.2039C27.0249 18.2039 27.0249 18.2039 26.9118 18.3169C26.9118 18.43 26.9118 18.5431 27.0249 18.7692C26.0073 18.43 25.1028 17.8647 24.0852 17.7516V17.8647C24.4244 18.0908 24.8766 18.2039 25.2158 18.43C25.6681 18.5431 25.8942 18.8823 26.2334 19.2215C26.0073 19.2215 25.8942 19.2215 25.7812 19.2215C25.1028 19.1084 24.4244 18.9953 23.746 18.9953C23.5198 18.9953 23.1806 19.1084 22.9545 19.2215C22.2761 19.5607 21.5977 20.0129 20.9193 20.2391C20.5801 20.4652 20.1279 20.4652 19.6756 20.5783C19.4495 20.6913 19.1103 20.8044 18.9972 21.0305C18.3188 21.5959 17.5274 22.0481 16.7359 22.3873C16.7359 22.3873 16.7359 22.3873 16.5098 22.3873C16.849 22.0481 17.0751 21.7089 17.3012 21.4828C18.2058 20.5783 19.1103 19.7868 20.0148 18.9953C20.1279 18.8823 20.2409 18.6561 20.4671 18.5431C20.354 18.2039 20.2409 18.0908 20.2409 18.0908C20.2409 17.9777 20.354 17.8647 20.4671 17.7516C20.9193 17.4124 21.2585 17.0732 21.7108 16.8471C21.8239 16.734 22.05 16.621 22.1631 16.3948C22.05 16.3948 22.05 16.3948 21.9369 16.3948C21.5977 16.3948 21.3716 16.621 21.0324 16.2818C20.9193 16.1687 20.8063 16.2818 20.6932 16.2818C20.354 16.3948 20.2409 16.2818 20.2409 15.9426C20.2409 15.6034 20.2409 15.4903 19.9017 15.6034C19.4495 15.7164 18.9972 15.8295 18.4319 16.0556C18.4319 15.9426 18.4319 15.8295 18.5449 15.7164C18.7711 15.2642 19.1103 14.8119 19.4495 14.3596C19.7887 13.7943 20.1279 13.1159 20.4671 12.5506C20.4671 12.4375 20.5801 12.3245 20.5801 12.3245C20.9193 11.7591 21.2585 11.6461 21.9369 11.7591C22.3892 11.8722 22.8415 11.9853 23.1806 11.9853C23.746 11.9853 24.1982 12.2114 24.4244 12.7767C24.6505 13.229 24.6505 13.229 24.0852 13.342C23.746 13.4551 23.4068 13.4551 23.1806 13.4551V13.5682C24.0852 14.0204 25.1028 14.4727 26.0073 14.925C26.0073 14.925 26.0073 14.925 26.0073 14.8119C25.8942 14.5858 25.6681 14.3596 25.555 14.1335C25.555 14.1335 25.555 14.0204 25.6681 14.0204C26.0073 14.1335 26.3465 14.2466 26.7988 14.4727C26.6857 14.2466 26.5726 13.9074 26.4596 13.5682C26.9118 13.7943 27.251 14.0204 27.4772 14.3596C27.9294 15.038 28.2686 15.8295 28.7209 16.5079C28.8339 16.734 28.947 16.8471 29.1731 17.0732C29.5123 17.4124 29.8515 17.7516 30.1907 18.0908C30.643 18.5431 30.7561 17.9777 31.2083 18.3169C31.4345 18.5431 31.7737 18.9953 31.7737 19.2215C31.7737 19.3345 31.7737 19.3345 31.8867 19.4476C31.9998 19.5607 31.9998 19.4476 32.1129 19.4476C32.2259 19.3345 32.452 19.6737 33.2435 19.7868L31.8867 19.8999Z" fill="white"/>
<path d="M10.1777 25.3266C10.2908 25.2135 10.2908 24.9874 10.4039 24.9874C10.7431 24.6482 11.1953 24.1959 11.6476 23.9698C12.326 23.5175 13.0044 23.0653 13.6828 22.7261H13.7958C13.7958 22.7261 13.9089 22.8391 13.7958 22.9522C13.6828 23.1783 13.5697 23.5175 13.3436 23.7437C12.8913 24.1959 12.5521 24.7613 12.0999 25.1005C11.8737 25.3266 11.4215 25.4397 11.0823 25.4397C10.8561 25.4397 10.7431 25.3266 10.5169 25.5527C10.5169 25.4397 10.4039 25.4397 10.1777 25.3266C10.1777 25.4397 10.1777 25.4397 10.1777 25.3266Z" fill="white"/>
<path d="M22.5021 45.2263C10.0648 45.2263 0.00195312 35.0504 0.00195312 22.6132C0.00195312 10.1759 10.0648 0 22.5021 0C34.9393 0 45.0022 10.1759 45.0022 22.6132C45.0022 35.0504 34.9393 45.2263 22.5021 45.2263ZM22.5021 0.339198C10.2909 0.339198 0.341151 10.289 0.341151 22.6132C0.341151 34.9373 10.2909 44.8871 22.5021 44.8871C34.7132 44.8871 44.776 34.9373 44.776 22.6132C44.776 10.289 34.8262 0.339198 22.5021 0.339198Z" fill="white"/>
<path d="M41.7246 18.3169C41.8377 18.43 42.1769 18.43 42.403 18.543V18.43C42.2899 18.43 42.0638 18.3169 41.9507 18.3169C41.8377 18.3169 41.8377 18.3169 41.7246 18.3169Z" fill="#EAD039"/>
<path d="M41.6113 21.0303C41.6113 21.1434 41.7244 21.1434 41.7244 21.2564C42.0636 21.0303 42.4028 20.6911 42.742 20.465C42.6289 20.3519 42.6289 20.1258 42.6289 20.0127C42.4028 20.2388 42.1767 20.465 41.9505 20.6911C41.8375 20.8042 41.7244 20.9172 41.6113 21.0303Z" fill="#EAD039"/>
<path d="M28.4959 29.5101C28.722 29.397 29.0612 29.284 29.2873 29.1709C28.9481 29.284 28.722 29.397 28.3828 29.5101H28.4959Z" fill="#EAD039"/>
<path d="M38.4449 23.9699C38.4449 24.4222 38.5579 24.8745 38.671 25.2137V25.3267C38.671 25.6659 38.7841 25.779 39.0102 25.892C39.1233 25.779 38.8971 25.5529 39.2363 25.5529C38.8971 25.3267 38.7841 24.9875 38.671 24.6483C38.671 24.4222 38.5579 24.1961 38.4449 23.9699C38.5579 23.8569 38.671 23.6307 38.7841 23.5177C39.1233 23.2915 39.3494 23.0654 39.6886 22.8393C39.8017 22.7262 39.9147 22.7262 39.9147 22.5001C40.2539 22.5001 40.4801 22.1609 40.7062 21.9347C40.8193 21.8217 40.9323 21.7086 41.0454 21.7086C41.0454 21.7086 41.0454 21.7086 41.0454 21.8217C41.0454 21.8217 41.1585 21.8217 41.1585 21.7086H41.0454C41.0454 21.7086 41.0454 21.7086 40.9323 21.5955C41.2715 21.7086 41.3846 21.4825 41.4977 21.3694C41.3846 21.3694 41.3846 21.2563 41.2715 21.2563C41.1585 21.3694 41.0454 21.4825 40.8193 21.5955H40.9323C40.7062 21.7086 40.4801 21.8217 40.367 22.0478C40.1409 22.1609 39.9147 22.387 39.6886 22.5001C39.3494 22.7262 39.1233 22.8393 39.0102 23.2915H38.8971C38.671 23.5177 38.4449 23.6307 38.2188 23.8569C38.3318 23.7438 38.4449 23.8569 38.4449 23.9699Z" fill="#EAD039"/>
<path d="M31.9994 35.6158C31.6602 35.8419 31.321 36.068 30.9818 36.2942C30.8687 36.4072 30.7556 36.4072 30.6426 36.5203C30.9818 36.5203 31.0948 36.4072 31.321 36.2942C31.434 36.1811 31.434 36.1811 31.5471 36.2942C31.5471 36.4072 31.7732 36.4072 31.7732 36.4072C31.8863 36.2942 31.9994 36.1811 31.9994 36.068C32.1124 35.955 31.9994 35.955 31.9994 35.8419C32.2255 35.8419 32.3386 35.7288 32.4516 35.7288C32.3386 35.5027 32.1124 35.5027 31.9994 35.6158Z" fill="#EAD039"/>
<path d="M18.9973 37.6508C18.9973 37.5377 19.1104 37.4247 19.1104 37.3116C19.2234 37.3116 19.2234 37.4247 19.3365 37.4247C19.1104 37.1985 19.1104 36.8593 18.9973 36.5201C19.1104 36.4071 19.1104 36.294 19.1104 36.0679L18.9973 36.1809C18.9973 36.294 18.8842 36.294 18.8842 36.4071C18.7712 36.4071 18.8842 36.4071 18.8842 36.5201C18.9973 36.5201 18.9973 36.5201 18.9973 36.5201C18.9973 36.8593 18.8842 37.1985 18.9973 37.6508Z" fill="#EAD039"/>
<path d="M40.1404 17.8643C40.0273 17.9773 40.0273 17.9773 40.0273 18.0904C40.3665 18.0904 40.7057 18.0904 41.0449 18.0904C40.7057 18.0904 40.4796 18.0904 40.1404 17.8643Z" fill="#EAD039"/>
<path d="M41.1582 18.0903C41.3843 18.3165 41.4974 18.3165 41.6105 18.3165C41.4974 18.0903 41.3843 18.0903 41.1582 18.0903Z" fill="#EAD039"/>
<path d="M26.9123 38.6686C27.1385 38.5555 27.4777 38.4424 27.7038 38.2163C27.1385 38.4424 26.5731 38.6686 26.0078 38.8947C26.2339 38.8947 26.347 38.8947 26.9123 38.6686Z" fill="#EAD039"/>
<path d="M26.5742 29.9622C26.6873 29.9622 26.9134 29.9622 27.0265 29.8491C26.9134 29.8491 26.6873 29.9622 26.5742 29.9622Z" fill="#EAD039"/>
<path d="M27.4777 29.623C27.3646 29.7361 27.1385 29.7361 27.0254 29.8492C27.2515 29.7361 27.3646 29.7361 27.4777 29.623Z" fill="#EAD039"/>
<path d="M27.929 29.5103C27.816 29.6233 27.7029 29.6233 27.5898 29.6233C27.7029 29.7364 27.929 29.8495 27.929 29.5103Z" fill="#EAD039"/>
<path d="M37.5398 25.7789C37.5398 25.5528 37.5398 25.4397 37.4267 25.3267C37.2006 25.3267 37.0875 25.4397 37.2006 25.5528C37.2006 25.6659 37.4267 25.7789 37.5398 25.7789Z" fill="#EAD039"/>
<path d="M25.4429 39.2335C25.6691 39.1204 25.7821 39.1204 26.0083 39.0073C25.6691 39.0073 25.4429 39.0073 25.2168 39.0073C25.2168 39.2335 25.2168 39.2335 25.4429 39.2335Z" fill="#EAD039"/>
<path d="M31.3223 25.5528C31.5484 25.6659 31.7745 25.7789 32.0007 25.7789C31.7745 25.6659 31.6615 25.4397 31.3223 25.5528Z" fill="#EAD039"/>
<path d="M11.1953 39.2335C11.4214 39.1204 11.6476 39.0073 11.9868 39.0073C11.7606 39.0073 11.4214 39.1204 11.1953 39.1204V39.2335Z" fill="#EAD039"/>
<path d="M18.998 35.9549C19.1111 35.9549 19.2242 35.9549 19.2242 35.9549C19.3372 35.8419 19.3372 35.7288 19.4503 35.6157C19.3372 35.7288 19.2242 35.8419 18.998 35.9549Z" fill="#EAD039"/>
<path d="M13.3438 38.7815C13.5699 39.0077 13.6829 38.6685 13.796 38.6685C13.6829 38.6685 13.6829 38.6685 13.5699 38.7815C13.4568 38.6685 13.4568 38.7815 13.3438 38.7815Z" fill="#EAD039"/>
<path d="M40.4799 27.5884C40.3669 27.8145 40.4799 27.9276 40.4799 27.9276C40.593 27.8145 40.4799 27.7014 40.4799 27.5884Z" fill="#EAD039"/>
<path d="M40.5935 27.0229C40.5935 27.0229 40.5935 27.0229 40.4805 27.0229C40.4805 27.136 40.4805 27.136 40.4805 27.2491C40.4805 27.2491 40.5935 27.2491 40.7066 27.2491C40.7066 27.136 40.5935 27.0229 40.5935 27.0229Z" fill="#EAD039"/>
<path d="M41.3851 28.1531C41.3851 28.3792 41.3851 28.6054 41.272 28.7184C41.272 28.6054 41.272 28.4923 41.272 28.4923C41.159 28.3792 41.0459 28.3792 41.0459 28.2662C41.0459 28.3792 40.9328 28.3792 40.9328 28.4923C40.8198 28.7184 40.8198 28.9446 40.7067 29.1707C40.7067 29.2838 40.7067 29.3968 40.8198 29.5099C40.7067 29.3968 40.7067 29.3968 40.7067 29.3968C40.7067 29.5099 40.7067 29.5099 40.7067 29.623C40.2544 29.8491 40.2544 29.9622 40.3675 30.1883C40.4806 30.4144 40.5936 30.7536 40.9328 30.7536C40.9328 30.7536 41.0459 30.7536 41.159 30.7536C41.4982 29.9622 41.7243 29.2838 41.9504 28.4923C41.8374 28.3792 41.7243 28.1531 41.6112 28.04C41.6112 28.04 41.4982 28.1531 41.3851 28.1531Z" fill="#EAD039"/>
<path d="M42.0625 26.3442V26.4573C42.1756 26.4573 42.1756 26.4573 42.2886 26.4573C42.1756 26.4573 42.1756 26.4573 42.2886 26.3442C42.1756 26.3442 42.1756 26.3442 42.0625 26.3442Z" fill="#EAD039"/>
<path d="M41.2702 25.8919L41.1571 25.7788C40.931 25.7788 40.8179 25.8919 40.5918 25.8919C40.8179 26.118 40.8179 26.118 40.931 26.118C41.0441 26.118 41.1571 26.0049 41.2702 25.8919Z" fill="#EAD039"/>
<path d="M42.742 24.4224C42.742 24.4224 42.6289 24.4224 42.6289 24.5354L42.742 24.4224Z" fill="#EAD039"/>
<path d="M42.064 24.8742C41.951 24.8742 41.8379 24.7611 41.7248 24.7611H41.8379C42.4032 24.6481 42.1771 24.6481 42.2902 24.1958C42.064 24.1958 41.8379 24.3089 41.8379 24.4219C41.8379 24.535 41.7248 24.6481 41.6118 24.535L41.3856 24.6481C41.3856 24.7611 41.2726 24.7611 41.2726 24.8742C41.1595 25.1003 41.0464 25.3265 40.8203 25.3265C40.9334 25.4395 41.0464 25.4395 41.1595 25.3265C41.2726 25.2134 41.4987 25.2134 41.6118 25.2134C41.7248 25.2134 41.8379 25.3265 41.951 25.1003C42.064 24.9873 42.1771 24.9873 42.2902 24.8742C42.4032 24.8742 42.4032 24.8742 42.5163 24.7611C42.5163 24.7611 42.5163 24.6481 42.6294 24.535C42.5163 24.6481 42.2902 24.6481 42.064 24.8742ZM41.7248 24.7611C41.6118 24.8742 41.7248 24.7611 41.7248 24.7611V24.7611Z" fill="#EAD039"/>
<path d="M37.7656 27.7012C37.7656 27.8142 37.7656 28.0404 37.7656 28.1534C37.8787 28.0404 37.8787 27.8142 37.7656 27.7012Z" fill="#EAD039"/>
<path d="M37.7674 32.2237C37.7674 32.1106 37.7674 32.1106 37.8804 31.9976C37.7674 31.9976 37.7674 31.9976 37.6543 32.1106L37.7674 32.2237Z" fill="#EAD039"/>
<path d="M39.3485 30.98C39.3485 30.98 39.2354 30.98 39.3485 30.98C39.2354 30.98 39.2354 30.98 39.3485 30.98C39.2354 31.093 39.2354 31.093 39.3485 30.98Z" fill="#EAD039"/>
<path d="M39.5757 30.98C39.3496 30.98 39.3496 30.98 39.3496 30.98C39.3496 30.98 39.3496 31.093 39.3496 31.2061C39.4627 31.093 39.5757 31.093 39.5757 30.98Z" fill="#EAD039"/>
<path d="M38.4453 32.1108C38.4453 32.1108 38.5584 31.9977 38.4453 32.1108C38.4453 31.9977 38.4453 32.1108 38.4453 32.1108Z" fill="#EAD039"/>
<path d="M39.801 28.3796C39.801 28.2665 39.801 28.1534 39.688 28.1534C39.688 28.2665 39.688 28.2665 39.5749 28.3796C39.4618 28.2665 39.4618 28.1534 39.3488 28.1534C39.1227 28.0404 39.0096 27.9273 38.8965 27.5881C38.8965 27.5881 38.7835 27.475 38.7835 27.5881L38.6704 27.7012C38.6704 27.8142 38.6704 27.8142 38.7835 27.9273C38.5573 27.8142 38.3312 27.7012 38.2181 27.7012C38.1051 28.0404 37.992 28.3796 37.8789 28.7188V28.8318C37.992 29.171 37.8789 29.3972 37.7659 29.6233C37.7659 29.7364 37.7659 29.8494 37.7659 29.8494C37.8789 30.0756 37.7659 30.3017 37.6528 30.4148C37.6528 30.5278 37.5397 30.6409 37.5397 30.754C37.5397 30.754 37.5397 30.754 37.4267 30.754C37.4267 30.5278 37.5397 30.3017 37.5397 30.0756V29.9625C37.5397 29.7364 37.5397 29.3972 37.6528 29.171C37.6528 28.9449 37.6528 28.7188 37.7659 28.6057C37.8789 28.3796 37.7659 28.2665 37.7659 28.1534C37.6528 28.1534 37.6528 28.1534 37.5397 28.1534C37.4267 28.1534 37.3136 28.1534 37.2005 28.1534C37.2005 28.0404 37.2005 28.0404 37.3136 27.9273C37.2005 27.9273 37.0875 27.9273 36.9744 27.9273C36.9744 27.8142 36.9744 27.7012 36.7483 27.8142C36.7483 27.8142 36.6352 27.9273 36.6352 27.8142C36.6352 27.8142 36.5221 27.7012 36.5221 27.5881C36.5221 27.5881 36.6352 27.7012 36.6352 27.5881C36.6352 27.5881 36.7483 27.5881 36.7483 27.475V27.362C36.7483 27.362 36.6352 27.362 36.5221 27.362C36.4091 27.475 36.4091 27.475 36.296 27.475C36.296 27.362 36.4091 27.2489 36.4091 27.1358C36.4091 27.1358 36.4091 27.1358 36.296 27.1358C36.296 27.2489 36.1829 27.362 36.1829 27.362H36.0699C36.1829 27.475 36.1829 27.475 36.1829 27.5881C36.0699 27.475 36.0699 27.362 35.9568 27.2489C36.1829 27.1358 35.8437 27.0228 35.8437 26.9097C35.7307 26.9097 35.7307 26.9097 35.6176 26.9097C35.6176 26.7966 35.6176 26.7966 35.6176 26.6836C35.6176 26.5705 35.6176 26.5705 35.6176 26.4574C35.5045 26.3444 35.5045 26.1182 35.7307 26.0052C35.8437 26.0052 35.9568 26.2313 36.1829 26.1183C36.296 26.0052 36.5221 26.0052 36.5221 25.7791C36.5221 25.666 36.6352 25.5529 36.7483 25.666C36.8613 25.7791 36.9744 25.7791 37.0875 25.666C37.0875 25.666 37.2005 25.666 37.2005 25.5529C37.0875 25.4399 36.9744 25.3268 36.8613 25.2137C36.6352 25.1007 36.7483 24.9876 36.8613 24.8745H36.7483C36.7483 24.6484 37.2005 24.4223 37.5397 24.5353C37.5397 24.4223 37.5397 24.3092 37.5397 24.1961C37.7659 24.0831 37.992 23.97 38.2181 23.8569C37.992 23.97 37.8789 23.97 37.6528 24.0831C37.6528 24.0831 37.7659 23.97 37.8789 23.97C37.7659 23.97 37.6528 24.0831 37.6528 24.0831C37.5397 24.0831 37.4267 24.1961 37.4267 24.1961C37.4267 24.1961 37.4267 24.1961 37.4267 24.3092C37.4267 24.3092 37.4267 24.3092 37.3136 24.3092C37.3136 24.4223 37.2005 24.4223 37.0875 24.4223L37.2005 24.3092C37.0875 24.3092 36.9744 24.4223 36.9744 24.4223C36.9744 24.4223 36.9744 24.4223 36.8613 24.4223C36.7483 24.4223 36.6352 24.5353 36.5221 24.6484C36.4091 24.7615 36.4091 24.7615 36.296 24.7615C36.4091 24.8745 36.296 24.8745 36.1829 24.8745C36.1829 24.9876 36.296 24.9876 36.296 24.9876C36.296 24.9876 36.296 24.9876 36.1829 25.1007C36.1829 25.1007 36.0699 25.1007 36.0699 25.2137C36.0699 25.1007 36.0699 25.1007 35.9568 24.9876C35.8437 24.9876 35.8437 25.1007 35.7307 25.1007C35.3915 25.2137 35.1653 25.3268 34.8261 25.666C34.7131 25.7791 34.6 25.7791 34.487 25.8921C34.2608 26.0052 33.9216 26.1183 33.6955 26.2313C33.4694 26.4574 33.2432 26.3444 33.0171 26.3444H32.904C32.904 26.3444 32.904 26.3444 32.904 26.4574H33.0171C33.1302 26.4574 33.2432 26.5705 33.1302 26.6836C32.904 26.9097 32.5648 27.1358 32.2256 27.362C31.7734 27.5881 31.3211 27.9273 30.8688 28.2665V28.3796C30.7558 28.3796 30.6427 28.4926 30.6427 28.4926C30.1905 28.8318 29.7382 29.058 29.2859 29.171C29.5121 29.058 29.6251 29.058 29.8513 29.058C30.0774 29.058 29.9643 29.171 29.9643 29.2841C29.8513 29.5102 29.8513 29.8494 29.9643 30.0756L30.0774 30.1886C30.0774 30.0756 30.1905 30.0756 30.1905 29.9625C30.1905 29.8494 30.1905 29.7364 30.1905 29.6233C30.1905 29.2841 30.1905 28.9449 30.5296 28.8318C30.6427 28.8318 30.7558 28.7188 30.8688 28.6057V28.4926C30.9819 28.4926 31.095 28.4926 31.095 28.3796C31.3211 28.1534 31.5472 27.9273 31.7734 27.8142C31.8864 27.8142 31.9995 27.8142 31.9995 27.7012C32.2256 27.5881 32.4518 27.362 32.6779 27.1358C32.904 27.0228 33.1302 26.7966 33.3563 26.6836C33.5824 26.4574 33.9216 26.4574 34.1478 26.2313H34.2608C34.3739 26.2313 34.487 26.1183 34.6 26.1183C34.6 26.1183 34.6 26.2313 34.6 26.3444C34.487 26.5705 34.2608 26.3444 34.0347 26.4574H33.9216C33.8086 26.4574 33.6955 26.5705 33.6955 26.5705C33.6955 26.5705 33.8086 26.6836 33.8086 26.7966C33.6955 26.7966 33.5824 26.7966 33.4694 26.9097C33.2432 27.0228 33.1302 27.0228 32.904 27.1358C32.5648 27.2489 32.3387 27.475 32.1126 27.7012C31.7734 27.9273 31.6603 28.2665 31.6603 28.6057C31.4342 28.9449 31.5472 29.171 31.208 29.3972C31.095 29.3972 31.095 29.5102 30.9819 29.5102C31.4342 29.5102 31.8864 29.3972 32.2256 29.3972C32.3387 29.3972 32.4518 29.3972 32.5648 29.6233C32.5648 29.7364 32.791 29.7364 32.904 29.7364C33.1302 29.7364 33.3563 29.6233 33.5824 29.6233C33.6955 29.6233 33.6955 29.7364 33.8086 29.7364C33.6955 29.7364 33.6955 29.8494 33.5824 29.8494C33.3563 29.9625 33.1302 29.9625 33.0171 30.0756C33.0171 30.0756 32.904 30.0756 32.904 30.1886C33.1302 30.4148 33.2432 30.6409 33.2432 30.9801V31.0931C33.2432 31.0931 33.1302 31.2062 33.0171 31.2062C33.0171 31.3193 33.1302 31.3193 33.1302 31.4323H33.2432C33.3563 31.4323 33.4694 31.3193 33.5824 31.5454C33.5824 31.6585 33.4694 31.7715 33.3563 31.7715H33.2432C33.1302 31.7715 33.0171 31.7715 32.904 31.7715C32.6779 31.7715 32.5648 31.7715 32.3387 31.6585C32.2256 31.6585 32.2256 31.6585 32.1126 31.5454C32.1126 31.6585 32.1126 31.6585 31.9995 31.7715C31.9995 31.6585 31.8864 31.5454 31.7734 31.4323C31.7734 31.6585 31.7734 31.7715 31.7734 31.8846L31.6603 31.9977L31.5472 31.8846C31.4342 31.7715 31.4342 31.6585 31.4342 31.4323C31.4342 31.3193 31.4342 31.2062 31.4342 31.2062C31.4342 31.2062 31.5472 31.2062 31.6603 31.2062C31.6603 31.2062 31.6603 31.2062 31.6603 31.0931C31.6603 31.0931 31.6603 31.0931 31.5472 31.0931C31.5472 31.0931 31.5472 31.0931 31.4342 31.0931C31.3211 30.9801 31.208 30.9801 31.208 30.867C30.9819 30.5278 30.7558 30.3017 30.3035 30.1886C30.1904 30.1886 30.1905 30.1886 30.1905 30.3017C30.1905 30.4148 30.1905 30.5278 30.0774 30.6409C30.0774 30.7539 30.0774 30.7539 30.0774 30.867C30.0774 31.3193 30.1905 31.7715 30.1905 32.2238C30.1905 32.2238 30.1905 32.2238 30.1905 32.3369C30.1905 32.2238 30.1905 32.1107 30.0774 31.9977C29.9643 31.7715 29.9643 31.5454 29.8513 31.3193V31.2062C29.8513 31.0931 29.8513 30.9801 29.7382 30.867C29.7382 30.7539 29.6251 30.6409 29.5121 30.5278C29.399 30.7539 29.1729 31.0931 29.0598 31.3193C29.0598 31.2062 29.0598 31.0931 29.0598 30.9801C28.9467 31.0931 28.9467 31.2062 28.9467 31.3193C28.8337 31.5454 28.7206 31.7715 28.4945 31.8846C28.4945 31.7715 28.6075 31.6585 28.6075 31.5454C28.6075 31.4323 28.6075 31.3193 28.7206 31.2062C28.7206 31.0931 28.6075 30.9801 28.8337 30.9801C28.8337 30.9801 28.8337 30.867 28.8337 30.754L28.7206 30.6409C28.6075 30.7539 28.3814 30.754 28.2683 30.754C28.1553 30.754 28.1553 30.754 28.0422 30.754C27.8161 30.754 27.8161 30.7539 27.8161 30.6409C27.8161 30.7539 27.703 30.867 27.703 30.867C27.4769 30.7539 27.2507 30.867 26.9115 30.754C27.0246 30.754 27.1377 30.7539 27.1377 30.6409C27.1377 30.6409 27.1377 30.5278 27.2507 30.4148C26.7985 30.6409 26.3462 30.867 26.007 31.0931C25.7809 31.2062 25.4417 31.4323 25.3286 31.7715C25.3286 31.8846 25.1025 32.1107 24.9894 32.2238C24.7633 32.4499 24.7633 32.9022 24.6502 33.1283C24.6502 33.2414 24.5372 33.3545 24.5372 33.5806C24.5372 33.6937 24.5372 33.8067 24.5372 33.9198V34.0329C24.5372 34.0329 24.5372 34.1459 24.6502 34.1459C24.4241 34.3721 24.4241 34.4851 24.5372 34.7113C24.6502 34.9374 24.6502 35.1635 24.6502 35.5027C24.7633 35.2766 24.8764 35.3896 24.9894 35.5027C24.7633 35.8419 24.8764 36.1811 25.1025 36.5203C25.1025 36.6334 25.2156 36.7464 25.2156 36.8595C25.2156 36.9726 25.3286 37.0856 25.3286 37.1987C25.5548 37.4248 25.6678 37.651 25.6678 37.9902C25.6678 38.1032 25.7809 38.2163 25.7809 38.3294C26.007 38.1032 26.1201 37.9902 26.3462 37.8771C26.4593 37.8771 26.4593 37.764 26.5723 37.764C27.0246 37.651 27.2507 37.3118 27.703 37.1987C27.703 37.1987 27.703 37.0856 27.8161 37.0856C27.8161 37.0856 27.8161 36.9726 27.9291 36.9726C28.1553 36.7464 28.3814 36.6334 28.6075 36.4072C28.7206 36.2942 28.8337 36.1811 28.8337 36.068C28.9467 35.955 28.9467 35.8419 29.0598 35.8419C29.1729 35.7288 29.1729 35.6158 29.1729 35.5027C29.2859 35.5027 29.6251 35.2766 29.6251 35.0505C29.6251 34.7113 29.8513 34.3721 30.0774 34.1459C30.0774 34.0329 30.0774 34.0329 30.1905 33.9198C30.1905 33.6937 30.1904 33.3545 30.3035 33.1283C30.3035 32.9022 30.1905 32.9022 30.0774 32.6761C30.0774 32.563 29.9643 32.563 29.9643 32.563C30.1905 32.4499 30.3035 32.4499 30.5296 32.4499C30.6427 32.9022 30.7558 33.3545 30.8688 33.8067C31.095 33.8067 31.095 33.9198 31.095 34.0329C31.208 34.259 31.3211 34.4851 31.5472 34.5982C31.6603 34.8243 31.8864 35.0505 31.9995 35.1635L32.1126 35.2766H32.2256C32.3387 35.3896 32.5648 35.5027 32.6779 35.6158C32.904 35.7288 33.1302 35.7288 33.3563 35.8419C33.3563 35.8419 33.4694 35.8419 33.4694 35.955C33.4694 35.955 33.4694 35.955 33.5824 35.955C33.6955 35.955 33.9216 35.955 34.0347 35.955C34.2608 35.955 34.487 36.068 34.7131 36.068C34.7131 36.068 34.7131 36.068 34.8261 36.068C35.0523 35.8419 35.0523 35.955 35.0523 36.1811C35.2784 36.1811 35.3915 36.2942 35.5045 36.2942C35.8437 36.5203 36.1829 36.5203 36.5221 36.4072H36.4091C36.6352 36.2942 36.8613 36.2942 37.0875 36.1811C37.2005 36.1811 37.3136 36.1811 37.4267 36.068C37.5397 36.068 37.5397 35.955 37.6528 35.955C37.7659 35.8419 37.8789 35.6158 38.1051 35.5027C37.8789 35.5027 37.7659 35.5027 37.6528 35.7288C37.6528 35.8419 37.4267 35.8419 37.3136 35.8419C37.2005 35.8419 37.0875 35.8419 36.9744 35.955C36.6352 35.955 36.4091 36.068 36.0699 36.1811H35.9568C35.8437 35.955 35.6176 35.955 35.3915 35.955H35.2784V35.8419C35.5045 35.6158 35.5045 35.5027 35.3915 35.1635C35.3915 35.0505 35.3915 34.8243 35.3915 34.7113C35.3915 34.4851 35.5045 34.1459 35.5045 33.9198C35.5045 33.8067 35.6176 33.6937 35.7307 33.5806C35.7307 33.2414 35.5045 33.0153 35.3915 32.7891C35.1653 32.563 35.0523 32.2238 34.9392 31.9977C34.9392 31.8846 34.9392 31.8846 34.9392 31.7715C34.9392 31.6585 34.9392 31.5454 34.8261 31.4323C34.8261 31.4323 34.8261 31.4323 34.8261 31.3193C34.8261 30.9801 34.8261 30.6409 35.0523 30.3017C35.0523 30.1886 35.2784 30.3017 35.3915 30.3017L35.5045 30.4148C35.3915 30.4148 35.1653 30.4148 35.0523 30.4148C35.1653 30.5278 35.1653 30.754 35.2784 30.754C35.3915 30.754 35.3915 30.6409 35.5045 30.6409C35.6176 30.5278 35.7307 30.4148 35.8437 30.3017C35.8437 30.3017 35.8437 30.3017 35.9568 30.4148C35.8437 30.5278 35.8437 30.5278 35.7307 30.6409C35.6176 30.7539 35.6176 30.867 35.7307 30.867C35.8437 30.9801 35.8437 31.2062 36.0699 31.2062C36.0699 31.3193 36.0699 31.3193 36.1829 31.4323C36.1829 31.5454 36.1829 31.5454 36.296 31.6585C36.4091 31.6585 36.5221 31.5454 36.6352 31.5454C36.8613 31.6585 36.8613 31.6585 36.6352 31.7715C36.6352 31.7715 36.6352 31.8846 36.6352 31.9977C36.9744 31.7715 37.2005 31.6585 37.2005 31.5454C37.2005 31.5454 37.3136 31.5454 37.4267 31.5454C37.4267 31.7715 37.3136 31.9977 37.6528 31.9977C37.6528 31.9977 37.7659 31.8846 37.7659 31.7715C37.7659 31.8846 37.8789 31.9977 37.8789 31.9977C37.992 32.2238 38.1051 32.3369 38.1051 32.4499C38.1051 32.4499 38.1051 32.6761 37.992 32.6761C37.7659 32.6761 37.6528 32.9022 37.5397 33.1283L37.4267 33.2414C37.5397 33.1283 37.6528 33.1283 37.6528 33.0153C37.7659 32.9022 37.8789 32.9022 37.992 32.7891C38.1051 32.6761 38.2181 32.563 38.2181 32.3369C38.3312 32.2238 38.3312 32.2238 38.4443 32.1107C38.3312 32.2238 38.3312 32.2238 38.2181 32.2238C38.2181 32.2238 38.2181 32.2238 38.1051 32.1107C38.2181 31.9977 38.2181 31.9977 38.3312 31.8846C38.3312 31.7715 38.2181 31.7715 38.1051 31.6585C38.2181 31.6585 38.2181 31.5454 38.3312 31.5454C38.3312 31.4323 38.3312 31.3193 38.3312 31.2062C38.3312 31.2062 38.3312 31.2062 38.4443 31.2062C38.5573 31.3193 38.5573 31.5454 38.6704 31.6585C38.7835 31.7715 38.7835 31.8846 38.8965 31.7715L38.7835 31.6585L38.8965 31.5454C39.0096 31.6585 39.1227 31.5454 39.2357 31.4323C39.1227 31.3193 39.3488 31.0931 39.0096 30.9801C39.1227 30.9801 39.2357 30.9801 39.2357 30.9801C39.2357 30.9801 39.2357 30.9801 39.3488 30.867L39.4619 30.754C39.5749 30.754 39.688 30.6409 39.688 30.6409C39.801 30.4148 40.0272 30.0756 39.688 29.8494C39.5749 29.8494 39.801 29.5102 39.9141 29.3972C39.9141 29.5102 39.9141 29.6233 39.9141 29.7364C40.0272 29.7364 40.0272 29.6233 40.1402 29.5102C40.0272 29.2841 39.9141 29.058 39.9141 28.8318C39.9141 28.7188 39.9141 28.4926 39.801 28.3796ZM34.8261 26.2313C34.8261 26.1183 34.8261 26.1182 34.8261 26.0052C34.8261 26.0052 34.9392 26.0052 34.9392 25.8921C34.9392 25.8921 35.0523 26.0052 35.0523 26.1183C34.9392 26.1183 34.9392 26.1183 34.8261 26.2313ZM35.1653 25.8921C35.1653 25.7791 35.2784 25.7791 35.3915 25.666C35.5045 25.666 35.5045 25.5529 35.6176 25.5529C35.7307 25.5529 35.7307 25.666 35.7307 25.7791C35.5045 25.7791 35.3915 25.8921 35.1653 25.8921Z" fill="#EAD039"/>
<path d="M31.6598 26.9096C31.6598 26.7965 31.7729 26.7965 31.6598 26.9096C31.886 26.6834 31.886 26.6834 31.999 26.5704L32.1121 26.4573C32.1121 26.4573 32.1121 26.3442 31.999 26.3442C31.886 26.4573 31.7729 26.5704 31.6598 26.5704C31.4337 26.6834 31.4337 26.7965 31.6598 26.9096Z" fill="#EAD039"/>
<path d="M41.1593 27.4751C40.9331 27.7012 41.1593 27.7012 41.2723 27.9274C41.3854 27.7012 41.2723 27.5882 41.1593 27.4751Z" fill="#EAD039"/>
<path d="M32.5658 20.2384C32.4527 20.0122 32.4527 20.2384 32.2266 20.3514C32.4527 20.4645 32.5658 20.3514 32.5658 20.2384Z" fill="#EAD039"/>
<path d="M32.2261 26.6836C32.1131 26.6836 32.1131 26.6836 32 26.7966C32.2261 27.0228 32.3392 27.0228 32.4523 26.7966C32.5653 26.6836 32.6784 26.6836 32.7915 26.5705L32.9045 26.4574C32.5653 26.3444 32.3392 26.4574 32.2261 26.6836Z" fill="#EAD039"/>
<path d="M39.4622 28.1537C39.6884 27.5883 39.2361 27.2491 39.123 26.7969C39.123 26.9099 39.123 27.023 39.2361 27.1361C39.2361 27.2491 39.3492 27.3622 39.3492 27.4753C39.2361 27.4753 39.2361 27.4753 39.123 27.4753C39.2361 27.4753 39.3492 27.5883 39.4622 27.5883C39.4622 27.5883 39.4622 27.5883 39.3492 27.5883C39.3492 27.9275 39.3492 28.0406 39.4622 28.1537Z" fill="#EAD039"/>
<path d="M38.5586 33.0156C38.5586 33.2418 38.6717 33.2418 38.7847 33.3548C38.8978 33.4679 39.0109 33.4679 38.7847 33.581C38.7847 33.581 38.6717 33.4679 38.5586 33.4679C38.5586 33.581 38.5586 33.694 38.6717 33.8071C38.8978 33.9202 39.0109 33.9202 39.237 34.0332C39.237 33.9202 39.3501 33.9202 39.3501 33.8071C39.1239 33.4679 38.8978 33.2418 38.5586 33.0156Z" fill="#EAD039"/>
<path d="M18.3201 38.1034C18.4332 38.2164 18.5462 38.2164 18.5462 38.1034C18.5462 37.8772 18.5462 37.6511 18.5462 37.538C18.5462 37.538 18.4332 37.425 18.4332 37.538C18.3201 37.538 18.3201 37.6511 18.207 37.6511C18.4332 37.6511 18.5462 37.7642 18.4332 37.9903C18.3201 37.9903 18.3201 37.9903 18.3201 38.1034Z" fill="#EAD039"/>
<path d="M20.1283 33.9196C20.0152 33.9196 20.0152 33.9196 19.9022 33.9196C19.676 33.8065 19.563 34.1457 19.4499 34.1457V34.2588C19.4499 34.3718 19.563 34.3718 19.563 34.4849C19.4499 34.598 19.3368 34.8241 19.1107 34.9372C18.8846 34.8241 18.8846 34.8241 19.1107 34.598V34.4849C18.8846 34.8241 18.4323 34.711 18.2062 35.0502C18.2062 35.1633 18.0931 35.1633 17.98 35.2763C17.867 35.2763 17.867 35.3894 17.7539 35.3894C17.867 35.7286 17.98 36.0678 18.0931 36.407C18.0931 36.1809 18.2062 36.1809 18.3192 36.1809C18.5454 35.9547 18.8846 35.8417 19.2238 35.6155C19.3368 35.3894 19.563 35.2763 19.676 35.1633C19.9022 34.9372 20.1283 34.598 20.3544 34.3718C20.4675 34.2588 20.5806 34.1457 20.5806 34.0326C20.5806 34.0326 20.6936 34.0326 20.9197 34.1457C20.8067 34.0326 20.6936 34.0326 20.5806 33.9196C20.4675 33.9196 20.2414 33.9196 20.1283 33.9196Z" fill="#EAD039"/>
<path d="M19.9024 39.2339C19.7894 39.347 19.5632 39.46 19.4502 39.5731C19.5632 39.5731 19.5632 39.6862 19.6763 39.6862C19.5632 39.6862 19.4502 39.7992 19.3371 39.7992C19.224 39.7992 19.111 39.9123 19.111 40.0254C19.111 40.1384 18.8849 40.2515 18.7718 40.1384C18.7718 40.1384 18.7718 40.0254 18.6587 39.9123C18.6587 39.9123 18.5457 39.9123 18.4326 39.9123C18.3195 39.9123 18.2065 39.7992 18.2065 39.7992C18.2065 39.6862 18.0934 39.46 18.2065 39.347C18.3195 39.0078 18.2065 38.7816 17.9803 38.5555C17.7542 38.6686 17.6411 38.7817 17.5281 38.8947C17.3019 39.0078 17.1889 39.1208 17.3019 39.347C17.3019 39.46 17.3019 39.6862 17.415 39.7992V39.9123C17.5281 40.0254 17.5281 40.1384 17.415 40.3646C17.3019 40.2515 17.1889 40.1384 17.3019 40.0254C17.3019 39.9123 17.3019 39.7992 17.1889 39.7992C16.8497 39.6862 16.8497 39.46 17.0758 39.1208C17.0758 39.1208 17.1889 39.0078 17.0758 38.8947C17.0758 38.8947 17.1889 38.7817 17.1889 38.6686V38.7816C17.3019 38.7816 17.415 38.7816 17.5281 38.7816C17.5281 38.6686 17.5281 38.5555 17.415 38.4425C17.415 38.4425 17.415 38.4425 17.415 38.3294C17.0758 38.4425 16.7366 38.5555 16.3974 38.6686L16.5105 38.5555C16.3974 38.5555 16.2843 38.5555 16.1713 38.5555C16.5105 38.3294 16.8497 38.1033 17.3019 37.8771L17.1889 37.7641C17.415 37.7641 17.6411 37.651 17.8673 37.651C17.8673 37.651 17.8673 37.7641 17.8673 37.8771C17.9803 37.7641 18.0934 37.5379 18.3195 37.4249C17.8673 37.0857 17.415 37.3118 16.9627 37.4249C16.9627 37.4249 16.9627 37.4249 16.9627 37.3118L16.8497 37.1987C16.5105 37.3118 16.2843 37.3118 16.0582 37.5379C15.719 37.651 15.4929 37.7641 15.1537 37.9902C14.9275 38.1033 14.7014 38.3294 14.5883 38.4425C14.3622 38.6686 14.2492 38.7817 14.023 39.0078C13.91 39.1208 13.7969 39.2339 13.6838 39.46C13.5708 39.5731 13.5708 39.5731 13.4577 39.46C13.3446 39.5731 13.3446 39.6862 13.2316 39.46C13.2316 39.5731 13.1185 39.5731 13.1185 39.6862C13.2316 39.7992 13.3446 39.9123 13.3446 39.9123C13.3446 40.0254 13.2316 40.1384 13.1185 40.2515C12.8924 40.0254 13.2316 39.7992 12.8924 39.6862C12.8924 39.9123 12.7793 40.1384 12.7793 40.3646C13.1185 40.5907 13.5708 40.8168 13.91 40.9299C14.023 40.9299 14.023 40.8168 14.1361 40.8168C14.2492 40.7038 14.5884 40.5907 14.8145 40.7038C14.9275 40.8168 15.0406 40.8168 15.2667 40.9299C15.2667 41.043 15.2667 41.043 15.3798 41.156C15.4929 41.3822 15.4929 41.3822 15.6059 41.156C15.719 41.156 15.8321 41.156 15.9451 41.156C15.9451 41.2691 15.9451 41.2691 15.8321 41.3822C16.0582 41.3822 16.2843 41.3822 16.2843 41.7214C16.2843 41.6083 16.3974 41.4952 16.3974 41.3822C16.6235 41.2691 16.8497 41.2691 16.9627 41.4952C17.1889 41.2691 17.3019 41.2691 17.5281 41.6083C17.415 41.8344 17.3019 42.0606 17.0758 42.2867C16.9627 42.2867 16.9627 42.2867 16.8497 42.2867C17.8673 42.6259 18.8849 42.739 19.9024 42.9651C19.5632 42.6259 19.6763 42.1736 19.7894 41.7214C19.7894 41.6083 19.7894 41.6083 19.6763 41.4952C19.5632 41.3822 20.0155 41.2691 19.6763 41.156C19.5632 41.043 19.3371 41.156 19.224 41.043C19.224 41.043 19.224 41.043 19.3371 41.043C19.4502 41.043 19.5632 40.9299 19.6763 40.9299C19.6763 41.043 19.7894 41.043 19.7894 41.156C19.9024 40.9299 19.9024 40.8168 19.9024 40.7038C20.0155 40.5907 20.0155 40.3646 20.1286 40.2515C20.1286 40.1384 20.1286 39.9123 20.1286 39.6862C20.1286 39.6862 20.0155 39.6862 19.9024 39.5731C19.9024 39.46 20.1286 39.347 19.9024 39.2339Z" fill="#EAD039"/>
<path d="M6.89931 34.7114C6.67318 34.7114 6.56012 34.7114 6.33398 34.7114C6.44705 34.8245 6.44705 34.9376 6.56012 35.0506C6.67318 35.0506 6.67318 34.9376 6.56012 34.8245C6.78625 34.8245 6.78625 34.8245 6.89931 34.7114Z" fill="#EAD039"/>
<path d="M20.8071 30.9799C20.694 31.0929 20.581 31.206 20.4679 31.206C20.3549 31.3191 20.2418 31.3191 20.1287 31.4321C20.1287 31.4321 20.1287 31.5452 20.1287 31.6583C20.0157 31.6583 19.9026 31.6583 19.7895 31.6583C19.9026 31.8844 19.7895 31.9975 19.6765 31.9975C19.6765 32.1105 19.6765 32.1105 19.6765 32.1105C19.4503 32.3367 19.3373 32.5628 18.9981 32.6759C18.885 32.6759 18.7719 32.6759 18.7719 32.902C18.7719 33.0151 18.6589 33.0151 18.5458 33.1281C18.0935 33.3543 17.9805 33.6935 17.9805 34.1457C17.9805 34.2588 17.9805 34.2588 17.9805 34.3719C18.0935 34.2588 18.2066 34.2588 18.3197 34.2588C18.5458 34.3719 18.5458 34.1457 18.6589 34.0327C18.6589 34.0327 18.6589 33.9196 18.6589 33.8065C18.5458 33.8065 18.5458 33.8065 18.4327 33.8065C18.3197 33.8065 18.3197 33.9196 18.2066 34.0327C18.2066 33.9196 18.0935 33.8065 18.2066 33.8065C18.2066 33.6935 18.3197 33.5804 18.4327 33.5804C18.7719 33.6935 18.9981 33.5804 19.1111 33.3543C19.1111 33.2412 19.2242 33.2412 19.3373 33.2412C19.4503 33.1281 19.5634 33.1281 19.6765 33.0151C19.7895 33.0151 19.7895 33.0151 19.9026 33.0151H20.0157C20.1287 33.0151 20.2418 33.0151 20.2418 32.902C20.2418 32.7889 20.3549 32.7889 20.3549 32.6759C20.4679 32.5628 20.4679 32.5628 20.581 32.4497H20.694C20.694 32.4497 20.694 32.5628 20.694 32.6759C20.581 32.902 20.3549 33.1281 20.1287 33.1281C19.9026 33.1281 19.7895 33.2412 19.6765 33.4673C19.5634 33.4673 19.5634 33.4673 19.4503 33.5804V33.6935C19.4503 33.6935 19.4503 33.8065 19.5634 33.8065H19.6765V33.6935C19.7895 33.6935 19.9026 33.6935 20.0157 33.6935H20.1287C20.0157 33.8065 20.0157 33.8065 20.0157 33.8065C20.3549 33.8065 20.581 33.9196 20.9202 33.9196C21.0332 33.9196 21.1463 33.8065 21.1463 33.8065C21.0332 33.9196 21.0332 34.0327 20.9202 34.1457C20.8071 34.2588 20.8071 34.2588 20.694 34.3719C20.694 34.2588 20.8071 34.1457 20.9202 34.1457C20.8071 34.2588 20.6941 34.3719 20.581 34.4849C20.581 34.4849 20.581 34.4849 20.694 34.4849L20.581 34.598C20.581 34.598 20.581 34.598 20.4679 34.7111C20.4679 34.7111 20.4679 34.598 20.4679 34.4849C20.3549 34.598 20.2418 34.8241 20.1287 34.9372C20.3549 34.8241 20.3549 34.8241 20.4679 34.7111C20.3549 34.8241 20.2418 34.9372 20.1287 35.0503C19.9026 35.2764 19.7895 35.5025 19.5634 35.6156C19.4503 35.7286 19.3373 35.9548 19.3373 36.1809C19.6765 36.1809 19.9026 36.0678 20.0157 35.9548C20.2418 35.7286 20.4679 35.7286 20.694 35.6156C20.8071 35.5025 21.0332 35.3894 21.1463 35.2764C21.2594 35.1633 21.3724 35.1633 21.4855 35.0503C21.5986 34.9372 21.7116 34.9372 21.7116 34.8241C21.7116 34.8241 21.7116 34.7111 21.8247 34.7111C21.9378 34.7111 22.0508 34.598 22.1639 34.4849C22.39 34.3719 22.39 34.1457 22.39 33.9196C22.39 33.8065 22.5031 33.6935 22.6162 33.5804C22.7292 33.4673 22.8423 33.3543 22.8423 33.2412C22.9554 33.0151 23.0684 32.902 23.0684 32.6759C23.0684 32.5628 23.0684 32.4497 23.0684 32.3367C23.0684 32.3367 23.1815 32.3367 23.1815 32.2236C23.1815 32.2236 23.1815 32.2236 23.1815 32.3367C23.2946 32.3367 23.2946 32.3367 23.4076 32.2236C23.6338 31.9975 23.973 31.7713 24.1991 31.6583C24.6514 31.4321 24.7644 31.0929 25.2167 30.8668C25.4428 30.7537 25.5559 30.6407 25.782 30.6407C25.6689 30.5276 25.782 30.5276 25.782 30.4146C25.3297 30.5276 24.8775 30.7537 24.4252 30.8668L24.5383 30.7537C24.4252 30.7537 24.3122 30.7537 24.3122 30.7537C24.3122 30.8668 24.3122 30.8668 24.3122 30.8668C24.086 30.9799 23.7468 30.9799 23.5207 30.8668C23.6338 30.9799 23.8599 31.0929 23.973 31.3191C24.086 31.3191 24.1991 31.206 24.3122 31.206C24.086 31.5452 23.7468 31.6583 23.5207 31.8844V31.7713C23.5207 31.6583 23.4076 31.5452 23.4076 31.4321C23.4076 31.3191 23.4076 31.206 23.1815 31.0929C23.0684 31.0929 23.0684 30.8668 22.9554 30.7537C22.7292 30.5276 22.6162 30.5276 22.39 30.6407C22.0508 30.7537 22.0508 31.0929 22.1639 31.3191V31.4321C22.1639 31.4321 22.1639 31.4321 22.0508 31.4321C22.0508 31.206 22.0508 30.9799 22.0508 30.6407C21.8247 30.7537 21.4855 30.8668 21.2594 30.9799C21.1463 30.9799 21.1463 30.9799 21.0332 30.9799C20.9202 30.9799 20.9202 30.9799 20.8071 30.9799ZM21.5986 33.4673C21.5986 33.4673 21.4855 33.5804 21.5986 33.4673C21.4855 33.5804 21.4855 33.5804 21.5986 33.4673ZM22.8423 32.4497C22.7292 32.5628 22.7292 32.5628 22.6162 32.6759C22.7292 32.5628 22.7292 32.5628 22.8423 32.4497Z" fill="#EAD039"/>
<path d="M17.8679 34.8243C17.8679 34.7113 17.981 34.5982 17.981 34.5982C17.981 34.5982 17.981 34.4851 17.981 34.3721C17.8679 34.3721 17.8679 34.4851 17.7548 34.4851C17.7548 34.5982 17.6418 34.5982 17.8679 34.8243Z" fill="#EAD039"/>
<path d="M18.2062 37.6509C17.98 37.7639 17.867 37.877 17.7539 37.9901C18.2062 37.9901 18.3192 37.9901 18.2062 37.6509Z" fill="#EAD039"/>
<path d="M30.7568 26.9093C30.7568 27.0224 30.7568 27.0224 30.8699 27.1354C30.983 26.9093 30.983 26.5701 31.096 26.344C31.2091 26.1178 31.3222 26.0048 31.096 25.6656L30.983 25.7786V25.8917C30.5307 25.7787 30.3046 26.2309 30.0784 26.344C29.8523 26.457 29.6262 26.6832 29.4 26.7962C29.1739 27.0224 28.9478 27.1354 28.7216 27.3616C28.6086 27.4746 28.4955 27.4746 28.3824 27.4746C28.3824 27.3616 28.3824 27.3616 28.3824 27.2485C28.4955 27.2485 28.6086 27.1354 28.6086 27.1354C28.7216 27.0224 28.8347 26.9093 28.9478 26.9093C29.0608 26.9093 29.0608 26.7962 29.1739 26.6832C29.287 26.5701 29.287 26.5701 29.4 26.5701C29.5131 26.457 29.7392 26.457 29.7392 26.344C29.8523 26.1178 30.0784 26.1178 30.1915 25.8917C30.3046 25.7787 30.4176 25.6656 30.6438 25.6656C30.6438 25.6656 30.6438 25.6656 30.6438 25.5525C30.5307 25.5525 30.3046 25.4395 30.1915 25.4395C29.8523 25.4395 29.5131 25.4395 29.1739 25.5525C28.7216 25.6656 28.2694 25.6656 27.9302 25.7786C27.4779 25.8917 27.1387 26.1178 26.7995 26.344C26.6865 26.457 26.5734 26.5701 26.4603 26.5701C26.1211 26.6832 26.0081 26.7962 25.895 27.1354V27.2485C25.5558 27.4746 25.3297 27.9269 25.1035 28.2661C24.9905 28.4922 24.7643 28.7184 24.5382 28.8314C24.5382 28.9445 24.4251 28.9445 24.4251 29.0576C24.4251 29.2837 24.199 29.5098 24.3121 29.736V29.849C24.199 30.0752 24.0859 30.1882 24.0859 30.3013C24.199 30.4143 24.3121 30.4143 24.4251 30.4143C24.7643 30.5274 24.9905 30.4144 25.3297 30.1882H25.4427C25.7819 30.1882 26.1211 29.9621 26.4603 29.849C26.5734 29.736 26.7995 29.736 26.9126 29.6229C27.2518 29.5098 27.591 29.3968 27.9302 29.2837C28.1563 29.1706 28.3824 29.0576 28.6086 28.9445C28.7216 28.9445 28.8347 28.9445 28.8347 28.8314C29.1739 28.7184 29.5131 28.6053 29.8523 28.3792C30.1915 28.153 30.5307 27.8138 30.7568 27.3616V27.2485C30.7568 27.2485 30.7568 27.2485 30.7568 27.1354C30.6438 27.2485 30.6438 27.2485 30.5307 27.3616C30.5307 27.2485 30.4176 27.1354 30.5307 27.0224C30.6438 26.7962 30.7568 26.5701 30.8699 26.344C30.8699 26.344 30.8699 26.344 30.983 26.344C30.983 26.5701 30.8699 26.7962 30.7568 26.9093C30.8699 26.9093 30.8699 26.9093 30.7568 26.9093Z" fill="#EAD039"/>
<path d="M41.9508 26.7963C41.8377 26.7963 41.7246 26.6833 41.6116 26.5702C41.7246 26.5702 41.8377 26.4571 41.9508 26.4571C41.8377 26.3441 41.7246 26.3441 41.4985 26.231C41.4985 26.231 41.4985 26.1179 41.4985 26.0049C41.3854 26.1179 41.2724 26.231 41.1593 26.3441C41.0462 26.3441 40.8201 26.3441 40.707 26.3441C40.8201 26.5702 40.9332 26.5702 41.1593 26.4571C41.1593 26.4571 41.1593 26.4571 41.1593 26.5702C41.0462 26.6833 41.0462 26.6833 40.9332 26.7963C41.0462 26.9094 41.2724 27.1355 41.3854 27.2486C41.4985 27.3617 41.6116 27.5878 41.6116 27.7009C41.7246 27.8139 41.8377 28.0401 41.9508 28.2662C42.0638 27.8139 42.1769 27.2486 42.29 26.7963C42.29 26.6833 42.1769 26.6833 41.9508 26.7963Z" fill="#EAD039"/>
<path d="M18.2065 36.7464C18.2065 36.7464 18.3196 36.7464 18.4326 36.6334C18.4326 36.6334 18.5457 36.5203 18.4326 36.4072C18.3196 36.4072 18.2065 36.5203 18.2065 36.5203C18.0934 36.6334 18.2065 36.7464 18.2065 36.7464Z" fill="#EAD039"/>
<path d="M39.9137 21.0303C40.0268 20.8041 40.0268 20.578 40.0268 20.3519C40.0268 20.1257 40.1398 20.0127 40.1398 19.7865C40.1398 19.6735 40.2529 19.5604 40.0268 19.5604C39.9137 19.5604 39.9137 19.3343 39.9137 19.2212C39.9137 18.9951 40.0268 18.882 40.0268 18.6559C40.0268 18.6559 39.9137 18.5428 39.8007 18.4297C39.8007 19.1081 39.9137 19.6735 39.8007 20.1257C39.6876 20.6911 39.6876 21.2564 39.3484 21.7087C39.3484 21.5956 39.3484 21.5956 39.3484 21.4825C39.4615 21.2564 39.4615 20.9172 39.5745 20.6911C39.5745 20.6911 39.5745 20.578 39.5745 20.4649C39.4615 20.2388 39.4615 20.0127 39.3484 19.8996C39.3484 19.8996 39.3484 19.7865 39.3484 19.6735C39.5745 19.5604 39.5745 19.3343 39.6876 19.1081C39.8006 18.882 39.6876 18.7689 39.5745 18.6559C39.5745 18.7689 39.5745 18.7689 39.5745 18.7689C39.5745 18.9951 39.4615 19.1081 39.2353 18.9951C39.1223 18.9951 39.0092 19.1081 39.0092 19.1081C38.7831 19.3343 38.5569 19.5604 38.4439 19.7865C38.4439 19.8996 38.3308 19.8996 38.3308 20.0127C38.3308 20.0127 38.3308 20.0127 38.2177 20.0127C38.1047 20.1257 37.9916 20.2388 37.8785 20.3519C37.7655 20.578 37.7655 20.8041 37.5393 20.9172C37.4263 21.0303 37.3132 21.1433 37.2001 21.3695C37.0871 21.1433 37.2001 21.0303 37.3132 20.9172C37.5393 20.8041 37.6524 20.8041 37.6524 20.578C37.7655 20.578 37.7655 20.4649 37.8785 20.2388C37.9916 20.0127 38.1047 19.7865 38.3308 19.5604C38.4439 19.4473 38.67 19.3343 38.7831 19.1081C38.8961 18.882 39.1223 18.7689 39.2353 18.5428C39.3484 18.4297 39.4615 18.3167 39.5745 18.0906C39.4615 17.8644 39.3484 17.9775 39.2353 17.9775C39.1223 17.9775 39.0092 18.0906 39.0092 18.0906C38.4439 18.2036 37.8785 18.4297 37.3132 18.7689C36.8609 18.9951 36.4087 19.2212 35.9564 19.4473C35.8433 19.4473 35.7303 19.5604 35.7303 19.6735C35.8433 19.6735 35.8433 19.5604 35.9564 19.5604C36.4087 19.3343 36.7479 19.2212 37.2001 19.1081C37.2001 19.1081 37.2001 19.1081 37.2001 19.2212C36.974 19.3343 36.7479 19.4473 36.5217 19.5604C36.6348 19.6735 36.6348 19.6735 36.7479 19.6735C36.6348 19.6735 36.6348 19.6735 36.5217 19.6735C36.4087 19.6735 36.4087 19.5604 36.2956 19.5604C36.2956 19.5604 36.2956 19.5604 36.2956 19.6735C36.2956 19.6735 36.2956 19.7865 36.4087 19.7865C36.1825 19.8996 36.0695 20.1257 35.9564 20.2388C35.7303 20.1257 35.5042 20.1257 35.278 20.3519C35.165 20.4649 35.0519 20.4649 34.9388 20.578C34.8258 20.6911 34.8258 20.8041 34.8258 20.9172C34.8258 20.9172 34.8258 20.9172 34.9388 21.0303C34.8258 21.0303 34.7127 21.0303 34.5996 21.0303L34.4866 21.1433C34.5996 21.1433 34.5996 21.1433 34.5996 21.1433C34.5996 21.1433 34.5996 21.1433 34.5996 21.2564C34.4866 21.2564 34.4866 21.2564 34.3735 21.3695C34.2604 21.4825 34.2604 21.5956 34.1474 21.7087C33.9212 21.9348 33.8082 22.1609 33.9212 22.5001C33.9212 22.5001 33.9212 22.6132 33.8082 22.7263C33.582 22.9524 33.582 23.1785 33.582 23.4046C33.582 23.5177 33.582 23.6308 33.582 23.7438C33.582 23.8569 33.582 23.97 33.582 24.083C33.582 24.3092 33.582 24.4222 33.582 24.6484C33.582 24.7614 33.582 24.7614 33.582 24.8745C33.6951 24.9876 33.6951 25.2137 33.582 25.3268C33.582 25.5529 33.582 25.666 33.6951 25.8921C33.6951 25.8921 33.8082 26.0052 33.8082 25.8921C33.9212 25.8921 34.1474 25.779 34.2604 25.666C34.3735 25.5529 34.5996 25.5529 34.7127 25.4398C34.8258 25.3268 34.9388 25.2137 35.165 25.2137C35.278 25.1006 35.5041 24.9876 35.6172 24.9876C35.7303 24.8745 35.8433 24.8745 35.9564 24.7614C36.0695 24.7614 36.0695 24.7614 36.1825 24.6484C36.2956 24.6484 36.4087 24.5353 36.4087 24.5353C36.5217 24.5353 36.5217 24.4222 36.6348 24.3092C36.6348 24.3092 36.6348 24.1961 36.6348 24.083C36.974 24.1961 37.3132 23.97 37.5393 23.7438C37.4263 23.7438 37.3132 23.7438 37.2001 23.7438C37.2001 23.7438 37.2001 23.7438 37.2001 23.6308C37.3132 23.6308 37.5393 23.6308 37.7655 23.6308C37.7655 23.6308 37.7655 23.5177 37.6524 23.5177C37.8785 23.5177 37.9916 23.5177 38.1047 23.5177C37.9916 22.9524 38.4439 23.0654 38.67 23.0654C38.67 22.9524 38.67 22.9524 38.67 22.8393C38.7831 22.8393 38.7831 22.8393 38.8961 22.8393C39.2353 22.6132 38.8961 22.274 39.0092 22.0479C39.1223 22.1609 39.1223 22.274 39.2353 22.5001C39.3484 22.3871 39.5745 22.274 39.8007 22.1609C39.4615 21.9348 39.5745 21.8217 39.6876 21.5956C39.8006 21.3695 39.9137 21.2564 39.9137 21.0303Z" fill="#EAD039"/>
<path d="M25.6683 42.2867C25.6683 42.1737 25.6683 42.0606 25.6683 41.9475C25.6683 41.8345 25.6683 41.7214 25.6683 41.6083C25.6683 41.3822 25.5552 41.1561 25.5552 40.8169C25.5552 40.5907 25.4421 40.4777 25.4421 40.2516C25.4421 40.1385 25.3291 40.1385 25.4421 40.0254C25.4421 39.7993 25.3291 39.5732 25.216 39.347C25.216 39.234 25.216 39.1209 25.1029 39.0078C25.1029 38.8948 24.9899 38.8948 24.8768 38.7817C25.1029 38.7817 25.216 38.7817 25.4421 38.7817C25.1029 38.6686 24.6507 38.4425 24.3115 38.3294C24.0853 38.3294 23.8592 38.1033 23.6331 37.9902C23.52 37.9902 23.4069 37.9902 23.2939 38.1033C23.4069 38.1033 23.52 38.1033 23.7461 38.1033C23.7461 38.1033 23.7461 38.2164 23.6331 38.3294C23.52 38.3294 23.4069 38.4425 23.4069 38.3294C23.2939 38.3294 23.2939 38.2164 23.1808 38.3294C23.0677 38.4425 23.0677 38.5556 23.1808 38.6686C23.1808 38.6686 23.1808 38.6686 23.2939 38.6686C23.1808 38.7817 23.0677 38.8948 22.9547 38.8948C22.8416 38.8948 22.8416 38.8948 22.7285 38.8948C22.6155 38.7817 22.5024 38.7817 22.2763 38.6686C22.5024 38.5556 22.7285 38.4425 22.9547 38.3294C22.8416 38.2164 22.8416 38.2164 22.7285 38.2164C22.6155 38.3294 22.5024 38.4425 22.3893 38.2164C22.3893 38.3294 22.3893 38.3294 22.3893 38.3294C22.1632 38.3294 21.9371 38.3294 21.711 38.4425C21.824 38.5556 21.824 38.5556 21.9371 38.6686C21.824 38.6686 21.711 38.7817 21.5979 38.7817C21.4848 38.7817 21.3718 38.6686 21.3718 38.4425C21.4848 38.4425 21.5979 38.4425 21.824 38.3294C21.711 38.3294 21.711 38.2164 21.5979 38.2164C21.4848 38.2164 21.3718 38.2164 21.3718 38.2164C21.2587 38.3294 21.2587 38.4425 21.0326 38.3294V38.4425C21.1456 38.5556 21.2587 38.6686 21.3718 38.7817L21.4848 38.8948C21.5979 39.234 21.824 39.5732 22.0502 39.7993L22.1632 39.9124C22.1632 40.0254 22.1632 40.1385 22.2763 40.2516C22.0502 39.7993 21.711 39.347 21.3718 38.8948V39.0078C21.3718 39.0078 21.2587 39.0078 21.2587 39.1209C21.2587 39.347 21.1456 39.4601 21.1456 39.6862C21.1456 40.0254 20.9195 40.2516 20.8064 40.5908C20.8064 40.7038 20.6934 40.8169 20.6934 40.9299C20.8064 40.9299 20.8064 40.9299 20.9195 40.9299C20.9195 41.043 20.9195 41.043 20.9195 41.1561C20.9195 41.2691 20.8064 41.3822 21.0326 41.3822V41.4953C20.9195 41.6083 20.9195 41.6083 21.0326 41.7214C21.1456 41.8345 21.1456 41.9475 21.1456 42.0606C21.1456 42.2867 21.1456 42.3998 21.1456 42.6259C22.8416 42.8521 24.6507 42.739 26.4597 42.5129C25.7813 42.5129 25.7813 42.3998 25.6683 42.2867ZM22.5024 40.5908C22.6155 40.7038 22.7285 40.8169 22.7285 41.043C22.6155 40.8169 22.5024 40.5908 22.3893 40.3646C22.3893 40.4777 22.5024 40.4777 22.5024 40.5908ZM23.1808 41.8345C23.0677 41.6083 22.9547 41.3822 22.7285 41.1561C22.7285 41.1561 22.7285 41.1561 22.8416 41.1561C22.9547 41.3822 23.0677 41.6083 23.2939 41.7214L23.1808 41.8345Z" fill="#EAD039"/>
<path d="M19.1107 34.0325C18.9976 33.9194 18.9976 33.9194 18.8846 33.9194C18.8846 33.9194 18.7715 33.9194 18.7715 34.0325C18.8846 34.0325 18.8846 34.0325 18.8846 34.1456C18.9976 34.0325 18.9976 34.0325 19.1107 34.0325Z" fill="#EAD039"/>
<path d="M29.3989 36.8594C29.3989 36.8594 29.3989 36.7464 29.3989 36.6333C29.0597 36.7464 28.8336 36.7464 28.6074 36.8594C28.4944 36.8594 28.3813 37.0856 28.2682 37.0856C27.929 37.1986 27.7029 37.4248 27.5898 37.764C27.7029 37.877 27.816 37.764 27.929 37.764C28.1552 37.6509 28.2682 37.5378 28.4944 37.4248C28.9466 37.0856 29.1728 36.9725 29.3989 36.8594Z" fill="#EAD039"/>
<path d="M17.6411 28.7188C17.4149 28.8318 17.0757 28.8318 16.8496 28.9449C16.8496 28.9449 16.8496 28.9449 16.8496 29.0579C17.4149 29.2841 17.8672 29.0579 18.4325 28.9449C18.2064 28.9449 17.9803 28.9449 17.8672 28.9449C17.7541 28.8318 17.6411 28.7188 17.6411 28.7188Z" fill="#EAD039"/>
<path d="M17.0758 30.5278C17.1888 30.4147 17.415 30.4147 17.528 30.4147C17.6411 30.1886 17.8672 30.0755 18.0933 30.0755C18.2064 29.9625 18.3195 29.8494 18.5456 29.9625C18.5456 29.9625 18.6587 29.9625 18.7717 29.9625C18.7717 29.8494 18.6587 29.8494 18.6587 29.8494L18.5456 29.7363C18.4325 29.7363 18.4325 29.7363 18.3195 29.7363C18.0933 29.7363 17.7542 29.7363 17.528 29.7363C17.1888 29.7363 16.8496 29.8494 16.5104 29.9625C16.3974 29.9625 16.1712 30.0755 16.0582 30.0755C15.9451 30.0755 15.9451 30.1886 15.832 30.1886C15.832 30.1886 15.832 30.1886 15.832 30.3017C15.9451 30.3017 16.0582 30.3017 16.1712 30.1886C16.2843 30.0755 16.5104 30.1886 16.5104 30.3017C16.6235 30.4147 16.6235 30.4147 16.6235 30.4147L16.5104 30.5278C16.6235 30.5278 16.6235 30.6409 16.7366 30.6409C16.8496 30.6409 16.8496 30.6409 17.0758 30.5278C17.0758 30.6409 17.0758 30.6409 17.0758 30.5278Z" fill="#EAD039"/>
<path d="M14.5879 31.319C14.701 31.4321 14.814 31.5451 14.9271 31.4321C15.0402 31.4321 15.1532 31.319 15.3794 31.319C15.1532 31.0929 14.701 31.0929 14.5879 31.319Z" fill="#EAD039"/>
<path d="M15.8312 31.319C15.605 31.0929 15.492 31.2059 15.3789 31.319C15.492 31.4321 15.605 31.5451 15.7181 31.6582C15.7181 31.319 15.9442 31.319 16.1704 31.4321C16.3965 31.4321 16.7357 31.4321 16.9618 31.2059C16.7357 30.9798 16.0573 30.9798 15.8312 31.319Z" fill="#EAD039"/>
<path d="M18.8846 26.6836C18.7715 26.7967 18.7715 26.9097 18.7715 27.1359C18.9976 27.0228 19.1107 26.9097 18.8846 26.6836Z" fill="#EAD039"/>
<path d="M18.8848 28.2661C19.1109 28.3791 19.1109 28.3791 19.224 28.3791C19.1109 28.3791 19.1109 28.2661 18.8848 28.2661C18.9978 28.153 18.8848 28.2661 18.8848 28.2661Z" fill="#EAD039"/>
<path d="M13.2314 27.0229C13.3445 26.9098 13.3445 26.9098 13.3445 26.9098C13.3445 27.0229 13.3445 27.249 13.3445 27.3621C13.5706 27.249 13.6837 27.3621 13.7967 27.5882L13.9098 27.7013C14.0229 27.7013 14.1359 27.8143 14.1359 27.8143C14.3621 28.0405 14.7012 28.0405 14.9274 28.0405C15.0404 28.0405 15.0404 28.0405 15.1535 28.0405H15.2666C15.4927 27.9274 15.6058 27.9274 15.8319 28.0405C15.945 28.0405 15.945 28.1535 16.058 28.1535C16.058 28.1535 16.1711 28.0405 16.1711 27.9274C16.1711 28.0405 16.1711 28.0405 16.1711 28.1535C16.2842 28.0405 16.3972 28.0405 16.3972 27.9274C16.3972 27.9274 16.3972 28.0405 16.5103 28.0405C16.3972 28.0405 16.3972 28.1535 16.2842 28.1535C16.1711 28.1535 16.058 28.2666 15.945 28.2666H15.8319C15.7188 28.2666 15.7188 28.1535 15.6058 28.1535C15.3796 28.1535 15.2666 28.2666 15.0404 28.2666C15.0404 28.2666 14.9274 28.4927 15.0404 28.4927C15.1535 28.6058 15.2666 28.7189 15.3796 28.8319C15.4927 28.945 15.4927 28.945 15.6058 29.0581C15.7188 28.945 15.7188 28.7189 15.7188 28.6058C15.8319 28.6058 15.8319 28.7189 15.945 28.7189C16.058 28.7189 16.1711 28.6058 16.058 28.4927C16.3972 28.3797 16.7364 28.2666 17.0756 28.0405C17.0756 28.0405 17.0756 28.1535 17.1887 28.2666C17.3018 28.0405 17.4148 27.9274 17.4148 27.7013C17.5279 27.7013 17.5279 27.5882 17.641 27.7013C17.8671 27.8143 18.0932 27.7013 18.2063 27.5882H18.3194C18.4324 27.4751 18.4324 27.4751 18.5455 27.3621C18.4324 27.249 18.3194 27.1359 18.2063 26.9098V26.6837C18.3194 26.5706 18.4324 26.4575 18.4324 26.3445C18.4324 26.3445 18.4324 26.2314 18.5455 26.2314C18.3194 26.1184 18.2063 26.0053 17.9802 25.8922C17.8671 25.7792 17.754 25.6661 17.641 25.44C17.5279 25.3269 17.5279 25.3269 17.4148 25.2138C17.4148 25.1008 17.4148 24.9877 17.3018 24.9877C17.3018 24.9877 17.3018 24.9877 17.4148 24.9877L17.3018 24.8746C17.1887 24.8746 17.1887 24.7616 17.1887 24.6485C17.1887 24.5354 17.1887 24.5354 17.1887 24.4224C17.0756 24.4224 16.9626 24.4224 16.9626 24.4224C16.7364 24.5354 16.6234 24.4224 16.3972 24.5354C16.2842 24.5354 16.1711 24.6485 15.945 24.6485C15.8319 24.6485 15.7188 24.7616 15.6058 24.7616C15.4927 24.7616 15.3796 24.7616 15.3796 24.8746C15.3796 24.9877 15.4927 24.9877 15.6058 25.1008C15.6058 25.2138 15.8319 25.44 15.4927 25.553C15.3796 25.3269 15.1535 25.1008 15.0404 24.8746C14.8143 25.1008 14.5882 25.3269 14.249 25.3269C14.1359 25.3269 13.9098 25.553 13.7967 25.553C13.4575 25.6661 13.1183 25.8922 12.7791 26.0053C12.553 26.1184 12.553 26.1183 12.6661 26.3445C13.1183 26.6837 13.1183 26.7967 13.2314 27.0229Z" fill="#EAD039"/>
<path d="M18.7706 27.9276C18.8837 27.9276 18.9968 27.9276 18.9968 27.8145C18.9968 27.8145 18.9968 27.7014 18.9968 27.5884C18.7706 27.8145 18.6576 27.7014 18.6576 27.5884C18.5445 27.5884 18.4314 27.7014 18.3184 27.7014C18.3184 27.8145 18.4314 27.8145 18.4314 27.8145C18.5445 27.8145 18.6576 27.9276 18.7706 27.9276Z" fill="#EAD039"/>
<path d="M10.8572 37.8774C10.518 37.8774 10.2919 37.7643 10.0658 37.9905C9.95269 38.1035 9.83963 38.1035 9.72656 38.2166L9.83963 38.3297C9.95269 38.2166 10.0658 38.2166 10.2919 38.2166C10.518 38.1035 10.7442 38.1035 10.9703 38.1035C11.0834 38.1035 11.0834 38.1035 11.1964 37.9905C10.9703 37.8774 10.8572 37.8774 10.8572 37.8774Z" fill="#EAD039"/>
<path d="M6.89933 34.4852C7.01239 34.4852 7.01239 34.4852 7.12546 34.4852C7.23853 34.259 7.46466 34.3721 7.57772 34.3721C7.69079 34.3721 7.80385 34.3721 7.91692 34.3721C8.02999 34.3721 8.14305 34.3721 8.36918 34.259C8.70838 34.259 8.93451 34.146 9.27371 34.146C9.49984 34.0329 9.72597 34.0329 9.95211 33.9198H10.0652C10.0652 33.9198 10.1782 33.8068 10.4044 33.6937C10.2913 33.6937 10.0652 33.6937 9.95211 33.6937C9.61291 33.6937 9.27371 33.5806 8.93451 33.5806C8.59532 33.4676 8.25612 33.3545 7.80385 33.2414C7.57772 33.2414 7.35159 33.1284 7.12546 33.1284C6.56013 33.0153 5.88174 33.1284 5.31641 33.2414C5.6556 33.6937 5.88174 34.146 6.334 34.5982C6.56013 34.5982 6.6732 34.4852 6.89933 34.4852Z" fill="#EAD039"/>
<path d="M12.5534 34.3718C12.6665 34.2587 12.6665 34.2587 12.7795 34.2587C12.8926 34.1456 13.0057 34.0326 12.8926 33.9195C12.8926 33.8064 13.0057 33.5803 13.2318 33.4672C13.4579 33.3542 13.6841 33.2411 14.0233 33.128C14.2494 33.015 14.4755 33.015 14.5886 32.9019C14.5886 32.9019 14.5886 32.9019 14.5886 33.015C14.4755 33.2411 14.2494 33.3542 14.1363 33.5803C14.0233 33.6934 13.9102 33.8064 13.6841 33.8064C13.6841 33.8064 13.6841 33.8064 13.571 33.8064C13.571 33.8064 13.4579 33.9195 13.2318 33.9195L13.1187 34.0326C13.1187 34.1456 13.1187 34.2587 13.0057 34.3718C13.0057 34.3718 13.0057 34.4848 12.8926 34.4848H13.0057C13.3449 34.3718 13.571 34.3718 13.9102 34.1456C14.0233 34.0326 14.1363 34.0326 14.2494 34.0326C14.5886 33.9195 15.0408 33.8064 15.38 33.5803C15.7192 33.4672 15.9454 33.3542 16.2846 33.2411C16.5107 33.128 16.7368 33.015 17.076 32.9019C17.076 32.9019 17.076 32.9019 17.1891 32.9019C17.4152 32.9019 17.6414 32.6758 17.7544 32.5627C17.8675 32.4496 18.0936 32.4496 18.2067 32.4496C18.4328 32.3366 18.6589 32.2235 18.772 31.9974C18.8851 31.7712 19.1112 31.5451 19.3373 31.432C19.4504 31.2059 19.5635 31.0928 19.7896 30.8667C19.6765 30.5275 20.0157 30.4145 20.1288 30.1883C20.1288 30.1883 20.2419 30.0753 20.3549 30.0753C20.5811 30.0753 20.5811 29.9622 20.6941 29.8491C20.468 29.8491 20.3549 29.9622 20.1288 29.9622C20.0157 30.0753 19.7896 30.0753 19.6765 30.1883C19.6765 30.1883 19.5635 30.1883 19.4504 30.1883C19.3373 30.3014 19.2243 30.4145 19.1112 30.4145C18.9981 30.5275 18.8851 30.6406 18.772 30.6406H18.6589C18.4328 30.7536 18.2067 30.9798 17.9806 31.0928C17.9806 31.0928 17.9806 31.0928 17.8675 31.0928C17.4152 31.0928 17.1891 31.319 16.8499 31.5451C16.7368 31.5451 16.6238 31.6582 16.5107 31.6582C16.2846 31.6582 16.0584 31.6582 15.8323 31.8843H15.7192C15.6062 31.7712 15.4931 31.8843 15.267 31.8843C15.0408 31.8843 14.9278 31.8843 14.7016 31.8843C14.3624 31.8843 14.1363 31.8843 13.7971 31.8843C13.6841 31.8843 13.571 31.9974 13.3449 32.1104C13.2318 32.1104 13.2318 32.2235 13.1187 32.3366C13.2318 32.3366 13.2318 32.3366 13.3449 32.3366C13.2318 32.3366 13.2318 32.4496 13.2318 32.4496C13.0057 32.4496 12.7795 32.6758 12.6665 32.7888C12.5534 32.9019 12.5534 32.9019 12.6665 33.128C12.6665 33.2411 12.6665 33.3542 12.6665 33.3542C12.6665 33.4672 12.5534 33.6934 12.6665 33.9195C12.6665 33.9195 12.5534 34.0326 12.5534 34.1456C12.3273 34.2587 12.2142 34.3718 11.9881 34.4848C11.9881 34.4848 11.9881 34.5979 11.875 34.711C12.1011 34.4848 12.4403 34.4848 12.7795 34.3718C12.6665 34.3718 12.6665 34.3718 12.5534 34.3718Z" fill="#EAD039"/>
<path d="M20.3546 29.7363C20.2415 29.8494 20.0154 29.8494 19.9023 29.9625C20.0154 29.9625 20.0154 29.9625 20.1285 29.9625C20.2415 29.8494 20.2415 29.8494 20.3546 29.8494C20.3546 29.8494 20.3546 29.8494 20.3546 29.7363Z" fill="#EAD039"/>
<path d="M19.4492 30.1883C19.4492 30.0752 19.5623 30.0752 19.4492 30.1883C19.4492 30.0752 19.4492 30.0752 19.4492 30.1883Z" fill="#EAD039"/>
<path d="M32.0005 39.1206C31.7744 39.0076 31.4352 38.7814 31.209 38.7814C30.8698 38.6684 30.6437 38.3292 30.1914 38.5553H30.0784C29.9653 38.4422 29.8522 38.3292 29.7392 38.2161C29.8522 38.103 29.8522 37.99 29.9653 37.8769C29.9653 37.7638 30.0784 37.6508 30.0784 37.4246C30.0784 37.4246 30.0784 37.3116 30.1914 37.3116C30.1914 37.3116 30.3045 37.1985 30.1914 37.1985L30.0784 37.0854C29.9653 37.0854 29.8522 37.0855 29.8522 37.1985C29.513 37.4246 29.0608 37.6508 28.7216 37.99C28.4954 38.103 28.3824 38.3292 28.1562 38.5553C28.2693 38.5553 28.3824 38.5553 28.4954 38.5553C28.7216 38.5553 28.8346 38.6684 28.7216 39.0076C28.6085 39.1206 28.6085 39.2337 28.7216 39.3468C29.0608 39.2337 29.1738 39.1206 29.4 38.8945C29.4 38.7814 29.513 38.7814 29.513 38.6684C29.6261 38.5553 29.7392 38.5553 29.7392 38.5553C29.8522 38.5553 29.8522 38.6684 29.8522 38.7814C29.9653 38.8945 29.9653 39.0076 30.0784 39.2337C30.4176 39.1206 30.7568 39.2337 31.096 39.3468C31.6613 39.5729 32.1136 39.9121 32.5658 40.2513C32.6789 40.3644 32.6789 40.3644 32.7919 40.4774L32.905 40.3644C32.6789 40.1382 32.3397 39.9121 32.1136 39.686C32.1136 39.686 32.1136 39.686 32.1136 39.5729C32.3397 39.686 32.5658 39.799 32.7919 39.9121C32.905 40.0252 33.0181 40.1382 33.1311 40.2513C33.2442 40.2513 33.2442 40.1382 33.3573 40.1382C32.905 39.4598 32.5658 39.2337 32.0005 39.1206Z" fill="#EAD039"/>
<path d="M18.0929 25.1007C18.319 25.3268 18.4321 25.4399 18.4321 25.553V25.666C18.7713 26.0052 18.8843 26.4575 19.3366 26.7967C19.5627 27.0228 19.7889 27.249 20.015 27.4751C19.7889 27.0228 19.4497 26.5706 19.2235 26.1183C19.4497 26.1183 19.4497 26.2314 19.5627 26.3444L19.6758 26.4575C19.6758 26.3444 19.7889 26.3444 19.7889 26.2314C19.7889 26.0052 19.6758 25.8922 19.5627 25.666V25.553C19.6758 25.2138 19.3366 25.2138 19.2235 25.1007C18.9974 24.8746 18.6582 24.7615 18.4321 24.6484C18.319 24.6484 18.206 24.6484 18.0929 24.6484C17.9798 24.6484 17.8668 24.6484 17.7537 24.6484C17.7537 24.6484 17.6406 24.6484 17.6406 24.7615C17.6406 24.7615 17.6406 24.8746 17.6406 24.9876C17.9798 24.8746 18.0929 24.9876 18.0929 25.1007Z" fill="#EAD039"/>
<path d="M10.0658 35.6158C10.1789 35.5028 10.2919 35.3897 10.2919 35.2766H10.405C10.5181 35.1636 10.6311 35.0505 10.6311 34.8244V34.7113C10.7442 34.7113 10.7442 34.5982 10.7442 34.4852C10.7442 34.3721 10.7442 34.3721 10.7442 34.259C10.9703 34.146 10.9703 34.0329 10.9703 33.8068C10.7442 33.6937 10.6311 34.0329 10.405 34.0329C10.1789 33.9198 10.0658 34.259 9.83967 34.3721L9.72661 34.259H9.61354C9.50047 34.259 9.50047 34.3721 9.38741 34.3721C9.16128 34.3721 8.93514 34.4852 8.82208 34.7113C8.82208 34.7113 8.82208 34.7113 8.70901 34.8244C8.70901 34.7113 8.70901 34.5982 8.70901 34.5982C8.48288 34.5982 8.36982 34.5982 8.14368 34.5982C8.03062 34.5982 8.03062 34.7113 7.91755 34.7113C7.80449 34.8244 7.69142 34.4852 7.46529 34.7113C7.12609 34.5982 7.01303 34.8244 6.89996 35.0505C6.89996 34.9374 6.78689 35.0505 6.67383 35.1636C7.01303 35.6158 7.46529 36.1812 7.91755 36.6334H8.03062H8.14368C8.48288 36.5203 8.82208 36.4073 9.04821 36.2942C9.38741 36.1811 9.61354 36.1811 9.72661 35.955C9.83967 35.842 9.95274 35.6158 10.0658 35.6158Z" fill="#EAD039"/>
<path d="M18.5458 28.6055C18.3197 28.6055 18.2066 28.7185 17.9805 28.7185C18.0935 28.9447 18.4327 28.8316 18.5458 28.6055Z" fill="#EAD039"/>
<path d="M30.8691 29.7361C30.8691 29.8492 30.9822 29.8492 30.9822 29.9622C30.9822 29.8492 30.9822 29.7361 30.9822 29.623C30.8691 29.623 30.8691 29.7361 30.8691 29.7361Z" fill="#EAD039"/>
<path d="M32.1128 30.9798C31.9998 30.9798 31.9998 30.9798 31.8867 30.8667C31.9998 31.0928 31.9998 31.2059 32.1128 31.319C32.1128 31.2059 32.1128 31.0928 32.1128 30.9798Z" fill="#EAD039"/>
<path d="M28.8345 29.397C27.9299 29.7362 27.0254 30.0754 26.0078 30.4146C26.347 30.4146 26.6862 30.4146 26.9123 30.1884C27.0254 30.0754 27.2515 30.0754 27.3646 30.0754C27.7038 30.0754 27.9299 29.9623 28.2691 29.9623V29.8492C28.1561 29.8492 27.9299 29.8492 27.8169 29.9623C27.8169 29.9623 27.8169 29.9623 27.8169 29.8492C28.1561 29.7362 28.4953 29.6231 28.8345 29.397Z" fill="#EAD039"/>
<path d="M29.2867 39.3472C29.1736 39.5733 29.1736 39.7994 29.0606 39.9125C28.9475 40.0256 28.8344 40.1386 28.7214 40.1386C28.4952 40.2517 28.2691 40.4778 28.043 40.5909C28.043 40.5909 28.043 40.5909 28.043 40.704C28.156 40.5909 28.3822 40.4778 28.4952 40.3648C28.4952 40.704 28.6083 40.817 28.6083 41.0432L28.7214 40.9301C28.9475 40.4778 29.2867 39.9125 29.5128 39.4602C29.5128 39.3472 29.739 39.3472 29.739 39.2341C29.5128 39.008 29.3998 39.121 29.2867 39.3472Z" fill="#EAD039"/>
<path d="M38.5586 17.1861L38.4455 17.073C38.3325 16.96 38.3325 16.96 38.2194 16.96C38.1063 17.073 37.9933 17.073 37.8802 17.073C37.7671 17.073 37.6541 17.1861 37.541 17.2992C37.7671 17.2992 37.9933 17.5253 38.2194 17.2992C38.3325 17.2992 38.3325 17.2992 38.5586 17.1861C38.6717 17.1861 39.0109 17.2992 39.237 17.2992C39.3501 17.2992 39.4631 17.2992 39.4631 17.1861C39.5762 17.073 39.8023 17.073 39.9154 17.1861C39.9154 17.073 39.9154 17.073 39.9154 16.96C40.1415 17.073 40.3677 17.1861 40.5938 16.96H40.7069C40.933 16.8469 41.2722 16.7338 41.4983 16.6208C41.6114 16.5077 41.8375 16.5077 41.9506 16.6208C41.6114 15.377 41.1591 14.2464 40.4807 13.1157C40.2546 13.1157 39.9154 13.2288 39.6893 13.2288C39.6893 13.3419 39.4631 13.6811 39.4631 13.7941C39.3501 13.9072 39.237 14.0202 39.1239 14.0202C39.237 14.1333 39.5762 14.1333 39.3501 14.4725C39.237 14.6986 39.1239 14.4725 39.0109 14.4725C38.7847 14.8117 38.6717 15.1509 38.4455 15.4901C38.5586 15.4901 38.6717 15.6032 38.7847 15.6032C38.6717 15.7162 38.6717 15.8293 38.5586 15.8293C38.4455 15.8293 38.4455 15.8293 38.3325 15.9424C38.3325 15.9424 38.3325 15.9424 38.3325 16.0554C38.4455 16.0554 38.6717 16.1685 38.7847 16.1685C38.6717 16.2816 38.6717 16.3946 38.5586 16.5077C38.6717 16.7338 38.8978 16.7338 39.1239 16.6208C39.1239 16.8469 39.237 16.96 39.4631 16.96C39.5762 16.96 39.6893 16.96 39.8023 16.96C39.3501 17.4122 38.8978 17.073 38.5586 17.1861Z" fill="#EAD039"/>
<path d="M27.2513 38.7812C27.1382 38.7812 27.0252 38.8943 26.9121 39.0074C26.9121 39.0074 27.0252 39.0074 27.0252 39.1204C27.2513 39.0074 27.2513 39.0074 27.2513 38.7812Z" fill="#EAD039"/>
<path d="M26.9121 39.5728C27.0252 39.6858 27.0252 39.5728 26.9121 39.5728V39.5728Z" fill="#EAD039"/>
<path d="M26.7988 39.5728C26.7988 39.5728 26.7988 39.6858 26.7988 39.5728C26.9119 39.5728 26.7988 39.5728 26.7988 39.5728Z" fill="#EAD039"/>
<path d="M27.025 40.4775C26.7988 40.2514 26.9119 40.0252 26.7988 39.686C26.7988 39.9122 26.7988 40.0252 26.7988 40.2514C26.7988 40.3644 26.7988 40.4775 26.9119 40.4775C27.025 40.7036 27.138 40.9298 27.2511 41.1559L27.3642 41.269C27.3642 41.1559 27.4772 41.1559 27.3642 41.0428C27.2511 40.8167 27.138 40.7036 27.025 40.4775Z" fill="#EAD039"/>
<path d="M19.5621 27.4751C19.449 27.5882 19.3359 27.7012 19.3359 27.7012C19.449 27.7012 19.5621 27.7012 19.7882 27.7012C19.6751 27.5882 19.6751 27.5882 19.5621 27.4751Z" fill="#EAD039"/>
<path d="M37.3153 17.186C37.3153 17.073 37.4284 17.073 37.5415 17.073C37.6545 16.8469 37.9937 16.7338 37.8807 16.3946C37.6545 16.2815 37.3153 16.2815 36.9761 16.1685C36.9761 16.2815 36.9761 16.3946 37.0892 16.3946C36.9761 16.3946 36.9761 16.3946 36.8631 16.5077C36.9761 16.6207 36.8631 16.7338 36.75 16.8469C36.9761 16.9599 37.0892 17.073 37.3153 17.186Z" fill="#EAD039"/>
<path d="M20.5812 27.9274C20.4681 27.8143 20.355 27.7012 20.242 27.4751C20.242 27.4751 20.1289 27.4751 20.1289 27.5882C20.355 27.8143 20.355 27.9274 20.5812 27.9274Z" fill="#EAD039"/>
<path d="M19.7891 28.1536C19.9021 28.1536 20.0152 28.1536 20.1283 28.0406C20.0152 27.9275 19.9021 27.9275 19.7891 27.8145C19.7891 28.0406 19.7891 28.0406 19.7891 28.1536Z" fill="#EAD039"/>
<path d="M19.7891 28.4925C19.9021 28.4925 20.1283 28.4925 20.3544 28.4925C20.3544 28.4925 20.4675 28.4925 20.4675 28.3795C20.5805 28.3795 20.5805 28.2664 20.6936 28.3795C20.6936 28.3795 20.8067 28.3795 20.9197 28.3795C21.0328 28.3795 21.0328 28.3795 21.1459 28.2664C20.9197 28.1533 20.8067 28.1533 20.5805 28.1533C20.2413 28.4925 20.0152 28.4925 19.7891 28.4925Z" fill="#EAD039"/>
<path d="M30.4165 20.3517C30.6426 20.2387 30.7557 20.2387 30.9818 20.3517C30.9818 20.3517 30.9818 20.4648 30.8687 20.4648C30.7557 20.5779 30.6426 20.6909 30.6426 20.804C31.2079 20.6909 31.6602 20.804 32.2255 20.804C32.2255 20.6909 32.2255 20.5779 32.2255 20.4648C32.1124 20.4648 31.8863 20.5779 31.7733 20.5779C31.7733 20.5779 31.7733 20.5779 31.7733 20.4648C31.9994 20.3517 31.9994 20.1256 32.2255 20.0125C32.3386 20.0125 32.3386 19.7864 32.4516 19.6733C32.3386 19.6733 32.2255 19.6733 32.1124 19.6733C32.2255 19.6733 32.3386 19.5603 32.4516 19.5603C32.6778 19.5603 32.7908 19.4472 32.7908 19.3341C32.7908 19.2211 32.9039 19.2211 33.017 19.2211C33.13 19.2211 33.3562 19.2211 33.4692 19.108C33.8084 18.9949 34.0346 18.8819 34.2607 18.7688C34.3738 18.6557 34.5999 18.6557 34.713 18.5427C34.826 18.4296 34.9391 18.4296 35.1652 18.3166H35.2783C35.6175 18.2035 35.7306 18.0904 36.0698 18.0904C35.9567 18.2035 35.8436 18.3166 35.6175 18.3166C35.1652 18.4296 34.826 18.6557 34.3738 18.7688C34.2607 18.7688 34.1476 18.9949 34.1476 18.9949H34.0346C33.9215 18.9949 33.4692 19.108 33.4692 19.2211C33.5823 19.2211 33.6954 19.2211 33.8084 19.2211C33.6954 19.6733 33.3562 19.6733 33.13 19.8995C33.017 20.1256 32.6778 20.3517 32.4516 20.5779C32.4516 20.5779 32.4516 20.5779 32.4516 20.6909C32.6778 20.6909 33.017 20.6909 33.2431 20.5779C33.5823 20.4648 33.9215 20.3517 34.2607 20.2387C34.3738 20.2387 34.4868 20.1256 34.5999 20.1256C34.9391 20.0125 35.1652 19.7864 35.5044 19.6733C35.7306 19.5603 36.0698 19.3341 36.2959 19.2211C36.7481 18.9949 37.0873 18.6557 37.5396 18.4296C37.8788 18.2035 38.1049 18.0904 38.4441 17.8643C38.5572 17.8643 38.6703 17.8643 38.7833 17.8643C38.7833 17.8643 38.7833 17.8643 38.7833 17.7512C38.6703 17.7512 38.5572 17.6382 38.4441 17.6382C37.9919 17.7512 37.5396 17.7512 36.9743 17.8643C36.7481 17.9774 36.522 17.9774 36.2959 17.9774C36.4089 17.9774 36.4089 17.8643 36.522 17.8643H36.6351C36.7481 17.8643 36.9743 17.7512 37.0873 17.7512C37.3135 17.7512 37.3135 17.7512 37.2004 17.5251C37.2004 17.5251 37.2004 17.412 37.2004 17.299C37.0873 17.412 36.8612 17.412 36.7481 17.299H36.6351C36.522 16.9598 36.2959 17.1859 36.0698 17.0728C36.1828 16.9598 36.2959 16.8467 36.2959 16.8467C36.1828 16.8467 36.0698 16.8467 35.8436 16.8467C35.9567 16.6206 36.0698 16.2814 36.1828 16.0552C36.0698 15.8291 35.8436 15.8291 35.5044 15.8291C35.2783 15.8291 34.9391 15.8291 34.713 15.8291C34.4868 15.8291 34.2607 15.8291 34.1476 16.0552C34.1476 16.1683 34.0346 16.1683 33.9215 16.1683C33.6954 16.2814 33.4692 16.2814 33.3562 16.3944C33.2431 16.3944 33.2431 16.5075 33.2431 16.6206C33.2431 16.7336 33.13 16.9598 32.9039 16.9598C32.5647 16.9598 32.4516 17.299 32.3386 17.5251L32.2255 17.6382C32.1124 17.7512 31.8863 17.8643 31.7733 17.9774C31.7733 17.9774 31.7733 17.9774 31.6602 18.0904C31.5471 18.4296 31.321 18.5427 31.0949 18.7688C30.9818 18.8819 30.9818 18.9949 30.8687 19.108C30.6426 19.2211 30.4165 19.5603 30.1903 19.6733C29.9642 19.7864 29.9642 20.0125 29.8511 20.1256C29.8511 20.1256 29.8511 20.2387 29.8511 20.3517C29.7381 20.3517 29.7381 20.3517 29.625 20.4648C29.7381 20.4648 29.7381 20.5779 29.8511 20.5779C29.9642 20.5779 30.1903 20.5779 30.4165 20.3517Z" fill="#EAD039"/>
<path d="M22.3889 25.3265C22.502 25.3265 22.615 25.4396 22.615 25.3265C22.7281 25.2135 22.8412 25.3265 22.8412 25.3265C22.9542 25.5527 23.1804 25.4396 23.2934 25.3265C23.2934 25.4396 23.2934 25.4396 23.1804 25.5527C23.1804 25.6657 23.0673 25.7788 23.2934 25.8919C23.6326 26.0049 23.9718 26.118 24.311 26.118C24.9894 26.118 25.6678 26.118 26.3462 25.8919C26.5723 25.7788 26.9115 25.7788 27.1377 25.6657C27.5899 25.5527 27.9291 25.3265 28.3814 25.2135C28.7206 25.1004 29.1729 24.9873 29.512 24.8743C29.6251 24.8743 29.8512 24.7612 29.9643 24.7612C29.7382 24.6482 29.512 24.6482 29.399 24.5351H29.2859C29.0598 24.5351 28.7206 24.422 28.4945 24.422C28.4945 24.422 28.4945 24.422 28.3814 24.422C28.0422 24.422 27.703 24.422 27.3638 24.422C27.2507 24.422 27.0246 24.422 26.9115 24.422C26.7985 24.422 26.6854 24.422 26.5723 24.422C26.3462 24.422 26.2331 24.5351 26.007 24.422C26.007 24.422 25.8939 24.422 25.7809 24.422C25.5547 24.422 25.3286 24.422 25.1025 24.422H24.9894C24.8764 24.5351 24.7633 24.5351 24.5372 24.422C24.4241 24.422 24.311 24.422 24.198 24.422C24.0849 24.422 24.0849 24.422 23.9718 24.422C23.9718 24.422 23.8588 24.5351 23.7457 24.422C23.7457 24.422 23.6326 24.422 23.5196 24.422C23.4065 24.422 23.4065 24.422 23.1804 24.422C23.2934 24.1959 23.6326 24.422 23.6326 24.1959C23.7457 24.1959 23.8588 24.1959 23.9718 24.1959H24.0849C24.311 24.309 24.4241 24.309 24.6502 24.0828C24.9894 24.309 25.3286 24.309 25.6678 24.1959C25.6678 24.1959 25.6678 24.1959 25.6678 24.0828C25.5547 24.0828 25.4417 24.0828 25.3286 23.9698C25.4417 23.8567 25.4417 23.7436 25.2155 23.7436H25.3286C25.4417 23.8567 25.5547 23.8567 25.6678 23.9698C25.8939 24.1959 26.1201 24.309 26.4593 24.1959C26.6854 24.309 26.6854 24.0828 26.9115 24.0828C27.0246 24.0828 27.1377 24.0828 27.1377 24.1959C27.3638 24.1959 27.5899 24.0828 27.8161 24.0828C27.8161 24.0828 27.8161 23.9698 27.8161 23.8567C27.9291 23.8567 27.9291 23.8567 27.9291 23.9698C28.0422 24.1959 28.3814 24.1959 28.6075 24.1959C28.7206 24.1959 28.8337 24.309 28.9467 24.309H29.0598C29.1729 24.1959 29.1729 24.1959 29.1729 24.0828C29.399 24.1959 29.6251 24.422 29.8512 24.422C30.1904 24.309 30.3035 24.6482 30.5296 24.5351C30.5296 24.309 30.5296 24.1959 30.3035 24.0828C30.3035 24.0828 30.1904 23.9698 30.1904 23.8567C30.1904 23.7436 30.1904 23.6306 30.0774 23.6306L29.9643 23.5175C29.9643 23.2914 29.7382 23.2914 29.6251 23.0652H29.512C29.512 22.8391 29.399 22.726 29.1729 22.726C29.0598 22.613 28.8337 22.4999 28.7206 22.3868C28.4945 22.1607 28.2683 22.1607 28.0422 22.1607C27.703 22.0476 27.2507 22.0476 26.9115 21.9346H26.7985C26.5723 22.0476 26.3462 22.0476 26.007 22.0476C25.7809 22.0476 25.6678 22.1607 25.5547 22.2738C25.4417 22.3868 25.3286 22.3868 25.2155 22.4999C25.3286 22.726 25.4417 22.8391 25.6678 23.0652C25.5547 23.0652 25.4417 23.2914 25.3286 22.9522C25.3286 22.9522 25.2155 22.9522 25.1025 22.9522C24.9894 22.9522 24.7633 22.9522 24.6502 23.0652C24.5372 23.0652 24.4241 23.0652 24.311 23.1783C24.0849 23.2914 23.8588 23.2914 23.6326 23.4044C23.1804 23.6306 22.7281 23.8567 22.2758 24.0828C22.1628 24.0828 21.9366 24.1959 21.8236 24.1959C21.8236 24.1959 21.8236 24.309 21.7105 24.309C21.5974 24.309 21.5974 24.309 21.4844 24.309C21.4844 24.422 21.5974 24.5351 21.5974 24.5351C21.9366 24.8743 22.1628 25.1004 22.3889 25.3265ZM24.9894 23.4044C25.1025 23.4044 25.1025 23.5175 25.2155 23.5175C25.1025 23.5175 25.1025 23.5175 24.9894 23.4044ZM24.8764 23.4044H24.9894C25.2155 23.7436 24.9894 23.7436 24.8764 23.6306V23.4044C24.7633 23.4044 24.7633 23.4044 24.8764 23.4044Z" fill="#EAD039"/>
</g>
<defs>
<clipPath id="clip0_147_52836">
<rect width="167.337" height="45.2263" fill="white"/>
</clipPath>
</defs>
</svg>
