<svg width="59" height="32" viewBox="0 0 59 32" fill="none" xmlns="http://www.w3.org/2000/svg">
<g clip-path="url(#clip0_147_53209)">
<path d="M11.7627 13.991C11.8404 13.991 11.9181 13.991 11.9181 13.991C14.7164 13.991 17.5147 13.991 20.313 13.991C21.2457 13.991 22.1008 13.7578 22.8781 13.3692C24.7436 12.281 25.7541 10.7264 25.7541 8.54992C25.7541 5.75163 25.7541 2.95335 25.7541 0.155065C25.7541 0.0773352 25.7541 -0.000394896 25.7541 -0.078125C25.6764 -0.078125 25.5986 -0.078125 25.5986 -0.078125C23.2667 -0.000394896 20.9348 -0.000394896 18.6029 -0.000394896C17.437 -0.000394896 16.3487 0.232795 15.3383 0.776906C13.0063 2.09832 11.7627 4.04157 11.6849 6.76212C11.6072 9.09403 11.6849 11.5037 11.6849 13.8356C11.7627 13.8356 11.7627 13.9133 11.7627 13.991ZM13.8614 11.7369C13.8614 10.1045 13.8614 8.47219 13.8614 6.83985C13.8614 4.66341 15.3383 2.79789 17.437 2.25378C17.7479 2.17605 18.1365 2.09832 18.4475 2.09832C20.0798 2.09832 21.7121 2.09832 23.3445 2.09832C23.4222 2.09832 23.4222 2.09832 23.4999 2.09832C23.4999 2.17605 23.4999 2.17605 23.4999 2.25378C23.4999 4.27476 23.4999 6.37347 23.4999 8.39446C23.4999 9.87133 22.6449 11.115 21.2457 11.5814C20.9348 11.6591 20.5462 11.7369 20.2352 11.7369C18.1365 11.7369 16.0378 11.7369 13.9391 11.7369C13.8614 11.7369 13.8614 11.7369 13.7836 11.7369C13.8614 11.8146 13.8614 11.7369 13.8614 11.7369Z" fill="white"/>
<path d="M5.38957 15.5449C5.07865 15.5449 4.76773 15.5449 4.45681 15.6227C1.96944 16.1668 0.41484 18.4987 0.80349 20.986C1.19214 23.5511 3.60177 25.3389 6.16687 24.9503C8.49877 24.6393 10.2088 22.6184 10.2088 20.2865C10.2088 18.7319 10.2088 17.255 10.2088 15.7004C10.2088 15.6227 10.2088 15.6227 10.2088 15.5449C10.1311 15.5449 10.1311 15.5449 10.0534 15.5449C8.49877 15.5449 6.94417 15.5449 5.38957 15.5449Z" fill="white"/>
<path d="M16.1943 15.5449C14.7951 15.5449 13.396 15.5449 11.9191 15.5449C11.8414 15.5449 11.8414 15.5449 11.7637 15.5449C11.7637 15.6227 11.7637 15.6227 11.7637 15.6227C11.7637 16.7886 11.7637 17.9546 11.7637 19.1205C11.7637 19.276 11.7637 19.5092 11.8414 19.6646C12.2301 21.4524 13.7069 22.6961 15.5724 22.6961C16.6607 22.6961 17.7489 22.6961 18.8371 22.6961C18.9148 22.6961 18.9148 22.6961 18.9926 22.6961C18.9926 22.6184 18.9926 22.6184 18.9926 22.6184C18.9926 21.1415 18.9926 19.6646 18.9926 18.1877C18.9926 16.7886 17.7489 15.5449 16.1943 15.5449Z" fill="white"/>
<path d="M8.11074 8.31641C6.94479 8.31641 5.77884 8.31641 4.69062 8.31641C4.61289 8.31641 4.61289 8.31641 4.53516 8.31641C4.53516 8.39414 4.53516 8.39414 4.53516 8.39414C4.53516 9.48236 4.53516 10.5706 4.53516 11.6588C4.53516 11.7365 4.53516 11.8143 4.53516 11.892C4.76835 13.2134 5.70111 13.9907 6.94479 13.9907C7.95528 13.9907 8.96577 13.9907 9.97626 13.9907C10.054 13.9907 10.054 13.9907 10.1317 13.9907V13.913C10.1317 12.747 10.1317 11.5033 10.1317 10.3374C10.1317 9.17144 9.27669 8.31641 8.11074 8.31641Z" fill="white"/>
<path d="M23.967 25.4953C23.5783 24.5626 23.2674 23.5521 22.8788 22.6193C22.8788 22.5416 22.8788 22.4639 22.7233 22.4639C22.5678 22.4639 22.3346 22.4639 22.1792 22.4639C21.4796 24.2517 20.8578 26.0395 20.1582 27.8272C20.3137 27.8272 20.5469 27.8272 20.7023 27.8272C20.78 27.8272 20.8578 27.8272 20.8578 27.7495C21.0132 27.2831 21.2464 26.739 21.4019 26.2726C21.4019 26.1949 21.4796 26.1172 21.5573 26.1172C22.1792 26.1172 22.801 26.1172 23.4229 26.1172C23.5006 26.1172 23.5783 26.1172 23.5783 26.1949C23.7338 26.739 23.967 27.2054 24.1224 27.7495C24.1224 27.8272 24.2002 27.8272 24.2002 27.8272C24.3556 27.8272 24.5888 27.8272 24.7443 27.8272C24.7443 27.7495 24.7443 27.7495 24.6665 27.6718C24.5111 27.0499 24.2002 26.2726 23.967 25.4953ZM21.7905 25.6508C21.7128 25.6508 21.7128 25.6508 21.6351 25.6508C21.946 24.8735 22.1792 24.0962 22.4901 23.3189C22.801 24.0962 23.0342 24.8735 23.3451 25.6508C22.801 25.6508 22.3346 25.6508 21.7905 25.6508Z" fill="white"/>
<path d="M35.1594 20.7537C35.7813 21.2201 36.4808 21.2978 37.2581 21.0646C37.6468 20.9092 37.9577 20.676 38.1909 20.2873C38.0354 20.2096 37.9577 20.1319 37.8022 19.9764C37.5691 20.2873 37.2581 20.5205 36.9472 20.5982C36.5586 20.676 36.2476 20.676 35.859 20.4428C35.3926 20.2096 35.0817 19.6655 35.1594 19.1991C36.2476 19.1991 37.2581 19.1991 38.3464 19.1991C38.3464 18.9659 38.3464 18.7327 38.2686 18.4995C38.1132 17.8 37.7245 17.2558 36.9472 17.0227C36.1699 16.7895 35.4703 17.0227 34.9262 17.5668C34.4599 18.0332 34.3821 18.655 34.4599 19.3546C34.4599 19.9764 34.693 20.4428 35.1594 20.7537ZM36.4031 17.5668C37.1027 17.5668 37.6468 18.1886 37.5691 18.8105C36.714 18.8105 35.859 18.8105 35.0817 18.8105C35.0817 18.1109 35.7035 17.5668 36.4031 17.5668Z" fill="white"/>
<path d="M31.7409 25.9616C31.7409 27.2053 32.5959 28.0603 33.8396 28.0603C35.0055 28.0603 35.9383 27.1276 35.9383 25.9616C35.9383 24.718 35.0832 23.8629 33.8396 23.8629C32.5959 23.7852 31.6631 24.718 31.7409 25.9616ZM35.2387 25.9616C35.2387 26.8167 34.6169 27.5162 33.7618 27.5162C32.9068 27.5162 32.285 26.8944 32.285 25.9616C32.285 25.1066 32.9068 24.407 33.7618 24.407C34.6169 24.407 35.2387 25.0289 35.2387 25.9616Z" fill="white"/>
<path d="M54.2052 25.961C54.2052 24.7951 53.3502 23.8623 52.1843 23.8623C51.0183 23.8623 50.0078 24.6396 50.0078 25.961C50.0078 27.2047 50.8628 28.0597 52.1065 28.0597C53.2725 28.0597 54.2052 27.127 54.2052 25.961ZM50.7074 26.1165C50.7074 26.0387 50.7074 25.961 50.7074 25.961C50.7074 25.1837 51.1738 24.5619 51.8733 24.4064C52.7284 24.251 53.5057 24.7951 53.6611 25.6501C53.7389 26.1942 53.5834 26.6606 53.1947 27.0492C52.7284 27.5156 52.1843 27.5933 51.6401 27.3602C51.0183 27.127 50.7851 26.7383 50.7074 26.1165Z" fill="white"/>
<path d="M43.0093 25.4949C42.1542 25.8058 41.7656 26.7386 42.3097 27.4382C42.7761 28.06 43.942 28.2155 44.5639 27.7491C44.6416 27.7491 44.6416 27.6714 44.7193 27.5936C44.7193 27.6714 44.7971 27.8268 44.7971 27.9045C44.9525 27.9045 45.108 27.9045 45.3412 27.9045C45.3412 27.8268 45.3412 27.8268 45.3412 27.7491C45.3412 26.9718 45.3412 26.1168 45.3412 25.3395C45.3412 25.184 45.3412 25.1063 45.3412 24.9508C45.2634 24.4067 44.9525 24.018 44.4084 23.8626C43.942 23.7849 43.5534 23.7848 43.087 23.9403C42.8538 24.018 42.6206 24.0958 42.3874 24.2512C42.4652 24.4067 42.5429 24.5622 42.6206 24.7176C42.6984 24.6399 42.7761 24.6399 42.8538 24.5622C43.1647 24.4067 43.5534 24.329 43.942 24.329C44.4084 24.329 44.7193 24.6399 44.7193 25.0285C44.7193 25.2617 44.7193 25.4172 44.7193 25.6504C44.1752 25.3395 43.5534 25.2617 43.0093 25.4949ZM44.3307 27.2827C44.0975 27.4382 43.942 27.4382 43.7088 27.5159C43.4757 27.5159 43.2425 27.4382 43.087 27.3604C42.6206 27.0495 42.6206 26.3499 43.087 26.039C43.4757 25.8058 43.8643 25.8058 44.3307 26.039C44.7971 26.2722 44.7971 26.9718 44.3307 27.2827Z" fill="white"/>
<path d="M29.2527 21.1423C29.4082 21.1423 29.5636 21.1423 29.7968 21.1423C29.7968 20.2095 29.7968 19.199 29.7968 18.2662C29.7968 17.6444 29.4082 17.2557 28.8641 17.1003C28.4754 17.0226 28.0868 17.0226 27.7758 17.1003C27.4649 17.178 27.0763 17.2557 26.8431 17.4889C26.9208 17.6444 26.9985 17.7999 27.0763 17.9553C27.4649 17.7221 27.7758 17.6444 28.1645 17.6444C29.0973 17.6444 29.2527 18.1885 29.175 18.9658C28.6309 18.5772 28.0868 18.5772 27.4649 18.7326C26.6099 19.0435 26.299 20.1318 26.9208 20.8313C27.2317 21.1423 27.6204 21.2977 28.0868 21.2977C28.4754 21.2977 28.8641 21.22 29.175 20.9091C29.175 20.9091 29.2527 21.0645 29.2527 21.1423ZM28.7863 20.5981C28.3977 20.8313 28.009 20.8313 27.6204 20.5981C27.3095 20.4427 27.154 20.1318 27.2317 19.8208C27.3095 19.5099 27.5427 19.199 27.9313 19.199C28.009 19.199 28.1645 19.199 28.2422 19.1213C28.3977 19.1213 28.5531 19.199 28.6309 19.199C28.9418 19.2767 29.0973 19.5099 29.175 19.8208C29.2527 20.1318 29.0973 20.4427 28.7863 20.5981Z" fill="white"/>
<path d="M50.939 21.1424C51.1721 21.0646 51.4053 20.8314 51.5608 20.676C51.5608 20.8314 51.5608 20.9869 51.5608 21.2201C51.794 21.2201 51.9494 21.2201 52.1826 21.2201C52.1826 19.8987 52.1826 18.5773 52.1826 17.2559C51.9494 17.2559 51.794 17.2559 51.5608 17.2559C51.5608 17.3336 51.5608 17.3336 51.5608 17.4113C51.5608 18.1886 51.5608 18.8882 51.5608 19.6655C51.5608 19.821 51.5608 19.9764 51.4831 20.1319C51.3276 20.5205 51.0167 20.8314 50.5503 20.8314C50.0839 20.8314 49.773 20.5983 49.6175 20.2096C49.5398 20.0541 49.5398 19.8987 49.5398 19.6655C49.5398 18.8882 49.5398 18.1109 49.5398 17.4113C49.5398 17.3336 49.5398 17.3336 49.5398 17.2559C49.3066 17.2559 49.1512 17.2559 48.918 17.2559C48.918 17.3336 48.918 17.3336 48.918 17.4113C48.918 18.1886 48.918 18.9659 48.918 19.7432C48.918 19.8987 48.918 19.9764 48.918 20.1319C49.1512 20.9869 50.0062 21.531 50.939 21.1424Z" fill="white"/>
<path d="M55.6023 23.9401C55.3691 23.9401 55.2137 23.9401 54.9805 23.9401C54.9805 25.2615 54.9805 26.5829 54.9805 27.9043C55.2137 27.9043 55.3691 27.9043 55.6023 27.9043C55.6023 27.8266 55.6023 27.8266 55.6023 27.7489C55.6023 27.0493 55.6023 26.3497 55.6023 25.5724C55.6023 25.4947 55.6023 25.3392 55.6023 25.2615C55.68 24.7174 56.1464 24.3288 56.7683 24.4065C57.2346 24.4842 57.5456 24.8729 57.6233 25.3392C57.6233 26.1165 57.6233 26.9716 57.6233 27.7489C57.6233 27.8266 57.6233 27.8266 57.6233 27.9043C57.8565 27.9043 58.0119 27.9043 58.2451 27.9043C58.2451 27.8266 58.2451 27.8266 58.2451 27.7489C58.2451 26.9716 58.2451 26.1943 58.2451 25.417C58.2451 25.2615 58.2451 25.1838 58.2451 25.0283C58.0897 24.0178 57.2346 23.5515 56.3019 23.9401C56.0687 24.0178 55.8355 24.251 55.68 24.4065C55.6023 24.251 55.6023 24.0956 55.6023 23.9401Z" fill="white"/>
<path d="M36.4821 26.3508C36.6376 27.2835 37.3371 27.9054 38.2699 27.9831C38.814 28.0608 39.3581 27.9054 39.7468 27.5167C39.7468 27.5167 39.8245 27.439 39.8245 27.3613C39.7468 27.2058 39.7468 27.0504 39.669 26.8949C38.8917 27.6722 37.959 27.5167 37.4926 26.9726C36.9485 26.4285 36.9485 25.418 37.4149 24.7962C37.8813 24.2521 38.8917 24.0966 39.669 24.7962C39.7468 24.6407 39.7468 24.563 39.8245 24.4075C39.9022 24.3298 39.8245 24.2521 39.7468 24.1743C39.0472 23.6302 38.2699 23.5525 37.4926 23.9411C36.7153 24.4853 36.2489 25.418 36.4821 26.3508Z" fill="white"/>
<path d="M43.8655 21.1427C44.0987 21.1427 44.2542 21.1427 44.4874 21.1427C44.4874 19.5103 44.4874 17.9557 44.4874 16.3234C44.9538 16.3234 45.4201 16.3234 45.8865 16.3234C45.8865 16.0902 45.8865 15.9348 45.8865 15.7793C44.7206 15.7793 43.5546 15.7793 42.3887 15.7793C42.3887 15.9348 42.3887 16.1679 42.3887 16.3234C42.8551 16.3234 43.3214 16.3234 43.8655 16.3234C43.8655 17.9557 43.8655 19.5103 43.8655 21.1427Z" fill="white"/>
<path d="M22.3335 21.1427C22.3335 19.5103 22.3335 17.9557 22.3335 16.3234C22.7999 16.3234 23.2662 16.3234 23.8104 16.3234C23.8104 16.0902 23.8104 15.9348 23.8104 15.7793C22.6444 15.7793 21.4785 15.7793 20.3125 15.7793C20.3125 16.0125 20.3125 16.1679 20.3125 16.3234C20.7789 16.3234 21.2453 16.3234 21.7116 16.3234C21.7116 17.9557 21.7116 19.5103 21.7116 21.1427C21.9448 21.1427 22.1003 21.1427 22.3335 21.1427Z" fill="white"/>
<path d="M54.5929 20.676C54.2042 20.8315 53.7378 20.676 53.5047 20.3651C53.4269 20.2874 53.4269 20.2096 53.3492 20.1319C53.1937 20.2096 53.0383 20.2874 52.8828 20.4428C52.9605 20.5983 53.0383 20.7537 53.1937 20.8315C53.6601 21.2978 54.2042 21.3756 54.7483 21.2201C55.2924 21.0647 55.6034 20.676 55.6034 20.2096C55.6811 19.7432 55.4479 19.3546 54.9815 19.1214C54.7483 19.0437 54.5151 18.9659 54.282 18.8105C54.1265 18.7328 53.971 18.655 53.8156 18.5773C53.5047 18.3441 53.5824 17.8777 53.971 17.7223C54.3597 17.5668 54.8261 17.7223 55.0593 18.0332C55.0593 18.1109 55.137 18.1109 55.137 18.1886C55.2924 18.1109 55.4479 18.0332 55.6034 17.9555C55.5256 17.8777 55.5256 17.8 55.4479 17.7223C55.0593 17.1004 54.3597 16.8672 53.7378 17.1004C53.3492 17.2559 53.116 17.4891 53.0383 17.9555C52.9605 18.4218 53.116 18.8105 53.5047 19.0437C53.6601 19.1214 53.8933 19.1991 54.0488 19.3546C54.282 19.4323 54.5151 19.5101 54.6706 19.6655C54.9038 19.821 54.9815 19.9764 54.9815 20.2096C54.9815 20.4428 54.8261 20.5983 54.5929 20.676Z" fill="white"/>
<path d="M30.4187 27.9053C30.885 27.7498 31.1182 27.4389 31.196 26.8948C31.2737 26.3506 30.9628 26.0397 30.5741 25.8065C30.4187 25.7288 30.1855 25.6511 30.03 25.5733C29.8745 25.4956 29.6413 25.4179 29.4859 25.2624C29.3304 25.1847 29.2527 24.9515 29.2527 24.796C29.2527 24.5629 29.4082 24.4851 29.6414 24.4074C30.03 24.2519 30.4964 24.4074 30.7296 24.796L30.8073 24.8738C30.9628 24.796 31.1182 24.7183 31.2737 24.6406C31.196 24.4851 31.1182 24.4074 31.0405 24.3297C30.6518 23.941 29.9523 23.7856 29.4082 24.0187C29.0195 24.1742 28.7863 24.4851 28.7863 24.8738C28.7086 25.2624 28.864 25.6511 29.2527 25.8843C29.4859 26.0397 29.7191 26.1175 29.9523 26.1952C30.1077 26.2729 30.3409 26.3506 30.4964 26.4284C30.7296 26.5838 30.8073 26.7393 30.8073 26.9725C30.7296 27.2057 30.6518 27.3611 30.3409 27.4389C29.9523 27.5166 29.6413 27.5166 29.3304 27.2834C29.175 27.2057 29.0972 27.0502 29.0195 26.8948C28.864 26.9725 28.7863 27.0502 28.6309 27.1279V27.2057C28.864 27.9052 29.6414 28.2162 30.4187 27.9053Z" fill="white"/>
<path d="M27.3874 25.8835C27.1542 25.7281 26.921 25.6504 26.6878 25.5726C26.4546 25.4949 26.2992 25.4172 26.066 25.2617C25.755 25.0285 25.8328 24.5621 26.2214 24.4067C26.6101 24.2512 27.0765 24.3289 27.3097 24.7176C27.3097 24.7953 27.3874 24.7953 27.3874 24.8731C27.5428 24.7953 27.6983 24.7176 27.8538 24.6399C27.776 24.4844 27.6983 24.3289 27.5428 24.1735C27.1542 23.7848 26.3769 23.7071 25.9105 24.018C25.5219 24.2512 25.2887 24.6399 25.3664 25.1062C25.4441 25.4949 25.6773 25.7281 25.9882 25.8835C26.2992 26.039 26.5323 26.1167 26.8433 26.2722C26.9987 26.3499 27.0765 26.4277 27.1542 26.5054C27.3097 26.6608 27.3097 26.894 27.3097 27.0495C27.2319 27.2827 27.0765 27.4381 26.7655 27.4381C26.2992 27.5159 25.9105 27.3604 25.6773 26.9718C25.6773 26.894 25.5996 26.894 25.5996 26.8163C25.4441 26.894 25.2887 26.9718 25.2109 27.1272V27.205C25.5996 27.9823 26.6101 28.2154 27.3874 27.8268C28.087 27.4381 28.1647 26.3499 27.3874 25.8835Z" fill="white"/>
<path d="M31.7405 20.8307C31.8183 20.9084 31.8183 21.0638 31.896 21.1416C31.9737 21.2193 32.1292 21.1416 32.2847 21.1416C32.3624 21.1416 32.3624 21.1416 32.4401 21.1416C32.5178 21.1416 32.5956 21.1416 32.5956 20.9861C33.062 19.8202 33.5283 18.5765 33.9947 17.4105C33.9947 17.3328 34.0724 17.1773 34.0724 17.0996C33.917 17.0996 33.6838 17.0996 33.5283 17.0996C33.4506 17.0996 33.3729 17.0996 33.3729 17.2551C32.9842 18.2656 32.6733 19.2761 32.2847 20.2865C32.2847 20.3643 32.2847 20.3643 32.2069 20.442C32.2069 20.3643 32.2069 20.3643 32.1292 20.2865C31.7405 19.2761 31.3519 18.2656 30.9632 17.2551C30.9632 17.1773 30.8855 17.1773 30.8855 17.1773C30.7301 17.1773 30.4969 17.1773 30.2637 17.1773C30.2637 17.2551 30.2637 17.2551 30.3414 17.3328C30.8078 18.4988 31.2742 19.6647 31.7405 20.8307Z" fill="white"/>
<path d="M47.8296 27.9824C47.8296 27.8269 47.8296 27.6714 47.8296 27.4382C47.7518 27.4382 47.7518 27.4382 47.6741 27.4382C47.13 27.4382 46.8968 27.2051 46.8968 26.6609C46.8968 25.9614 46.8968 25.2618 46.8968 24.5622V24.4845C47.2077 24.4845 47.4409 24.4845 47.7518 24.4845C47.7518 24.329 47.7518 24.1736 47.7518 23.9404C47.4409 23.9404 47.2077 23.9404 46.8968 23.9404C46.8968 23.6295 46.8968 23.3963 46.8968 23.1631C46.6636 23.1631 46.5082 23.1631 46.275 23.1631C46.275 23.474 46.275 23.7072 46.275 24.0181C46.1195 24.0181 45.9641 24.0181 45.8086 24.0181C45.8086 24.1736 45.8086 24.4068 45.8086 24.5622C45.9641 24.5622 46.1195 24.5622 46.275 24.5622C46.275 24.7954 46.275 25.0286 46.275 25.2618C46.275 25.8836 46.275 26.4278 46.275 27.0496C46.4304 27.7492 46.9745 28.1378 47.8296 27.9824Z" fill="white"/>
<path d="M56.4586 17.7997C56.4586 18.4993 56.4586 19.1211 56.4586 19.8207C56.4586 19.9762 56.4586 20.0539 56.4586 20.2094C56.614 20.9089 57.0804 21.2976 57.9354 21.1421C57.9354 21.0644 57.9354 20.9867 57.9354 20.9089C57.9354 20.8312 57.9354 20.7535 57.9354 20.598C57.8577 20.598 57.7022 20.598 57.6245 20.598C57.3136 20.598 57.0804 20.4425 57.0804 20.1316C57.0804 20.0539 57.0804 19.9762 57.0804 19.8984C57.0804 19.1989 57.0804 18.4216 57.0804 17.722C57.0804 17.722 57.0804 17.722 57.0804 17.6443C57.3913 17.6443 57.6245 17.6443 57.9354 17.6443C57.9354 17.4888 57.9354 17.3333 57.9354 17.1001C57.6245 17.1001 57.3913 17.1001 57.0804 17.1001C57.0804 16.7892 57.0804 16.556 57.0804 16.2451C56.8472 16.2451 56.6918 16.2451 56.4586 16.2451C56.4586 16.556 56.4586 16.7892 56.4586 17.1001C56.3031 17.1001 56.1476 17.1001 55.9922 17.1001C55.9922 17.2556 55.9922 17.4111 55.9922 17.6443C56.1476 17.6443 56.3031 17.6443 56.4586 17.6443C56.4586 17.722 56.4586 17.7997 56.4586 17.7997Z" fill="white"/>
<path d="M39.6687 15.5449C39.4355 15.5449 39.2801 15.5449 39.0469 15.5449C39.0469 17.4104 39.0469 19.276 39.0469 21.0638C39.2801 21.0638 39.4355 21.0638 39.6687 21.0638C39.6687 19.276 39.6687 17.4104 39.6687 15.5449Z" fill="white"/>
<path d="M25.8323 17.722C25.9101 17.722 26.0655 17.722 26.1433 17.6443C26.1433 17.4111 26.1433 17.2557 26.1433 17.0225C25.5992 17.0225 25.2105 17.2557 24.9773 17.722C24.9773 17.5666 24.9773 17.3334 24.9773 17.1779C24.7441 17.1779 24.5887 17.1779 24.3555 17.1779C24.3555 18.4993 24.3555 19.8207 24.3555 21.1422C24.5887 21.1422 24.7441 21.1422 24.9773 21.1422C24.9773 21.0644 24.9773 21.0644 24.9773 20.9867C24.9773 20.3649 24.9773 19.8207 24.9773 19.1989C24.9773 18.888 25.055 18.6548 25.1328 18.3439C25.2105 18.033 25.4437 17.7998 25.8323 17.722Z" fill="white"/>
<path d="M47.0539 20.9861C47.0539 20.442 47.0539 19.8979 47.0539 19.3538C47.0539 19.0429 47.0539 18.7319 47.2093 18.421C47.3648 18.0324 47.598 17.7214 48.0644 17.7214C48.1421 17.7214 48.2198 17.7214 48.2198 17.7214C48.2198 17.4883 48.2198 17.3328 48.2198 17.0996C47.6757 17.0996 47.2871 17.3328 47.0539 17.7992C47.0539 17.6437 47.0539 17.4105 47.0539 17.2551C46.8207 17.2551 46.6652 17.2551 46.5098 17.2551C46.5098 18.5765 46.5098 19.8979 46.5098 21.2193C46.743 21.2193 46.8984 21.2193 47.1316 21.2193C47.0539 21.0638 47.0539 21.0638 47.0539 20.9861Z" fill="white"/>
<path d="M41.2214 23.9404C40.9883 23.9404 40.8328 23.9404 40.5996 23.9404C40.5996 25.2618 40.5996 26.5833 40.5996 27.9047C40.8328 27.9047 40.9883 27.9047 41.2214 27.9047C41.2214 26.5833 41.2214 25.2618 41.2214 23.9404Z" fill="white"/>
<path d="M48.6074 27.9047C48.8406 27.9047 48.9961 27.9047 49.2293 27.9047C49.2293 26.5833 49.2293 25.2618 49.2293 23.9404C48.9961 23.9404 48.8406 23.9404 48.6074 23.9404C48.6074 25.2618 48.6074 26.5833 48.6074 27.9047Z" fill="white"/>
<path d="M25.9878 29.6925C25.8324 29.6925 25.5992 29.6925 25.4437 29.6925C25.4437 29.5371 25.4437 29.3039 25.4437 29.1484C25.2883 29.1484 25.2105 29.1484 25.1328 29.1484C25.1328 29.6148 25.1328 30.1589 25.1328 30.6253C25.2105 30.6253 25.366 30.6253 25.4437 30.6253C25.4437 30.3921 25.4437 30.2367 25.4437 30.0035C25.5992 30.0035 25.8324 30.0035 25.9878 30.0035C25.9878 30.2367 25.9878 30.3921 25.9878 30.6253C26.1433 30.6253 26.221 30.6253 26.2988 30.6253C26.2988 30.1589 26.2988 29.6148 26.2988 29.1484C26.221 29.1484 26.0656 29.1484 25.9878 29.1484C25.9878 29.3039 25.9878 29.5371 25.9878 29.6925Z" fill="white"/>
<path d="M29.4864 29.6144C29.1755 29.459 28.9423 29.5367 28.7868 29.7699C28.7091 30.0031 28.7091 30.1585 28.7868 30.3917C28.9423 30.7026 29.2532 30.7026 29.4864 30.5472C29.4864 30.5472 29.4864 30.5472 29.5641 30.5472C29.5641 30.7026 29.6418 30.7026 29.875 30.6249C29.875 30.3917 29.875 30.1585 29.875 29.8476C29.875 29.6144 29.875 29.3035 29.875 29.0703C29.7196 29.0703 29.6418 29.0703 29.5641 29.0703C29.4864 29.2258 29.4864 29.3812 29.4864 29.6144ZM29.4864 30.1585C29.4864 30.2363 29.4087 30.314 29.3309 30.314C29.2532 30.314 29.1755 30.2363 29.0977 30.2363C29.0977 30.1585 29.0977 30.0031 29.0977 29.9253C29.0977 29.8476 29.1755 29.7699 29.3309 29.7699C29.4087 29.7699 29.4864 29.8476 29.4864 30.0031V30.0808C29.4864 30.0808 29.5641 30.1585 29.4864 30.1585Z" fill="white"/>
<path d="M57.9358 29.0703C57.9358 29.2258 57.9358 29.459 57.9358 29.6144C57.6248 29.459 57.3139 29.6144 57.2362 29.9253C57.1584 30.1585 57.2362 30.4695 57.4694 30.6249C57.6248 30.7804 57.858 30.7026 58.0135 30.5472C58.0912 30.7804 58.2467 30.6249 58.3244 30.7026C58.3244 30.1585 58.3244 29.6922 58.3244 29.148C58.0912 29.0703 58.0135 29.0703 57.9358 29.0703ZM57.7026 30.3917C57.5471 30.3917 57.4694 30.2363 57.4694 30.0808C57.4694 29.9253 57.5471 29.7699 57.7026 29.7699C57.858 29.7699 57.9358 29.8476 57.9358 30.0808C57.9358 30.2363 57.858 30.3917 57.7026 30.3917Z" fill="white"/>
<path d="M35.8588 29.3815C35.7033 29.6924 35.7033 30.0811 35.8588 30.392C36.0142 30.7029 36.4806 30.7029 36.7138 30.392C36.7915 30.2365 36.7915 30.0811 36.8693 29.9256C36.7915 29.7702 36.7915 29.6147 36.7138 29.4592C36.4806 29.0706 36.0142 29.0706 35.8588 29.3815ZM36.4029 30.2365C36.4029 30.3143 36.3252 30.3143 36.2474 30.3143C36.1697 30.3143 36.092 30.2365 36.092 30.2365C36.0142 30.1588 36.0142 30.0034 36.0142 29.8479C36.0142 29.6924 36.0142 29.6147 36.092 29.4592C36.092 29.3815 36.1697 29.3815 36.2474 29.3815C36.3252 29.3815 36.3252 29.4592 36.4029 29.4592C36.4806 29.7702 36.4806 30.0034 36.4029 30.2365Z" fill="white"/>
<path d="M35.1591 29.1484C34.926 29.1484 34.7705 29.2262 34.6928 29.4594C34.5373 29.7703 34.5373 30.0812 34.6928 30.3144C34.7705 30.5476 34.926 30.6253 35.1591 30.6253C35.3923 30.6253 35.5478 30.5476 35.6255 30.3144C35.7033 30.1589 35.7033 30.0035 35.7033 29.848C35.7033 29.6925 35.6255 29.5371 35.6255 29.4594C35.4701 29.3039 35.3146 29.1484 35.1591 29.1484ZM35.2369 30.2367C35.2369 30.3144 35.1591 30.3144 35.0814 30.3144C35.0037 30.3144 34.926 30.2367 34.926 30.2367C34.8482 30.0035 34.8482 29.7703 34.926 29.5371C34.926 29.4594 35.0037 29.4594 35.0814 29.4594C35.1591 29.4594 35.2369 29.5371 35.2369 29.5371C35.3146 29.6925 35.3146 29.7703 35.3146 29.9257C35.3146 30.0035 35.2369 30.1589 35.2369 30.2367Z" fill="white"/>
<path d="M50.0847 29.1484C49.8515 29.1484 49.6184 29.1484 49.4629 29.1484C49.4629 29.6148 49.4629 30.1589 49.4629 30.6253C49.5406 30.6253 49.6961 30.6253 49.7738 30.6253C49.7738 30.4699 49.7738 30.3144 49.7738 30.1589C49.9293 30.1589 50.007 30.1589 50.0847 30.0812C50.3179 30.0035 50.4734 29.848 50.4734 29.6148C50.4734 29.3039 50.3957 29.1484 50.0847 29.1484ZM50.1625 29.6925C50.0847 29.848 49.9293 29.7703 49.8515 29.7703C49.8515 29.6148 49.8515 29.4594 49.8515 29.3816C50.007 29.3816 50.0847 29.3039 50.1625 29.4594C50.1625 29.5371 50.1625 29.6148 50.1625 29.6925Z" fill="white"/>
<path d="M39.2031 30.6249C39.2809 30.6249 39.4363 30.6249 39.514 30.6249C39.514 30.3917 39.514 30.2363 39.514 30.0031C39.6695 30.0031 39.825 30.0031 40.0582 30.0031C40.0582 29.9253 40.0582 29.8476 40.0582 29.6922C39.9027 29.6922 39.7472 29.6922 39.514 29.6922C39.514 29.6144 39.514 29.459 39.514 29.3812C39.6695 29.3812 39.9027 29.3812 40.0582 29.3812C40.0582 29.3035 40.0582 29.2258 40.0582 29.0703C39.7472 29.0703 39.4363 29.0703 39.2031 29.0703C39.2031 29.6144 39.2031 30.0808 39.2031 30.6249Z" fill="white"/>
<path d="M48.7628 29.5371C48.6851 29.5371 48.6074 29.5371 48.6074 29.6926C48.6074 29.848 48.5297 30.0812 48.4519 30.2367C48.3742 30.0812 48.2965 29.848 48.2187 29.6926L48.141 29.6148C48.0633 29.6148 47.9078 29.6148 47.8301 29.6148C47.9855 29.9258 48.0633 30.159 48.141 30.4699C48.2187 30.7031 48.2187 30.7808 47.9855 30.8585C47.9855 30.8585 47.9078 30.8585 47.9078 30.9363C47.9078 31.014 47.9855 31.0917 47.9855 31.2472C48.2187 31.1694 48.2965 31.1694 48.3742 31.014C48.6074 30.6253 48.7628 30.159 48.9183 29.6926C48.8406 29.5371 48.8406 29.5371 48.7628 29.5371Z" fill="white"/>
<path d="M31.896 29.5371C31.8183 29.5371 31.7406 29.5371 31.7406 29.6926C31.7406 29.848 31.6629 30.0812 31.5851 30.2367C31.5074 30.0035 31.4297 29.848 31.4297 29.6148L31.3519 29.5371C31.2742 29.5371 31.1187 29.5371 31.041 29.5371C31.1965 29.848 31.2742 30.1589 31.4297 30.3921C31.5074 30.5476 31.5074 30.6253 31.2742 30.7031C31.2742 30.7031 31.1965 30.7031 31.1965 30.7808C31.1965 30.8585 31.2742 30.9363 31.2742 31.0917C31.5074 31.014 31.6629 30.9363 31.7406 30.7031C31.8183 30.4699 31.9738 30.2367 32.0515 29.9258C32.1292 29.7703 32.1292 29.6926 32.207 29.5371C32.0515 29.5371 31.9738 29.5371 31.896 29.5371Z" fill="white"/>
<path d="M23.4226 29.6148C23.4226 29.7703 23.4226 30.0035 23.4226 30.1589C23.4226 30.2367 23.3449 30.3144 23.2672 30.3144C23.1894 30.3144 23.1117 30.2367 23.1117 30.1589C23.1117 30.0812 23.1117 30.0812 23.1117 30.0035C23.1117 29.848 23.1117 29.6926 23.1117 29.5371C23.034 29.5371 22.8785 29.5371 22.8008 29.5371C22.8008 29.7703 22.8008 30.0812 22.8008 30.3144C22.8008 30.5476 23.1117 30.7031 23.3449 30.6253C23.4226 30.6253 23.4226 30.5476 23.5004 30.5476V30.6253C23.5781 30.6253 23.6558 30.6253 23.7335 30.6253C23.7335 30.2367 23.7335 29.9258 23.7335 29.5371C23.6558 29.5371 23.5004 29.5371 23.4226 29.5371C23.4226 29.6148 23.4226 29.6148 23.4226 29.6148Z" fill="white"/>
<path d="M43.632 29.5368C43.5543 29.5368 43.4765 29.6146 43.3988 29.6146V29.5368C43.3211 29.5368 43.2434 29.5368 43.0879 29.5368C43.0879 29.9255 43.0879 30.2364 43.0879 30.625C43.1656 30.625 43.3211 30.625 43.3988 30.625C43.3988 30.4696 43.3988 30.2364 43.3988 30.0809C43.3988 29.9255 43.4765 29.8477 43.5543 29.77C43.7097 29.77 43.7097 29.8477 43.7097 30.0032C43.7097 30.1587 43.7097 30.3919 43.7097 30.5473C43.8652 30.5473 43.9429 30.5473 44.0207 30.5473C44.0207 30.3141 44.0207 30.0809 44.0207 29.8477C44.0984 29.6146 43.8652 29.4591 43.632 29.5368Z" fill="white"/>
<path d="M27.0754 29.5371C26.7644 29.5371 26.5312 29.7703 26.5312 30.0812C26.5312 30.3921 26.7644 30.6253 27.0754 30.6253C27.3863 30.6253 27.6195 30.3921 27.6195 30.0812C27.6195 29.6926 27.3863 29.5371 27.0754 29.5371ZM26.9976 30.3921C26.8422 30.3921 26.7644 30.2367 26.7644 30.0812C26.7644 29.9258 26.8422 29.7703 26.9976 29.7703C27.1531 29.7703 27.2308 29.9258 27.2308 30.0812C27.2308 30.2367 27.1531 30.3921 26.9976 30.3921Z" fill="white"/>
<path d="M51.8722 29.5371C51.5613 29.5371 51.3281 29.7703 51.3281 30.0812C51.3281 30.3921 51.5613 30.6253 51.8722 30.6253C52.1832 30.6253 52.4163 30.3921 52.4163 30.0812C52.4163 29.7703 52.2609 29.5371 51.8722 29.5371ZM51.8722 30.3921C51.7168 30.3921 51.639 30.2367 51.639 30.0812C51.639 29.848 51.7168 29.7703 51.8722 29.7703C52.0277 29.7703 52.1054 29.9258 52.1054 30.0812C52.1054 30.2367 52.0277 30.3921 51.8722 30.3921Z" fill="white"/>
<path d="M22.0226 29.5371C21.634 29.5371 21.4785 29.7703 21.4785 30.0812C21.4785 30.3921 21.7117 30.6253 22.0226 30.6253C22.3335 30.6253 22.5667 30.3921 22.5667 30.0812C22.5667 29.6926 22.3335 29.5371 22.0226 29.5371ZM22.0226 30.3921C21.8672 30.3921 21.7894 30.2367 21.7894 30.0812C21.7894 29.848 21.8672 29.7703 22.0226 29.7703C22.1781 29.7703 22.2558 29.9258 22.2558 30.0812C22.2558 30.2367 22.1004 30.3921 22.0226 30.3921Z" fill="white"/>
<path d="M41.3019 29.537C41.2242 29.537 41.1465 29.6147 41.0687 29.6147C41.0687 29.537 40.991 29.537 40.7578 29.537C40.7578 29.8479 40.7578 30.2366 40.7578 30.6252C40.8355 30.6252 40.991 30.6252 41.0687 30.6252C41.0687 30.5475 41.0687 30.4698 41.0687 30.392C41.0687 30.2366 41.0687 30.1589 41.0687 30.0034C41.0687 29.9257 41.1465 29.8479 41.2242 29.8479C41.3019 29.8479 41.3797 29.9257 41.3797 30.0034C41.3797 30.0811 41.3797 30.1589 41.3797 30.2366C41.3797 30.392 41.3797 30.5475 41.3797 30.703C41.5351 30.703 41.6128 30.703 41.6906 30.703C41.6906 30.4698 41.6906 30.2366 41.6906 30.0034C41.7683 29.6147 41.5351 29.4593 41.3019 29.537Z" fill="white"/>
<path d="M30.9633 29.9259C30.9633 29.7704 30.8855 29.6927 30.8078 29.6149C30.6523 29.5372 30.2637 29.5372 30.1082 29.6149C30.1082 29.6927 30.186 29.7704 30.186 29.7704C30.4969 29.6927 30.5746 29.6927 30.6523 29.8481C30.4969 29.9259 30.3414 29.9259 30.186 30.0036C30.0305 30.0813 29.9528 30.2368 30.0305 30.3922C30.1082 30.5477 30.186 30.6254 30.3414 30.6254C30.4191 30.6254 30.5746 30.5477 30.6523 30.5477C30.7301 30.7032 30.8855 30.5477 30.9633 30.6254C30.9633 30.3922 30.9633 30.2368 30.9633 30.0036C30.9633 29.9259 30.9633 29.9259 30.9633 29.9259ZM30.4969 30.3922C30.4191 30.3922 30.3414 30.3922 30.3414 30.2368C30.3414 30.1591 30.4191 30.0813 30.6523 30.0813C30.6523 30.3145 30.5746 30.3922 30.4969 30.3922Z" fill="white"/>
<path d="M42.7011 29.5374C42.4679 29.4597 42.2347 29.4597 42.0016 29.6151C42.0016 29.6928 42.0793 29.7706 42.0793 29.8483C42.3902 29.6928 42.5457 29.7706 42.5457 29.926C42.4679 29.926 42.3902 29.926 42.3125 29.926C42.2347 29.926 42.157 29.926 42.0793 30.0038C41.9238 30.0815 41.9238 30.237 41.9238 30.3924C42.0016 30.5479 42.0793 30.6256 42.3125 30.6256C42.3902 30.6256 42.4679 30.5479 42.6234 30.5479C42.7011 30.7033 42.8566 30.5479 42.9343 30.6256C42.9343 30.3924 42.9343 30.1592 42.9343 30.0038C42.8566 29.7706 42.8566 29.6151 42.7011 29.5374ZM42.4679 30.3924C42.3902 30.3924 42.3125 30.3924 42.3125 30.3924C42.3125 30.3924 42.2347 30.3147 42.3125 30.237C42.3902 30.1592 42.4679 30.1592 42.6234 30.1592C42.5457 30.237 42.5457 30.3147 42.4679 30.3924Z" fill="white"/>
<path d="M46.4312 29.5374C46.198 29.4597 45.9649 29.4597 45.7317 29.6151C45.7317 29.6928 45.8094 29.7706 45.8094 29.8483C46.198 29.7706 46.198 29.7706 46.2758 29.926C46.1203 30.0038 45.9649 30.0038 45.8871 30.0815C45.7317 30.1592 45.6539 30.3147 45.7317 30.4701C45.8094 30.6256 45.8871 30.7033 46.0426 30.7033C46.1203 30.7033 46.198 30.6256 46.3535 30.6256C46.4312 30.7033 46.509 30.7033 46.6644 30.7033C46.6644 30.4701 46.6644 30.237 46.6644 30.0815C46.6644 29.7706 46.5867 29.6151 46.4312 29.5374ZM46.198 30.3924C46.1203 30.3924 46.0426 30.3924 46.0426 30.237C46.0426 30.1592 46.1203 30.0815 46.3535 30.0815C46.3535 30.3147 46.2758 30.3924 46.198 30.3924Z" fill="white"/>
<path d="M21.4785 29.459C21.4785 29.3812 21.5562 29.3812 21.5562 29.3035C21.5562 29.2258 21.6339 29.148 21.6339 29.0703C21.5562 29.0703 21.4785 29.0703 21.4007 29.0703C21.323 29.0703 21.2453 29.0703 21.1675 29.2258C21.0898 29.3812 21.0121 29.5367 20.9343 29.6922C20.8566 29.5367 20.7789 29.3035 20.7012 29.148L20.6234 29.0703C20.5457 29.0703 20.3902 29.0703 20.3125 29.0703V29.148C20.468 29.3812 20.5457 29.6144 20.7012 29.8476C20.7012 29.9253 20.7789 30.0031 20.7789 30.0808C20.7789 30.2363 20.7789 30.3917 20.7789 30.5472C20.9343 30.5472 21.0121 30.5472 21.0898 30.5472V30.4695C21.0898 30.1585 21.2453 29.7699 21.4785 29.459Z" fill="white"/>
<path d="M54.1272 29.6151C53.9717 29.4597 53.8163 29.4597 53.5831 29.5374C53.3499 29.6151 53.1944 30.0038 53.2722 30.237C53.3499 30.5479 53.8163 30.7033 54.2049 30.4701C54.2049 30.3924 54.2049 30.3147 54.1272 30.237C53.7386 30.3147 53.5831 30.237 53.5831 30.0815C53.8163 30.0815 54.0495 30.0815 54.2827 30.0815C54.2827 29.926 54.2827 29.7706 54.1272 29.6151ZM53.5831 29.926C53.5831 29.7706 53.6608 29.7706 53.7386 29.6928C53.894 29.6928 53.894 29.7706 53.894 29.926C53.8163 29.926 53.7386 29.926 53.5831 29.926Z" fill="white"/>
<path d="M56.8461 29.5372C56.6129 29.3817 56.2243 29.5372 56.1466 29.7704C55.9911 30.0813 56.1466 30.4699 56.3797 30.5477C56.6129 30.6254 56.8461 30.6254 57.0016 30.5477C57.0016 30.4699 57.0016 30.3922 56.9239 30.3145C56.5352 30.3922 56.3797 30.3145 56.3797 30.159C56.6129 30.159 56.8461 30.159 57.0016 30.159C57.0793 29.9258 57.0016 29.6926 56.8461 29.5372ZM56.3797 29.9258C56.3797 29.7704 56.4575 29.6926 56.5352 29.6926C56.6129 29.6926 56.6907 29.7704 56.6907 29.9258C56.6129 29.9258 56.5352 29.9258 56.3797 29.9258Z" fill="white"/>
<path d="M53.1933 30.3925C53.1156 30.3925 52.9601 30.3925 52.9601 30.2371C52.9601 30.0816 52.9601 29.9261 52.9601 29.7707C53.0379 29.7707 53.1156 29.7707 53.1933 29.7707C53.1933 29.6929 53.1933 29.6152 53.1933 29.5375C53.1156 29.5375 53.0379 29.5375 52.9601 29.5375C52.9601 29.4598 52.9601 29.382 52.9601 29.2266C52.8824 29.2266 52.7269 29.2266 52.6492 29.3043C52.5715 29.3043 52.6492 29.4598 52.5715 29.5375C52.4937 29.5375 52.4937 29.5375 52.416 29.5375C52.416 29.6152 52.416 29.6929 52.416 29.7707C52.4937 29.7707 52.4937 29.7707 52.5715 29.7707C52.5715 29.8484 52.5715 29.9261 52.5715 30.0039C52.5715 30.1593 52.5715 30.2371 52.5715 30.3925C52.5715 30.548 52.8047 30.6257 53.0379 30.6257C53.271 30.6257 53.1933 30.4702 53.1933 30.3925Z" fill="white"/>
<path d="M55.7574 29.2266C55.4465 29.2266 55.4465 29.2266 55.4465 29.5375C55.3687 29.5375 55.3687 29.5375 55.291 29.5375C55.291 29.6152 55.291 29.6929 55.291 29.7707C55.3687 29.7707 55.3687 29.7707 55.4465 29.7707C55.4465 29.8484 55.4465 29.9261 55.4465 30.0039C55.4465 30.0816 55.4465 30.1593 55.4465 30.2371C55.4465 30.3925 55.5242 30.548 55.7574 30.548C55.9906 30.548 56.0683 30.548 55.9906 30.2371C55.9129 30.2371 55.7574 30.2371 55.7574 30.0816C55.7574 29.9261 55.7574 29.7707 55.7574 29.6929C55.8351 29.6929 55.9129 29.6929 55.9906 29.6929C55.9906 29.6152 55.9906 29.5375 55.9906 29.4598C55.9129 29.4598 55.8351 29.4598 55.7574 29.4598C55.7574 29.4598 55.7574 29.3043 55.7574 29.2266Z" fill="white"/>
<path d="M32.7507 30.0036C32.673 30.0036 32.5953 29.9259 32.5953 29.9259L32.5176 29.8481C32.5953 29.8481 32.5953 29.7704 32.673 29.7704C32.7507 29.7704 32.8285 29.7704 32.9062 29.8481C32.9062 29.7704 32.9062 29.6927 32.9839 29.6149C32.7507 29.5372 32.5953 29.5372 32.4398 29.6149C32.3621 29.6927 32.2844 29.7704 32.2844 29.9259C32.2844 30.0813 32.3621 30.1591 32.4398 30.2368C32.5176 30.2368 32.5953 30.3145 32.5953 30.3145C32.673 30.3145 32.673 30.3922 32.673 30.47C32.5953 30.47 32.5953 30.5477 32.5176 30.5477C32.4398 30.5477 32.3621 30.5477 32.2066 30.47C32.2066 30.5477 32.2066 30.6254 32.1289 30.7032C32.3621 30.7809 32.5176 30.7809 32.7507 30.7032C32.9062 30.6254 32.9839 30.5477 32.9839 30.3922C32.9062 30.159 32.9062 30.0813 32.7507 30.0036Z" fill="white"/>
<path d="M33.5273 29.3816C33.5273 29.4594 33.5273 29.5371 33.6051 29.6148C33.6828 29.5371 33.7605 29.5371 33.916 29.4594C33.916 29.848 33.916 30.2367 33.916 30.5476C33.9937 30.5476 34.1492 30.5476 34.2269 30.5476C34.2269 30.0812 34.2269 29.6148 34.2269 29.1484C33.916 29.1484 33.7605 29.2262 33.5273 29.3816Z" fill="white"/>
<path d="M48.9179 22.4639C48.6848 22.4639 48.5293 22.6193 48.5293 22.8525C48.5293 23.0857 48.6848 23.2412 48.9179 23.3189C49.1511 23.3189 49.3843 23.1634 49.3843 22.9302C49.3066 22.6971 49.1511 22.4639 48.9179 22.4639Z" fill="white"/>
<path d="M41.3769 22.8525C41.3769 22.6193 41.2215 22.4639 40.9883 22.4639C40.7551 22.4639 40.5996 22.6193 40.5996 22.8525C40.5996 23.0857 40.7551 23.2412 40.9883 23.2412C41.2215 23.3189 41.3769 23.1634 41.3769 22.8525Z" fill="white"/>
<path d="M55.2146 29.7705C55.2146 29.6928 55.2146 29.6151 55.2923 29.5373C54.9814 29.4596 54.6705 29.5373 54.515 29.6928C54.3596 29.8483 54.3596 30.1592 54.515 30.3924C54.6705 30.6255 54.9814 30.6256 55.2923 30.5478C55.2923 30.4701 55.2923 30.3924 55.2923 30.3146C54.9814 30.3924 54.826 30.3146 54.826 30.0814C54.6705 29.8483 54.826 29.7705 55.2146 29.7705Z" fill="white"/>
<path d="M45.0312 29.7703C45.0312 29.6926 45.0312 29.6148 45.1089 29.5371C45.0312 29.5371 44.9535 29.5371 44.8757 29.5371C44.4871 29.5371 44.2539 29.7703 44.2539 30.0812C44.2539 30.4699 44.4871 30.6253 44.8757 30.6253C45.1089 30.6253 45.1089 30.6253 45.1089 30.3921C44.798 30.4699 44.6426 30.3921 44.6426 30.1589C44.6426 30.0812 44.6426 30.0035 44.7203 29.9258C44.798 29.7703 44.9535 29.7703 45.0312 29.7703Z" fill="white"/>
<path d="M46.8984 30.6249C46.9762 30.6249 47.1316 30.6249 47.2094 30.6249C47.2094 30.0808 47.2094 29.6144 47.2094 29.0703C47.1316 29.0703 46.9762 29.0703 46.8984 29.0703C46.8984 29.6144 46.8984 30.0808 46.8984 30.6249Z" fill="white"/>
<path d="M27.7754 30.6249C27.8531 30.6249 28.0086 30.6249 28.0863 30.6249C28.0863 30.0808 28.0863 29.6144 28.0863 29.0703C28.0086 29.0703 27.8531 29.0703 27.7754 29.0703C27.7754 29.6144 27.7754 30.0808 27.7754 30.6249Z" fill="white"/>
<path d="M47.4414 30.6249C47.5191 30.6249 47.6746 30.6249 47.7523 30.6249C47.7523 30.0808 47.7523 29.6144 47.7523 29.0703C47.6746 29.0703 47.5191 29.0703 47.4414 29.0703C47.4414 29.6144 47.4414 30.0808 47.4414 30.6249Z" fill="white"/>
<path d="M50.9398 29.6923C50.9398 29.6145 50.9398 29.6145 50.9398 29.5368C50.8621 29.5368 50.7844 29.5368 50.6289 29.5368C50.6289 29.9255 50.6289 30.2364 50.6289 30.625C50.7844 30.625 50.8621 30.625 50.9398 30.625C50.9398 30.4696 50.9398 30.2364 50.9398 30.0809C50.9398 29.9255 51.0176 29.8477 51.173 29.8477H51.2507C51.2507 29.77 51.2507 29.6145 51.2507 29.5368C51.0953 29.4591 51.0176 29.6145 50.9398 29.6923Z" fill="white"/>
<path d="M24.1996 29.6922C24.1996 29.6144 24.1996 29.6144 24.1219 29.5367C24.0441 29.5367 23.9664 29.5367 23.8887 29.5367C23.8887 29.9254 23.8887 30.2363 23.8887 30.6249C23.9664 30.6249 24.1219 30.6249 24.1996 30.6249C24.1996 30.4695 24.1996 30.314 24.1996 30.1586C24.1996 29.8476 24.2773 29.8476 24.5105 29.7699C24.5105 29.6922 24.5105 29.6144 24.5105 29.459C24.4328 29.5367 24.3551 29.5367 24.1996 29.6922Z" fill="white"/>
<path d="M38.2695 29.7705C38.0363 29.7705 37.8809 29.926 37.8809 30.2369C37.8809 30.4701 38.0363 30.7033 38.2695 30.7033C38.5027 30.7033 38.6582 30.4701 38.6582 30.2369C38.6582 29.926 38.5027 29.7705 38.2695 29.7705ZM38.2695 30.4701C38.114 30.4701 38.114 30.3146 38.114 30.2369C38.114 30.0814 38.1918 30.0037 38.2695 30.0037C38.425 30.0037 38.425 30.1592 38.425 30.2369C38.425 30.3146 38.3472 30.4701 38.2695 30.4701Z" fill="white"/>
<path d="M37.6484 29.6152C37.6484 29.382 37.4929 29.2266 37.2597 29.2266C37.0266 29.2266 36.8711 29.382 36.8711 29.6929C36.8711 29.9261 37.0266 30.1593 37.2597 30.1593C37.4929 30.0039 37.6484 29.8484 37.6484 29.6152ZM37.2597 29.8484C37.182 29.8484 37.1043 29.7707 37.1043 29.6152C37.1043 29.5375 37.1043 29.382 37.2597 29.382C37.3375 29.382 37.4152 29.4598 37.4152 29.6929C37.3375 29.6929 37.4152 29.8484 37.2597 29.8484Z" fill="white"/>
<path d="M40.2109 30.6253C40.3664 30.6253 40.4441 30.6253 40.5219 30.6253C40.5219 30.2367 40.5219 29.9258 40.5219 29.5371C40.4441 29.5371 40.2887 29.5371 40.2109 29.5371C40.2109 29.9258 40.2109 30.2367 40.2109 30.6253Z" fill="white"/>
<path d="M45.2637 30.6253C45.3414 30.6253 45.4969 30.6253 45.5746 30.6253C45.5746 30.2367 45.5746 29.9258 45.5746 29.5371C45.4969 29.5371 45.3414 29.5371 45.2637 29.5371C45.2637 29.9258 45.2637 30.2367 45.2637 30.6253Z" fill="white"/>
<path d="M28.3203 30.6253C28.398 30.6253 28.5535 30.6253 28.6312 30.6253C28.6312 30.2367 28.6312 29.9258 28.6312 29.5371C28.5535 29.5371 28.398 29.5371 28.3203 29.5371C28.3203 29.9258 28.3203 30.2367 28.3203 30.6253Z" fill="white"/>
<path d="M37.9589 29.3039C37.7258 29.6925 37.5703 30.0812 37.3371 30.3921C37.2594 30.4698 37.2594 30.5476 37.1816 30.6253C37.2594 30.6253 37.3371 30.6253 37.3371 30.5476C37.5703 30.0812 37.8812 29.6148 38.1144 29.1484C38.1144 29.1484 38.0367 29.1484 37.9589 29.3039Z" fill="white"/>
<path d="M40.3664 29.0703C40.2887 29.0703 40.2109 29.148 40.2109 29.2258C40.2109 29.3035 40.2887 29.3812 40.3664 29.3812C40.4441 29.3812 40.5219 29.3035 40.5219 29.2258C40.5996 29.148 40.5219 29.0703 40.3664 29.0703Z" fill="white"/>
<path d="M45.4191 29.0703C45.3414 29.0703 45.2637 29.148 45.2637 29.2258C45.2637 29.3035 45.3414 29.3812 45.4191 29.3812C45.4969 29.3812 45.5746 29.3035 45.5746 29.2258C45.5746 29.148 45.4969 29.0703 45.4191 29.0703Z" fill="white"/>
<path d="M28.4758 29.0703C28.398 29.0703 28.3203 29.148 28.3203 29.2258C28.3203 29.3035 28.398 29.3812 28.4758 29.3812C28.5535 29.3812 28.6312 29.3035 28.6312 29.2258C28.6312 29.148 28.5535 29.0703 28.4758 29.0703Z" fill="white"/>
</g>
<defs>
<clipPath id="clip0_147_53209">
<rect width="57.5203" height="31.092" fill="white" transform="translate(0.726562)"/>
</clipPath>
</defs>
</svg>
