<svg width="141" height="27" viewBox="0 0 141 27" fill="none" xmlns="http://www.w3.org/2000/svg">
<g clip-path="url(#clip0_147_53371)">
<path d="M19.9884 9.86059C19.9884 10.5602 19.6774 11.2597 19.3665 11.8816C19.5997 12.1925 19.9106 12.4257 20.1438 12.6589C20.377 12.9698 20.6102 13.2807 20.8434 13.5916C20.9211 13.7471 20.9211 13.8248 20.9211 14.058C20.8434 14.3689 20.7657 14.6799 20.6102 14.9908C20.377 14.6021 20.1438 14.1357 19.9106 13.7471C19.6774 13.3584 19.3665 12.9698 18.9779 12.6589C18.356 13.5139 17.6565 14.2912 16.8792 14.9908C17.0346 15.1462 17.1124 15.224 17.1901 15.3017C17.8119 15.9235 18.2006 16.7008 18.356 17.4781C18.4338 17.8668 18.356 18.1 18.1228 18.3332C18.0451 18.4109 17.9674 18.4109 17.8897 18.5664C17.8897 17.3227 17.1901 16.3899 16.3351 15.5349C15.0914 16.4677 13.8477 17.1672 12.4485 17.7891C12.6817 18.1 12.9927 18.4109 13.1481 18.7218C13.5368 19.3437 13.6922 19.9655 13.459 20.7428C13.459 20.8205 13.3813 20.8983 13.3813 20.976C13.3036 21.1315 13.2258 21.2092 13.0704 21.2869C12.9149 21.2869 12.7595 21.3646 12.604 21.4424C12.604 21.3646 12.6817 21.2869 12.6817 21.2869C13.3036 20.2764 12.9927 19.2659 12.2154 18.4109L12.1376 18.3332C11.749 18.0223 11.749 18.0223 11.2826 18.1777C9.72799 18.7218 8.09566 19.2659 6.3856 19.4991C5.21965 19.6546 4.05369 19.7323 2.88774 19.4991C2.65455 19.4214 2.42136 19.3437 2.18817 19.2659C1.56633 18.955 1.33314 18.3332 1.72179 17.7891C1.95498 17.4781 2.18817 17.245 2.49909 17.0895C3.12093 16.7008 3.8205 16.5454 4.52008 16.3899C6.30787 16.079 8.09566 16.1567 9.88345 16.6231C10.1166 16.7008 10.3498 16.7786 10.583 16.8563C10.6608 16.8563 10.7385 16.934 10.8162 16.934C10.5053 17.0118 10.2721 17.1672 10.0389 17.245C9.96118 17.245 9.88345 17.245 9.80572 17.245C8.40658 16.8563 6.92971 16.7786 5.45284 16.934C4.75327 17.0118 4.05369 17.1672 3.35412 17.4781C3.12093 17.5559 2.88774 17.7113 2.65455 17.8668C2.49909 18.0223 2.34363 18.1777 2.34363 18.4109C2.49909 18.4886 2.57682 18.5664 2.73228 18.5664C3.12093 18.7218 3.43185 18.7996 3.74277 18.7996C4.75327 18.8773 5.68603 18.7218 6.69652 18.5664C8.87296 18.1777 10.8939 17.4004 12.7595 16.3899C14.1586 15.6903 15.48 14.8353 16.646 13.7471C17.3455 13.0475 18.0451 12.2702 18.5115 11.3375C18.9779 10.4047 19.1333 9.39421 18.7447 8.30599C18.5892 7.76188 18.2783 7.2955 17.8897 6.82912C17.1901 6.05182 16.3351 5.50771 15.3246 5.11906C14.5473 4.80813 13.77 4.49721 12.9927 4.34175C12.4485 4.26402 11.9822 4.18629 11.4381 4.26402C11.4381 4.26402 11.3603 4.26402 11.2826 4.26402C11.5935 4.34175 11.749 4.41948 11.9822 4.49721C12.604 4.65267 13.0704 4.9636 13.459 5.50771C13.5368 5.58544 13.6145 5.66317 13.6922 5.66317C14.7804 5.97409 15.8687 6.44047 16.9569 6.82912C17.0346 6.90685 17.1901 6.90685 17.2678 6.98458C17.8119 7.14004 18.1228 7.52869 18.356 8.0728C18.4338 8.22826 18.5115 8.38372 18.5115 8.61691C17.7342 8.15053 17.0346 7.68415 16.1796 7.37323C15.4023 6.98458 14.5473 6.67366 13.6922 6.44047C13.77 7.37323 13.3813 8.15053 12.9149 8.8501C13.5368 9.00556 14.1586 9.16102 14.7804 9.39421C15.4023 9.6274 15.9464 9.86059 16.5682 10.1715C17.1124 10.4047 17.7342 10.7934 18.2006 11.182C18.1228 11.4152 17.9674 11.5707 17.8897 11.8038C17.1124 11.182 16.1796 10.7156 15.3246 10.327C14.3918 9.93832 13.459 9.70513 12.5263 9.47194C11.5935 10.4824 10.4276 11.2597 9.26161 11.9593C11.5935 12.2702 13.6922 12.8921 15.7132 14.2135C15.5577 14.2912 15.48 14.3689 15.4023 14.4467C15.3246 14.5244 15.2468 14.6021 15.0914 14.6799C15.0136 14.6799 15.0136 14.6021 14.9359 14.6021C13.6145 13.8248 12.2154 13.3584 10.7385 13.0475C9.88345 12.8921 9.02842 12.8143 8.09566 12.7366C7.9402 12.7366 7.78474 12.7366 7.62928 12.8143C5.99695 13.5916 4.36462 14.1357 2.57682 14.3689C2.18817 14.4467 1.72179 14.3689 1.33314 14.3689C1.25541 14.3689 1.17768 14.3689 1.09995 14.3689C0.63357 14.058 0.47811 13.4362 0.866761 13.1253C1.02222 12.9698 1.25541 12.8143 1.4886 12.7366C2.18817 12.4257 2.88774 12.1925 3.66504 12.1148C4.59781 11.9593 5.53057 11.8816 6.46333 11.8816C6.54106 11.8816 6.54106 11.8816 6.61879 11.8816C5.21965 12.5811 3.66504 12.8143 2.18817 13.2807V13.3584C2.2659 13.3584 2.34363 13.3584 2.42136 13.3584C4.20916 13.1253 5.99695 12.5811 7.62928 11.8038C8.40658 11.4152 9.10615 11.1043 9.80572 10.6379C10.5053 10.1715 11.1271 9.70513 11.749 9.16102C12.1376 8.77237 12.5263 8.38372 12.7595 7.83961C12.9927 7.37323 13.1481 6.82912 13.0704 6.28501C13.0704 6.12955 12.9927 5.97409 12.8372 5.81863C12.604 5.50771 12.3708 5.27452 12.0599 5.11906C11.5935 4.88586 11.0494 4.7304 10.5053 4.57494C10.1944 4.49721 10.1166 4.57494 9.88345 4.80813C10.3498 4.88586 10.8162 4.9636 11.2826 5.04133C11.749 5.11906 12.2154 5.42998 12.5263 5.7409C12.604 5.81863 12.6817 5.89636 12.7595 6.05182C11.5158 5.81863 10.2721 5.50771 9.18388 5.27452C7.70701 6.28501 6.23014 7.14004 4.67554 7.91734C4.75327 7.99507 4.831 7.99507 4.90873 7.99507C5.91922 7.99507 6.92971 8.0728 7.9402 8.0728C8.87296 8.0728 9.80572 8.22826 10.8162 8.38372C11.1271 8.46145 11.5158 8.46145 11.8267 8.53918C11.6712 8.77237 11.4381 8.92783 11.2826 9.08329C11.2049 9.08329 11.1271 9.08329 11.0494 9.08329C10.4276 9.00556 9.80572 8.92783 9.18388 8.8501C7.70701 8.69464 6.23014 8.61691 4.75327 8.69464C4.20916 8.69464 3.74277 8.69464 3.19866 8.69464C3.0432 8.69464 2.88774 8.69464 2.81001 8.61691C2.57682 8.53918 2.49909 8.30599 2.57682 8.15053C2.57682 8.0728 2.81001 7.91734 2.96547 7.83961C3.43185 7.68415 3.8205 7.52869 4.28689 7.37323C5.91922 6.67366 7.47382 5.81863 9.02842 4.80813C9.10615 4.7304 9.18388 4.65267 9.33934 4.57494C9.33934 4.57494 9.33934 4.49721 9.41707 4.49721C9.18388 4.49721 8.95069 4.49721 8.79523 4.49721C8.7175 4.57494 8.63977 4.65267 8.56204 4.7304C8.48431 4.80813 8.32885 4.88587 8.25112 4.9636C8.17339 4.9636 8.01793 5.04133 7.9402 5.04133C7.78474 4.9636 7.62928 4.88586 7.47382 4.7304C7.39609 4.65267 7.39609 4.49721 7.55155 4.41948C7.62928 4.34175 7.78474 4.26402 7.86247 4.18629C8.17339 4.10856 8.48431 4.03083 8.79523 4.03083C9.18388 4.03083 9.57253 4.03083 9.96118 4.03083C10.1166 4.03083 10.1944 4.03083 10.3498 3.9531C10.8939 3.71991 11.4381 3.56445 12.0599 3.56445C14.2363 3.64218 16.1796 4.34175 17.8897 5.66317C18.8224 6.36274 19.4443 7.2955 19.7552 8.46145C19.7552 8.53918 19.8329 8.69464 19.9106 8.77237C20.377 9.23875 20.7657 9.70513 21.0766 10.2492C21.8539 11.4929 22.1648 12.8921 21.8539 14.3689C21.8539 14.5244 21.7762 14.6021 21.7762 14.7576C21.543 15.4572 21.3875 16.2345 21.3875 17.0118C21.3875 18.1 20.8434 19.1105 20.2216 20.0432C19.3665 21.2869 18.2006 22.2974 16.9569 23.0747C15.7909 23.7743 14.5473 24.2407 13.2258 24.4739C12.7595 24.5516 12.2931 24.5516 11.8267 24.5516C11.5158 24.5516 11.2826 24.4739 11.0494 24.3184C10.6608 24.0852 10.5053 23.6966 10.6608 23.3079C10.6608 23.3079 10.6608 23.2302 10.7385 23.1524C10.5053 23.1524 10.3498 23.2302 10.1166 23.2302C9.10615 23.4634 8.01793 23.5411 6.85198 23.3856C6.30787 23.3079 5.84149 23.1524 5.37511 22.7638C4.90873 22.3751 4.90873 21.7533 5.29738 21.2869C5.6083 21.0537 5.91922 20.8983 6.30787 20.7428C7.31836 20.5096 8.32885 20.4319 9.33934 20.6651C10.1166 20.8205 10.8162 21.0537 11.5158 21.4424C11.5158 21.4424 11.5935 21.4424 11.5935 21.5201C11.3603 21.5978 11.1271 21.6756 10.9717 21.6756C10.8939 21.6756 10.8162 21.5978 10.7385 21.5978C9.65026 21.2092 8.63977 20.976 7.47382 21.1315C7.00744 21.2092 6.61879 21.2869 6.15241 21.4424C5.99695 21.5201 5.91922 21.5978 5.76376 21.7533C5.68603 21.831 5.68603 21.9865 5.84149 22.0642C5.99695 22.1419 6.07468 22.2197 6.23014 22.2974C6.61879 22.6083 7.08517 22.6083 7.62928 22.6861C9.02842 22.6861 10.3498 22.4529 11.6712 22.0642C12.8372 21.6756 13.9254 21.2092 15.0136 20.6651C16.7237 19.81 18.2006 18.7218 19.4443 17.245C20.2216 16.3122 20.7657 15.3017 21.0766 14.058C21.3098 12.8921 21.232 11.8816 20.6102 10.8711C20.4547 10.6379 20.2993 10.4047 20.2216 10.1715C20.1438 10.0161 20.0661 9.93832 19.9884 9.86059ZM20.5325 17.7113C20.4547 17.7113 20.4547 17.7891 20.4547 17.7891C19.8329 18.5664 19.1333 19.2659 18.2783 19.8878C18.2006 19.9655 18.1228 20.0432 18.1228 20.121C17.8897 20.5873 17.6565 21.0537 17.2678 21.4424C16.1796 22.5306 14.8582 22.9193 13.3036 22.7638C13.1481 22.7638 12.9927 22.7638 12.8372 22.8415C12.5263 22.9192 12.2154 23.0747 11.8267 23.1524C11.5158 23.2302 11.3603 23.3856 11.2826 23.6188C11.1271 23.7743 11.2049 23.9297 11.4381 24.0075C11.5935 24.0852 11.8267 24.0852 11.9822 24.0852C12.7595 24.0852 13.459 23.9297 14.1586 23.6966C16.0241 23.0747 17.5787 22.0642 18.9001 20.6651C19.5997 19.81 20.1438 18.7996 20.5325 17.7113C20.5325 17.7891 20.5325 17.7113 20.5325 17.7113ZM14.1586 22.2197C15.2468 22.1419 16.1019 21.6756 16.8014 20.8205C15.8687 21.3646 15.0136 21.7533 14.1586 22.2197Z" fill="white"/>
<path d="M25.8969 6.67285C27.7624 6.67285 29.6279 6.67285 31.4157 6.67285C31.4157 7.21696 31.4157 7.68334 31.4157 8.14972C30.8716 8.22745 30.2497 8.30518 29.6279 8.38291C30.6384 11.6476 31.6489 14.8345 32.6594 18.0992H32.7371C33.8253 14.4459 34.8358 10.7925 35.924 7.13923C36.8568 7.13923 37.8673 7.13923 38.8001 7.13923C39.6551 10.7925 40.5878 14.4459 41.4429 18.0992C41.5983 17.866 44.2412 9.54887 44.5521 8.38291C44.008 8.22745 43.3861 8.22745 42.842 8.14972C42.9198 7.68334 42.9975 7.13923 43.1529 6.67285C44.863 6.67285 46.5731 6.67285 48.3609 6.67285C48.3609 7.13923 48.3609 7.68334 48.3609 8.14972C48.0499 8.22745 47.6613 8.30518 47.3504 8.30518C46.9617 8.38291 46.7285 8.53837 46.6508 8.92702C46.2621 10.2484 45.7958 11.5698 45.4071 12.969C44.6298 15.4564 43.8525 17.9437 43.0752 20.4311C43.0752 20.5088 42.9975 20.5865 42.9975 20.742C41.987 20.742 41.0542 20.742 40.0437 20.742C39.1887 17.1664 38.2559 13.5908 37.4009 10.0152C37.4009 10.0152 37.4009 10.0152 37.3232 10.0152C36.3127 13.5908 35.3022 17.0887 34.3694 20.6643C33.359 20.6643 32.3485 20.6643 31.338 20.6643C31.2602 20.3533 31.1048 20.0424 31.027 19.7315C29.8611 16.1559 28.6951 12.5803 27.4515 9.00475C27.4515 8.92702 27.3737 8.84929 27.3737 8.84929C27.296 8.6161 27.1405 8.46064 26.8296 8.38291C26.441 8.30518 26.0523 8.22745 25.5859 8.14972C25.6637 7.68334 25.8191 7.13923 25.8969 6.67285Z" fill="white"/>
<path d="M101.451 19.4207C101.451 19.5761 101.451 19.6539 101.451 19.7316C101.451 21.2085 101.451 22.6076 101.451 24.0845V24.1622C101.451 24.5509 101.451 24.6286 101.917 24.6286C102.694 24.7063 103.472 24.7841 104.249 24.8618C104.327 24.8618 104.327 24.8618 104.404 24.8618C104.404 25.4059 104.404 25.8723 104.404 26.4164C104.171 26.4941 97.9527 26.4941 97.4863 26.4164C97.4863 25.95 97.4863 25.4059 97.4863 24.9395C97.7972 24.8618 98.0304 24.8618 98.3413 24.7841C98.4968 24.7841 98.5745 24.7841 98.73 24.7063C98.9632 24.6286 99.0409 24.5509 99.0409 24.3177C99.0409 24.2399 99.0409 24.1622 99.0409 24.0845C99.0409 19.1875 99.0409 14.2128 99.0409 9.31576C99.0409 9.23803 99.0409 9.23803 99.0409 9.1603C99.0409 8.77165 98.9632 8.61619 98.5745 8.53846C98.1081 8.383 97.6418 8.22754 97.0977 8.07208C97.1754 7.6057 97.2531 7.13932 97.3308 6.59521C98.4968 6.59521 99.7405 6.59521 100.906 6.59521C100.984 7.13932 101.062 7.6057 101.14 8.14981C101.295 8.07208 101.373 7.99435 101.451 7.91662C102.15 7.45024 102.772 7.06159 103.549 6.75067C104.793 6.28429 106.037 6.12883 107.358 6.36202C108.679 6.67294 109.612 7.37251 110.234 8.53846C110.623 9.23803 110.856 10.0931 111.011 10.8704C111.245 12.6582 111.245 14.5237 110.778 16.3115C110.545 17.1665 110.234 17.9438 109.768 18.6434C108.913 19.8871 107.824 20.5866 106.348 20.8198C105.104 20.9753 103.938 20.8975 102.772 20.3534C102.306 20.1202 101.917 19.8871 101.451 19.5761C101.606 19.5761 101.528 19.4984 101.451 19.4207ZM101.606 13.6686C101.606 14.7569 101.606 15.8451 101.606 16.9333C101.606 17.0888 101.684 17.2442 101.839 17.3997C102.306 17.7883 102.772 18.177 103.316 18.4102C104.093 18.7988 104.871 19.032 105.803 18.9543C106.658 18.8766 107.358 18.5656 107.902 17.9438C108.369 17.3997 108.602 16.7779 108.757 16.156C109.068 14.7569 109.146 13.3577 108.99 11.9586C108.913 11.259 108.757 10.5594 108.369 9.9376C107.98 9.31576 107.513 8.84938 106.814 8.61619C106.192 8.46073 105.57 8.46073 104.948 8.61619C103.782 8.84938 102.85 9.39349 101.917 10.0931C101.761 10.1708 101.761 10.3263 101.761 10.4817C101.606 11.5699 101.606 12.6582 101.606 13.6686Z" fill="white"/>
<path d="M89.4793 1.54328C89.5571 1.0769 89.6348 0.610517 89.7125 0.0664062C91.1117 0.0664062 92.5108 0.0664062 93.9099 0.0664062C93.9099 0.221866 93.9099 0.299597 93.9099 0.377327C93.9099 5.42978 93.9099 10.4822 93.9099 15.6124C93.9099 16.5452 93.9099 17.4779 93.9099 18.4884C93.9099 18.9548 93.9099 19.0326 94.3763 19.0326C94.765 19.1103 95.2313 19.1103 95.62 19.188C95.6977 19.4212 95.6977 20.1985 95.62 20.6649C94.3763 20.6649 93.1326 20.6649 91.889 20.6649C91.8112 20.043 91.7335 19.4989 91.6558 18.7994C91.5003 18.9548 91.3448 19.0326 91.1894 19.188C90.5675 19.7321 89.9457 20.1985 89.1684 20.5094C87.9247 21.0535 86.6033 21.209 85.2819 20.8981C83.9605 20.5872 83.0277 19.8099 82.4059 18.7216C82.0172 18.0221 81.784 17.2448 81.6286 16.4675C81.3177 14.6797 81.3177 12.8141 81.7063 11.0264C81.9395 10.0159 82.2504 9.16083 82.8723 8.3058C83.6496 7.29531 84.7378 6.67347 85.9815 6.518C87.6915 6.28481 89.2461 6.59573 90.723 7.37304C90.8785 7.45077 91.0339 7.5285 91.1894 7.68396C91.1894 7.60623 91.1894 7.5285 91.1894 7.45077C91.1894 5.89616 91.1894 4.26383 91.1894 2.70923V2.6315C91.1894 2.32058 91.1117 2.16512 90.8007 2.08739C90.4121 1.93193 89.9457 1.8542 89.5571 1.69874C89.7125 1.62101 89.6348 1.54328 89.4793 1.54328ZM91.4226 13.2805C91.4226 12.1923 91.4226 11.1041 91.4226 10.0936C91.4226 9.93813 91.3448 9.78267 91.2671 9.70494C90.8785 9.39402 90.4121 9.16083 89.9457 8.92764C89.1684 8.53899 88.3134 8.38353 87.3806 8.46126C86.3701 8.53899 85.5928 8.92764 85.0487 9.78267C84.6601 10.3268 84.4269 10.9486 84.2714 11.6482C83.9605 13.0473 83.9605 14.4465 84.1937 15.9233C84.2714 16.4675 84.4269 17.0116 84.6601 17.5557C85.1264 18.5662 85.9815 19.0326 87.0697 19.1103C87.847 19.1103 88.5466 18.9548 89.2461 18.5662C90.0234 18.1775 90.6453 17.5557 91.2671 17.0116C91.4226 16.8561 91.4226 16.7784 91.4226 16.6229C91.4226 15.457 91.4226 14.3687 91.4226 13.2805Z" fill="white"/>
<path d="M125.391 6.5957C127.334 6.5957 129.2 6.5957 131.065 6.5957C131.065 6.82889 131.065 7.06208 131.065 7.29527C131.065 7.52846 131.065 7.76166 131.065 8.07258C130.443 8.15031 129.822 8.22804 129.2 8.30577C130.443 11.3372 131.609 14.3687 132.853 17.4002C133.009 17.2447 136.429 9.1608 136.74 8.30577C136.118 8.15031 135.496 8.15031 134.874 8.07258C134.952 7.60619 135.03 7.06208 135.185 6.5957C136.973 6.5957 138.761 6.5957 140.626 6.5957C140.626 7.06208 140.626 7.60619 140.626 8.07258C140.393 8.07258 140.237 8.15031 140.004 8.15031C139.927 8.15031 139.771 8.15031 139.693 8.22804C139.305 8.30577 139.072 8.46123 138.994 8.84988C138.605 9.86037 138.139 10.8709 137.75 11.8036C135.962 16.0788 134.252 20.3539 132.464 24.5514C132.309 25.0177 132.076 25.4064 131.843 25.8728C131.687 26.2614 131.299 26.4946 130.91 26.4946C129.822 26.4946 128.811 26.4946 127.723 26.4946H127.645C127.645 26.0282 127.645 25.4841 127.645 25.0177C127.878 25.0177 128.112 24.94 128.345 24.94C128.811 24.8623 129.278 24.8623 129.744 24.7845C129.977 24.7845 130.055 24.7068 130.133 24.4736C130.21 24.3959 130.21 24.2404 130.288 24.1627C130.754 23.0745 131.221 21.9863 131.765 20.898C131.843 20.6649 131.843 20.5094 131.765 20.2762C130.133 16.4674 128.5 12.7364 126.946 8.92761C126.868 8.69442 126.712 8.53896 126.402 8.46123C126.013 8.3835 125.624 8.22804 125.236 8.15031C125.158 7.60619 125.236 7.06208 125.391 6.5957Z" fill="white"/>
<path d="M121.583 12.6583C121.661 12.6583 121.661 12.6583 121.583 12.6583C121.661 11.7256 121.661 10.7928 121.505 9.93777C121.35 9.00501 120.806 8.4609 119.873 8.30544C119.018 8.14998 118.163 8.14998 117.308 8.30544C116.453 8.4609 115.986 9.00501 115.909 9.93777C115.909 10.0155 115.909 10.171 115.909 10.2487C115.131 10.171 114.354 10.0932 113.577 10.0155C113.499 9.70458 113.577 9.39366 113.654 9.08274C113.888 7.99452 114.509 7.29495 115.442 6.82857C116.22 6.43992 116.997 6.36219 117.852 6.28446C118.862 6.20673 119.873 6.20673 120.806 6.36219C121.117 6.43992 121.35 6.43992 121.583 6.51765C122.749 6.82857 123.448 7.60587 123.759 8.77182C123.915 9.31593 123.993 9.86004 123.993 10.4042C123.993 11.026 123.993 11.5701 123.993 12.1919C123.993 14.2129 123.993 16.1562 123.993 18.1772C123.993 18.2549 123.993 18.3326 123.993 18.4104C123.993 18.6435 124.07 18.7213 124.303 18.799C124.77 18.8767 125.158 18.8767 125.625 18.9545C125.703 18.9545 125.703 18.9545 125.78 18.9545C125.78 19.4208 125.78 19.8872 125.78 20.3536C125.625 20.4313 122.516 20.4313 121.894 20.3536C121.816 19.8095 121.738 19.2654 121.661 18.6435C121.505 18.799 121.35 18.9545 121.194 19.0322C120.339 19.7318 119.484 20.2759 118.396 20.5868C117.385 20.82 116.375 20.8977 115.364 20.6645C114.043 20.3536 113.188 19.5763 112.877 18.2549C112.644 17.3999 112.722 16.5448 112.955 15.6898C113.266 14.6793 113.888 13.9797 114.898 13.5134C115.675 13.1247 116.53 12.9692 117.385 12.8915C118.707 12.7361 120.028 12.6583 121.35 12.5806C121.505 12.6583 121.583 12.6583 121.583 12.6583ZM121.583 14.3684C121.505 14.3684 121.427 14.3684 121.427 14.3684C120.261 14.4461 119.096 14.6016 118.007 14.6793C117.463 14.757 116.997 14.8348 116.53 15.068C116.064 15.3011 115.753 15.6121 115.598 16.1562C115.442 16.7003 115.442 17.3221 115.598 17.8662C115.753 18.4881 116.142 18.799 116.764 18.9545C117.308 19.1099 117.852 19.0322 118.396 18.8767C119.64 18.4881 120.65 17.8662 121.505 17.0112C121.583 16.9335 121.583 16.778 121.583 16.7003C121.583 16.0007 121.583 15.3011 121.583 14.6016C121.583 14.5238 121.583 14.5238 121.583 14.3684Z" fill="white"/>
<path d="M61.7282 13.669C61.7282 14.7572 61.5727 15.9231 61.1841 17.0891C60.4068 19.2655 58.8522 20.5869 56.5203 20.9756C55.3543 21.2088 54.1106 21.1311 52.9447 20.8201C50.9237 20.3538 49.6023 19.1101 48.9027 17.1668C48.5918 16.3118 48.4363 15.4568 48.3586 14.524C48.2809 13.5135 48.3586 12.4253 48.5141 11.4148C48.7473 10.4043 49.1359 9.47154 49.7578 8.61651C50.4573 7.68375 51.3901 7.13964 52.4783 6.75098C54.0329 6.2846 55.6652 6.20687 57.2976 6.59552C59.3963 7.0619 60.64 8.38332 61.3395 10.4043C61.6505 11.3371 61.7282 12.3476 61.7282 13.669ZM51.0014 13.669C51.0014 14.1353 51.0792 14.6017 51.0792 15.0681C51.1569 15.8454 51.3124 16.545 51.701 17.2445C52.0897 18.0219 52.7892 18.6437 53.6443 18.8769C54.4993 19.1878 55.3543 19.1878 56.2871 18.9546C57.2976 18.7214 58.0749 18.0996 58.619 17.1668C58.8522 16.7004 59.0076 16.1563 59.0854 15.6899C59.3186 14.6017 59.3186 13.4358 59.1631 12.3476C59.0854 11.648 58.9299 11.0261 58.619 10.4043C58.2303 9.627 57.6085 9.08289 56.7535 8.77197C55.8984 8.46105 55.0434 8.46105 54.1106 8.61651C53.5665 8.69424 53.0224 8.92743 52.6338 9.23835C51.9342 9.78246 51.5455 10.482 51.3124 11.2593C51.0792 12.0366 51.0014 12.8139 51.0014 13.669Z" fill="white"/>
<path d="M62.8965 8.07237C62.9742 7.60599 63.0519 7.13961 63.1297 6.5955C64.2956 6.5955 65.5393 6.5955 66.7053 6.5955C66.783 7.21734 66.9385 7.83918 67.0162 8.46102C67.0939 8.38329 67.1716 8.30556 67.2494 8.30556C67.638 7.99464 68.0267 7.60599 68.4153 7.29507C69.5035 6.44004 70.7472 6.20685 72.0686 6.36231C72.4573 6.44004 72.8459 6.44004 73.2346 6.51777C73.3123 6.75096 73.3123 10.3265 73.2346 10.6375C72.6128 10.6375 71.9909 10.5597 71.3691 10.5597C71.2913 10.2488 71.2136 9.86016 71.1359 9.54924C71.0581 9.23832 71.0581 8.9274 70.9804 8.61648C70.9804 8.46102 70.9027 8.38329 70.7472 8.38329C70.2808 8.38329 69.8922 8.46102 69.5035 8.61648C68.804 8.9274 68.1044 9.39378 67.5603 9.93789C67.4826 10.0156 67.4048 10.1711 67.4048 10.2488C67.4048 10.9484 67.4048 11.7257 67.4048 12.4253C67.4048 14.3685 67.4048 16.3118 67.4048 18.1773C67.4048 18.255 67.4048 18.4105 67.4048 18.4882C67.4048 18.7214 67.4826 18.7214 67.7158 18.7991C68.3376 18.8769 68.9594 18.8769 69.5813 18.9546C69.8145 18.9546 70.1254 19.0323 70.3586 19.0323C70.3586 19.4987 70.3586 19.9651 70.3586 20.5092C67.9489 20.5092 65.617 20.5092 63.2074 20.5092C63.2074 20.0428 63.2074 19.5764 63.2074 19.11C63.5183 19.0323 63.8292 19.0323 64.2179 18.9546C64.3734 18.9546 64.5288 18.9546 64.6066 18.8769C64.9175 18.7991 64.9175 18.7991 64.9175 18.4882C64.9175 18.4105 64.9175 18.3327 64.9175 18.255C64.9175 15.2235 64.9175 12.1921 64.9175 9.16059V9.08286C64.9175 8.61648 64.8397 8.53875 64.3734 8.38329C63.8292 8.38329 63.3629 8.22783 62.8965 8.07237Z" fill="white"/>
<path d="M80.7731 19.188C80.7731 19.6544 80.7731 20.1208 80.7731 20.6649C78.5189 20.6649 76.3425 20.6649 74.166 20.6649C74.166 20.1985 74.166 19.7321 74.166 19.188C74.3992 19.188 74.6324 19.1103 74.8656 19.1103C75.2542 19.1103 75.6429 19.0326 75.9538 19.0326C76.187 19.0326 76.187 18.9548 76.2647 18.7216C76.2647 18.6439 76.2647 18.5662 76.2647 18.4884C76.2647 13.2805 76.2647 7.99488 76.2647 2.78696V2.70923C76.2647 2.32058 76.187 2.16512 75.7983 2.08739C75.332 1.93193 74.9433 1.77647 74.4769 1.69874C74.3992 1.69874 74.3215 1.62101 74.2437 1.62101C74.3215 0.999168 74.3992 0.532787 74.4769 0.0664062C75.8761 0.0664062 77.2752 0.0664062 78.7521 0.0664062C78.7521 0.221866 78.7521 0.299597 78.7521 0.455057C78.7521 6.44027 78.7521 12.3478 78.7521 18.333C78.7521 18.4107 78.7521 18.5662 78.7521 18.6439C78.7521 18.8771 78.8298 18.9548 79.063 18.9548C79.3739 19.0326 79.6849 19.0326 79.9958 19.0326C80.229 19.1103 80.4622 19.1103 80.7731 19.188Z" fill="white"/>
</g>
<defs>
<clipPath id="clip0_147_53371">
<rect width="139.914" height="26.4282" fill="white" transform="translate(0.632812 0.0664062)"/>
</clipPath>
</defs>
</svg>
