<svg width="64" height="32" viewBox="0 0 64 32" fill="none" xmlns="http://www.w3.org/2000/svg">
<g clip-path="url(#clip0_147_53197)">
<path d="M31.679 6.7635C31.679 6.37485 31.5235 5.75301 31.1349 5.51982C30.9017 5.36436 30.5908 5.28663 30.3576 5.59755C30.2021 5.75301 30.1244 5.90847 30.0467 6.06393C29.658 6.53031 29.0362 6.7635 28.4921 6.91896C27.637 7.07442 26.8597 7.07442 26.0047 7.07442C25.616 7.07442 25.2274 7.07442 24.8387 6.99669C24.2169 6.99669 23.6728 6.99669 23.051 6.99669C23.051 6.99669 23.051 6.99669 23.051 6.91896C21.8073 6.99669 20.5636 7.07442 19.2422 7.15215C19.0867 7.15215 18.9313 7.15215 18.6981 7.22988C18.2317 7.30761 17.6876 7.38534 17.2212 7.46307C16.5994 7.5408 15.9775 7.69626 15.3557 7.85172C14.5784 8.08491 13.8011 8.3181 13.1015 8.55129C11.8578 9.01767 10.6919 9.63951 9.75911 10.5723C8.67089 11.505 7.97131 12.671 7.58266 14.0701C7.27174 15.0029 7.19401 15.9357 7.19401 16.8684C7.19401 17.2571 7.19401 17.6457 7.27174 18.0344C7.27174 18.3453 7.27174 18.5785 7.34947 18.8894C7.4272 19.2003 7.34947 19.3558 7.11628 19.589C6.57217 20.0553 6.02806 20.5217 5.48395 20.9881C5.01757 21.3768 4.55119 21.8431 4.16254 22.3095C3.61843 22.9314 3.07432 23.5532 2.60794 24.2528C1.90837 25.1855 1.36426 26.196 1.13106 27.2842C0.897874 28.1393 0.897874 28.9943 1.20879 29.7716C1.36426 30.1603 1.59745 30.5489 1.90837 30.8598C2.14156 31.1708 2.68567 31.2485 2.91886 31.093C3.30751 30.7821 3.5407 30.3157 3.61843 29.8493C3.69616 29.383 3.69616 28.9943 3.69616 28.5279C3.77389 27.9838 3.85162 27.4397 4.00708 26.8956C4.24027 26.1183 4.47346 25.4187 4.86211 24.7192C5.32849 23.7864 5.95033 22.9314 6.6499 22.2318C7.11628 21.7654 7.66039 21.299 8.12677 20.9104C8.90408 20.2885 9.75911 19.7444 10.6919 19.3558C11.5469 18.9671 12.4019 18.5785 13.1792 18.0344C13.4124 17.8789 13.5679 17.6457 13.8011 17.4125C13.9565 17.2571 13.8011 17.1016 13.5679 17.0239C12.946 16.9461 12.4019 17.1793 11.7801 17.3348C11.0805 17.568 10.3809 17.8789 9.75911 18.1121C9.60365 18.1898 9.52592 18.1121 9.52592 17.9566C9.52592 17.7234 9.52592 17.4903 9.60365 17.2571C9.60365 16.5575 9.75911 15.7802 10.07 15.1583C10.3032 14.6142 10.5364 14.1479 10.8473 13.6815C11.3137 12.9819 11.8578 12.4378 12.4797 11.9714C13.1792 11.4273 13.9565 10.9609 14.8116 10.5723C15.8221 10.1059 16.9103 9.71724 17.9985 9.48405C18.9313 9.25086 19.864 9.0954 20.7968 8.93994C21.6518 8.78448 22.4291 8.78448 23.2841 8.70675C23.9837 8.62902 24.6833 8.62902 25.3829 8.62902C26.6265 8.62902 27.948 8.62902 29.1916 8.70675H29.2694C29.3471 8.78448 29.4248 8.86221 29.4248 8.86221C29.4248 9.01767 29.3471 9.17313 29.2694 9.32859C29.0362 9.8727 28.803 10.4168 28.5698 10.8832C28.1034 11.7382 27.5593 12.4378 26.9375 13.1374C26.0047 14.1479 24.9165 15.0029 23.7505 15.6247C22.8955 16.1688 22.0405 16.6352 21.1077 17.0239C20.4081 17.3348 19.6308 17.6457 18.9313 17.9566C18.3871 18.1898 17.7653 18.3453 17.2212 18.5007C16.4439 18.7339 15.7443 19.0449 15.2779 19.6667C15.1225 19.8999 14.967 20.1331 15.1225 20.444C15.2779 20.7549 15.5111 20.8326 15.8221 20.8326C16.6771 20.9104 17.5321 20.6772 18.3871 20.444C19.009 20.2885 19.6308 20.1331 20.2527 19.8999C20.9522 19.6667 21.6518 19.4335 22.3514 19.1226C22.9732 18.8117 23.5951 18.5007 24.1392 18.1121C24.6833 17.7234 25.3051 17.3348 25.7715 16.8684C26.3933 16.3243 26.9375 15.7025 27.4816 15.0806C28.3366 14.0701 29.0362 12.9042 29.658 11.7382C30.1244 10.8055 30.5908 9.79497 31.0572 8.78448C31.2126 8.24037 31.6013 7.5408 31.679 6.7635Z" fill="white"/>
<path d="M62.7708 18.9669C62.6154 18.5782 62.4599 18.1896 62.2267 17.8786C61.9935 17.49 61.6826 17.1013 61.3717 16.7127C60.9053 16.324 60.4389 15.9354 59.9725 15.5467C59.5839 15.3135 59.1952 15.0804 58.8066 14.8472C58.4957 14.6917 58.1847 14.5362 57.8738 14.4585C57.5629 14.3808 57.252 14.3031 56.9411 14.2253C56.7079 14.1476 56.6301 14.0699 56.7079 13.8367C56.9411 13.3703 56.8633 12.8262 56.9411 12.3598C56.9411 12.0489 56.8633 11.8157 56.8633 11.5048C56.8633 11.0384 56.7079 10.572 56.5524 10.1834C56.3192 9.56152 55.9306 8.93968 55.4642 8.4733C54.9201 7.77373 54.2205 7.22962 53.4432 6.76324C52.5104 6.21913 51.5 5.83048 50.4117 5.67502C49.6344 5.51956 48.8571 5.51956 48.0021 5.51956C46.9916 5.51956 46.0589 5.75275 45.1261 5.98594C44.582 6.1414 44.1156 6.29686 43.6492 6.53005C43.4938 6.60778 43.416 6.53005 43.3383 6.37459C43.1828 5.98594 43.1051 5.59729 42.8719 5.20863C42.4055 4.27587 41.7837 3.49857 41.0064 2.799C40.6177 2.48808 40.2291 2.17716 39.7627 1.86624C39.2963 1.55532 38.8299 1.32213 38.2858 1.08894C38.0526 0.933479 37.7417 0.855749 37.4308 0.778019C37.2753 0.700289 37.1199 0.700289 36.8867 0.622559C36.6535 0.544829 36.4203 0.467099 36.1094 0.389369C35.7985 0.311638 35.4098 0.233908 35.0989 0.233908C34.7103 0.0784482 34.3216 0.000718069 33.8552 0.000718069C32.767 0.000718069 31.7565 -0.077012 30.746 0.156178C30.3574 0.233908 29.9687 0.311638 29.6578 0.389369C29.4246 0.467099 29.1137 0.544829 28.8805 0.622559C28.4141 0.778019 27.9477 0.933479 27.4814 1.16667C27.015 1.39986 26.5486 1.63305 26.0822 1.94397C25.4604 2.33262 24.8385 2.799 24.2944 3.34311C23.828 3.80949 23.3617 4.3536 22.8953 4.89771C22.6621 5.13091 22.5066 5.44183 22.2734 5.75275V5.83048C22.3512 5.83048 22.5066 5.75275 22.5844 5.83048C23.1285 5.83048 23.7503 5.83048 24.2944 5.90821C24.3722 5.90821 24.4499 5.90821 24.4499 5.83048C24.7608 5.44183 25.0717 4.97544 25.3826 4.58679C25.7713 4.04268 26.1599 3.65403 26.5486 3.34311C27.0927 2.87673 27.7145 2.56581 28.2587 2.17716C28.6473 1.94397 29.036 1.78851 29.4246 1.63305C29.8133 1.47759 30.2796 1.39986 30.6683 1.32213C31.1347 1.2444 31.5233 1.16667 31.9897 1.16667C32.4561 1.16667 32.8447 1.16667 33.3111 1.2444C33.933 1.32213 34.6325 1.39986 35.1766 1.55532C35.8762 1.71078 36.5758 2.0217 37.1976 2.33262C37.664 2.56581 38.1304 2.87673 38.5968 3.18765C39.4518 3.65403 40.1514 4.27587 40.6955 5.05317C41.0064 5.44183 41.2396 5.83048 41.4728 6.29686C41.706 6.68551 41.8614 7.15189 42.0169 7.61827C42.1723 8.16238 42.1723 8.70649 42.2501 9.2506C42.2501 9.56152 42.6387 9.79471 42.8719 9.56152C43.1051 9.40606 43.3383 9.17287 43.4938 8.93968C43.6492 8.62876 43.8824 8.31784 43.8824 7.92919C43.8824 7.77373 43.9601 7.696 44.1156 7.61827C44.5042 7.46281 44.8152 7.30735 45.1261 7.22962C45.2816 7.15189 45.5147 7.07416 45.6702 7.07416C46.0588 6.99643 46.4475 6.99643 46.7584 6.84097C47.3025 6.60778 47.8466 6.68551 48.4685 6.68551C48.9349 6.68551 49.479 6.60778 50.0231 6.84097C50.334 6.99643 50.6449 6.9187 50.9558 7.07416C51.4222 7.22962 51.8886 7.46281 52.2773 7.696C52.8214 8.00692 53.2878 8.39557 53.7541 8.78422C54.2205 9.2506 54.6092 9.79471 54.9201 10.3388C55.3087 11.1161 55.5419 11.8934 55.3865 12.7485C55.231 13.448 54.8424 13.9144 54.2205 14.2253C53.8319 14.4585 53.3655 14.614 53.0546 15.0026C52.9768 15.0804 52.8991 15.3135 52.9768 15.3913C53.0546 15.5467 53.21 15.6245 53.4432 15.5467C53.5209 15.5467 53.6764 15.469 53.7541 15.469C54.2205 15.469 54.6092 15.469 55.0755 15.469C55.4642 15.469 55.8528 15.5467 56.2415 15.6245C56.8633 15.7799 57.4074 15.9354 57.9516 16.1686C58.7289 16.4795 59.4284 16.8682 60.0503 17.49C60.5166 17.9564 60.9053 18.4228 61.2162 18.9669C61.4494 19.3555 61.5271 19.8219 61.5271 20.2105C61.5271 20.7547 61.294 21.2988 61.1385 21.7651C60.983 22.1538 60.8276 22.5424 60.8276 22.9311C60.8276 23.1643 60.9053 23.242 61.1385 23.242C61.4494 23.1643 61.7603 23.1643 62.0713 23.0866C62.2267 23.0866 62.3044 23.0088 62.3822 22.9311C62.4599 22.6202 62.6154 22.387 62.6931 22.0761C62.7708 21.6874 62.9263 21.221 62.9263 20.8324C63.1595 20.2105 63.004 19.5887 62.7708 18.9669Z" fill="white"/>
<path d="M48.9361 25.7293C48.392 25.4184 47.7701 25.2629 47.1483 25.4184C46.4487 25.4961 45.9046 25.8848 45.4382 26.4289C44.8164 27.2062 44.6609 28.139 44.9719 29.0717C45.2051 29.6936 45.5937 30.2377 46.1378 30.5486C46.4487 30.7041 46.7597 30.9372 47.226 30.9372C47.4592 30.9372 47.6924 30.9372 48.0033 30.9372C48.392 30.9372 48.7806 30.7818 49.0916 30.5486C49.5579 30.3154 49.8689 29.849 50.1021 29.3826C50.1798 29.2272 50.1021 29.0717 49.9466 29.0717C49.7134 29.0717 49.5579 29.0717 49.3248 29.0717C49.247 29.0717 49.0916 29.1495 49.0138 29.2272C48.6252 29.6936 48.2365 29.9268 47.4592 29.9268C46.9151 29.849 46.371 29.5381 46.0601 28.9163C45.9046 28.6053 45.9046 28.6053 46.2933 28.6053C47.3815 28.6053 48.5475 28.6053 49.6357 28.6053C49.7134 28.6053 49.8689 28.6831 49.9466 28.6053C50.1021 28.6053 50.2575 28.5276 50.2575 28.4499C50.2575 28.139 50.3352 27.828 50.2575 27.5171C50.1021 26.8176 49.6357 26.1957 48.9361 25.7293ZM49.0138 27.828C48.0811 27.828 47.1483 27.828 46.2155 27.828C45.9046 27.828 45.9046 27.828 45.9824 27.5171C46.2155 26.7398 47.0706 26.3512 47.8479 26.4289C48.5475 26.5844 49.0138 26.973 49.247 27.6726C49.247 27.6726 49.247 27.7503 49.3248 27.7503C49.1693 27.7503 49.0916 27.828 49.0138 27.828Z" fill="white"/>
<path d="M37.9757 25.341C36.188 25.2633 34.9443 26.6624 34.8665 27.9838C34.7888 29.6161 36.1102 30.9376 37.7426 30.9376C39.3749 30.9376 40.6963 29.6161 40.6186 28.1393C40.774 26.6624 39.3749 25.4187 37.9757 25.341ZM37.8203 30.0048C36.8098 30.0825 35.9548 29.072 36.0325 28.1393C36.0325 27.2842 36.8098 26.3515 37.9757 26.3515C38.9862 26.4292 39.6858 27.1288 39.6858 28.1393C39.6081 29.1498 38.9862 29.9271 37.8203 30.0048Z" fill="white"/>
<path d="M33.8557 23.7861C32.7675 23.7861 31.757 23.7861 30.6687 23.7861C30.4355 23.7861 30.4355 23.8639 30.4355 24.0193C30.4355 26.1958 30.4355 28.3722 30.4355 30.5487C30.4355 30.7041 30.5133 30.8596 30.6687 30.7818C30.9019 30.7818 31.0574 30.7818 31.2906 30.7818C31.446 30.7818 31.5238 30.7041 31.5238 30.5487C31.5238 30.0823 31.5238 29.5382 31.5238 29.0718C31.5238 28.6831 31.5238 28.2167 31.5238 27.8281C31.6015 27.8281 31.6792 27.8281 31.757 27.8281C32.4565 27.8281 33.0784 27.8281 33.7779 27.8281C33.9334 27.8281 34.0889 27.7504 34.0889 27.5949C34.0889 27.4394 34.0889 27.284 34.0889 27.1285C34.0889 26.8953 34.0111 26.8176 33.7779 26.8176C33.0784 26.8176 32.4565 26.8176 31.757 26.8176C31.6015 26.8176 31.5238 26.7399 31.5238 26.5844C31.5238 26.0403 31.5238 25.4962 31.5238 25.0298C31.5238 24.8744 31.6015 24.7966 31.757 24.7966C32.4565 24.7966 33.0784 24.7966 33.7779 24.7966C33.9334 24.7966 34.0111 24.7966 34.0111 24.5634C34.0111 24.408 34.0111 24.1748 34.0111 24.0193C34.0889 23.8639 34.0111 23.7861 33.8557 23.7861Z" fill="white"/>
<path d="M53.9099 27.5945C53.599 27.5167 53.3658 27.3613 53.0548 27.2836C52.8217 27.2058 52.7439 26.8949 52.8217 26.6617C52.8994 26.4285 53.1326 26.3508 53.3658 26.3508C53.599 26.3508 53.8321 26.5063 53.9099 26.7394C53.9876 26.8949 54.0653 26.9726 54.2985 26.9726C54.454 26.9726 54.6872 26.9726 54.8426 26.9726C55.0758 26.9726 55.1536 26.8949 55.0758 26.6617C54.9204 25.8844 54.454 25.4958 53.6767 25.3403C52.8217 25.1848 51.8889 25.8067 51.7334 26.6617C51.6557 27.3613 51.9666 27.9831 52.5885 28.2163C52.9771 28.3718 53.288 28.4495 53.6767 28.6827C54.1431 28.9159 54.2985 29.3823 53.9099 29.7709C53.5212 30.0818 52.7439 30.0041 52.5885 29.3045C52.5107 29.0713 52.433 28.9936 52.1998 28.9936C52.1221 28.9936 52.0444 28.9936 52.0444 28.9936C51.9666 28.9936 51.8889 28.9936 51.8112 28.9936C51.578 28.9936 51.5002 29.0713 51.578 29.2268C51.6557 29.6932 51.8112 30.0818 52.1221 30.315C52.8217 30.9369 53.7544 31.0146 54.454 30.6259C54.9981 30.3928 55.309 29.8486 55.309 29.2268C55.309 28.5272 54.7649 27.9054 53.9099 27.5945Z" fill="white"/>
<path d="M23.1273 23.7857C23.0496 23.7857 22.8941 23.7857 22.8941 23.8635C22.8164 24.0189 22.7386 24.1744 22.7386 24.3298C22.5832 24.9517 22.35 25.6513 22.1945 26.2731C22.0391 26.8949 21.8059 27.5168 21.6504 28.1386C21.495 28.7605 21.2618 29.46 21.1063 30.1596C21.0286 30.0819 21.0286 30.0041 21.0286 29.9264C20.8731 29.5378 20.7954 29.0714 20.6399 28.6827C20.5622 28.2941 20.4067 27.9054 20.329 27.4391C20.1736 26.8172 20.0181 26.1176 19.8626 25.4958C19.7072 25.0294 19.6294 24.4853 19.474 24.0189C19.474 23.8635 19.474 23.708 19.2408 23.708C19.0076 23.708 19.0853 23.8635 19.0076 23.9412C19.0076 23.9412 18.9299 24.0189 18.9299 24.0967C18.7744 24.7185 18.6189 25.4181 18.4635 26.0399C18.0748 27.3613 17.7639 28.605 17.3753 29.9264C17.3753 30.0041 17.2975 30.0041 17.2975 30.0819C17.2198 29.8487 17.1421 29.5378 17.0643 29.3046C16.9089 28.8382 16.7534 28.3718 16.6757 27.9054C16.5202 27.4391 16.4425 26.9727 16.287 26.5063C16.1316 26.0399 15.9761 25.5735 15.8984 25.1849C15.7429 24.7185 15.6652 24.3298 15.5875 23.8635C15.5875 23.7857 15.5097 23.708 15.432 23.708C15.3543 23.708 15.2766 23.708 15.1988 23.708C15.1988 23.708 15.1211 23.7857 15.1211 23.8635C15.2766 24.4076 15.432 24.9517 15.5875 25.4958C15.7429 25.9622 15.8984 26.3508 15.9761 26.8172C16.2093 27.5945 16.3648 28.3718 16.598 29.1491C16.7534 29.6155 16.9089 30.0819 16.9866 30.5483C17.0643 30.7037 17.1421 30.7814 17.2975 30.7814C17.3753 30.7814 17.5307 30.7037 17.5307 30.626C17.6085 30.3928 17.6862 30.1596 17.7639 29.9264C17.9194 29.3823 18.0748 28.8382 18.2303 28.2941C18.3858 27.6722 18.5412 27.0504 18.6967 26.3508C18.8521 25.8067 19.0076 25.2626 19.1631 24.6408C19.1631 24.7185 19.2408 24.7185 19.2408 24.7962C19.3185 25.1849 19.3962 25.5735 19.5517 25.9622C19.7072 26.5063 19.8626 26.9727 20.0181 27.5168C20.1736 27.9832 20.329 28.5273 20.4845 28.9937C20.6399 29.46 20.7177 30.0041 20.8731 30.4705C20.9509 30.626 20.9509 30.7814 21.184 30.7814C21.4172 30.7814 21.495 30.626 21.495 30.4705C21.6504 29.9264 21.8059 29.3823 21.9613 28.8382C22.1945 28.0609 22.4277 27.2836 22.6609 26.5063C22.8164 25.8844 22.9718 25.3403 23.205 24.7185C23.2828 24.4853 23.3605 24.2521 23.4382 23.9412C23.205 23.9412 23.1273 23.7857 23.1273 23.7857Z" fill="white"/>
<path d="M58.1839 25.4958C57.9507 25.4958 57.873 25.4181 57.9507 25.1849C57.9507 24.7962 57.9507 24.4076 58.0284 23.9412C58.0284 23.7857 57.9507 23.708 57.7952 23.708C57.562 23.708 57.3289 23.708 57.0957 23.708C56.9402 23.708 56.8625 23.7857 56.9402 23.8635C56.9402 24.1744 56.9402 24.563 56.9402 24.874C56.9402 25.3403 56.9402 25.3403 56.4738 25.4181C56.3184 25.4181 56.3184 25.4958 56.3184 25.5735C56.3184 25.8067 56.3184 25.9622 56.3184 26.1954C56.3184 26.3508 56.3961 26.4286 56.5515 26.4286C56.707 26.4286 56.8625 26.4286 57.0179 26.4286C57.0179 26.584 57.0179 26.6618 57.0179 26.7395C57.0179 27.9832 57.0179 29.2268 57.0179 30.3928C57.0179 30.7037 57.0179 30.7037 57.3288 30.7037C57.4843 30.7037 57.562 30.7037 57.7175 30.7037C58.0284 30.7037 58.1061 30.626 58.1061 30.3151C58.1061 29.2268 58.1061 28.0609 58.1061 26.9727C58.1061 26.8949 58.1061 26.7395 58.0284 26.6618C58.0284 26.5063 58.1062 26.3508 58.2616 26.3508C58.3393 26.3508 58.4948 26.3508 58.5725 26.3508C58.8834 26.3508 58.9612 26.3508 58.9612 26.0399C58.8057 25.4958 58.8834 25.4958 58.1839 25.4958Z" fill="white"/>
<path d="M43.728 25.4187C43.4171 25.4964 43.1062 25.5741 42.9507 25.8073C42.9507 25.8073 42.873 25.885 42.7953 25.885C42.7953 25.5741 42.6398 25.4964 42.4066 25.4964C42.2511 25.4964 42.1734 25.4964 42.018 25.4964C41.7848 25.4964 41.707 25.6519 41.707 25.8073C41.707 26.0405 41.7848 26.2737 41.7848 26.5069C41.7848 27.4396 41.7848 28.2947 41.7848 29.2274C41.7848 29.6938 41.7848 30.1602 41.7848 30.6266C41.7848 30.7043 41.9402 30.8598 42.018 30.8598C42.2511 30.8598 42.4843 30.8598 42.7175 30.8598C42.873 30.8598 42.9507 30.782 42.9507 30.6266C42.9507 29.6161 42.9507 28.6833 42.9507 27.6728C42.9507 26.9733 43.2616 26.5846 44.0389 26.5069C44.1944 26.5069 44.2721 26.4292 44.2721 26.2737C44.2721 26.1182 44.2721 25.885 44.2721 25.7296C44.1167 25.4187 43.9612 25.3409 43.728 25.4187Z" fill="white"/>
<path d="M26.5475 25.6523C25.537 25.5746 24.7597 25.9633 24.1379 26.7406C23.7492 27.2069 23.5938 27.8288 23.5938 28.4506C23.5938 28.9947 23.8269 29.5388 24.1379 30.0052C24.6042 30.5493 25.1484 30.938 25.9257 30.938C26.2366 30.938 26.4698 30.938 26.7807 30.938C27.0139 30.938 27.2471 30.8603 27.4803 30.7825C28.0244 30.5493 28.413 30.1607 28.6462 29.6943C28.7239 29.6166 28.6462 29.4611 28.6462 29.3834C28.5685 29.4611 28.413 29.4611 28.3353 29.5388C28.3353 29.5388 28.3353 29.6166 28.2576 29.6166C28.0244 30.0052 27.6357 30.3161 27.1693 30.5493C26.703 30.7048 26.2366 30.7825 25.7702 30.7048C25.2261 30.6271 24.8374 30.3939 24.4488 30.0052C24.1379 29.6166 23.9047 29.2279 23.9047 28.7615C23.9047 28.6061 23.9047 28.5284 24.0601 28.5284C24.8374 28.5284 25.537 28.5284 26.3143 28.5284C27.0916 28.5284 27.8689 28.5284 28.5685 28.5284C28.8017 28.5284 28.8794 28.4506 28.8794 28.2174C28.8794 27.8288 28.7239 27.4401 28.5685 27.0515C28.2576 26.1187 27.4803 25.6523 26.5475 25.6523ZM28.6462 27.7511C28.6462 27.9842 28.5685 28.062 28.413 27.9842C28.3353 27.9842 28.2576 27.9842 28.1798 27.9842C26.9361 27.9842 25.7702 27.9842 24.5265 27.9842C24.3711 27.9842 24.2156 28.1397 24.1379 27.9065C24.0601 27.7511 24.1379 27.5956 24.2156 27.3624C24.3711 26.8183 24.7597 26.4296 25.3038 26.1187C25.537 26.041 25.7702 25.9633 26.0034 25.8855C26.5475 25.8078 27.0916 25.8078 27.6357 26.1187C28.1798 26.4296 28.4907 26.896 28.7239 27.5179C28.6462 27.7511 28.6462 27.7511 28.6462 27.7511Z" fill="white"/>
</g>
<defs>
<clipPath id="clip0_147_53197">
<rect width="62.1841" height="31.092" fill="white" transform="translate(0.898438)"/>
</clipPath>
</defs>
</svg>
