<svg width="30" height="32" viewBox="0 0 30 32" fill="none" xmlns="http://www.w3.org/2000/svg">
<g clip-path="url(#clip0_147_53281)">
<path d="M4.96147 13.7144V14.414L1.93 14.8804L4.96147 15.5022V16.2018L0.453125 16.7459V16.0463L3.56233 15.7354L0.453125 15.1135V14.4917L3.64006 14.0253L0.530855 13.5589V12.8594L4.96147 13.7144Z" fill="white"/>
<path d="M5.11735 12.8602L0.919922 11.5388L1.54176 9.75098L2.1636 9.98417L1.77495 11.0724L2.9409 11.461L3.25183 10.5283L3.87367 10.6837L3.56275 11.6165L4.80643 12.0051L5.11735 10.8392L5.73919 11.0724L5.11735 12.8602Z" fill="white"/>
<path d="M2.86284 8.42948C3.17376 8.58494 3.40695 8.89586 3.56241 9.20678L3.32922 9.36224C3.25149 9.12905 3.0183 8.97359 2.86284 8.81813L2.70738 9.12905L2.00781 8.81813L2.31873 8.19629L2.86284 8.42948Z" fill="white"/>
<path d="M7.4478 8.50657L5.73774 7.88473L5.50455 8.11792L6.90369 9.20614L6.43731 9.75025L2.93945 7.10743L3.63902 6.2524C4.02767 5.70829 4.49406 5.55283 5.03817 5.94148L5.66001 6.40786C5.97093 6.64105 6.12639 6.95197 6.04866 7.26289L7.91418 7.88473L7.4478 8.50657ZM4.96044 7.807L5.19363 7.49608C5.34909 7.34062 5.34909 7.18516 5.19363 7.0297C5.19363 6.95197 5.19363 6.95197 5.1159 6.95197L4.72725 6.56332C4.57179 6.40786 4.3386 6.40786 4.18313 6.56332L4.1054 6.64105L3.87221 6.95197L4.96044 7.807Z" fill="white"/>
<path d="M8.07212 7.80776L5.35156 4.38763L6.90616 3.22168L7.29482 3.68806L6.36205 4.46536L7.13936 5.39812L7.91666 4.77628L8.30531 5.24266L7.52801 5.8645L8.30531 6.87499L9.23807 6.09769L9.62672 6.56407L8.07212 7.80776Z" fill="white"/>
<path d="M12.5787 4.46487C12.8119 5.08671 12.501 5.47536 11.8014 5.70856H11.7237C11.1019 5.94175 10.6355 5.86402 10.4023 5.16444L9.54726 2.75481C9.31407 2.13297 9.62499 1.74432 10.3246 1.51113H10.4023C11.0241 1.27794 11.5682 1.4334 11.8014 2.05524L12.0346 2.59935L11.3351 2.83254L11.1796 2.36616C11.1796 2.2107 10.9464 2.05524 10.7909 2.05524C10.7132 2.05524 10.7132 2.05524 10.7132 2.13297C10.5578 2.13297 10.4023 2.36616 10.4023 2.52162C10.4023 2.59935 10.4023 2.59935 10.48 2.59935L11.2573 4.85352C11.2573 5.00898 11.4905 5.16444 11.646 5.16444C11.7237 5.16444 11.7237 5.16444 11.7237 5.16444C11.8792 5.16444 12.0346 4.93125 12.0346 4.77579C12.0346 4.69806 12.0346 4.69806 11.9569 4.69806L11.7237 4.07622L11.3351 4.23168L11.1019 3.68757L12.1124 3.14346L12.5787 4.46487Z" fill="white"/>
<path d="M13.978 0.734153C14.6775 0.656422 15.1439 0.889613 15.2216 1.51145L15.4548 4.07655C15.5326 4.69839 15.0662 5.00931 14.4443 5.08704H14.3666C13.667 5.16477 13.2784 4.93158 13.2006 4.23201L12.9675 1.66691C12.8897 1.04507 13.3561 0.811883 13.978 0.734153ZM14.3666 4.54293C14.5221 4.54293 14.7553 4.38747 14.7553 4.23201V4.15428L14.5221 1.82237C14.5221 1.51145 14.3666 1.43372 14.0557 1.43372C13.8225 1.35599 13.667 1.51145 13.667 1.82237L13.9002 4.15428C13.9002 4.30974 14.0557 4.54293 14.2111 4.54293C14.2889 4.54293 14.2889 4.54293 14.3666 4.54293Z" fill="white"/>
<path d="M17.7102 0.889563C18.4097 1.04502 18.7984 1.35594 18.7206 1.97778L18.2543 4.54288C18.1765 5.16472 17.6324 5.39791 17.0106 5.24245H16.9329C16.311 5.16472 15.9224 4.77607 16.0001 4.15423L16.4665 1.58913C16.6219 0.967293 17.0883 0.811833 17.7102 0.889563ZM17.0883 4.62061C17.2438 4.69834 17.477 4.62061 17.5547 4.38742V4.30969L17.9433 1.97778C18.0211 1.82232 17.9433 1.58913 17.7102 1.5114H17.6324C17.477 1.43367 17.2438 1.5114 17.166 1.74459V1.82232L16.7774 4.15423C16.6997 4.30969 16.7774 4.54288 17.0106 4.62061H17.0883Z" fill="white"/>
<path d="M21.9842 3.29893L20.896 5.5531C20.585 6.17494 20.1187 6.17494 19.4968 5.94175L18.4863 5.47537L20.3519 1.58887L21.3623 2.05525C21.9842 2.36617 22.2951 2.75482 21.9842 3.29893ZM21.0514 2.59936L20.7405 2.4439L19.4191 5.24218L19.8077 5.39764C19.9632 5.47537 20.1964 5.47537 20.2741 5.31991L20.3519 5.24218L21.2846 3.14347C21.3623 2.98801 21.3623 2.75482 21.2069 2.67709C21.1292 2.67709 21.1292 2.59936 21.0514 2.59936Z" fill="white"/>
<path d="M25.6377 5.86455L25.0936 5.39817L22.5285 8.11872L21.9844 7.65234L24.5495 4.93178L24.0054 4.4654L24.4717 3.99902L26.1041 5.39817L25.6377 5.86455Z" fill="white"/>
<path d="M27.5036 7.10801C27.8922 7.72985 27.8922 8.19623 27.3481 8.58488L25.1717 9.98403C24.6276 10.3727 24.1612 10.1395 23.7725 9.59537V9.51765C23.3839 8.97353 23.3839 8.50715 23.928 8.1185L26.1044 6.71936C26.7263 6.33071 27.1149 6.5639 27.5036 7.10801ZM24.3167 9.20672C24.3944 9.36218 24.6276 9.43992 24.783 9.36219C24.783 9.36219 24.8608 9.36219 24.8608 9.28445L26.8817 8.04077C27.0372 7.96304 27.1149 7.72985 27.0372 7.57439C27.0372 7.57439 27.0372 7.49666 26.9595 7.49666C26.8817 7.3412 26.6486 7.26347 26.4931 7.3412C26.4931 7.3412 26.4154 7.3412 26.4154 7.41893L24.3944 8.74034C24.2389 8.81807 24.1612 9.05126 24.2389 9.20672H24.3167Z" fill="white"/>
<path d="M26.3373 13.6373C25.7154 13.7927 25.3268 13.4041 25.1713 12.7822V12.7045C25.0158 12.0826 25.1713 11.6163 25.7931 11.4608L28.3582 10.839C28.9801 10.6835 29.3687 11.0722 29.5242 11.694V11.7717C29.6797 12.3936 29.5242 12.86 28.9024 13.0154L28.3582 13.1709L28.2028 12.4713L28.6692 12.3158C28.8246 12.3158 28.9801 12.1604 28.9801 11.9272C28.9801 11.8495 28.9801 11.8495 28.9801 11.8495C28.9801 11.694 28.8246 11.5385 28.5914 11.5385C28.5137 11.5385 28.5137 11.5385 28.436 11.5385L26.1041 12.0826C25.8709 12.0826 25.7154 12.3158 25.7931 12.549C25.7931 12.7822 26.0263 12.9377 26.2595 12.86H26.3373L26.9591 12.7045L26.8036 12.3936L27.4255 12.2381L27.7364 13.3263L26.3373 13.6373Z" fill="white"/>
<path d="M29.9908 15.3472C29.9908 16.0468 29.6798 16.5131 29.058 16.4354L26.4152 16.3577C25.7156 16.3577 25.4824 15.8913 25.4824 15.2695V15.1917C25.4824 14.5699 25.7933 14.1035 26.4152 14.1035L29.058 14.1812C29.7576 14.259 29.9908 14.7254 29.9908 15.3472ZM26.1043 15.3472C26.1043 15.5804 26.182 15.7358 26.4929 15.7358L28.9025 15.8136C29.2135 15.8136 29.2912 15.6581 29.2912 15.4249C29.2912 15.1917 29.2135 15.0363 28.9025 15.0363L26.4929 14.9585C26.2597 14.9585 26.1043 15.114 26.1043 15.3472Z" fill="white"/>
<path d="M24.8608 18.69C22.9176 23.898 17.0101 26.6185 11.6467 24.6753C8.77068 23.6648 6.51651 21.4106 5.50602 18.6123L1.30859 20.0892C3.25185 25.5303 8.38203 29.3391 14.3673 29.65C14.6782 29.65 14.9891 29.65 15.2223 29.65C18.0983 29.65 20.9743 28.7949 23.3839 27.2403C25.949 25.5303 27.97 23.0429 29.0582 20.2446L24.8608 18.69Z" fill="white"/>
<path d="M22.2953 10.0616L19.8857 8.35156L13.0454 17.5237L11.4131 16.28L8.14844 17.446L13.6673 21.488L22.2953 10.0616Z" fill="white"/>
<path d="M1.30859 24.5195L1.77497 24.1309L1.8527 24.2086L1.30859 24.5195Z" fill="white"/>
<path d="M1.6203 24.9861L1.85349 24.7529C1.93122 24.6752 1.93122 24.6752 1.93122 24.5974C1.85349 24.5197 1.85349 24.5197 1.77576 24.5974L1.54257 24.7529L1.46484 24.6752L1.85349 24.3643L1.93122 24.442H1.85349C1.93122 24.442 1.93122 24.442 2.00895 24.5197C2.08668 24.5974 2.08668 24.6752 1.93122 24.7529L1.6203 24.9861Z" fill="white"/>
<path d="M2.47301 25.3746C2.39528 25.4523 2.23982 25.4523 2.16209 25.3746L2.08436 25.2191L1.85117 25.3746L1.77344 25.2969L2.31755 24.9082L2.47301 25.0637C2.55074 25.1414 2.55074 25.2969 2.47301 25.3746ZM2.39528 25.2969C2.47301 25.2969 2.47301 25.2191 2.39528 25.1414L2.31755 24.9859L2.08436 25.1414L2.16209 25.2969C2.31755 25.3746 2.31755 25.3746 2.39528 25.2969Z" fill="white"/>
<path d="M2.3954 25.9968V25.9191C2.31767 25.9191 2.31767 25.9191 2.23994 25.8414C2.16221 25.7636 2.16221 25.6859 2.23994 25.6082C2.31767 25.5305 2.3954 25.5305 2.47313 25.6082L2.55086 25.6859H2.62859C2.70632 25.6859 2.70632 25.6082 2.62859 25.5305L2.55086 25.4527V25.375C2.62859 25.375 2.62859 25.4527 2.70632 25.4527C2.78405 25.5305 2.78405 25.6082 2.70632 25.6859L2.3954 25.9968ZM2.47313 25.8414C2.55086 25.7636 2.55086 25.6859 2.47313 25.6859C2.47313 25.6082 2.3954 25.6082 2.31767 25.6859C2.23994 25.6859 2.23994 25.7636 2.31767 25.8414C2.31767 25.8414 2.3954 25.8414 2.47313 25.8414Z" fill="white"/>
<path d="M3.01716 25.9969C2.93943 25.9969 2.93943 25.9969 2.93943 25.9969C2.8617 25.9191 2.8617 25.9191 2.78397 25.9969L2.55078 26.1523V26.0746L2.93943 25.7637L3.01716 25.8414H2.93943C2.93943 25.8414 2.93943 25.8414 3.01716 25.9969C3.01716 25.9191 3.01716 25.9191 3.01716 25.9969Z" fill="white"/>
<path d="M3.17381 26.2293L3.09608 26.1516L2.86289 26.3847V26.4625C2.86289 26.4625 2.86289 26.4625 2.94062 26.5402H2.86289C2.86289 26.5402 2.78516 26.5402 2.78516 26.4625C2.78516 26.3847 2.78516 26.3847 2.86289 26.307L3.09608 26.0738L3.01835 25.9961H3.09608V26.0738L3.17381 25.9961H3.25154L3.09608 26.1516L3.17381 26.2293Z" fill="white"/>
<path d="M3.25037 26.8513L3.40583 26.6181C3.48356 26.5404 3.48356 26.4627 3.40583 26.4627C3.3281 26.4627 3.3281 26.385 3.25037 26.4627L3.01718 26.6181L2.93945 26.5404L3.25037 26.2295L3.3281 26.3072V26.385C3.40583 26.385 3.40583 26.385 3.48356 26.4627C3.56129 26.5404 3.56129 26.6181 3.48356 26.6959L3.25037 26.8513Z" fill="white"/>
<path d="M3.7953 27.085L3.56211 26.8518C3.48437 26.9296 3.48437 27.0073 3.56211 27.085C3.56211 27.085 3.63983 27.1628 3.71757 27.1628V27.2405C3.63983 27.2405 3.56211 27.2405 3.56211 27.1628C3.48437 27.085 3.48437 27.0073 3.56211 26.8518C3.63984 26.7741 3.7953 26.6964 3.87303 26.7741C3.87303 26.8518 3.87303 26.9296 3.7953 27.085C3.7953 27.0073 3.7953 27.085 3.7953 27.085ZM3.71757 27.0073C3.7953 26.9296 3.7953 26.8518 3.71757 26.7741C3.63983 26.6964 3.56211 26.6964 3.48438 26.7741L3.71757 27.0073Z" fill="white"/>
<path d="M4.18318 27.1623C4.10545 27.1623 4.10545 27.1623 4.10545 27.1623C4.02772 27.0846 4.02772 27.1623 3.94999 27.1623L3.79453 27.3955L3.7168 27.3178L4.02772 27.0068L4.10545 27.0846L4.02772 27.1623C4.10545 27.0846 4.10545 27.0846 4.18318 27.1623C4.18318 27.0846 4.18318 27.1623 4.18318 27.1623Z" fill="white"/>
<path d="M4.26209 27.6292C4.18436 27.7069 4.10663 27.7069 4.0289 27.6292C3.95117 27.5514 3.95117 27.5514 3.95117 27.4737H4.0289C4.0289 27.5514 4.0289 27.5514 4.10663 27.6292C4.18436 27.6292 4.18436 27.6292 4.26209 27.6292C4.26209 27.5514 4.26209 27.5514 4.18436 27.396C4.10663 27.2405 4.10663 27.2405 4.18436 27.1628C4.26209 27.0851 4.33982 27.0851 4.33982 27.1628C4.41755 27.1628 4.41755 27.2405 4.41755 27.3183H4.33982C4.33982 27.2405 4.33982 27.2405 4.26209 27.2405H4.18436C4.18436 27.2405 4.18436 27.3182 4.18436 27.396C4.33982 27.5514 4.33982 27.6292 4.26209 27.6292Z" fill="white"/>
<path d="M4.57264 28.0957L4.7281 27.8625C4.80583 27.7847 4.80583 27.707 4.7281 27.707C4.65037 27.6293 4.57264 27.6293 4.57264 27.707L4.33945 27.8625L4.26172 27.7847L4.65037 27.3184H4.7281L4.57264 27.4738C4.65037 27.4738 4.65037 27.4738 4.7281 27.4738C4.80583 27.5516 4.80583 27.6293 4.7281 27.707L4.57264 28.0957Z" fill="white"/>
<path d="M4.72852 28.1732L4.96171 27.7846L5.03944 27.8623L4.72852 28.1732ZM5.11717 27.7846C5.03944 27.7068 5.03944 27.7068 5.11717 27.7846C5.11717 27.6291 5.11717 27.6291 5.11717 27.7846C5.1949 27.7068 5.1949 27.7068 5.11717 27.7846Z" fill="white"/>
<path d="M5.35036 28.3281C5.27263 28.4836 5.11717 28.4836 5.03944 28.4058C4.96171 28.4058 4.96171 28.3281 4.96171 28.2504L4.80625 28.4058H4.72852L5.1949 27.9395V28.0172C5.27263 28.0172 5.27263 28.0172 5.35036 28.0172C5.42809 28.0949 5.42809 28.2504 5.35036 28.3281ZM5.27263 28.3281C5.35036 28.2504 5.35036 28.1726 5.27263 28.0949C5.1949 28.0949 5.1949 28.0949 5.11717 28.0949L4.96171 28.2504C4.96171 28.3281 4.96171 28.3281 5.03944 28.4058C5.11717 28.4058 5.1949 28.4058 5.27263 28.3281Z" fill="white"/>
<path d="M6.20543 28.6394L5.81678 28.9504H5.73905L5.89451 28.6394V28.5617L5.81678 28.6394L5.58359 28.8726H5.50586L5.66132 28.4062L5.73905 28.484L5.66132 28.7172V28.7949V28.7172L5.89451 28.484H5.97224L5.89451 28.8726V28.9504V28.8726L6.20543 28.6394Z" fill="white"/>
<path d="M6.12695 29.1834L6.28241 28.717H6.36014L6.12695 29.1834ZM6.43787 28.6393C6.43787 28.717 6.43787 28.717 6.43787 28.6393C6.36014 28.717 6.36014 28.717 6.43787 28.6393C6.36014 28.6393 6.36014 28.6393 6.36014 28.5615C6.36014 28.5615 6.43787 28.5615 6.43787 28.6393C6.43787 28.5615 6.43787 28.5615 6.43787 28.6393Z" fill="white"/>
<path d="M6.59422 29.0277L6.51649 28.95L6.36103 29.1832V29.2609H6.43876V29.3386H6.36103C6.2833 29.3386 6.2833 29.2609 6.36103 29.1832L6.51649 28.95H6.43876V28.8723H6.51649L6.59422 28.7168H6.67195L6.59422 28.8723V29.0277Z" fill="white"/>
<path d="M6.82655 29.6498L6.90428 29.3388C6.98201 29.2611 6.98201 29.1834 6.90428 29.1834C6.82655 29.1834 6.74882 29.1834 6.74882 29.2611L6.59336 29.4943H6.51562L6.82655 28.9502H6.90428L6.74882 29.1834C6.82655 29.1834 6.82655 29.1834 6.90428 29.1834C6.98201 29.2611 6.98201 29.3388 6.98201 29.4166L6.82655 29.6498Z" fill="white"/>
<path d="M7.60359 29.4945H7.44813L7.29267 29.7277V29.8054H7.3704V29.8832H7.29267C7.21494 29.8832 7.21494 29.8054 7.29267 29.7277L7.44813 29.4168H7.3704V29.3391H7.44813L7.52586 29.1836H7.60359L7.52586 29.3391L7.60359 29.4945Z" fill="white"/>
<path d="M7.83631 30.1166L7.91404 29.8056C7.99177 29.7279 7.91404 29.6502 7.91404 29.6502C7.83631 29.6502 7.75858 29.6502 7.75858 29.7279L7.60312 29.9611H7.52539L7.83631 29.417H7.91404L7.83631 29.6502C7.91404 29.6502 7.91404 29.6502 7.99177 29.6502C8.0695 29.7279 8.14723 29.8056 8.0695 29.8834L7.83631 30.1166Z" fill="white"/>
<path d="M8.38023 30.1166L8.06931 30.0389C8.06931 30.1166 8.06931 30.1943 8.14704 30.272C8.22477 30.272 8.22477 30.272 8.3025 30.272V30.3498C8.22477 30.3498 8.14704 30.3498 8.14704 30.3498C8.06931 30.3498 7.99158 30.1943 8.06931 30.0389C8.14704 29.8834 8.22477 29.8834 8.38023 29.8834C8.45796 29.8834 8.45796 29.9611 8.38023 30.1166ZM8.38023 30.0389C8.38023 29.9611 8.38023 29.8834 8.3025 29.8057C8.22477 29.8057 8.14704 29.8057 8.14704 29.8834L8.38023 30.0389Z" fill="white"/>
<path d="M9.23591 30.116L9.08045 30.0383L8.84726 30.5824H8.76953L9.00272 30.0383L8.84726 29.9605V29.8828L9.23591 30.116Z" fill="white"/>
<path d="M9.46873 30.5824C9.46873 30.7379 9.31327 30.7379 9.23554 30.7379C9.15781 30.6601 9.08008 30.5824 9.08008 30.4269C9.08008 30.2715 9.23554 30.2715 9.31327 30.2715C9.54646 30.3492 9.54646 30.4269 9.46873 30.5824C9.54646 30.5824 9.54646 30.5824 9.46873 30.5824ZM9.46873 30.5824C9.54646 30.4269 9.46873 30.3492 9.391 30.3492C9.31327 30.3492 9.23554 30.3492 9.15781 30.5047C9.08008 30.6601 9.15781 30.7379 9.23554 30.7379C9.31327 30.7379 9.391 30.6601 9.46873 30.5824Z" fill="white"/>
<path d="M9.85718 30.9715C9.77945 30.8937 9.70172 30.9715 9.70172 30.8937C9.62399 30.8937 9.54626 30.816 9.62399 30.6605L9.70172 30.3496H9.77945L9.70172 30.5828C9.70172 30.6605 9.70172 30.7383 9.77945 30.7383C9.85718 30.7383 9.93491 30.7383 9.93491 30.6605L10.0126 30.4273H10.0904L9.85718 30.9715Z" fill="white"/>
<path d="M10.4801 30.6607C10.4023 30.7385 10.4023 30.6607 10.4023 30.6607C10.3246 30.6607 10.3246 30.6607 10.2469 30.7385L10.0914 31.0494H10.0137L10.1691 30.583H10.2469V30.6607C10.2469 30.583 10.3246 30.583 10.4801 30.6607C10.4023 30.583 10.4023 30.6607 10.4801 30.6607Z" fill="white"/>
<path d="M10.4805 31.1268L10.5582 30.6604H10.6359L10.4805 31.1268ZM10.6359 30.5827C10.5582 30.5827 10.5582 30.5827 10.5582 30.5827C10.5582 30.505 10.5582 30.505 10.6359 30.5827C10.6359 30.505 10.6359 30.505 10.6359 30.5827C10.6359 30.505 10.6359 30.505 10.6359 30.5827Z" fill="white"/>
<path d="M10.9457 31.126C10.9457 31.2037 10.868 31.2037 10.7902 31.2037C10.7125 31.2037 10.7125 31.126 10.6348 31.126H10.7125C10.7125 31.2037 10.7902 31.2037 10.7902 31.2037C10.7902 31.2037 10.868 31.2037 10.9457 31.126C10.868 31.0482 10.868 31.0482 10.7902 30.9705C10.7125 30.8928 10.7125 30.8928 10.7125 30.815C10.7125 30.7373 10.7902 30.7373 10.868 30.7373C10.9457 30.7373 10.9457 30.815 11.0234 30.815H10.9457L10.868 30.7373C10.7902 30.7373 10.7902 30.7373 10.7902 30.7373C10.7902 30.7373 10.7902 30.815 10.868 30.8928C10.9457 30.9705 10.9457 31.0482 10.9457 31.126Z" fill="white"/>
<path d="M11.3348 30.9705H11.257L11.1793 31.2814C11.1793 31.3591 11.1793 31.3591 11.1793 31.3591H11.257V31.4369H11.1793C11.1016 31.4369 11.1016 31.3591 11.1016 31.2814L11.1793 30.9705H11.1016V30.8928H11.1793V30.7373H11.257L11.1793 30.8928L11.3348 30.9705Z" fill="white"/>
<path d="M12.1906 31.2052C12.1906 31.3607 12.0351 31.5161 11.8797 31.4384C11.7242 31.4384 11.6465 31.283 11.6465 31.0498C11.6465 30.8943 11.8019 30.7388 11.9574 30.8166C12.1129 30.8943 12.1906 31.0498 12.1906 31.2052ZM12.1129 31.2052C12.1129 31.0498 12.1129 30.8943 11.9574 30.8943C11.8797 30.8943 11.7242 30.972 11.7242 31.1275C11.7242 31.283 11.7242 31.4384 11.8797 31.4384C11.9574 31.4384 12.0351 31.3607 12.1129 31.2052Z" fill="white"/>
<path d="M12.5781 31.126C12.5004 31.2037 12.5004 31.126 12.5004 31.126C12.4226 31.126 12.4226 31.126 12.3449 31.2814L12.2672 31.5924H12.1895L12.2672 31.126H12.3449V31.2037C12.4226 31.126 12.4226 31.126 12.5781 31.126C12.5004 31.126 12.5781 31.126 12.5781 31.126Z" fill="white"/>
<path d="M12.9668 31.5924C12.9668 31.7478 12.889 31.8255 12.6559 31.7478V31.6701C12.8113 31.7478 12.889 31.7478 12.9668 31.5924C12.889 31.5924 12.8113 31.5924 12.7336 31.5924C12.6559 31.5924 12.5781 31.5146 12.5781 31.3592C12.5781 31.2037 12.7336 31.126 12.8113 31.126C12.889 31.126 12.889 31.126 12.9668 31.2037V31.126H13.0445L12.9668 31.5924ZM12.889 31.5146V31.2814C12.889 31.2037 12.8113 31.2037 12.7336 31.2037C12.6559 31.2037 12.5781 31.2814 12.5781 31.3592C12.5781 31.5146 12.5781 31.5146 12.6559 31.5924C12.8113 31.5924 12.8113 31.5924 12.889 31.5146Z" fill="white"/>
<path d="M13.4336 31.7486C13.3558 31.7486 13.2781 31.7486 13.2004 31.7486C13.1227 31.7486 13.0449 31.6709 13.0449 31.5931C13.0449 31.5154 13.1227 31.4377 13.2781 31.4377C13.3558 31.4377 13.3558 31.4377 13.3558 31.5154V31.4377C13.3558 31.36 13.3558 31.36 13.2781 31.36C13.2004 31.36 13.2004 31.36 13.1227 31.36V31.2822C13.2004 31.2822 13.2004 31.2822 13.2781 31.2822C13.3558 31.2822 13.4336 31.36 13.4336 31.4377V31.7486ZM13.3558 31.5931V31.5154C13.3558 31.5154 13.2781 31.5154 13.2004 31.4377C13.1227 31.4377 13.0449 31.4377 13.0449 31.5154C13.0449 31.5931 13.0449 31.5931 13.1227 31.5931C13.2781 31.6709 13.3558 31.6709 13.3558 31.5931Z" fill="white"/>
<path d="M13.9785 31.7486L13.9008 31.4377C13.9008 31.36 13.9008 31.2822 13.823 31.2822C13.7453 31.2822 13.6676 31.2822 13.6676 31.4377V31.7486H13.5898L13.6676 31.2822V31.36C13.6676 31.2822 13.7453 31.2822 13.823 31.2822C13.9008 31.2822 13.9785 31.36 13.9785 31.5154V31.7486Z" fill="white"/>
<path d="M14.2105 31.7489V31.2825H14.2883L14.2105 31.7489ZM14.2105 31.2048C14.1328 31.2825 14.1328 31.2048 14.1328 31.2048C14.1328 31.1271 14.1328 31.1271 14.2105 31.2048C14.2105 31.1271 14.2105 31.1271 14.2105 31.2048C14.2105 31.1271 14.2105 31.1271 14.2105 31.2048Z" fill="white"/>
<path d="M14.6781 31.6703C14.6781 31.748 14.6004 31.8257 14.5226 31.8257C14.4449 31.8257 14.3672 31.8257 14.3672 31.748L14.4449 31.6703C14.4449 31.6703 14.5226 31.748 14.6004 31.748C14.5226 31.748 14.6004 31.748 14.6781 31.6703C14.6004 31.5925 14.6004 31.5925 14.5226 31.5925C14.4449 31.5148 14.3672 31.5148 14.3672 31.4371C14.3672 31.3593 14.4449 31.2816 14.5226 31.3593C14.6004 31.3593 14.6004 31.3593 14.6781 31.4371L14.6004 31.5148C14.6004 31.5148 14.5226 31.4371 14.4449 31.4371C14.3672 31.4371 14.3672 31.4371 14.3672 31.5148C14.3672 31.5148 14.3672 31.5925 14.4449 31.5925C14.5226 31.5925 14.6781 31.5925 14.6781 31.6703Z" fill="white"/>
<path d="M15.1445 31.8263C15.0668 31.8263 14.9891 31.8263 14.9113 31.8263C14.8336 31.8263 14.7559 31.7486 14.7559 31.6709C14.7559 31.5931 14.8336 31.5154 14.9113 31.5154C14.9891 31.5154 14.989 31.5154 15.0668 31.5154V31.4377C15.0668 31.36 15.0668 31.36 14.9891 31.36C14.9113 31.36 14.9113 31.36 14.8336 31.36V31.2822C14.9113 31.2822 14.9113 31.2822 14.9891 31.2822C15.0668 31.2822 15.1445 31.36 15.1445 31.4377V31.8263ZM15.0668 31.6709V31.5931C15.0668 31.5931 14.9891 31.5931 14.9113 31.5931C14.8336 31.5931 14.8336 31.5931 14.8336 31.6709C14.8336 31.7486 14.8336 31.7486 14.9113 31.7486C14.9891 31.7486 14.989 31.7486 15.0668 31.6709Z" fill="white"/>
<path d="M15.4558 31.3592H15.3004V31.6701C15.3004 31.7478 15.3004 31.7478 15.3781 31.7478H15.4558V31.8255H15.3781C15.3004 31.8255 15.3004 31.8255 15.3004 31.7478V31.4369H15.2227V31.3592H15.3004V31.2037L15.3781 31.126V31.2814L15.4558 31.3592Z" fill="white"/>
<path d="M15.6891 31.2048C15.6891 31.2048 15.6891 31.2825 15.6891 31.2048C15.6113 31.2825 15.6113 31.2048 15.6113 31.2048C15.6113 31.2048 15.6113 31.1271 15.6891 31.2048C15.6113 31.1271 15.6113 31.1271 15.6891 31.2048C15.6891 31.1271 15.6891 31.2048 15.6891 31.2048ZM15.6891 31.8266L15.6113 31.3602H15.6891V31.8266Z" fill="white"/>
<path d="M16.232 31.5154C16.232 31.6709 16.1543 31.7486 15.9988 31.7486C15.8434 31.7486 15.7656 31.6709 15.7656 31.5154C15.7656 31.36 15.8434 31.2822 15.9211 31.2822C15.9988 31.2822 16.232 31.36 16.232 31.5154ZM16.1543 31.5154C16.1543 31.36 16.0765 31.36 15.9988 31.36C15.9211 31.36 15.8434 31.4377 15.8434 31.5154C15.8434 31.6709 15.9211 31.6709 15.9988 31.6709C16.0765 31.6709 16.1543 31.6709 16.1543 31.5154Z" fill="white"/>
<path d="M16.6992 31.7486L16.6215 31.4377C16.6215 31.36 16.5437 31.2822 16.466 31.2822C16.3883 31.2822 16.3883 31.36 16.3883 31.4377V31.7486H16.3105V31.2822H16.3883V31.36C16.3883 31.2822 16.466 31.2822 16.5437 31.2822C16.6215 31.2822 16.6992 31.36 16.6992 31.4377V31.7486Z" fill="white"/>
<path d="M17.164 31.5937C17.164 31.6715 17.0863 31.7492 17.0086 31.7492C16.9309 31.7492 16.8531 31.7492 16.8531 31.6715V31.5937C16.9309 31.5937 16.9309 31.6715 17.0086 31.6715C17.0863 31.6715 17.0863 31.6715 17.164 31.5937C17.0863 31.5937 17.0863 31.516 16.9309 31.516C16.8531 31.516 16.7754 31.4383 16.7754 31.3605C16.7754 31.2828 16.8531 31.2051 16.9309 31.2051C17.0086 31.2051 17.0086 31.2051 17.0863 31.2051V31.2828C17.0863 31.2828 17.0086 31.2828 16.9309 31.2828C16.8531 31.2828 16.8531 31.2828 16.8531 31.3605C16.8531 31.4383 16.8531 31.4383 16.9309 31.4383C17.0863 31.516 17.164 31.516 17.164 31.5937Z" fill="white"/>
<path d="M17.9414 31.3598C17.9414 31.5152 17.8637 31.593 17.7859 31.6707C17.7082 31.7484 17.5527 31.593 17.5527 31.4375C17.5527 31.3598 17.5527 31.2043 17.7082 31.2043C17.7859 31.1266 17.8637 31.2043 17.9414 31.3598ZM17.8637 31.3598C17.8637 31.2043 17.7859 31.2043 17.7082 31.2043C17.6305 31.2043 17.5527 31.2821 17.6305 31.4375C17.7082 31.593 17.7082 31.593 17.7859 31.593C17.7859 31.593 17.8637 31.5152 17.8637 31.3598Z" fill="white"/>
<path d="M18.1746 30.9713C18.1746 30.9713 18.0969 30.9713 18.1746 30.9713C18.0969 30.9713 18.0969 30.9713 18.0969 31.049V31.1267H18.1746V31.2045H18.0969L18.1746 31.5931H18.0969L18.0191 31.2045H17.9414V31.1267H18.0191V31.049C18.0191 30.9713 18.0191 30.9713 18.0969 30.8936C18.0969 30.8936 18.0969 30.8936 18.1746 30.9713C18.0969 30.8936 18.0969 30.8936 18.1746 30.9713Z" fill="white"/>
<path d="M19.0297 31.1273C19.1074 31.2828 19.0297 31.3605 18.8742 31.4382C18.8742 31.4382 18.8742 31.4382 18.7965 31.4382C18.641 31.4382 18.4856 31.3605 18.4856 31.2051C18.4078 31.0496 18.4856 30.8941 18.641 30.8164C18.7188 30.8164 18.7965 30.8164 18.8742 30.8941L18.7965 30.9719C18.7188 30.8941 18.7188 30.8941 18.641 30.8941C18.5633 30.8941 18.4856 31.0496 18.4856 31.2051C18.4856 31.3605 18.641 31.4382 18.7188 31.4382C18.952 31.3605 18.952 31.2828 19.0297 31.1273L18.8742 31.2051V31.1273H19.0297Z" fill="white"/>
<path d="M19.3406 30.8164C19.3406 30.8941 19.3406 30.8941 19.3406 30.8164C19.1852 30.8941 19.1852 30.9719 19.1852 31.0496L19.2629 31.2828H19.1852L19.1074 30.8941H19.1852V30.9719C19.1852 30.8941 19.2629 30.8941 19.3406 30.8164C19.2629 30.8164 19.3406 30.8164 19.3406 30.8164Z" fill="white"/>
<path d="M19.8078 30.9705L19.4969 31.0482C19.4969 31.126 19.5746 31.2037 19.6524 31.2037C19.7301 31.2037 19.7301 31.126 19.7301 31.126H19.8078C19.8078 31.2037 19.7301 31.2037 19.6524 31.2037C19.5746 31.2037 19.4192 31.2037 19.4192 31.0482C19.3414 30.8928 19.4192 30.815 19.5746 30.7373C19.7301 30.7373 19.8078 30.815 19.8078 30.9705ZM19.8078 30.9705C19.8078 30.8928 19.7301 30.815 19.6524 30.8928C19.5746 30.8928 19.5746 30.9705 19.5746 31.0482L19.8078 30.9705Z" fill="white"/>
<path d="M20.3511 31.0488H20.2734C20.2734 31.1265 20.1957 31.1265 20.118 31.1265C20.0402 31.1265 19.9625 31.1265 19.9625 31.0488C19.9625 30.9711 19.9625 30.8933 20.118 30.8156C20.1957 30.8156 20.1957 30.8156 20.2734 30.8156V30.7379C20.2734 30.6602 20.1957 30.6602 20.1957 30.6602C20.118 30.6602 20.118 30.6602 20.118 30.7379H19.8848C19.9625 30.6602 19.9625 30.6602 20.0402 30.6602C20.118 30.6602 20.1957 30.6602 20.2734 30.7379C20.2734 30.7379 20.2734 30.7379 20.2734 30.8156L20.3511 31.0488ZM20.2734 30.9711V30.8933C20.1957 30.8933 20.1957 30.8933 20.118 30.8933C20.0402 30.8933 20.0402 30.9711 20.0402 31.0488C20.0402 31.1265 20.118 31.1265 20.118 31.1265C20.1957 31.0488 20.2734 30.9711 20.2734 30.9711Z" fill="white"/>
<path d="M20.5848 30.5047H20.507L20.5848 30.8156C20.5848 30.8933 20.5848 30.8933 20.6625 30.8156H20.7402V30.8933C20.7402 30.8933 20.6625 30.8933 20.6625 30.9711C20.5848 30.9711 20.5848 30.9711 20.507 30.8933L20.4293 30.5824H20.3516V30.5047H20.4293L20.3516 30.3492L20.4293 30.2715L20.507 30.4269L20.5848 30.5047Z" fill="white"/>
<path d="M21.4406 30.5048C21.5183 30.5826 21.4406 30.738 21.3629 30.738L21.1297 30.8158L20.8965 30.1939L21.1297 30.1162C21.2074 30.0385 21.2851 30.1162 21.3629 30.1939C21.3629 30.2716 21.3629 30.3494 21.3629 30.3494C21.2851 30.3494 21.3629 30.4271 21.4406 30.5048ZM21.2074 30.2716C21.2074 30.1939 21.1297 30.1939 21.1297 30.1939L20.8965 30.2716L20.9742 30.4271L21.1297 30.3494C21.2074 30.3494 21.2074 30.3494 21.2074 30.2716ZM21.3629 30.5048C21.3629 30.4271 21.2851 30.4271 21.2074 30.4271L21.0519 30.5048L21.1297 30.738L21.2851 30.6603C21.3629 30.6603 21.3629 30.5826 21.3629 30.5048Z" fill="white"/>
<path d="M21.6726 30.0391C21.6726 30.1168 21.5949 30.1168 21.6726 30.0391C21.5172 30.1168 21.5172 30.1945 21.5949 30.2723L21.6726 30.5054H21.5949L21.4395 30.1945H21.5172V30.2723C21.5172 30.1168 21.5172 30.1168 21.6726 30.0391C21.5949 30.0391 21.6726 30.0391 21.6726 30.0391Z" fill="white"/>
<path d="M21.7516 29.8822C21.8293 29.8822 21.7516 29.9599 21.7516 29.8822C21.6738 29.9599 21.6738 29.9599 21.6738 29.8822C21.6738 29.8822 21.6738 29.8822 21.7516 29.8822C21.7516 29.8045 21.7516 29.8822 21.7516 29.8822ZM21.9847 30.4263L21.7516 30.0377H21.8293L21.9847 30.4263Z" fill="white"/>
<path d="M22.1394 29.8836L22.0617 29.9613L22.2172 30.2722C22.2172 30.35 22.2172 30.35 22.2949 30.2722C22.2949 30.2722 22.3726 30.2722 22.3726 30.1945V30.2722L22.2949 30.35C22.2172 30.35 22.2172 30.35 22.1394 30.2722L21.984 29.9613H21.9062V29.8836H21.984L21.9062 29.7281L21.984 29.6504L22.0617 29.8059L22.1394 29.8836Z" fill="white"/>
<path d="M22.7613 30.1166H22.6836C22.6836 30.1943 22.6058 30.1943 22.6058 30.272C22.5281 30.3497 22.4504 30.272 22.3727 30.1943C22.3727 30.1166 22.3727 30.0388 22.4504 29.9611C22.4504 29.9611 22.5281 29.9611 22.6058 29.9611V29.8834C22.6058 29.8056 22.5281 29.8056 22.4504 29.8056C22.3727 29.8056 22.3727 29.8834 22.3727 29.8834L22.2949 29.8056C22.2949 29.7279 22.3727 29.7279 22.4504 29.7279C22.5281 29.6502 22.6058 29.7279 22.6836 29.7279L22.7613 30.1166ZM22.6836 30.0388L22.6058 29.9611C22.5281 29.9611 22.5281 29.9611 22.4504 29.9611C22.3727 29.9611 22.3727 30.0388 22.3727 30.0388C22.3727 30.1166 22.4504 30.1166 22.5281 30.1166C22.6058 30.1166 22.6836 30.0388 22.6836 30.0388Z" fill="white"/>
<path d="M22.6832 29.417C22.6832 29.4947 22.6832 29.4947 22.6832 29.417C22.6832 29.4947 22.6055 29.4947 22.6055 29.4947C22.6055 29.4947 22.6055 29.417 22.6832 29.417C22.6055 29.417 22.6055 29.417 22.6832 29.417ZM22.9941 29.9611L22.6832 29.5725H22.7609L22.9941 29.9611Z" fill="white"/>
<path d="M23.4617 29.7279L23.2285 29.4947C23.1508 29.417 23.1508 29.417 23.073 29.417C22.9953 29.417 22.9953 29.4947 23.073 29.5724L23.2285 29.8056H23.1508L22.8398 29.4947H22.9176V29.5724C22.9176 29.4947 22.9176 29.4947 22.9953 29.417C23.073 29.3392 23.1508 29.417 23.2285 29.4947L23.4617 29.7279Z" fill="white"/>
<path d="M24.1603 29.3386H24.0048C24.0048 29.4164 23.9271 29.4941 23.9271 29.4941C23.8494 29.5718 23.7716 29.5718 23.6939 29.4941C23.6162 29.4164 23.6939 29.3386 23.6939 29.2609C23.6162 29.2609 23.6162 29.1832 23.6162 29.1832C23.5385 29.1054 23.6162 29.0277 23.6939 29.0277C23.7716 29.0277 23.8494 28.95 23.8494 29.0277V29.1054C23.7716 29.1054 23.7716 29.1054 23.6939 29.1054C23.6162 29.1054 23.6162 29.1832 23.6162 29.1832L23.6939 29.2609L24.0048 29.3386C24.0048 29.2609 24.0048 29.2609 24.0048 29.1832H24.0826C24.0826 29.2609 24.0826 29.2609 24.0826 29.3386H24.1603ZM24.0048 29.3386L23.7716 29.2609C23.6939 29.3386 23.6939 29.4164 23.7716 29.4164C23.7716 29.4941 23.8494 29.4941 23.9271 29.4164L24.0048 29.3386Z" fill="white"/>
<path d="M24.4726 29.1058L24.084 28.5617H24.1617L24.6281 28.7949C24.6281 28.7949 24.7058 28.7949 24.7058 28.8726L24.3949 28.4062H24.4726L24.8613 28.9504H24.7836L24.3172 28.7172L24.2394 28.6394L24.4726 29.1058Z" fill="white"/>
<path d="M25.1712 28.3283C25.249 28.406 25.249 28.5615 25.1712 28.6392C25.0158 28.717 24.8603 28.6392 24.8603 28.4838C24.7826 28.406 24.8603 28.2506 24.9381 28.1729C24.9381 28.1729 25.0935 28.2506 25.1712 28.3283ZM25.1712 28.406C25.0935 28.3283 25.0158 28.2506 24.9381 28.3283C24.8603 28.406 24.8603 28.4838 24.9381 28.5615C25.0158 28.6392 25.0935 28.717 25.1712 28.6392C25.249 28.5615 25.249 28.4838 25.1712 28.406Z" fill="white"/>
<path d="M25.3265 27.9395C25.3265 28.0172 25.3265 28.0172 25.2488 28.0172C25.1711 28.0949 25.1711 28.0949 25.2488 28.1726L25.4043 28.4058L25.3265 28.4836L25.0156 28.0949L25.0934 28.0172V28.0949C25.2488 28.0172 25.2488 28.0172 25.3265 27.9395Z" fill="white"/>
<path d="M25.6371 27.7844L25.5594 27.8621L25.7926 28.0953H25.8703C25.8703 28.0953 25.8703 28.0953 25.948 28.0176V28.0953C25.948 28.0953 25.948 28.173 25.8703 28.173C25.7926 28.173 25.7926 28.173 25.7148 28.173L25.4816 27.9398H25.4039V27.8621H25.4816L25.3262 27.7066V27.6289L25.4816 27.7844H25.6371Z" fill="white"/>
<path d="M26.2601 27.7839L26.0269 27.6284C25.9492 27.5507 25.8715 27.5507 25.8715 27.5507C25.7937 27.6284 25.7937 27.6284 25.8715 27.7061L26.0269 27.9393L25.9492 28.017L25.5605 27.5507V27.4729L25.716 27.6284C25.716 27.5507 25.716 27.5507 25.7937 27.4729C25.8715 27.3952 25.9492 27.3952 26.0269 27.5507L26.2601 27.7839Z" fill="white"/>
<path d="M26.4923 27.2404L26.2591 27.4736C26.3368 27.5513 26.4145 27.5513 26.4923 27.4736C26.4923 27.4736 26.57 27.3959 26.57 27.3182H26.6477C26.6477 27.3959 26.57 27.3959 26.57 27.4736C26.4923 27.5513 26.4145 27.5513 26.2591 27.3959C26.1813 27.3181 26.1813 27.1627 26.2591 27.085C26.2591 27.1627 26.4145 27.1627 26.4923 27.2404ZM26.4145 27.3182C26.3368 27.2404 26.2591 27.2404 26.1813 27.3182C26.1036 27.3959 26.1036 27.4736 26.1813 27.5513L26.4145 27.3182Z" fill="white"/>
<path d="M26.6476 26.8516C26.6476 26.9293 26.6476 26.9293 26.6476 26.9293C26.5699 27.007 26.6476 27.007 26.6476 27.0848L26.8808 27.3179L26.8031 27.3957L26.4922 27.0848L26.5699 27.007L26.6476 27.0848C26.4922 27.007 26.5699 26.9293 26.6476 26.8516C26.5699 26.8516 26.6476 26.8516 26.6476 26.8516Z" fill="white"/>
<path d="M27.3488 26.8515L27.1156 26.696C27.0379 26.6183 26.9601 26.6183 26.9601 26.696C26.8824 26.7737 26.8824 26.7737 26.9601 26.8515L27.1933 27.0846L27.1156 27.1624L26.8047 26.8515L26.8824 26.7737L26.9601 26.8515C26.9601 26.7737 26.9601 26.7737 27.0379 26.696C27.1156 26.6183 27.1933 26.6183 27.2711 26.696L27.3488 26.8515Z" fill="white"/>
<path d="M27.6593 26.5406L27.1152 26.152L27.193 26.0742L27.6593 26.5406Z" fill="white"/>
<path d="M27.5808 25.9189C27.5808 25.9967 27.5808 25.9967 27.5808 25.9967C27.5031 26.0744 27.5808 26.0744 27.6586 26.1521L27.8918 26.3076L27.7363 26.3853L27.3477 26.0744L27.4254 25.9967L27.5031 26.0744C27.4254 25.9967 27.5031 25.9967 27.5808 25.9189C27.5031 25.9189 27.5031 25.9189 27.5808 25.9189Z" fill="white"/>
<path d="M28.0466 25.6852L27.8912 25.9183C27.9689 25.9961 28.0466 25.9961 28.1244 25.9183C28.1244 25.9183 28.2021 25.8406 28.2021 25.7629H28.2798C28.2798 25.8406 28.2798 25.9183 28.2021 25.9183C28.1244 25.9961 28.0466 25.9961 27.8912 25.9183C27.8134 25.8406 27.7357 25.7629 27.8135 25.6074C27.8135 25.6074 27.8912 25.6074 28.0466 25.6852ZM27.9689 25.7629C27.8912 25.6852 27.8134 25.6852 27.7357 25.7629C27.658 25.8406 27.7357 25.9183 27.7357 25.9961L27.9689 25.7629Z" fill="white"/>
<path d="M28.3566 25.6855L27.8125 25.3746V25.2969L28.3566 25.6855Z" fill="white"/>
<path d="M28.6691 25.2971H28.5914C28.5914 25.3748 28.5914 25.3748 28.5914 25.4525C28.5137 25.5303 28.4359 25.5303 28.4359 25.5303C28.3582 25.4525 28.3582 25.3748 28.4359 25.2971L28.5137 25.2193H28.4359C28.4359 25.2193 28.3582 25.1416 28.2805 25.2193C28.2805 25.2193 28.2027 25.2971 28.2027 25.3748H28.125C28.125 25.2971 28.125 25.2971 28.2027 25.2193C28.2027 25.1416 28.3582 25.1416 28.4359 25.1416L28.6691 25.2971ZM28.5137 25.2971C28.4359 25.2193 28.3582 25.2971 28.3582 25.2971C28.2805 25.3748 28.2805 25.3748 28.3582 25.4525C28.3582 25.4525 28.4359 25.4525 28.5137 25.4525C28.5137 25.3748 28.5137 25.3748 28.5137 25.2971Z" fill="white"/>
<path d="M28.9797 24.9077L28.7465 24.83C28.6687 24.7522 28.591 24.7522 28.591 24.83C28.5133 24.9077 28.591 24.9854 28.6687 24.9854L28.9019 25.1409L28.8242 25.2186L28.4355 24.9077V24.83H28.5133C28.5133 24.7522 28.5133 24.7522 28.5133 24.6745C28.591 24.5968 28.6687 24.5968 28.7465 24.6745L28.9797 24.9077Z" fill="white"/>
<path d="M29.2911 24.5195H29.2134C29.2134 24.5972 29.2134 24.5972 29.2134 24.675C29.1357 24.7527 29.058 24.7527 28.9025 24.675C28.747 24.5972 28.747 24.4418 28.8248 24.364C28.8248 24.2863 28.9025 24.2863 28.9802 24.2863L28.8248 24.2086V24.1309L29.2911 24.5195ZM29.1357 24.4418L28.9025 24.2863C28.8248 24.2863 28.8248 24.2863 28.747 24.364C28.6693 24.4418 28.747 24.5195 28.8248 24.5972C28.9025 24.675 28.9802 24.675 29.058 24.5972C29.1357 24.5972 29.1357 24.5195 29.1357 24.4418Z" fill="white"/>
<path d="M29.6019 17.368V17.2902L29.291 17.2125V17.1348L29.6019 17.2125V17.1348H29.6797L29.6019 17.368Z" fill="white"/>
<path d="M29.2129 17.7572L29.3684 17.6795H29.4461H29.3684L29.2129 17.6017L29.3684 17.524H29.4461H29.3684H29.2129V17.4463L29.6015 17.524V17.6017L29.4461 17.6795H29.3684H29.4461L29.6015 17.7572V17.8349L29.2129 17.7572Z" fill="white"/>
</g>
<defs>
<clipPath id="clip0_147_53281">
<rect width="29.5374" height="31.092" fill="white" transform="translate(0.453125 0.734375)"/>
</clipPath>
</defs>
</svg>
