<svg width="87" height="32" viewBox="0 0 87 32" fill="none" xmlns="http://www.w3.org/2000/svg">
<g clip-path="url(#clip0_147_53172)">
<path d="M27.8822 25.9623C27.649 25.5737 27.4158 25.185 27.2603 24.7964C27.1826 24.6409 27.1826 24.5632 27.1049 24.4077C26.7162 23.7081 26.3276 23.0086 25.9389 22.309C25.7057 21.9203 25.4725 21.454 25.2393 21.0653C25.0062 20.6767 24.6952 20.3657 24.462 19.9771C24.3843 19.8994 24.3843 19.7439 24.462 19.5884C24.462 19.5107 24.6952 19.5107 24.773 19.5107C24.8507 19.5107 25.0062 19.5107 25.0839 19.433C25.3171 19.3553 25.4725 19.2775 25.628 19.1221C25.9389 18.9666 26.4053 18.8889 26.6385 18.6557C27.1049 18.1893 27.5712 17.7229 27.9599 17.1788C28.3485 16.6347 28.504 16.0129 28.4263 15.3133C28.3485 15.0024 28.1931 14.6914 28.1154 14.3805C27.9599 13.7587 27.4158 13.37 26.9494 12.9037C26.6385 12.5927 26.1721 12.4373 25.7057 12.3595C25.2393 12.2041 24.8507 11.9709 24.3066 12.0486C23.5293 12.0486 22.6743 11.8154 21.897 11.8154C21.2751 11.8154 20.6533 11.8932 20.0314 11.8932C19.0209 11.8932 17.9327 11.8932 17 12.1264C16.7668 12.2041 16.4558 12.4373 16.4558 12.6705C16.3781 13.4478 16.4558 14.3028 16.3781 15.1578C16.3781 15.4687 16.1449 15.7797 16.2227 16.0129C16.4558 16.7902 16.3004 17.5675 16.3781 18.3448C16.3781 18.9666 16.4558 19.5884 16.4558 20.2103C16.4558 20.7544 16.3781 21.3762 16.3004 21.9203C16.2227 22.2313 16.1449 22.6199 16.1449 22.9308C16.1449 23.0086 16.1449 23.164 16.1449 23.2418C16.1449 23.7081 16.1449 24.1745 16.1449 24.6409C16.1449 25.2627 15.834 25.8846 16.0672 26.5842C16.1449 26.7396 15.9895 26.9728 15.9895 27.206C15.9895 27.4392 15.9895 27.6724 15.9895 27.8278C16.0672 28.1388 16.3004 28.2942 16.0672 28.6829C15.9895 28.8383 16.0672 29.0715 16.3781 29.0715C16.7668 29.0715 17.2331 29.0715 17.6218 29.0715C17.6995 29.0715 17.7773 28.9938 17.855 28.9938C18.0882 28.9161 18.3991 28.8383 18.6323 28.7606C19.3319 28.6051 19.4873 28.4497 19.4873 27.6724C19.4873 27.1283 19.3319 26.6619 19.565 26.1178C19.6428 25.9623 19.565 25.7291 19.565 25.5737C19.565 25.4182 19.565 25.185 19.565 25.0295C19.565 24.6409 19.6428 24.33 19.6428 23.9413C19.7205 23.4749 19.7205 22.9308 19.7982 22.4645C19.876 21.8426 19.876 21.143 19.9537 20.5212C19.9537 20.4435 20.0314 20.2103 20.1092 20.2103C20.2646 20.1326 20.4978 20.0548 20.5755 20.1326C20.8087 20.3657 21.1196 20.5989 21.2751 20.8321C21.586 21.2208 21.8192 21.6094 22.0524 22.0758C22.4411 22.8531 22.9074 23.6304 23.2961 24.4077C23.5293 24.8741 23.6847 25.3405 23.9179 25.8068C24.1511 26.2732 24.5398 26.6619 24.8507 27.1283C24.9284 27.206 24.9284 27.2837 24.9284 27.3615C24.773 27.9056 25.1616 27.8278 25.4725 27.8278C26.1721 27.8278 26.8717 27.8278 27.649 27.8278C27.8822 27.6724 28.1931 27.5169 28.4263 27.2837C28.504 27.206 28.504 26.9728 28.4263 26.8951C28.2708 26.5064 28.1154 26.1955 27.8822 25.9623ZM23.9957 17.0233C23.7625 17.1788 23.3738 17.1788 23.0629 17.1788C22.8297 17.1788 22.6743 17.1788 22.4411 17.1788C22.1301 17.1788 21.8192 17.1788 21.5083 17.1011C20.9642 17.1011 20.4201 17.1011 19.876 17.1011C19.6428 17.1011 19.565 17.0233 19.565 16.7902C19.565 16.557 19.565 16.3238 19.565 16.0906C19.565 15.7797 19.4873 15.391 19.4873 15.0801C19.4096 14.6914 19.6428 14.4583 20.0314 14.4583C21.0419 14.4583 22.1301 14.536 23.1406 14.536C23.607 14.536 23.9957 14.536 24.3843 14.7692C24.9284 15.0801 25.0839 15.5465 24.8507 16.0906C24.6175 16.557 24.3066 16.7902 23.9957 17.0233Z" fill="white"/>
<path d="M44.0505 22.9305C43.895 22.5419 43.7395 22.1532 43.5841 21.7646C43.04 20.4432 42.4181 19.1995 41.874 17.8781C41.6408 17.2562 41.3299 16.7121 41.0967 16.0903C40.9412 15.7016 40.7858 15.3907 40.6303 15.0021C40.4749 14.6911 40.3971 14.3025 40.3194 13.9916C40.1639 13.4475 39.9308 12.8256 39.7753 12.2815C39.6976 12.1261 39.5421 11.8929 39.3866 11.8151C39.3089 11.7374 39.1535 11.8929 38.998 11.9706C38.6871 12.0483 38.3762 12.0483 38.0652 12.0483C37.5989 12.0483 37.1325 12.0483 36.6661 12.0483C36.5884 12.0483 36.5106 12.1261 36.4329 12.2038C36.122 12.437 36.0442 12.8256 35.9665 13.1365C35.8111 13.5252 35.6556 13.9138 35.5001 14.3802C35.3447 14.8466 35.2669 15.3907 35.0338 15.8571C34.8006 16.4789 34.4896 17.023 34.2565 17.5672C33.9455 18.1113 33.7123 18.7331 33.4014 19.2772C33.0905 19.8991 32.7019 20.5209 32.7019 21.2205C32.7019 21.3759 32.6241 21.4537 32.5464 21.6091C32.1577 22.3087 31.8468 23.0083 31.7691 23.8633C31.7691 23.941 31.6914 24.0965 31.6136 24.1742C31.3027 24.6406 31.0695 25.1847 31.0695 25.8066C31.0695 26.0397 31.0695 26.2729 30.9918 26.5061C30.9141 26.7393 30.8363 26.9725 31.0695 27.0502C31.6914 27.3612 32.3909 27.3612 33.0128 27.2057C33.246 27.128 33.4014 27.128 33.6346 27.128C33.7123 27.128 33.8678 27.128 33.9455 27.0502C34.2565 26.5061 34.8006 26.1175 34.6451 25.4179C34.6451 25.3402 34.6451 25.2624 34.7228 25.2624C34.956 25.107 34.8783 24.9515 34.8006 24.7183C34.7228 24.4851 34.8783 24.3297 35.1115 24.3297C35.5001 24.3297 35.8888 24.4074 36.1997 24.3297C37.2879 24.0965 38.3762 24.0965 39.4644 24.0965C39.6198 24.0965 39.7753 24.1742 40.0085 24.1742C40.3194 24.2519 40.7081 24.3297 41.019 24.4074C41.0967 24.4074 41.2522 24.4074 41.3299 24.4851C41.5631 24.7961 41.7185 25.107 41.874 25.4179C42.0295 25.7288 42.1072 26.1175 42.2627 26.4284C42.3404 26.5839 42.4958 26.7393 42.6513 26.7393C43.1954 26.817 43.6618 26.817 44.2059 26.817C44.3614 26.817 44.5946 26.6616 44.6723 26.5061C44.75 26.2729 44.8277 26.1175 45.1387 26.2729C45.1387 26.2729 45.2941 26.1952 45.3719 26.1175C45.4496 25.962 45.4496 25.8066 45.4496 25.6511C45.4496 25.107 45.1387 24.6406 44.9055 24.2519C44.5946 23.7856 44.2836 23.3969 44.0505 22.9305ZM39.6198 21.7646C39.1535 21.6869 38.6093 21.6091 38.143 21.6869C37.5988 21.6869 37.1325 21.8423 36.5884 21.8423C36.4329 21.8423 36.2774 21.92 36.1997 21.8423C35.7333 21.7646 35.7333 21.6091 35.8888 21.2982C36.122 20.9096 36.1997 20.5209 36.4329 20.1323C36.5106 19.9768 36.5884 19.8991 36.6661 19.7436C36.977 19.044 37.2879 18.4222 37.5211 17.7226C37.5211 17.6449 37.5211 17.5672 37.5989 17.4894C37.6766 17.4117 37.6766 17.2562 37.7543 17.1785C37.832 17.2562 37.9875 17.334 38.0652 17.4117C38.5316 18.3445 38.998 19.355 39.4644 20.2877C39.6198 20.5986 39.7753 20.9873 39.9308 21.2982C39.9308 21.6869 39.853 21.7646 39.6198 21.7646Z" fill="white"/>
<path d="M72.8877 13.6021C73.0431 12.8248 72.8877 12.4361 72.1104 12.2807C71.9549 12.203 71.7994 12.2807 71.644 12.2807C71.4108 12.2807 71.2553 12.3584 71.0221 12.2807C70.478 12.1252 69.9339 12.0475 69.3121 12.1252C68.0684 12.2807 66.9024 12.2807 65.6588 12.2807C64.6483 12.2807 63.7155 12.2807 62.705 12.2807C62.1609 12.2807 62.0054 12.4361 62.0054 12.9025C61.9277 13.8353 61.85 14.6903 61.85 15.6231C61.85 16.5558 61.9277 17.4886 61.9277 18.3436C61.9277 18.6545 61.85 18.8877 61.85 19.1987C61.85 19.8205 61.9277 20.4423 61.9277 21.0642C61.9277 21.9192 61.85 22.6965 61.85 23.5515C61.85 23.8625 61.85 24.1734 61.7723 24.4843C61.6945 24.7952 61.6168 25.1061 61.5391 25.4948C61.5391 25.8834 61.6168 26.2721 61.6168 26.7385C61.5391 27.3603 61.9277 27.6712 62.6273 27.8267C63.0159 27.9044 63.4823 27.9822 63.871 28.0599C64.4151 28.1376 64.9592 28.2154 65.5033 28.2154C65.9697 28.1376 66.4361 28.2154 66.9024 28.4485C66.9802 28.5263 67.1356 28.604 67.2134 28.5263C67.9129 28.3708 68.5348 28.604 69.2343 28.7595C69.3898 28.8372 69.623 28.8372 69.7785 28.8372C70.2448 28.8372 70.8667 28.6817 71.1776 28.9149C71.644 29.2258 71.8772 29.0704 72.1881 28.8372C72.4213 28.604 72.5767 28.3708 72.3435 28.1376C72.1881 27.9822 72.1881 27.749 72.2658 27.5935C72.4213 27.2826 72.3436 26.9717 72.1104 26.8162C71.7217 26.583 71.3331 26.4276 70.9444 26.2721H70.8667C70.478 26.2721 70.0894 26.2721 69.7007 26.1944C69.3121 26.1166 68.8457 26.0389 68.457 25.9612C67.9129 25.8835 67.3688 25.8834 66.8247 25.8057C66.5138 25.8057 66.2029 25.728 65.9697 25.6503C65.7365 25.6503 65.4256 25.6503 65.2701 25.4948C65.1146 25.4171 64.9592 25.1061 64.9592 24.9507C64.9592 24.4066 65.1147 23.8625 65.1147 23.3184C65.1147 22.6965 65.1146 22.6965 65.7365 22.6965C65.8142 22.6965 65.8142 22.6965 65.892 22.6965C66.9024 22.5411 67.8352 22.6188 68.8457 22.9297C69.0012 22.3856 69.623 21.9192 69.0012 21.2196V21.1419C68.9234 20.5201 68.457 20.1314 67.8352 20.1314C67.1356 20.1314 66.4361 20.1314 65.7365 20.1314C65.2701 20.1314 64.9592 19.7428 65.0369 19.2764C65.1146 18.81 65.1147 18.3436 65.1147 17.8772C65.1147 17.0999 64.9592 16.4004 64.9592 15.6231C64.9592 15.4676 65.1924 15.1567 65.4256 15.1567C65.7365 15.079 66.1251 15.1567 66.5138 15.2344C66.8247 15.2344 67.1356 15.3122 67.4466 15.3122C67.9907 15.2344 68.457 15.1567 69.0012 15.1567C69.7007 15.1567 70.4003 15.2344 71.0221 15.3122C71.5662 15.3899 72.1104 15.6231 72.7322 15.2344C73.0431 15.0012 73.1209 15.0012 73.0431 14.6126C72.8877 14.0685 72.8099 13.8353 72.8877 13.6021Z" fill="white"/>
<path d="M58.6628 11.7371C58.4296 11.7371 58.1964 11.7371 58.041 11.7371C57.7301 11.7371 57.4191 11.6594 57.1082 11.6594C56.6418 11.7371 56.2532 11.8148 55.8645 11.9703C55.7091 12.048 55.6313 12.2035 55.4759 12.3589L55.5536 12.4367C55.4759 12.8253 55.3982 13.1362 55.2427 13.5249C55.0095 14.2245 54.6986 14.8463 54.3877 15.5459C54.3099 15.7013 54.2322 15.9345 54.1545 16.09C53.999 16.6341 53.9213 17.2559 53.7658 17.8C53.6104 18.4996 53.3772 19.1215 53.144 19.821C53.144 19.9765 53.144 20.1319 53.0663 20.2097C52.8331 20.5983 52.5999 20.9092 52.289 21.2979C51.8226 21.9975 51.8226 21.9975 51.4339 21.2202C51.2785 20.9092 51.2007 20.4429 50.9675 20.1319C50.7343 19.821 50.6566 19.5101 50.6566 19.1992C50.6566 19.1215 50.5789 19.0437 50.5789 19.0437C50.4234 18.6551 50.268 18.3442 50.1902 17.9555C49.957 17.2559 49.8016 16.4786 49.5684 15.7791C49.4907 15.3904 49.3352 15.0018 49.1797 14.6131C49.0243 14.2245 48.9466 13.8358 48.7911 13.4472C48.6356 13.0585 48.4024 12.7476 48.247 12.3589C48.0915 11.8926 47.7029 11.5816 47.1588 11.6594C46.8478 11.6594 46.6147 11.6594 46.3037 11.6594C46.1483 11.6594 45.9151 11.6594 45.7596 11.6594C45.5264 11.7371 45.371 11.8148 45.1378 11.8148C44.9046 11.8926 44.7491 11.9703 44.8269 12.2035C44.9046 12.5921 45.0601 12.903 45.2155 13.214C45.4487 13.9135 45.7596 14.5354 45.9928 15.235C46.1483 15.7013 46.3037 16.2454 46.4592 16.7118C46.6924 17.4891 47.081 18.2664 47.2365 19.0437C47.392 19.7433 47.5474 20.3651 47.8583 20.987C48.0915 21.3756 48.247 21.842 48.4802 22.2307C48.7134 22.8525 48.8688 23.4743 49.1797 24.0962C49.4907 24.7958 49.8793 25.3399 50.1902 26.0394C50.3457 26.3504 50.5789 26.5058 50.8898 26.6613C51.4339 26.8945 51.978 26.9722 52.5221 26.8945C52.7553 26.8945 53.0663 26.739 53.144 26.5058C53.5326 25.8062 53.8436 25.1067 54.2322 24.4071C54.3877 24.1739 54.4654 23.9407 54.5431 23.6298C54.7763 22.9302 54.9318 22.2307 55.2427 21.6088C55.5536 20.987 55.8645 20.4429 56.0977 19.821C56.4086 18.966 56.6418 18.0332 56.9528 17.1782C57.1082 16.7896 57.2637 16.4009 57.4191 16.0123C57.4969 15.7013 57.4969 15.3127 57.7301 15.0018C58.1187 14.3799 58.2742 13.7581 58.5074 13.0585C58.5851 12.7476 58.7405 12.5144 58.8183 12.2812C58.896 12.1257 58.8183 11.8926 58.8183 11.7371C58.9737 11.8148 58.8183 11.7371 58.6628 11.7371Z" fill="white"/>
<path d="M13.5794 12.1256C13.6571 11.6592 13.6571 11.6592 13.1907 11.6592C10.0815 11.6592 6.89458 11.6592 3.78538 11.6592C3.16354 11.6592 2.46397 11.6592 1.84213 11.7369C1.60894 11.7369 1.37575 11.8146 1.14256 11.8924C1.06483 11.9701 0.987097 12.1256 0.987097 12.281C0.909366 12.4365 0.909366 12.5142 0.909366 12.6697C0.909366 12.7474 0.753906 12.9029 0.753906 12.9806C0.753906 13.2915 0.831636 13.5247 0.909366 13.7579C0.909366 13.8356 0.909366 13.9134 0.909366 13.9134C0.909366 14.1465 0.753906 14.4575 0.831636 14.5352C0.987097 14.7684 1.22029 14.8461 1.53121 14.8461C1.99759 14.8461 2.46397 14.7684 2.85262 14.6907C3.39673 14.6129 4.01857 14.5352 4.56268 14.4575C4.8736 14.3797 5.26225 14.6129 5.26225 14.9238C5.26225 15.2348 5.26225 15.468 5.26225 15.7789C5.26225 16.4007 4.95133 16.9448 5.18452 17.6444C5.41771 18.2662 5.33998 18.8881 5.33998 19.5877C5.33998 21.2977 5.26225 23.0855 5.26225 24.7956C5.26225 25.4951 5.26225 26.1947 5.26225 26.8943C5.26225 27.4384 5.26225 27.9048 4.79587 28.2934C4.71814 28.4489 4.64041 28.6821 4.64041 28.8375C4.71814 29.3039 4.79587 29.6926 4.8736 30.1589C4.95133 30.3921 4.95133 30.5476 4.79587 30.7808C4.64041 30.9362 4.71814 31.0917 4.95133 31.0917C5.10679 31.0917 5.33998 31.0917 5.49544 31.0917C5.72863 31.0917 6.03955 31.1694 6.19501 31.0917C6.66139 30.8585 7.20551 30.8585 7.59416 30.3921C7.90508 30.0812 8.29373 29.6926 8.216 29.1485C8.216 28.7598 7.98281 28.3712 8.29373 27.9825V27.827C8.29373 27.4384 8.216 27.0497 8.29373 26.6611C8.44919 26.0392 8.37146 25.4174 8.37146 24.7178C8.37146 24.0183 8.44919 23.241 8.44919 22.5414C8.44919 21.7641 8.37146 20.9868 8.37146 20.2095C8.37146 19.6654 8.37146 19.1213 8.29373 18.5772C8.29373 18.2662 8.13827 17.9553 8.13827 17.7221C8.13827 17.4889 8.29373 17.2557 8.29373 16.9448C8.29373 16.323 8.52692 15.7011 8.29373 15.0793C8.216 14.7684 8.52692 14.5352 8.76011 14.5352C9.30422 14.5352 9.92606 14.6129 10.4702 14.5352C11.0143 14.4575 11.6361 14.302 12.1802 14.2243V14.302C12.4134 14.302 12.7243 14.302 12.9575 14.2243C13.2685 14.1465 13.5794 13.6024 13.5016 13.2915C13.5794 12.8251 13.5794 12.5142 13.5794 12.1256Z" fill="white"/>
<path d="M86.2564 28.9934C86.3341 28.6047 86.1786 28.3715 85.8677 28.1383C85.5568 27.9052 85.2459 27.8274 84.8572 27.8274C84.3908 27.8274 83.9245 27.7497 83.4581 27.672C82.8362 27.5942 82.2144 27.5165 81.5926 27.4388C81.2816 27.361 80.9707 27.2056 80.5821 27.2056C80.1157 27.2056 79.727 27.2056 79.3384 26.9724C79.2607 26.8947 79.1052 26.8947 78.9497 26.8947C78.6388 26.9724 78.5611 26.8169 78.5611 26.5837C78.5611 26.2728 78.4834 25.9619 78.4834 25.651C78.4834 25.5733 78.4834 25.5733 78.4834 25.4955C78.5611 25.1846 78.5611 24.796 78.5611 24.485C78.5611 23.9409 78.4834 23.3191 78.4834 22.775C78.4834 22.0754 78.5611 21.4536 78.5611 20.754C78.5611 19.899 78.6388 19.0439 78.6388 18.1889C78.6388 16.7898 78.5611 15.3906 78.5611 13.9137C78.5611 13.7583 78.5611 13.6805 78.5611 13.5251C78.5611 13.2142 78.4834 12.981 78.4056 12.6701C78.3279 12.4369 78.1724 12.2814 78.0947 12.1259C77.7838 12.1259 77.5506 12.1259 77.2397 12.1259C76.9288 12.1259 76.6956 12.0482 76.3847 11.9705C75.5296 11.8928 75.141 12.5146 75.2187 13.0587C75.2964 13.3696 75.3742 13.6805 75.3742 13.9137C75.3742 15.002 75.3742 16.0902 75.3742 17.1784C75.3742 17.878 75.3742 18.6553 75.3742 19.3548C75.5296 20.2099 75.3742 20.9872 75.2964 21.6867C75.2964 21.9199 75.2964 22.1531 75.3742 22.3086C75.7628 23.0082 75.6851 23.7077 75.4519 24.485C75.3742 24.796 75.2964 25.1069 75.3742 25.3401C75.6851 26.4283 75.6073 27.5165 75.7628 28.6047C75.8405 29.1488 76.1515 29.5375 76.6956 29.5375C77.2397 29.6152 77.8615 29.4598 78.4056 29.7707H78.4834C79.1052 29.9261 79.8048 30.0039 80.4266 30.1593C80.5821 30.1593 80.7375 30.3148 80.9707 30.3925C81.1262 30.4702 81.2816 30.4703 81.4371 30.4703C81.748 30.4703 82.0589 30.4702 82.3699 30.548C82.8362 30.7034 83.3026 30.7812 83.8467 30.7034C84.0022 30.7034 84.1577 30.7034 84.2354 30.7812C84.5463 31.0921 84.935 31.0921 85.3236 31.0144C85.4013 31.0144 85.5568 31.0144 85.6345 31.0144C86.1009 31.0921 86.1786 31.0144 86.1786 30.548C86.1786 30.3148 86.0232 30.0816 86.1009 29.9261C86.1786 29.6929 86.1009 29.3043 86.2564 28.9934Z" fill="white"/>
<path d="M63.0945 5.67419C63.3277 6.45149 63.4054 7.22879 63.4054 8.00609C63.4054 8.31701 63.4054 8.62793 63.4054 8.93885C63.4054 9.17204 63.4831 9.24977 63.6386 9.24977C64.1827 9.24977 64.6491 9.24977 65.1932 9.3275C65.2709 9.3275 65.2709 9.24977 65.3487 9.24977C65.6596 9.09431 65.8928 9.01658 66.2037 8.86112C66.3591 8.78339 66.5146 8.62793 66.6701 8.47247C66.7478 8.39474 66.8255 8.31701 66.8255 8.23928C67.0587 7.85063 67.2919 7.53971 67.3696 7.15106C67.6028 6.60695 67.2142 6.14057 66.8255 5.75192C66.4369 5.28554 66.3592 5.05235 66.6701 4.50824C66.9033 4.11959 66.5146 3.03137 66.0482 2.8759H65.9705C65.3487 2.64271 64.6491 2.72044 64.0272 2.72044C63.5609 2.72044 63.0168 3.34229 63.0945 3.80867C63.0945 3.96413 63.0945 4.11959 63.0945 4.19732C63.0945 4.74143 62.939 5.28554 63.0945 5.67419ZM66.2037 6.84014C66.2814 7.38425 65.8928 7.92836 65.3487 8.00609C65.1932 8.00609 64.96 8.08382 64.8045 8.08382C64.4936 8.16155 64.3382 8.08382 64.3382 7.7729C64.3382 7.61744 64.3382 7.46198 64.3382 7.30652C64.3382 6.52922 64.3382 6.52922 65.1932 6.52922C65.4264 6.52922 65.6596 6.52922 65.8928 6.52922C65.9705 6.52922 66.2037 6.68468 66.2037 6.84014ZM64.1827 4.11959C64.2604 3.73094 64.4159 3.65321 64.8045 3.73094C64.96 3.73094 65.0377 3.80867 65.1932 3.73094C65.5041 3.73094 65.6596 3.8864 65.5819 4.11959C65.5041 4.35278 65.4264 4.58597 65.3487 4.74143C65.1932 5.05235 64.5714 5.28554 64.2604 5.20781C64.105 5.13008 64.0272 4.97462 64.0272 4.89689C64.105 4.58597 64.105 4.35278 64.1827 4.11959Z" fill="white"/>
<path d="M47.2355 9.01684C47.391 9.1723 47.6242 9.25003 47.8574 9.32776C47.9351 9.1723 48.0128 9.09457 48.0906 9.01684C48.4015 8.78365 48.4792 8.47273 48.246 8.16181C48.1683 8.00635 48.246 7.85089 48.3238 7.6177C48.3238 7.38451 48.4015 7.15132 48.3238 6.91813C48.246 6.52948 48.1683 6.0631 48.0906 5.67445C48.0906 5.59672 48.1683 5.44126 48.1683 5.44126C48.1683 5.44126 48.3238 5.44126 48.4015 5.51899C48.4792 5.59672 48.557 5.75218 48.557 5.82991C48.7124 6.14083 48.7901 6.37402 48.9456 6.68494C49.2565 7.30678 49.5674 8.00635 49.8784 8.62819C49.9561 8.86138 50.3447 9.09457 50.5779 9.01684C50.7334 8.93911 50.8889 8.62819 50.8889 8.395C50.8889 7.69543 50.7334 6.99586 50.8111 6.29629C50.8111 5.44126 50.9666 4.58623 51.122 3.65346C51.1998 3.10935 51.1998 3.10935 50.6557 2.79843C50.3447 2.64297 50.1116 2.7207 50.1116 3.03162C50.0338 3.34254 50.1116 3.65346 50.0338 3.88665C49.8784 4.35304 49.8006 4.81942 49.8784 5.2858C49.8784 5.44126 49.8784 5.67445 49.8784 5.82991C49.8006 5.82991 49.8006 5.82991 49.7229 5.82991C49.6452 5.75218 49.5674 5.67445 49.4897 5.59672C49.1011 4.81942 48.7124 4.04211 48.4015 3.26481C48.1683 2.87616 48.1683 2.7207 47.4687 2.7207C47.2355 2.7207 47.1578 2.79843 47.1578 3.03162C47.1578 3.65346 47.0801 4.27531 47.0801 4.81942C47.0801 6.0631 47.0801 7.30678 47.0801 8.55046C47.0801 8.78365 47.1578 8.93911 47.2355 9.01684Z" fill="white"/>
<path d="M15.9883 8.23893C16.066 8.31666 16.066 8.39439 16.066 8.47212C16.066 8.86077 16.4547 9.24942 16.7656 9.24942C17.0765 9.24942 17.3097 8.86077 17.3097 8.47212C17.3097 8.39439 17.3874 8.31666 17.3874 8.31666C17.3874 7.61709 17.3874 6.91752 17.3874 6.21795C17.3874 6.14022 17.3874 5.98476 17.4652 5.98476C17.5429 5.98476 17.6206 5.98476 17.6983 6.06249C17.7761 6.14022 17.8538 6.21795 17.8538 6.37341C18.1647 7.15071 18.5534 7.92801 18.8643 8.70531C19.0975 9.24942 19.4861 9.40488 20.0302 9.09396C20.2634 8.9385 20.3412 8.86077 20.108 8.62758C20.0302 8.54985 19.9525 8.47212 19.9525 8.39439C19.6416 7.77255 19.4084 7.07298 19.0975 6.45114C18.942 6.14022 19.0198 5.98476 19.3307 5.8293C19.2529 5.67384 19.4084 5.51838 19.5639 5.44065C19.7193 5.20746 19.8748 4.97427 20.0302 4.74108C20.2634 4.50789 20.1857 4.2747 20.0302 4.04151C19.9525 3.96378 19.8748 3.88605 19.8748 3.80832C19.6416 2.95328 18.942 2.87555 18.2425 2.72009C17.7761 2.64236 17.3097 2.72009 16.8433 2.72009C16.6879 2.72009 16.5324 2.79782 16.3769 2.95328C15.9106 3.41966 16.066 3.96378 16.066 4.50789C16.066 4.97427 16.1437 5.44065 16.1437 5.90703C16.2215 6.76206 16.066 7.46163 15.9883 8.23893ZM17.232 4.43016C17.232 3.96378 17.3874 3.88605 17.8538 3.88605C18.087 3.88605 18.2425 3.88605 18.4756 3.96378C18.7866 4.04151 18.942 4.2747 18.8643 4.58562C18.7866 4.81881 18.3979 4.97427 18.1647 4.89654C18.087 4.89654 17.9315 4.81881 17.8538 4.81881C17.3097 4.89654 17.232 4.81881 17.232 4.43016Z" fill="white"/>
<path d="M40.7837 6.76282C40.6282 7.38466 40.8614 8.0065 41.0169 8.55061C41.0169 8.62835 41.0946 8.7838 41.1723 8.7838C41.561 8.93927 41.8719 9.17246 42.2606 9.25019C42.8047 9.40565 43.7374 9.017 44.0484 8.47288C44.1261 8.31742 44.3593 8.08423 44.3593 7.92877C44.437 6.84055 44.437 5.6746 44.5147 4.58638C44.5147 4.50865 44.5147 4.43092 44.5147 4.43092C44.5147 3.49816 44.0484 2.79859 43.1156 2.48767C42.8047 2.40994 41.6387 2.72086 41.4055 3.03178C40.7837 3.73135 40.706 4.58638 40.7837 5.51914C40.7837 5.90779 40.8614 6.37417 40.7837 6.76282ZM42.1828 3.73135C42.2606 3.73135 42.3383 3.73135 42.3383 3.73135C42.4938 3.57589 42.6492 3.42043 42.8824 3.57589C43.1933 3.73135 43.4265 4.04227 43.3488 4.43092C43.3488 4.66411 43.3488 4.8973 43.3488 5.05276H43.4265C43.3488 5.90779 43.2711 6.76282 43.1156 7.54012C43.0379 7.92877 42.6492 8.23969 42.416 8.16196C41.9496 8.0065 41.8719 7.77331 41.9496 7.2292C42.0274 6.84055 41.9496 6.37417 41.9496 5.98552C41.9496 5.36368 41.8719 4.74184 41.7942 4.12C41.7942 3.88681 41.8719 3.73135 42.1828 3.73135Z" fill="white"/>
<path d="M31.5341 9.01611C31.5341 9.01611 31.6118 9.01611 31.6896 8.93838C32.0782 8.78292 32.5446 7.77243 32.3891 7.46151C32.3114 7.30605 32.2337 7.07286 32.1559 6.9174C31.845 6.21783 31.3009 5.75145 30.6013 5.59599C29.824 5.44053 29.4354 4.74096 29.9018 4.04139C30.135 3.73047 30.4459 3.65274 30.9123 3.73047C31.1455 3.88593 31.0677 4.11912 31.0677 4.35231C31.0677 4.74096 31.5341 5.12961 31.9228 5.05188C32.0005 5.05188 32.1559 4.89642 32.1559 4.81869C32.0782 4.43004 32.0782 3.96366 31.9228 3.65274C31.6896 3.10862 31.2232 2.7977 30.5236 2.7977C30.0572 2.64224 29.5909 2.95316 29.2799 3.18635C29.0467 3.49727 28.8135 3.88593 28.7358 4.27458C28.5026 4.81869 28.7358 5.3628 29.0467 5.82918C29.2799 6.21783 29.7463 6.52875 30.135 6.60648C30.6791 6.68421 30.9123 6.99513 31.1455 7.38378C31.2232 7.53924 31.2232 7.77243 31.1455 7.92789C31.0677 8.31654 30.6791 8.472 30.4459 8.31654C30.135 8.16108 29.824 7.85016 29.7463 7.53924C29.5908 6.99513 29.6686 6.99513 29.1245 7.15059C28.5804 7.30605 28.4249 7.85016 28.8135 8.23881C29.0467 8.54973 29.3577 8.86065 29.6686 9.09384C29.7463 9.17157 29.9018 9.32703 29.9018 9.32703C30.4459 9.17157 31.0677 9.63795 31.5341 9.01611Z" fill="white"/>
<path d="M55.2438 8.23871C55.0107 8.16098 54.5443 7.53914 54.5443 7.30595C54.622 7.22822 54.4665 6.99503 54.3888 6.99503C54.1556 7.07276 53.767 7.07276 53.6115 7.30595C53.3783 7.61687 53.5338 8.23871 53.9224 8.54963C54.3888 8.93828 54.7775 9.40466 55.477 9.2492C55.5548 9.2492 55.7102 9.32693 55.788 9.32693C55.8657 9.32693 56.0211 9.32693 56.0211 9.2492C56.3321 8.93828 56.7985 8.70509 57.0316 8.23871C57.2648 7.85006 57.2648 7.61687 57.1094 7.22822C57.0316 7.07276 56.9539 6.9173 56.8762 6.83957C56.5653 6.21773 56.0989 5.67362 55.3216 5.59589C54.8552 5.51816 54.622 5.20724 54.4665 4.81859C54.2334 4.35221 54.4666 3.96355 55.0107 3.80809C55.1661 3.73036 55.3216 3.73036 55.5548 3.73036C55.9434 3.73036 56.0211 3.88582 56.0211 4.19675C56.0211 4.81859 56.0212 4.89632 56.643 5.05178C56.9539 5.12951 57.1871 4.97405 57.1094 4.5854C57.0316 4.42994 57.0316 4.19675 56.9539 4.04128C56.8762 3.5749 56.2543 2.87533 55.8657 2.7976C54.6997 2.56441 53.6115 3.49717 53.6115 4.74086C53.4561 5.3627 53.8447 5.82908 54.3111 6.21773C54.5443 6.37319 54.7775 6.60638 55.0884 6.60638C55.6325 6.60638 55.788 6.99503 55.9434 7.22822C56.0989 7.38368 56.0989 7.6946 56.0211 7.85006C55.9434 8.23871 55.6325 8.39417 55.2438 8.23871Z" fill="white"/>
<path d="M23.0632 9.01647C23.4519 9.01647 23.8405 9.01647 24.1515 9.01647C24.5401 9.01647 25.0065 9.01647 25.3952 9.01647C25.8615 9.01647 26.0947 8.70555 25.8615 8.47236C25.6283 8.23917 25.3952 7.92825 25.0065 7.92825C24.5401 7.92825 24.1515 7.92825 23.6851 7.92825C23.6074 7.92825 23.3742 7.85052 23.3742 7.77279C23.2964 7.30641 23.6074 6.91775 24.0737 6.91775C24.3069 6.91775 24.4624 6.91776 24.6956 6.84003C24.7733 6.7623 24.9288 6.45137 24.851 6.45137C24.6178 6.14045 24.4624 5.7518 23.9183 5.90726C23.5296 5.98499 23.4519 5.82953 23.5296 5.44088C23.6074 5.20769 23.6074 4.9745 23.5296 4.81904C23.4519 4.27493 23.5296 4.11947 24.0737 4.1972C24.5401 4.27493 25.0065 4.27493 25.5506 4.27493C25.9393 4.27493 26.017 3.96401 26.0947 3.65309C26.2502 3.26444 26.017 3.10898 25.7838 3.10898C25.4729 3.03125 25.162 3.03125 24.851 3.03125C24.3069 3.03125 23.6851 3.10898 23.141 3.10898C22.6746 3.10898 22.5191 3.26444 22.5191 3.73082C22.5191 4.66358 22.5191 5.59634 22.5191 6.5291C22.5191 7.15095 22.4414 7.77279 22.4414 8.47236C22.4414 8.93874 22.5969 9.01647 23.0632 9.01647Z" fill="white"/>
<path d="M76.1535 9.01666C76.2312 9.01666 76.3867 9.01666 76.4644 9.01666C77.0085 9.01666 77.5526 9.01666 78.0967 9.01666C78.4076 9.01666 78.874 8.70573 78.7186 8.55027C78.5631 8.31708 78.3299 8.00616 78.019 8.00616C77.5526 8.00616 77.0862 8.00616 76.5421 8.00616C76.4644 8.00616 76.2312 7.92843 76.2312 7.8507C76.2312 7.22886 76.2312 6.91794 77.0085 6.91794C77.0862 6.91794 77.2417 6.91794 77.3194 6.91794C77.7081 6.76248 77.7858 6.60702 77.6303 6.21837C77.4749 5.82972 77.2417 5.75199 76.853 5.75199C76.6976 5.75199 76.5421 5.75199 76.3867 5.75199C76.3867 5.28561 76.3867 4.89696 76.3867 4.50831C76.3867 3.9642 76.5421 3.88647 77.0085 3.9642C77.4749 4.04193 77.9413 4.04193 78.4854 4.04193C78.874 4.04193 78.874 3.65328 78.874 3.42009C78.874 3.26463 78.7186 3.03144 78.5631 2.95371C78.2522 2.87598 77.9413 2.87598 77.6303 2.87598C77.0862 2.87598 76.4644 2.95371 75.9203 2.95371C75.3762 2.95371 75.2207 3.10917 75.2207 3.65328C75.2984 3.88647 75.3762 4.04193 75.3762 4.11966C75.3762 4.89696 75.2984 5.67426 75.2984 6.45156C75.2984 6.99567 75.2984 7.53978 75.2984 8.08389C75.2984 9.01665 75.2207 9.01666 76.1535 9.01666Z" fill="white"/>
<path d="M35.655 8.93914C35.8105 8.86141 35.8105 8.62822 35.8105 8.47276C35.8105 8.16184 35.7328 7.85092 35.7328 7.54C35.7328 6.84043 35.7328 6.84043 36.4323 6.91816H36.5101C36.9764 6.99589 37.2874 6.60724 37.5983 6.37405C38.1424 5.9854 38.2201 5.36356 38.2201 4.50853C38.2201 4.35307 38.2201 3.96442 38.0647 3.65349C37.7537 2.95392 37.0542 2.72073 36.2769 2.79846C35.9659 2.87619 35.5773 2.79846 35.2664 2.79846C34.9555 2.79846 34.7223 2.95392 34.7223 3.26484C34.7223 3.57576 34.8 3.88669 34.8 4.19761C34.8 4.35307 34.7223 4.50853 34.7223 4.66399C34.8777 5.90767 34.8 7.22908 34.6445 8.47276C34.6445 8.70595 34.7223 9.01687 34.8777 9.17233C35.1886 9.40552 35.4218 9.01687 35.655 8.93914ZM36.4323 3.73123C37.1319 3.73123 37.2874 3.80896 37.2874 4.19761C37.2874 4.58626 37.2874 4.89718 37.2096 5.28583C37.1319 5.59675 36.5101 5.82994 36.1214 5.75221C35.8105 5.67448 35.7328 5.44129 35.8105 5.05264C35.8105 4.89718 35.8882 4.66399 35.8105 4.50853C35.655 3.73123 35.655 3.73123 36.4323 3.73123Z" fill="white"/>
<path d="M72.5752 8.00646C72.1089 8.00646 71.6425 8.08419 71.0984 8.08419C70.7874 8.08419 70.7097 7.92873 70.7097 7.69554C70.7097 7.22916 70.7874 6.76278 70.7874 6.2964C70.7874 5.75229 70.7097 5.20818 70.7097 4.66407C70.7097 4.27541 70.7097 3.80903 70.7097 3.42038C70.7097 3.03173 70.5542 2.87627 70.0879 2.954C69.7769 2.954 69.6992 3.18719 69.6992 3.42038C69.6992 3.80903 69.6992 4.27541 69.6992 4.66407C69.6992 5.90775 69.6992 7.15143 69.6992 8.31738C69.6992 8.93922 69.777 9.01695 70.3988 8.93922C70.4765 8.93922 70.5543 8.93922 70.632 8.93922C71.2538 8.93922 71.8757 8.93922 72.4198 8.93922C72.7307 8.93922 73.1193 8.6283 73.0416 8.31738C73.1971 7.92873 72.8862 8.00646 72.5752 8.00646Z" fill="white"/>
<path d="M2.61912 3.80878C3.31869 3.80878 4.01826 3.80878 4.71783 3.80878C4.87329 3.80878 5.02875 3.73105 5.18421 3.65331C4.87329 2.87601 4.6401 2.25417 4.40691 1.5546C4.25145 1.16595 4.17372 0.699571 4.01826 0.31092C3.94053 0.15546 3.78507 0.0777301 3.62961 0C3.55188 0.0777301 3.47415 0.23319 3.39642 0.31092C3.24096 0.777301 3.0855 1.16595 2.93004 1.5546C2.77458 1.86552 2.61912 2.17644 2.61912 2.48736C2.61912 2.72055 2.54139 2.95374 2.38593 3.1092C2.23047 3.26466 2.23047 3.49785 2.23047 3.65331C2.3082 3.73105 2.54139 3.80878 2.61912 3.80878Z" fill="white"/>
<path d="M5.80601 9.40562C5.96147 9.40562 6.0392 9.40562 6.19466 9.40562C6.58331 9.40562 7.04969 9.48335 7.43834 9.48335C7.5938 9.48335 7.67153 9.48335 7.82699 9.48335C8.3711 9.32789 8.44883 9.25016 8.06018 8.78378C7.98245 8.70605 7.98245 8.55059 7.90472 8.39513C7.90472 8.23967 7.82699 8.08421 7.82699 7.92875C7.67153 7.30691 7.28288 6.60734 7.20515 5.90777C7.20515 5.83004 6.97196 5.67458 6.89423 5.59685C6.66104 5.51912 6.58331 5.67458 6.50558 5.83004C6.35012 6.29642 6.50558 6.91826 5.96147 7.22918V7.30691C5.80601 7.85102 5.57282 8.39513 5.41736 8.93924C5.33963 9.0947 5.41736 9.25016 5.41736 9.40562C5.49509 9.40562 5.65055 9.40562 5.80601 9.40562Z" fill="white"/>
<path d="M7.43736 4.50779C7.59282 4.43006 7.82601 4.35233 7.98147 4.19687C8.13693 4.11914 8.29239 3.96368 8.44785 4.19687C8.52558 4.2746 8.68104 4.2746 8.75877 4.2746C8.91423 4.2746 9.06969 4.35233 9.30288 4.35233C9.45834 4.35233 9.6138 4.35233 9.69153 4.2746C9.76926 4.19687 9.76926 4.04141 9.69153 3.88595C9.6138 3.57502 9.45834 3.2641 9.38061 3.03091C9.30288 2.79772 9.14742 2.64226 9.06969 2.40907C8.91423 1.86496 8.75877 1.32085 8.60331 0.776741C8.52558 0.621281 8.37012 0.54355 8.29239 0.46582C8.29239 0.46582 8.13693 0.621281 8.0592 0.699011C7.98147 0.932201 7.90374 1.08766 7.90374 1.16539C7.74828 1.55404 7.59282 1.94269 7.51509 2.25361C7.43736 2.71999 7.2819 3.18637 7.04871 3.65275C6.89325 3.80822 6.89325 4.11914 6.97098 4.35233C6.97098 4.43006 7.20417 4.43006 7.43736 4.50779Z" fill="white"/>
<path d="M1.60864 8.39461C1.7641 8.39461 1.99729 8.23915 2.15275 8.23915C2.61914 8.23915 3.16325 8.31688 3.62963 8.39461C4.09601 8.39461 4.25147 8.23915 4.09601 7.92823C3.94055 7.46185 3.70736 6.99547 3.47417 6.45136C3.39644 6.37363 3.39644 6.2959 3.39644 6.21817C3.39644 5.67406 3.24098 5.20768 2.93006 4.7413C2.7746 4.50811 2.61914 4.50811 2.54141 4.7413C2.30822 5.20768 2.15275 5.67406 1.99729 6.06271C1.7641 6.68455 1.53091 7.30639 1.29772 7.92823C1.14226 8.23915 1.21999 8.47234 1.60864 8.39461Z" fill="white"/>
<path d="M9.69168 8.31738C9.76941 8.39511 9.84714 8.47284 10.0026 8.47284C10.7022 8.47284 11.4017 8.23965 12.2568 8.47284C12.5677 8.47284 12.7232 8.31738 12.5677 7.92873C12.3345 7.46235 12.1013 6.91824 11.9459 6.45186C11.8681 6.37413 11.9459 6.21866 11.8681 6.14093C11.8681 6.0632 11.7904 5.90774 11.7904 5.83001C11.7127 5.51909 11.6349 5.20817 11.4795 4.97498C11.4017 4.81952 11.2463 4.74179 11.1686 4.66406C11.0908 4.74179 11.0131 4.89725 10.9354 4.97498C10.8576 5.05271 10.9354 5.20817 10.8576 5.2859C10.7022 5.67455 10.469 6.14093 10.3913 6.52958C10.3135 7.0737 10.1581 7.54008 9.76941 8.00646C9.61395 8.00646 9.61395 8.23965 9.69168 8.31738Z" fill="white"/>
<path d="M60.2957 3.96387C59.907 3.96387 59.6738 4.11933 59.6738 4.43025C59.6738 4.8189 59.6738 5.20755 59.6738 5.51847C59.6738 6.14031 59.6738 6.68442 59.6738 7.30626H59.7516C59.7516 7.77264 59.6738 8.23902 59.6738 8.7054C59.6738 9.01632 59.8293 9.24951 60.0625 9.24951C60.3734 9.24951 60.6066 8.93859 60.6066 8.54994C60.6066 7.77264 60.6066 6.91761 60.6066 6.14031C60.6066 5.51847 60.6066 4.97436 60.6066 4.35252C60.6066 4.19706 60.6066 3.96387 60.2957 3.96387Z" fill="white"/>
<path d="M60.0621 2.56445C59.8289 2.56445 59.5957 2.87537 59.5957 3.18629C59.5957 3.57494 59.7512 3.7304 60.2175 3.7304C60.373 3.7304 60.6062 3.41948 60.6062 3.18629C60.6839 2.79764 60.4507 2.56445 60.0621 2.56445Z" fill="white"/>
</g>
<defs>
<clipPath id="clip0_147_53172">
<rect width="85.5031" height="31.092" fill="white" transform="translate(0.753906)"/>
</clipPath>
</defs>
</svg>
