<svg width="95" height="94" viewBox="0 0 95 94" fill="none" xmlns="http://www.w3.org/2000/svg">
<path d="M47.5 45.5C45.5109 45.5 43.6032 44.7098 42.1967 43.3033C40.7902 41.8968 40 39.9891 40 38C40 36.0109 40.7902 34.1032 42.1967 32.6967C43.6032 31.2902 45.5109 30.5 47.5 30.5C49.4891 30.5 51.3968 31.2902 52.8033 32.6967C54.2098 34.1032 55 36.0109 55 38C55 38.9849 54.806 39.9602 54.4291 40.8701C54.0522 41.7801 53.4997 42.6069 52.8033 43.3033C52.1069 43.9997 51.2801 44.5522 50.3701 44.9291C49.4602 45.306 48.4849 45.5 47.5 45.5M47.5 17C41.9305 17 36.589 19.2125 32.6508 23.1508C28.7125 27.089 26.5 32.4305 26.5 38C26.5 53.75 47.5 77 47.5 77C47.5 77 68.5 53.75 68.5 38C68.5 32.4305 66.2875 27.089 62.3492 23.1508C58.411 19.2125 53.0695 17 47.5 17V17Z" fill="#70889E"/>
</svg>
